G04 EAGLE Gerber RS-274X export*
G75*
%MOMM*%
%FSLAX34Y34*%
%LPD*%
%INMechanical*%
%IPPOS*%
%AMOC8*
5,1,8,0,0,1.08239X$1,22.5*%
G01*
%ADD10C,0.000000*%
%ADD11C,0.254000*%


D10*
X0Y0D02*
X266500Y0D01*
X266500Y1000000D01*
X0Y1000000D01*
X0Y0D01*
X111397Y720364D02*
X111389Y720483D01*
X111386Y720602D01*
X111385Y720721D01*
X111389Y720840D01*
X111397Y720958D01*
X111408Y721077D01*
X111423Y721195D01*
X111442Y721312D01*
X111465Y721429D01*
X111491Y721545D01*
X111521Y721660D01*
X111555Y721774D01*
X111592Y721887D01*
X111633Y721999D01*
X111678Y722109D01*
X111726Y722218D01*
X111778Y722325D01*
X111833Y722431D01*
X111891Y722535D01*
X111952Y722637D01*
X112017Y722736D01*
X112085Y722834D01*
X112156Y722929D01*
X112231Y723022D01*
X112308Y723113D01*
X112388Y723201D01*
X112470Y723287D01*
X112556Y723370D01*
X112644Y723450D01*
X112734Y723527D01*
X112827Y723601D01*
X112922Y723672D01*
X113020Y723741D01*
X113120Y723806D01*
X113221Y723867D01*
X113325Y723926D01*
X113431Y723981D01*
X113538Y724033D01*
X113646Y724081D01*
X113757Y724126D01*
X113868Y724167D01*
X113981Y724204D01*
X114095Y724238D01*
X114210Y724269D01*
X114326Y724295D01*
X114443Y724318D01*
X114561Y724337D01*
X114679Y724352D01*
X114797Y724364D01*
X138797Y724364D01*
X138916Y724351D01*
X139035Y724334D01*
X139153Y724312D01*
X139270Y724287D01*
X139387Y724258D01*
X139502Y724226D01*
X139617Y724189D01*
X139730Y724149D01*
X139842Y724105D01*
X139952Y724058D01*
X140060Y724007D01*
X140167Y723952D01*
X140272Y723894D01*
X140375Y723833D01*
X140476Y723768D01*
X140575Y723700D01*
X140672Y723629D01*
X140766Y723555D01*
X140858Y723477D01*
X140947Y723397D01*
X141033Y723314D01*
X141117Y723228D01*
X141198Y723139D01*
X141276Y723048D01*
X141350Y722954D01*
X141422Y722858D01*
X141491Y722759D01*
X141556Y722658D01*
X141618Y722556D01*
X141677Y722451D01*
X141732Y722344D01*
X141783Y722236D01*
X141831Y722126D01*
X141876Y722015D01*
X141916Y721902D01*
X141953Y721788D01*
X141987Y721672D01*
X142016Y721556D01*
X142042Y721439D01*
X142063Y721321D01*
X142081Y721202D01*
X142095Y721083D01*
X142106Y720963D01*
X142112Y720843D01*
X142114Y720723D01*
X142112Y720603D01*
X142107Y720484D01*
X142097Y720364D01*
X142107Y720244D01*
X142112Y720125D01*
X142114Y720005D01*
X142112Y719885D01*
X142106Y719765D01*
X142095Y719645D01*
X142081Y719526D01*
X142063Y719407D01*
X142042Y719289D01*
X142016Y719172D01*
X141987Y719056D01*
X141953Y718940D01*
X141916Y718826D01*
X141876Y718713D01*
X141831Y718602D01*
X141783Y718492D01*
X141732Y718384D01*
X141677Y718277D01*
X141618Y718172D01*
X141556Y718070D01*
X141491Y717969D01*
X141422Y717870D01*
X141350Y717774D01*
X141276Y717680D01*
X141198Y717589D01*
X141117Y717500D01*
X141033Y717414D01*
X140947Y717331D01*
X140858Y717251D01*
X140766Y717173D01*
X140672Y717099D01*
X140575Y717028D01*
X140476Y716960D01*
X140375Y716895D01*
X140272Y716834D01*
X140167Y716776D01*
X140060Y716721D01*
X139952Y716670D01*
X139842Y716623D01*
X139730Y716579D01*
X139617Y716539D01*
X139502Y716502D01*
X139387Y716470D01*
X139270Y716441D01*
X139153Y716416D01*
X139035Y716394D01*
X138916Y716377D01*
X138797Y716364D01*
X114797Y716364D01*
X114679Y716376D01*
X114561Y716391D01*
X114443Y716410D01*
X114326Y716433D01*
X114210Y716459D01*
X114095Y716490D01*
X113981Y716524D01*
X113868Y716561D01*
X113757Y716602D01*
X113646Y716647D01*
X113538Y716695D01*
X113431Y716747D01*
X113325Y716802D01*
X113221Y716861D01*
X113120Y716922D01*
X113020Y716987D01*
X112922Y717056D01*
X112827Y717127D01*
X112734Y717201D01*
X112644Y717278D01*
X112556Y717358D01*
X112470Y717441D01*
X112388Y717527D01*
X112308Y717615D01*
X112231Y717706D01*
X112156Y717799D01*
X112085Y717894D01*
X112017Y717992D01*
X111952Y718091D01*
X111891Y718193D01*
X111833Y718297D01*
X111778Y718403D01*
X111726Y718510D01*
X111678Y718619D01*
X111633Y718729D01*
X111592Y718841D01*
X111555Y718954D01*
X111521Y719068D01*
X111491Y719183D01*
X111465Y719299D01*
X111442Y719416D01*
X111423Y719533D01*
X111408Y719651D01*
X111397Y719770D01*
X111389Y719888D01*
X111385Y720007D01*
X111386Y720126D01*
X111389Y720245D01*
X111397Y720364D01*
X115152Y604222D02*
X115034Y604210D01*
X114916Y604195D01*
X114798Y604176D01*
X114681Y604153D01*
X114565Y604127D01*
X114450Y604096D01*
X114336Y604062D01*
X114223Y604025D01*
X114112Y603984D01*
X114001Y603939D01*
X113893Y603891D01*
X113786Y603839D01*
X113680Y603784D01*
X113576Y603725D01*
X113475Y603664D01*
X113375Y603599D01*
X113277Y603530D01*
X113182Y603459D01*
X113089Y603385D01*
X112999Y603308D01*
X112911Y603228D01*
X112825Y603145D01*
X112743Y603059D01*
X112663Y602971D01*
X112586Y602880D01*
X112511Y602787D01*
X112440Y602692D01*
X112372Y602594D01*
X112307Y602495D01*
X112246Y602393D01*
X112188Y602289D01*
X112133Y602183D01*
X112081Y602076D01*
X112033Y601967D01*
X111988Y601857D01*
X111947Y601745D01*
X111910Y601632D01*
X111876Y601518D01*
X111846Y601403D01*
X111820Y601287D01*
X111797Y601170D01*
X111778Y601053D01*
X111763Y600935D01*
X111752Y600816D01*
X111744Y600698D01*
X111740Y600579D01*
X111741Y600460D01*
X111744Y600341D01*
X111752Y600222D01*
X115152Y604222D02*
X139152Y604222D01*
X139271Y604209D01*
X139390Y604192D01*
X139508Y604170D01*
X139625Y604145D01*
X139742Y604116D01*
X139857Y604084D01*
X139972Y604047D01*
X140085Y604007D01*
X140197Y603963D01*
X140307Y603916D01*
X140415Y603865D01*
X140522Y603810D01*
X140627Y603752D01*
X140730Y603691D01*
X140831Y603626D01*
X140930Y603558D01*
X141027Y603487D01*
X141121Y603413D01*
X141213Y603335D01*
X141302Y603255D01*
X141388Y603172D01*
X141472Y603086D01*
X141553Y602997D01*
X141631Y602906D01*
X141705Y602812D01*
X141777Y602716D01*
X141846Y602617D01*
X141911Y602516D01*
X141973Y602414D01*
X142032Y602309D01*
X142087Y602202D01*
X142138Y602094D01*
X142186Y601984D01*
X142231Y601873D01*
X142271Y601760D01*
X142308Y601646D01*
X142342Y601530D01*
X142371Y601414D01*
X142397Y601297D01*
X142418Y601179D01*
X142436Y601060D01*
X142450Y600941D01*
X142461Y600821D01*
X142467Y600701D01*
X142469Y600581D01*
X142467Y600461D01*
X142462Y600342D01*
X142452Y600222D01*
X142462Y600102D01*
X142467Y599983D01*
X142469Y599863D01*
X142467Y599743D01*
X142461Y599623D01*
X142450Y599503D01*
X142436Y599384D01*
X142418Y599265D01*
X142397Y599147D01*
X142371Y599030D01*
X142342Y598914D01*
X142308Y598798D01*
X142271Y598684D01*
X142231Y598571D01*
X142186Y598460D01*
X142138Y598350D01*
X142087Y598242D01*
X142032Y598135D01*
X141973Y598030D01*
X141911Y597928D01*
X141846Y597827D01*
X141777Y597728D01*
X141705Y597632D01*
X141631Y597538D01*
X141553Y597447D01*
X141472Y597358D01*
X141388Y597272D01*
X141302Y597189D01*
X141213Y597109D01*
X141121Y597031D01*
X141027Y596957D01*
X140930Y596886D01*
X140831Y596818D01*
X140730Y596753D01*
X140627Y596692D01*
X140522Y596634D01*
X140415Y596579D01*
X140307Y596528D01*
X140197Y596481D01*
X140085Y596437D01*
X139972Y596397D01*
X139857Y596360D01*
X139742Y596328D01*
X139625Y596299D01*
X139508Y596274D01*
X139390Y596252D01*
X139271Y596235D01*
X139152Y596222D01*
X115152Y596222D01*
X115034Y596234D01*
X114916Y596249D01*
X114798Y596268D01*
X114681Y596291D01*
X114565Y596317D01*
X114450Y596348D01*
X114336Y596382D01*
X114223Y596419D01*
X114112Y596460D01*
X114001Y596505D01*
X113893Y596553D01*
X113786Y596605D01*
X113680Y596660D01*
X113576Y596719D01*
X113475Y596780D01*
X113375Y596845D01*
X113277Y596914D01*
X113182Y596985D01*
X113089Y597059D01*
X112999Y597136D01*
X112911Y597216D01*
X112825Y597299D01*
X112743Y597385D01*
X112663Y597473D01*
X112586Y597564D01*
X112511Y597657D01*
X112440Y597752D01*
X112372Y597850D01*
X112307Y597949D01*
X112246Y598051D01*
X112188Y598155D01*
X112133Y598261D01*
X112081Y598368D01*
X112033Y598477D01*
X111988Y598587D01*
X111947Y598699D01*
X111910Y598812D01*
X111876Y598926D01*
X111846Y599041D01*
X111820Y599157D01*
X111797Y599274D01*
X111778Y599391D01*
X111763Y599509D01*
X111752Y599628D01*
X111744Y599746D01*
X111740Y599865D01*
X111741Y599984D01*
X111744Y600103D01*
X111752Y600222D01*
X114797Y279864D02*
X114679Y279852D01*
X114561Y279837D01*
X114443Y279818D01*
X114326Y279795D01*
X114210Y279769D01*
X114095Y279738D01*
X113981Y279704D01*
X113868Y279667D01*
X113757Y279626D01*
X113646Y279581D01*
X113538Y279533D01*
X113431Y279481D01*
X113325Y279426D01*
X113221Y279367D01*
X113120Y279306D01*
X113020Y279241D01*
X112922Y279172D01*
X112827Y279101D01*
X112734Y279027D01*
X112644Y278950D01*
X112556Y278870D01*
X112470Y278787D01*
X112388Y278701D01*
X112308Y278613D01*
X112231Y278522D01*
X112156Y278429D01*
X112085Y278334D01*
X112017Y278236D01*
X111952Y278137D01*
X111891Y278035D01*
X111833Y277931D01*
X111778Y277825D01*
X111726Y277718D01*
X111678Y277609D01*
X111633Y277499D01*
X111592Y277387D01*
X111555Y277274D01*
X111521Y277160D01*
X111491Y277045D01*
X111465Y276929D01*
X111442Y276812D01*
X111423Y276695D01*
X111408Y276577D01*
X111397Y276458D01*
X111389Y276340D01*
X111385Y276221D01*
X111386Y276102D01*
X111389Y275983D01*
X111397Y275864D01*
X114797Y279864D02*
X138797Y279864D01*
X138916Y279851D01*
X139035Y279834D01*
X139153Y279812D01*
X139270Y279787D01*
X139387Y279758D01*
X139502Y279726D01*
X139617Y279689D01*
X139730Y279649D01*
X139842Y279605D01*
X139952Y279558D01*
X140060Y279507D01*
X140167Y279452D01*
X140272Y279394D01*
X140375Y279333D01*
X140476Y279268D01*
X140575Y279200D01*
X140672Y279129D01*
X140766Y279055D01*
X140858Y278977D01*
X140947Y278897D01*
X141033Y278814D01*
X141117Y278728D01*
X141198Y278639D01*
X141276Y278548D01*
X141350Y278454D01*
X141422Y278358D01*
X141491Y278259D01*
X141556Y278158D01*
X141618Y278056D01*
X141677Y277951D01*
X141732Y277844D01*
X141783Y277736D01*
X141831Y277626D01*
X141876Y277515D01*
X141916Y277402D01*
X141953Y277288D01*
X141987Y277172D01*
X142016Y277056D01*
X142042Y276939D01*
X142063Y276821D01*
X142081Y276702D01*
X142095Y276583D01*
X142106Y276463D01*
X142112Y276343D01*
X142114Y276223D01*
X142112Y276103D01*
X142107Y275984D01*
X142097Y275864D01*
X142107Y275744D01*
X142112Y275625D01*
X142114Y275505D01*
X142112Y275385D01*
X142106Y275265D01*
X142095Y275145D01*
X142081Y275026D01*
X142063Y274907D01*
X142042Y274789D01*
X142016Y274672D01*
X141987Y274556D01*
X141953Y274440D01*
X141916Y274326D01*
X141876Y274213D01*
X141831Y274102D01*
X141783Y273992D01*
X141732Y273884D01*
X141677Y273777D01*
X141618Y273672D01*
X141556Y273570D01*
X141491Y273469D01*
X141422Y273370D01*
X141350Y273274D01*
X141276Y273180D01*
X141198Y273089D01*
X141117Y273000D01*
X141033Y272914D01*
X140947Y272831D01*
X140858Y272751D01*
X140766Y272673D01*
X140672Y272599D01*
X140575Y272528D01*
X140476Y272460D01*
X140375Y272395D01*
X140272Y272334D01*
X140167Y272276D01*
X140060Y272221D01*
X139952Y272170D01*
X139842Y272123D01*
X139730Y272079D01*
X139617Y272039D01*
X139502Y272002D01*
X139387Y271970D01*
X139270Y271941D01*
X139153Y271916D01*
X139035Y271894D01*
X138916Y271877D01*
X138797Y271864D01*
X114797Y271864D01*
X114679Y271876D01*
X114561Y271891D01*
X114443Y271910D01*
X114326Y271933D01*
X114210Y271959D01*
X114095Y271990D01*
X113981Y272024D01*
X113868Y272061D01*
X113757Y272102D01*
X113646Y272147D01*
X113538Y272195D01*
X113431Y272247D01*
X113325Y272302D01*
X113221Y272361D01*
X113120Y272422D01*
X113020Y272487D01*
X112922Y272556D01*
X112827Y272627D01*
X112734Y272701D01*
X112644Y272778D01*
X112556Y272858D01*
X112470Y272941D01*
X112388Y273027D01*
X112308Y273115D01*
X112231Y273206D01*
X112156Y273299D01*
X112085Y273394D01*
X112017Y273492D01*
X111952Y273591D01*
X111891Y273693D01*
X111833Y273797D01*
X111778Y273903D01*
X111726Y274010D01*
X111678Y274119D01*
X111633Y274229D01*
X111592Y274341D01*
X111555Y274454D01*
X111521Y274568D01*
X111491Y274683D01*
X111465Y274799D01*
X111442Y274916D01*
X111423Y275033D01*
X111408Y275151D01*
X111397Y275270D01*
X111389Y275388D01*
X111385Y275507D01*
X111386Y275626D01*
X111389Y275745D01*
X111397Y275864D01*
X115152Y159722D02*
X115034Y159710D01*
X114916Y159695D01*
X114798Y159676D01*
X114681Y159653D01*
X114565Y159627D01*
X114450Y159596D01*
X114336Y159562D01*
X114223Y159525D01*
X114112Y159484D01*
X114001Y159439D01*
X113893Y159391D01*
X113786Y159339D01*
X113680Y159284D01*
X113576Y159225D01*
X113475Y159164D01*
X113375Y159099D01*
X113277Y159030D01*
X113182Y158959D01*
X113089Y158885D01*
X112999Y158808D01*
X112911Y158728D01*
X112825Y158645D01*
X112743Y158559D01*
X112663Y158471D01*
X112586Y158380D01*
X112511Y158287D01*
X112440Y158192D01*
X112372Y158094D01*
X112307Y157995D01*
X112246Y157893D01*
X112188Y157789D01*
X112133Y157683D01*
X112081Y157576D01*
X112033Y157467D01*
X111988Y157357D01*
X111947Y157245D01*
X111910Y157132D01*
X111876Y157018D01*
X111846Y156903D01*
X111820Y156787D01*
X111797Y156670D01*
X111778Y156553D01*
X111763Y156435D01*
X111752Y156316D01*
X111744Y156198D01*
X111740Y156079D01*
X111741Y155960D01*
X111744Y155841D01*
X111752Y155722D01*
X115152Y159722D02*
X139152Y159722D01*
X139271Y159709D01*
X139390Y159692D01*
X139508Y159670D01*
X139625Y159645D01*
X139742Y159616D01*
X139857Y159584D01*
X139972Y159547D01*
X140085Y159507D01*
X140197Y159463D01*
X140307Y159416D01*
X140415Y159365D01*
X140522Y159310D01*
X140627Y159252D01*
X140730Y159191D01*
X140831Y159126D01*
X140930Y159058D01*
X141027Y158987D01*
X141121Y158913D01*
X141213Y158835D01*
X141302Y158755D01*
X141388Y158672D01*
X141472Y158586D01*
X141553Y158497D01*
X141631Y158406D01*
X141705Y158312D01*
X141777Y158216D01*
X141846Y158117D01*
X141911Y158016D01*
X141973Y157914D01*
X142032Y157809D01*
X142087Y157702D01*
X142138Y157594D01*
X142186Y157484D01*
X142231Y157373D01*
X142271Y157260D01*
X142308Y157146D01*
X142342Y157030D01*
X142371Y156914D01*
X142397Y156797D01*
X142418Y156679D01*
X142436Y156560D01*
X142450Y156441D01*
X142461Y156321D01*
X142467Y156201D01*
X142469Y156081D01*
X142467Y155961D01*
X142462Y155842D01*
X142452Y155722D01*
X142462Y155602D01*
X142467Y155483D01*
X142469Y155363D01*
X142467Y155243D01*
X142461Y155123D01*
X142450Y155003D01*
X142436Y154884D01*
X142418Y154765D01*
X142397Y154647D01*
X142371Y154530D01*
X142342Y154414D01*
X142308Y154298D01*
X142271Y154184D01*
X142231Y154071D01*
X142186Y153960D01*
X142138Y153850D01*
X142087Y153742D01*
X142032Y153635D01*
X141973Y153530D01*
X141911Y153428D01*
X141846Y153327D01*
X141777Y153228D01*
X141705Y153132D01*
X141631Y153038D01*
X141553Y152947D01*
X141472Y152858D01*
X141388Y152772D01*
X141302Y152689D01*
X141213Y152609D01*
X141121Y152531D01*
X141027Y152457D01*
X140930Y152386D01*
X140831Y152318D01*
X140730Y152253D01*
X140627Y152192D01*
X140522Y152134D01*
X140415Y152079D01*
X140307Y152028D01*
X140197Y151981D01*
X140085Y151937D01*
X139972Y151897D01*
X139857Y151860D01*
X139742Y151828D01*
X139625Y151799D01*
X139508Y151774D01*
X139390Y151752D01*
X139271Y151735D01*
X139152Y151722D01*
X115152Y151722D01*
X115034Y151734D01*
X114916Y151749D01*
X114798Y151768D01*
X114681Y151791D01*
X114565Y151817D01*
X114450Y151848D01*
X114336Y151882D01*
X114223Y151919D01*
X114112Y151960D01*
X114001Y152005D01*
X113893Y152053D01*
X113786Y152105D01*
X113680Y152160D01*
X113576Y152219D01*
X113475Y152280D01*
X113375Y152345D01*
X113277Y152414D01*
X113182Y152485D01*
X113089Y152559D01*
X112999Y152636D01*
X112911Y152716D01*
X112825Y152799D01*
X112743Y152885D01*
X112663Y152973D01*
X112586Y153064D01*
X112511Y153157D01*
X112440Y153252D01*
X112372Y153350D01*
X112307Y153449D01*
X112246Y153551D01*
X112188Y153655D01*
X112133Y153761D01*
X112081Y153868D01*
X112033Y153977D01*
X111988Y154087D01*
X111947Y154199D01*
X111910Y154312D01*
X111876Y154426D01*
X111846Y154541D01*
X111820Y154657D01*
X111797Y154774D01*
X111778Y154891D01*
X111763Y155009D01*
X111752Y155128D01*
X111744Y155246D01*
X111740Y155365D01*
X111741Y155484D01*
X111744Y155603D01*
X111752Y155722D01*
X111397Y860064D02*
X111389Y860183D01*
X111386Y860302D01*
X111385Y860421D01*
X111389Y860540D01*
X111397Y860658D01*
X111408Y860777D01*
X111423Y860895D01*
X111442Y861012D01*
X111465Y861129D01*
X111491Y861245D01*
X111521Y861360D01*
X111555Y861474D01*
X111592Y861587D01*
X111633Y861699D01*
X111678Y861809D01*
X111726Y861918D01*
X111778Y862025D01*
X111833Y862131D01*
X111891Y862235D01*
X111952Y862337D01*
X112017Y862436D01*
X112085Y862534D01*
X112156Y862629D01*
X112231Y862722D01*
X112308Y862813D01*
X112388Y862901D01*
X112470Y862987D01*
X112556Y863070D01*
X112644Y863150D01*
X112734Y863227D01*
X112827Y863301D01*
X112922Y863372D01*
X113020Y863441D01*
X113120Y863506D01*
X113221Y863567D01*
X113325Y863626D01*
X113431Y863681D01*
X113538Y863733D01*
X113646Y863781D01*
X113757Y863826D01*
X113868Y863867D01*
X113981Y863904D01*
X114095Y863938D01*
X114210Y863969D01*
X114326Y863995D01*
X114443Y864018D01*
X114561Y864037D01*
X114679Y864052D01*
X114797Y864064D01*
X138797Y864064D01*
X138916Y864051D01*
X139035Y864034D01*
X139153Y864012D01*
X139270Y863987D01*
X139387Y863958D01*
X139502Y863926D01*
X139617Y863889D01*
X139730Y863849D01*
X139842Y863805D01*
X139952Y863758D01*
X140060Y863707D01*
X140167Y863652D01*
X140272Y863594D01*
X140375Y863533D01*
X140476Y863468D01*
X140575Y863400D01*
X140672Y863329D01*
X140766Y863255D01*
X140858Y863177D01*
X140947Y863097D01*
X141033Y863014D01*
X141117Y862928D01*
X141198Y862839D01*
X141276Y862748D01*
X141350Y862654D01*
X141422Y862558D01*
X141491Y862459D01*
X141556Y862358D01*
X141618Y862256D01*
X141677Y862151D01*
X141732Y862044D01*
X141783Y861936D01*
X141831Y861826D01*
X141876Y861715D01*
X141916Y861602D01*
X141953Y861488D01*
X141987Y861372D01*
X142016Y861256D01*
X142042Y861139D01*
X142063Y861021D01*
X142081Y860902D01*
X142095Y860783D01*
X142106Y860663D01*
X142112Y860543D01*
X142114Y860423D01*
X142112Y860303D01*
X142107Y860184D01*
X142097Y860064D01*
X142107Y859944D01*
X142112Y859825D01*
X142114Y859705D01*
X142112Y859585D01*
X142106Y859465D01*
X142095Y859345D01*
X142081Y859226D01*
X142063Y859107D01*
X142042Y858989D01*
X142016Y858872D01*
X141987Y858756D01*
X141953Y858640D01*
X141916Y858526D01*
X141876Y858413D01*
X141831Y858302D01*
X141783Y858192D01*
X141732Y858084D01*
X141677Y857977D01*
X141618Y857872D01*
X141556Y857770D01*
X141491Y857669D01*
X141422Y857570D01*
X141350Y857474D01*
X141276Y857380D01*
X141198Y857289D01*
X141117Y857200D01*
X141033Y857114D01*
X140947Y857031D01*
X140858Y856951D01*
X140766Y856873D01*
X140672Y856799D01*
X140575Y856728D01*
X140476Y856660D01*
X140375Y856595D01*
X140272Y856534D01*
X140167Y856476D01*
X140060Y856421D01*
X139952Y856370D01*
X139842Y856323D01*
X139730Y856279D01*
X139617Y856239D01*
X139502Y856202D01*
X139387Y856170D01*
X139270Y856141D01*
X139153Y856116D01*
X139035Y856094D01*
X138916Y856077D01*
X138797Y856064D01*
X114797Y856064D01*
X114679Y856076D01*
X114561Y856091D01*
X114443Y856110D01*
X114326Y856133D01*
X114210Y856159D01*
X114095Y856190D01*
X113981Y856224D01*
X113868Y856261D01*
X113757Y856302D01*
X113646Y856347D01*
X113538Y856395D01*
X113431Y856447D01*
X113325Y856502D01*
X113221Y856561D01*
X113120Y856622D01*
X113020Y856687D01*
X112922Y856756D01*
X112827Y856827D01*
X112734Y856901D01*
X112644Y856978D01*
X112556Y857058D01*
X112470Y857141D01*
X112388Y857227D01*
X112308Y857315D01*
X112231Y857406D01*
X112156Y857499D01*
X112085Y857594D01*
X112017Y857692D01*
X111952Y857791D01*
X111891Y857893D01*
X111833Y857997D01*
X111778Y858103D01*
X111726Y858210D01*
X111678Y858319D01*
X111633Y858429D01*
X111592Y858541D01*
X111555Y858654D01*
X111521Y858768D01*
X111491Y858883D01*
X111465Y858999D01*
X111442Y859116D01*
X111423Y859233D01*
X111408Y859351D01*
X111397Y859470D01*
X111389Y859588D01*
X111385Y859707D01*
X111386Y859826D01*
X111389Y859945D01*
X111397Y860064D01*
X115152Y743922D02*
X115034Y743910D01*
X114916Y743895D01*
X114798Y743876D01*
X114681Y743853D01*
X114565Y743827D01*
X114450Y743796D01*
X114336Y743762D01*
X114223Y743725D01*
X114112Y743684D01*
X114001Y743639D01*
X113893Y743591D01*
X113786Y743539D01*
X113680Y743484D01*
X113576Y743425D01*
X113475Y743364D01*
X113375Y743299D01*
X113277Y743230D01*
X113182Y743159D01*
X113089Y743085D01*
X112999Y743008D01*
X112911Y742928D01*
X112825Y742845D01*
X112743Y742759D01*
X112663Y742671D01*
X112586Y742580D01*
X112511Y742487D01*
X112440Y742392D01*
X112372Y742294D01*
X112307Y742195D01*
X112246Y742093D01*
X112188Y741989D01*
X112133Y741883D01*
X112081Y741776D01*
X112033Y741667D01*
X111988Y741557D01*
X111947Y741445D01*
X111910Y741332D01*
X111876Y741218D01*
X111846Y741103D01*
X111820Y740987D01*
X111797Y740870D01*
X111778Y740753D01*
X111763Y740635D01*
X111752Y740516D01*
X111744Y740398D01*
X111740Y740279D01*
X111741Y740160D01*
X111744Y740041D01*
X111752Y739922D01*
X115152Y743922D02*
X139152Y743922D01*
X139271Y743909D01*
X139390Y743892D01*
X139508Y743870D01*
X139625Y743845D01*
X139742Y743816D01*
X139857Y743784D01*
X139972Y743747D01*
X140085Y743707D01*
X140197Y743663D01*
X140307Y743616D01*
X140415Y743565D01*
X140522Y743510D01*
X140627Y743452D01*
X140730Y743391D01*
X140831Y743326D01*
X140930Y743258D01*
X141027Y743187D01*
X141121Y743113D01*
X141213Y743035D01*
X141302Y742955D01*
X141388Y742872D01*
X141472Y742786D01*
X141553Y742697D01*
X141631Y742606D01*
X141705Y742512D01*
X141777Y742416D01*
X141846Y742317D01*
X141911Y742216D01*
X141973Y742114D01*
X142032Y742009D01*
X142087Y741902D01*
X142138Y741794D01*
X142186Y741684D01*
X142231Y741573D01*
X142271Y741460D01*
X142308Y741346D01*
X142342Y741230D01*
X142371Y741114D01*
X142397Y740997D01*
X142418Y740879D01*
X142436Y740760D01*
X142450Y740641D01*
X142461Y740521D01*
X142467Y740401D01*
X142469Y740281D01*
X142467Y740161D01*
X142462Y740042D01*
X142452Y739922D01*
X142462Y739802D01*
X142467Y739683D01*
X142469Y739563D01*
X142467Y739443D01*
X142461Y739323D01*
X142450Y739203D01*
X142436Y739084D01*
X142418Y738965D01*
X142397Y738847D01*
X142371Y738730D01*
X142342Y738614D01*
X142308Y738498D01*
X142271Y738384D01*
X142231Y738271D01*
X142186Y738160D01*
X142138Y738050D01*
X142087Y737942D01*
X142032Y737835D01*
X141973Y737730D01*
X141911Y737628D01*
X141846Y737527D01*
X141777Y737428D01*
X141705Y737332D01*
X141631Y737238D01*
X141553Y737147D01*
X141472Y737058D01*
X141388Y736972D01*
X141302Y736889D01*
X141213Y736809D01*
X141121Y736731D01*
X141027Y736657D01*
X140930Y736586D01*
X140831Y736518D01*
X140730Y736453D01*
X140627Y736392D01*
X140522Y736334D01*
X140415Y736279D01*
X140307Y736228D01*
X140197Y736181D01*
X140085Y736137D01*
X139972Y736097D01*
X139857Y736060D01*
X139742Y736028D01*
X139625Y735999D01*
X139508Y735974D01*
X139390Y735952D01*
X139271Y735935D01*
X139152Y735922D01*
X115152Y735922D01*
X115034Y735934D01*
X114916Y735949D01*
X114798Y735968D01*
X114681Y735991D01*
X114565Y736017D01*
X114450Y736048D01*
X114336Y736082D01*
X114223Y736119D01*
X114112Y736160D01*
X114001Y736205D01*
X113893Y736253D01*
X113786Y736305D01*
X113680Y736360D01*
X113576Y736419D01*
X113475Y736480D01*
X113375Y736545D01*
X113277Y736614D01*
X113182Y736685D01*
X113089Y736759D01*
X112999Y736836D01*
X112911Y736916D01*
X112825Y736999D01*
X112743Y737085D01*
X112663Y737173D01*
X112586Y737264D01*
X112511Y737357D01*
X112440Y737452D01*
X112372Y737550D01*
X112307Y737649D01*
X112246Y737751D01*
X112188Y737855D01*
X112133Y737961D01*
X112081Y738068D01*
X112033Y738177D01*
X111988Y738287D01*
X111947Y738399D01*
X111910Y738512D01*
X111876Y738626D01*
X111846Y738741D01*
X111820Y738857D01*
X111797Y738974D01*
X111778Y739091D01*
X111763Y739209D01*
X111752Y739328D01*
X111744Y739446D01*
X111740Y739565D01*
X111741Y739684D01*
X111744Y739803D01*
X111752Y739922D01*
X114797Y419564D02*
X114679Y419552D01*
X114561Y419537D01*
X114443Y419518D01*
X114326Y419495D01*
X114210Y419469D01*
X114095Y419438D01*
X113981Y419404D01*
X113868Y419367D01*
X113757Y419326D01*
X113646Y419281D01*
X113538Y419233D01*
X113431Y419181D01*
X113325Y419126D01*
X113221Y419067D01*
X113120Y419006D01*
X113020Y418941D01*
X112922Y418872D01*
X112827Y418801D01*
X112734Y418727D01*
X112644Y418650D01*
X112556Y418570D01*
X112470Y418487D01*
X112388Y418401D01*
X112308Y418313D01*
X112231Y418222D01*
X112156Y418129D01*
X112085Y418034D01*
X112017Y417936D01*
X111952Y417837D01*
X111891Y417735D01*
X111833Y417631D01*
X111778Y417525D01*
X111726Y417418D01*
X111678Y417309D01*
X111633Y417199D01*
X111592Y417087D01*
X111555Y416974D01*
X111521Y416860D01*
X111491Y416745D01*
X111465Y416629D01*
X111442Y416512D01*
X111423Y416395D01*
X111408Y416277D01*
X111397Y416158D01*
X111389Y416040D01*
X111385Y415921D01*
X111386Y415802D01*
X111389Y415683D01*
X111397Y415564D01*
X114797Y419564D02*
X138797Y419564D01*
X138916Y419551D01*
X139035Y419534D01*
X139153Y419512D01*
X139270Y419487D01*
X139387Y419458D01*
X139502Y419426D01*
X139617Y419389D01*
X139730Y419349D01*
X139842Y419305D01*
X139952Y419258D01*
X140060Y419207D01*
X140167Y419152D01*
X140272Y419094D01*
X140375Y419033D01*
X140476Y418968D01*
X140575Y418900D01*
X140672Y418829D01*
X140766Y418755D01*
X140858Y418677D01*
X140947Y418597D01*
X141033Y418514D01*
X141117Y418428D01*
X141198Y418339D01*
X141276Y418248D01*
X141350Y418154D01*
X141422Y418058D01*
X141491Y417959D01*
X141556Y417858D01*
X141618Y417756D01*
X141677Y417651D01*
X141732Y417544D01*
X141783Y417436D01*
X141831Y417326D01*
X141876Y417215D01*
X141916Y417102D01*
X141953Y416988D01*
X141987Y416872D01*
X142016Y416756D01*
X142042Y416639D01*
X142063Y416521D01*
X142081Y416402D01*
X142095Y416283D01*
X142106Y416163D01*
X142112Y416043D01*
X142114Y415923D01*
X142112Y415803D01*
X142107Y415684D01*
X142097Y415564D01*
X142107Y415444D01*
X142112Y415325D01*
X142114Y415205D01*
X142112Y415085D01*
X142106Y414965D01*
X142095Y414845D01*
X142081Y414726D01*
X142063Y414607D01*
X142042Y414489D01*
X142016Y414372D01*
X141987Y414256D01*
X141953Y414140D01*
X141916Y414026D01*
X141876Y413913D01*
X141831Y413802D01*
X141783Y413692D01*
X141732Y413584D01*
X141677Y413477D01*
X141618Y413372D01*
X141556Y413270D01*
X141491Y413169D01*
X141422Y413070D01*
X141350Y412974D01*
X141276Y412880D01*
X141198Y412789D01*
X141117Y412700D01*
X141033Y412614D01*
X140947Y412531D01*
X140858Y412451D01*
X140766Y412373D01*
X140672Y412299D01*
X140575Y412228D01*
X140476Y412160D01*
X140375Y412095D01*
X140272Y412034D01*
X140167Y411976D01*
X140060Y411921D01*
X139952Y411870D01*
X139842Y411823D01*
X139730Y411779D01*
X139617Y411739D01*
X139502Y411702D01*
X139387Y411670D01*
X139270Y411641D01*
X139153Y411616D01*
X139035Y411594D01*
X138916Y411577D01*
X138797Y411564D01*
X114797Y411564D01*
X114679Y411576D01*
X114561Y411591D01*
X114443Y411610D01*
X114326Y411633D01*
X114210Y411659D01*
X114095Y411690D01*
X113981Y411724D01*
X113868Y411761D01*
X113757Y411802D01*
X113646Y411847D01*
X113538Y411895D01*
X113431Y411947D01*
X113325Y412002D01*
X113221Y412061D01*
X113120Y412122D01*
X113020Y412187D01*
X112922Y412256D01*
X112827Y412327D01*
X112734Y412401D01*
X112644Y412478D01*
X112556Y412558D01*
X112470Y412641D01*
X112388Y412727D01*
X112308Y412815D01*
X112231Y412906D01*
X112156Y412999D01*
X112085Y413094D01*
X112017Y413192D01*
X111952Y413291D01*
X111891Y413393D01*
X111833Y413497D01*
X111778Y413603D01*
X111726Y413710D01*
X111678Y413819D01*
X111633Y413929D01*
X111592Y414041D01*
X111555Y414154D01*
X111521Y414268D01*
X111491Y414383D01*
X111465Y414499D01*
X111442Y414616D01*
X111423Y414733D01*
X111408Y414851D01*
X111397Y414970D01*
X111389Y415088D01*
X111385Y415207D01*
X111386Y415326D01*
X111389Y415445D01*
X111397Y415564D01*
X115152Y299422D02*
X115034Y299410D01*
X114916Y299395D01*
X114798Y299376D01*
X114681Y299353D01*
X114565Y299327D01*
X114450Y299296D01*
X114336Y299262D01*
X114223Y299225D01*
X114112Y299184D01*
X114001Y299139D01*
X113893Y299091D01*
X113786Y299039D01*
X113680Y298984D01*
X113576Y298925D01*
X113475Y298864D01*
X113375Y298799D01*
X113277Y298730D01*
X113182Y298659D01*
X113089Y298585D01*
X112999Y298508D01*
X112911Y298428D01*
X112825Y298345D01*
X112743Y298259D01*
X112663Y298171D01*
X112586Y298080D01*
X112511Y297987D01*
X112440Y297892D01*
X112372Y297794D01*
X112307Y297695D01*
X112246Y297593D01*
X112188Y297489D01*
X112133Y297383D01*
X112081Y297276D01*
X112033Y297167D01*
X111988Y297057D01*
X111947Y296945D01*
X111910Y296832D01*
X111876Y296718D01*
X111846Y296603D01*
X111820Y296487D01*
X111797Y296370D01*
X111778Y296253D01*
X111763Y296135D01*
X111752Y296016D01*
X111744Y295898D01*
X111740Y295779D01*
X111741Y295660D01*
X111744Y295541D01*
X111752Y295422D01*
X115152Y299422D02*
X139152Y299422D01*
X139271Y299409D01*
X139390Y299392D01*
X139508Y299370D01*
X139625Y299345D01*
X139742Y299316D01*
X139857Y299284D01*
X139972Y299247D01*
X140085Y299207D01*
X140197Y299163D01*
X140307Y299116D01*
X140415Y299065D01*
X140522Y299010D01*
X140627Y298952D01*
X140730Y298891D01*
X140831Y298826D01*
X140930Y298758D01*
X141027Y298687D01*
X141121Y298613D01*
X141213Y298535D01*
X141302Y298455D01*
X141388Y298372D01*
X141472Y298286D01*
X141553Y298197D01*
X141631Y298106D01*
X141705Y298012D01*
X141777Y297916D01*
X141846Y297817D01*
X141911Y297716D01*
X141973Y297614D01*
X142032Y297509D01*
X142087Y297402D01*
X142138Y297294D01*
X142186Y297184D01*
X142231Y297073D01*
X142271Y296960D01*
X142308Y296846D01*
X142342Y296730D01*
X142371Y296614D01*
X142397Y296497D01*
X142418Y296379D01*
X142436Y296260D01*
X142450Y296141D01*
X142461Y296021D01*
X142467Y295901D01*
X142469Y295781D01*
X142467Y295661D01*
X142462Y295542D01*
X142452Y295422D01*
X142462Y295302D01*
X142467Y295183D01*
X142469Y295063D01*
X142467Y294943D01*
X142461Y294823D01*
X142450Y294703D01*
X142436Y294584D01*
X142418Y294465D01*
X142397Y294347D01*
X142371Y294230D01*
X142342Y294114D01*
X142308Y293998D01*
X142271Y293884D01*
X142231Y293771D01*
X142186Y293660D01*
X142138Y293550D01*
X142087Y293442D01*
X142032Y293335D01*
X141973Y293230D01*
X141911Y293128D01*
X141846Y293027D01*
X141777Y292928D01*
X141705Y292832D01*
X141631Y292738D01*
X141553Y292647D01*
X141472Y292558D01*
X141388Y292472D01*
X141302Y292389D01*
X141213Y292309D01*
X141121Y292231D01*
X141027Y292157D01*
X140930Y292086D01*
X140831Y292018D01*
X140730Y291953D01*
X140627Y291892D01*
X140522Y291834D01*
X140415Y291779D01*
X140307Y291728D01*
X140197Y291681D01*
X140085Y291637D01*
X139972Y291597D01*
X139857Y291560D01*
X139742Y291528D01*
X139625Y291499D01*
X139508Y291474D01*
X139390Y291452D01*
X139271Y291435D01*
X139152Y291422D01*
X115152Y291422D01*
X115034Y291434D01*
X114916Y291449D01*
X114798Y291468D01*
X114681Y291491D01*
X114565Y291517D01*
X114450Y291548D01*
X114336Y291582D01*
X114223Y291619D01*
X114112Y291660D01*
X114001Y291705D01*
X113893Y291753D01*
X113786Y291805D01*
X113680Y291860D01*
X113576Y291919D01*
X113475Y291980D01*
X113375Y292045D01*
X113277Y292114D01*
X113182Y292185D01*
X113089Y292259D01*
X112999Y292336D01*
X112911Y292416D01*
X112825Y292499D01*
X112743Y292585D01*
X112663Y292673D01*
X112586Y292764D01*
X112511Y292857D01*
X112440Y292952D01*
X112372Y293050D01*
X112307Y293149D01*
X112246Y293251D01*
X112188Y293355D01*
X112133Y293461D01*
X112081Y293568D01*
X112033Y293677D01*
X111988Y293787D01*
X111947Y293899D01*
X111910Y294012D01*
X111876Y294126D01*
X111846Y294241D01*
X111820Y294357D01*
X111797Y294474D01*
X111778Y294591D01*
X111763Y294709D01*
X111752Y294828D01*
X111744Y294946D01*
X111740Y295065D01*
X111741Y295184D01*
X111744Y295303D01*
X111752Y295422D01*
D11*
X0Y0D02*
X266500Y0D01*
X266500Y1000000D01*
X0Y1000000D01*
X0Y0D01*
X111752Y295422D02*
X111740Y295099D01*
X111757Y294775D01*
X111801Y294455D01*
X111873Y294139D01*
X111972Y293831D01*
X112098Y293532D01*
X112249Y293246D01*
X112425Y292974D01*
X112624Y292718D01*
X112844Y292481D01*
X113084Y292264D01*
X113343Y292068D01*
X113617Y291896D01*
X113905Y291748D01*
X114205Y291626D01*
X114514Y291531D01*
X114831Y291463D01*
X115152Y291422D01*
X139152Y291422D01*
X139469Y291467D01*
X139781Y291539D01*
X140085Y291637D01*
X140380Y291762D01*
X140662Y291912D01*
X140931Y292086D01*
X141183Y292283D01*
X141417Y292501D01*
X141631Y292739D01*
X141823Y292994D01*
X141993Y293266D01*
X142138Y293551D01*
X142258Y293847D01*
X142352Y294153D01*
X142419Y294466D01*
X142458Y294783D01*
X142469Y295103D01*
X142452Y295422D01*
X142469Y295742D01*
X142458Y296062D01*
X142419Y296379D01*
X142352Y296692D01*
X142258Y296998D01*
X142138Y297294D01*
X141993Y297579D01*
X141823Y297850D01*
X141631Y298106D01*
X141417Y298344D01*
X141183Y298562D01*
X140931Y298758D01*
X140662Y298933D01*
X140380Y299083D01*
X140085Y299207D01*
X139781Y299306D01*
X139469Y299378D01*
X139152Y299422D01*
X115152Y299422D01*
X114831Y299382D01*
X114514Y299314D01*
X114205Y299219D01*
X113905Y299097D01*
X113617Y298949D01*
X113343Y298777D01*
X113084Y298581D01*
X112844Y298364D01*
X112624Y298127D01*
X112425Y297871D01*
X112249Y297599D01*
X112098Y297313D01*
X111972Y297014D01*
X111873Y296706D01*
X111801Y296390D01*
X111757Y296069D01*
X111740Y295746D01*
X111752Y295422D01*
X111752Y600222D02*
X111740Y599899D01*
X111757Y599575D01*
X111801Y599255D01*
X111873Y598939D01*
X111972Y598631D01*
X112098Y598332D01*
X112249Y598046D01*
X112425Y597774D01*
X112624Y597518D01*
X112844Y597281D01*
X113084Y597064D01*
X113343Y596868D01*
X113617Y596696D01*
X113905Y596548D01*
X114205Y596426D01*
X114514Y596331D01*
X114831Y596263D01*
X115152Y596222D01*
X139152Y596222D01*
X139469Y596267D01*
X139781Y596339D01*
X140085Y596437D01*
X140380Y596562D01*
X140662Y596712D01*
X140931Y596886D01*
X141183Y597083D01*
X141417Y597301D01*
X141631Y597539D01*
X141823Y597794D01*
X141993Y598066D01*
X142138Y598351D01*
X142258Y598647D01*
X142352Y598953D01*
X142419Y599266D01*
X142458Y599583D01*
X142469Y599903D01*
X142452Y600222D01*
X142469Y600542D01*
X142458Y600862D01*
X142419Y601179D01*
X142352Y601492D01*
X142258Y601798D01*
X142138Y602094D01*
X141993Y602379D01*
X141823Y602650D01*
X141631Y602906D01*
X141417Y603144D01*
X141183Y603362D01*
X140931Y603558D01*
X140662Y603733D01*
X140380Y603883D01*
X140085Y604007D01*
X139781Y604106D01*
X139469Y604178D01*
X139152Y604222D01*
X115152Y604222D01*
X114831Y604182D01*
X114514Y604114D01*
X114205Y604019D01*
X113905Y603897D01*
X113617Y603749D01*
X113343Y603577D01*
X113084Y603381D01*
X112844Y603164D01*
X112624Y602927D01*
X112425Y602671D01*
X112249Y602399D01*
X112098Y602113D01*
X111972Y601814D01*
X111873Y601506D01*
X111801Y601190D01*
X111757Y600869D01*
X111740Y600546D01*
X111752Y600222D01*
X111752Y155722D02*
X111740Y155399D01*
X111757Y155075D01*
X111801Y154755D01*
X111873Y154439D01*
X111972Y154131D01*
X112098Y153832D01*
X112249Y153546D01*
X112425Y153274D01*
X112624Y153018D01*
X112844Y152781D01*
X113084Y152564D01*
X113343Y152368D01*
X113617Y152196D01*
X113905Y152048D01*
X114205Y151926D01*
X114514Y151831D01*
X114831Y151763D01*
X115152Y151722D01*
X139152Y151722D01*
X139469Y151767D01*
X139781Y151839D01*
X140085Y151937D01*
X140380Y152062D01*
X140662Y152212D01*
X140931Y152386D01*
X141183Y152583D01*
X141417Y152801D01*
X141631Y153039D01*
X141823Y153294D01*
X141993Y153566D01*
X142138Y153851D01*
X142258Y154147D01*
X142352Y154453D01*
X142419Y154766D01*
X142458Y155083D01*
X142469Y155403D01*
X142452Y155722D01*
X142469Y156042D01*
X142458Y156362D01*
X142419Y156679D01*
X142352Y156992D01*
X142258Y157298D01*
X142138Y157594D01*
X141993Y157879D01*
X141823Y158150D01*
X141631Y158406D01*
X141417Y158644D01*
X141183Y158862D01*
X140931Y159058D01*
X140662Y159233D01*
X140380Y159383D01*
X140085Y159507D01*
X139781Y159606D01*
X139469Y159678D01*
X139152Y159722D01*
X115152Y159722D01*
X114831Y159682D01*
X114514Y159614D01*
X114205Y159519D01*
X113905Y159397D01*
X113617Y159249D01*
X113343Y159077D01*
X113084Y158881D01*
X112844Y158664D01*
X112624Y158427D01*
X112425Y158171D01*
X112249Y157899D01*
X112098Y157613D01*
X111972Y157314D01*
X111873Y157006D01*
X111801Y156690D01*
X111757Y156369D01*
X111740Y156046D01*
X111752Y155722D01*
X111397Y415564D02*
X111385Y415241D01*
X111401Y414917D01*
X111445Y414597D01*
X111517Y414281D01*
X111617Y413973D01*
X111743Y413674D01*
X111894Y413388D01*
X112070Y413116D01*
X112268Y412860D01*
X112489Y412623D01*
X112729Y412406D01*
X112987Y412210D01*
X113261Y412038D01*
X113549Y411890D01*
X113849Y411768D01*
X114159Y411673D01*
X114475Y411605D01*
X114797Y411564D01*
X138797Y411564D01*
X139114Y411609D01*
X139425Y411681D01*
X139730Y411779D01*
X140024Y411904D01*
X140307Y412054D01*
X140575Y412228D01*
X140827Y412425D01*
X141061Y412643D01*
X141275Y412881D01*
X141468Y413136D01*
X141637Y413408D01*
X141783Y413693D01*
X141903Y413989D01*
X141996Y414295D01*
X142063Y414608D01*
X142102Y414925D01*
X142113Y415245D01*
X142097Y415564D01*
X142113Y415884D01*
X142102Y416204D01*
X142063Y416521D01*
X141996Y416834D01*
X141903Y417140D01*
X141783Y417436D01*
X141637Y417721D01*
X141468Y417992D01*
X141275Y418248D01*
X141061Y418486D01*
X140827Y418704D01*
X140575Y418900D01*
X140307Y419075D01*
X140024Y419225D01*
X139730Y419349D01*
X139425Y419448D01*
X139114Y419520D01*
X138797Y419564D01*
X114797Y419564D01*
X114475Y419524D01*
X114159Y419456D01*
X113849Y419361D01*
X113549Y419239D01*
X113261Y419091D01*
X112987Y418919D01*
X112729Y418723D01*
X112489Y418506D01*
X112268Y418269D01*
X112070Y418013D01*
X111894Y417741D01*
X111743Y417455D01*
X111617Y417156D01*
X111517Y416848D01*
X111445Y416532D01*
X111401Y416211D01*
X111385Y415888D01*
X111397Y415564D01*
X111752Y739922D02*
X111740Y739599D01*
X111757Y739275D01*
X111801Y738955D01*
X111873Y738639D01*
X111972Y738331D01*
X112098Y738032D01*
X112249Y737746D01*
X112425Y737474D01*
X112624Y737218D01*
X112844Y736981D01*
X113084Y736764D01*
X113343Y736568D01*
X113617Y736396D01*
X113905Y736248D01*
X114205Y736126D01*
X114514Y736031D01*
X114831Y735963D01*
X115152Y735922D01*
X139152Y735922D01*
X139469Y735967D01*
X139781Y736039D01*
X140085Y736137D01*
X140380Y736262D01*
X140662Y736412D01*
X140931Y736586D01*
X141183Y736783D01*
X141417Y737001D01*
X141631Y737239D01*
X141823Y737494D01*
X141993Y737766D01*
X142138Y738051D01*
X142258Y738347D01*
X142352Y738653D01*
X142419Y738966D01*
X142458Y739283D01*
X142469Y739603D01*
X142452Y739922D01*
X142469Y740242D01*
X142458Y740562D01*
X142419Y740879D01*
X142352Y741192D01*
X142258Y741498D01*
X142138Y741794D01*
X141993Y742079D01*
X141823Y742350D01*
X141631Y742606D01*
X141417Y742844D01*
X141183Y743062D01*
X140931Y743258D01*
X140662Y743433D01*
X140380Y743583D01*
X140085Y743707D01*
X139781Y743806D01*
X139469Y743878D01*
X139152Y743922D01*
X115152Y743922D01*
X114831Y743882D01*
X114514Y743814D01*
X114205Y743719D01*
X113905Y743597D01*
X113617Y743449D01*
X113343Y743277D01*
X113084Y743081D01*
X112844Y742864D01*
X112624Y742627D01*
X112425Y742371D01*
X112249Y742099D01*
X112098Y741813D01*
X111972Y741514D01*
X111873Y741206D01*
X111801Y740890D01*
X111757Y740569D01*
X111740Y740246D01*
X111752Y739922D01*
X111397Y860064D02*
X111385Y859741D01*
X111401Y859417D01*
X111445Y859097D01*
X111517Y858781D01*
X111617Y858473D01*
X111743Y858174D01*
X111894Y857888D01*
X112070Y857616D01*
X112268Y857360D01*
X112489Y857123D01*
X112729Y856906D01*
X112987Y856710D01*
X113261Y856538D01*
X113549Y856390D01*
X113849Y856268D01*
X114159Y856173D01*
X114475Y856105D01*
X114797Y856064D01*
X138797Y856064D01*
X139114Y856109D01*
X139425Y856181D01*
X139730Y856279D01*
X140024Y856404D01*
X140307Y856554D01*
X140575Y856728D01*
X140827Y856925D01*
X141061Y857143D01*
X141275Y857381D01*
X141468Y857636D01*
X141637Y857908D01*
X141783Y858193D01*
X141903Y858489D01*
X141996Y858795D01*
X142063Y859108D01*
X142102Y859425D01*
X142113Y859745D01*
X142097Y860064D01*
X142113Y860384D01*
X142102Y860704D01*
X142063Y861021D01*
X141996Y861334D01*
X141903Y861640D01*
X141783Y861936D01*
X141637Y862221D01*
X141468Y862492D01*
X141275Y862748D01*
X141061Y862986D01*
X140827Y863204D01*
X140575Y863400D01*
X140307Y863575D01*
X140024Y863725D01*
X139730Y863849D01*
X139425Y863948D01*
X139114Y864020D01*
X138797Y864064D01*
X114797Y864064D01*
X114475Y864024D01*
X114159Y863956D01*
X113849Y863861D01*
X113549Y863739D01*
X113261Y863591D01*
X112987Y863419D01*
X112729Y863223D01*
X112489Y863006D01*
X112268Y862769D01*
X112070Y862513D01*
X111894Y862241D01*
X111743Y861955D01*
X111617Y861656D01*
X111517Y861348D01*
X111445Y861032D01*
X111401Y860711D01*
X111385Y860388D01*
X111397Y860064D01*
X111397Y720364D02*
X111385Y720041D01*
X111401Y719717D01*
X111445Y719397D01*
X111517Y719081D01*
X111617Y718773D01*
X111743Y718474D01*
X111894Y718188D01*
X112070Y717916D01*
X112268Y717660D01*
X112489Y717423D01*
X112729Y717206D01*
X112987Y717010D01*
X113261Y716838D01*
X113549Y716690D01*
X113849Y716568D01*
X114159Y716473D01*
X114475Y716405D01*
X114797Y716364D01*
X138797Y716364D01*
X139114Y716409D01*
X139425Y716481D01*
X139730Y716579D01*
X140024Y716704D01*
X140307Y716854D01*
X140575Y717028D01*
X140827Y717225D01*
X141061Y717443D01*
X141275Y717681D01*
X141468Y717936D01*
X141637Y718208D01*
X141783Y718493D01*
X141903Y718789D01*
X141996Y719095D01*
X142063Y719408D01*
X142102Y719725D01*
X142113Y720045D01*
X142097Y720364D01*
X142113Y720684D01*
X142102Y721004D01*
X142063Y721321D01*
X141996Y721634D01*
X141903Y721940D01*
X141783Y722236D01*
X141637Y722521D01*
X141468Y722792D01*
X141275Y723048D01*
X141061Y723286D01*
X140827Y723504D01*
X140575Y723700D01*
X140307Y723875D01*
X140024Y724025D01*
X139730Y724149D01*
X139425Y724248D01*
X139114Y724320D01*
X138797Y724364D01*
X114797Y724364D01*
X114475Y724324D01*
X114159Y724256D01*
X113849Y724161D01*
X113549Y724039D01*
X113261Y723891D01*
X112987Y723719D01*
X112729Y723523D01*
X112489Y723306D01*
X112268Y723069D01*
X112070Y722813D01*
X111894Y722541D01*
X111743Y722255D01*
X111617Y721956D01*
X111517Y721648D01*
X111445Y721332D01*
X111401Y721011D01*
X111385Y720688D01*
X111397Y720364D01*
X111397Y275864D02*
X111385Y275541D01*
X111401Y275217D01*
X111445Y274897D01*
X111517Y274581D01*
X111617Y274273D01*
X111743Y273974D01*
X111894Y273688D01*
X112070Y273416D01*
X112268Y273160D01*
X112489Y272923D01*
X112729Y272706D01*
X112987Y272510D01*
X113261Y272338D01*
X113549Y272190D01*
X113849Y272068D01*
X114159Y271973D01*
X114475Y271905D01*
X114797Y271864D01*
X138797Y271864D01*
X139114Y271909D01*
X139425Y271981D01*
X139730Y272079D01*
X140024Y272204D01*
X140307Y272354D01*
X140575Y272528D01*
X140827Y272725D01*
X141061Y272943D01*
X141275Y273181D01*
X141468Y273436D01*
X141637Y273708D01*
X141783Y273993D01*
X141903Y274289D01*
X141996Y274595D01*
X142063Y274908D01*
X142102Y275225D01*
X142113Y275545D01*
X142097Y275864D01*
X142113Y276184D01*
X142102Y276504D01*
X142063Y276821D01*
X141996Y277134D01*
X141903Y277440D01*
X141783Y277736D01*
X141637Y278021D01*
X141468Y278292D01*
X141275Y278548D01*
X141061Y278786D01*
X140827Y279004D01*
X140575Y279200D01*
X140307Y279375D01*
X140024Y279525D01*
X139730Y279649D01*
X139425Y279748D01*
X139114Y279820D01*
X138797Y279864D01*
X114797Y279864D01*
X114475Y279824D01*
X114159Y279756D01*
X113849Y279661D01*
X113549Y279539D01*
X113261Y279391D01*
X112987Y279219D01*
X112729Y279023D01*
X112489Y278806D01*
X112268Y278569D01*
X112070Y278313D01*
X111894Y278041D01*
X111743Y277755D01*
X111617Y277456D01*
X111517Y277148D01*
X111445Y276832D01*
X111401Y276511D01*
X111385Y276188D01*
X111397Y275864D01*
M02*
