G04 EAGLE Gerber RS-274X export*
G75*
%MOMM*%
%FSLAX34Y34*%
%LPD*%
%INTop Paste*%
%IPPOS*%
%AMOC8*
5,1,8,0,0,1.08239X$1,22.5*%
G01*
%ADD10R,1.100000X1.000000*%
%ADD11R,0.600000X2.200000*%
%ADD12R,1.000000X1.100000*%


D10*
X29600Y419100D03*
X46600Y419100D03*
X29600Y381000D03*
X46600Y381000D03*
D11*
X31750Y697900D03*
X31750Y749900D03*
X19050Y697900D03*
X44450Y697900D03*
X57150Y697900D03*
X19050Y749900D03*
X44450Y749900D03*
X57150Y749900D03*
X31750Y596300D03*
X31750Y648300D03*
X19050Y596300D03*
X44450Y596300D03*
X57150Y596300D03*
X19050Y648300D03*
X44450Y648300D03*
X57150Y648300D03*
X31750Y253400D03*
X31750Y305400D03*
X19050Y253400D03*
X44450Y253400D03*
X57150Y253400D03*
X19050Y305400D03*
X44450Y305400D03*
X57150Y305400D03*
D12*
X93100Y342900D03*
X110100Y342900D03*
X80400Y190500D03*
X97400Y190500D03*
X131200Y190500D03*
X148200Y190500D03*
X169300Y254000D03*
X186300Y254000D03*
X131200Y228600D03*
X148200Y228600D03*
X93100Y228600D03*
X110100Y228600D03*
X131200Y368300D03*
X148200Y368300D03*
X93100Y368300D03*
X110100Y368300D03*
X93100Y787400D03*
X110100Y787400D03*
X80400Y812800D03*
X97400Y812800D03*
X143900Y787400D03*
X160900Y787400D03*
D10*
X76200Y715400D03*
X76200Y732400D03*
D12*
X110100Y673100D03*
X93100Y673100D03*
X131200Y812800D03*
X148200Y812800D03*
X143900Y635000D03*
X160900Y635000D03*
X93100Y635000D03*
X110100Y635000D03*
M02*
