M48
;GenerationSoftware,Autodesk,EAGLE,9.3.0*%
;CreationDate,2019-02-27T03:34:24Z*%
FMAT,2
ICI,OFF
METRIC,TZ,000.000
T7C0.350
T6C0.700
T5C0.800
T4C0.813
T3C0.914
T2C1.100
T1C1.300
%
G90
M71
T1
X22700Y31810
X22700Y80010
X22700Y76260
X22700Y25340
X22700Y17840
X22700Y21590
X22700Y69790
X22700Y62290
X22700Y66040
X22700Y83760
X22700Y35560
X22700Y39310
T2
X5080Y86210
X5080Y89210
X5080Y97710
X5080Y2390
X21590Y97710
X5080Y5390
X21590Y89210
X5080Y13890
X21590Y2390
X21590Y86210
X21590Y5390
X21590Y13890
T3
X7620Y50800
X7620Y48260
X10160Y50800
X10160Y48260
X12700Y50800
X12700Y48260
X15240Y50800
X15240Y48260
X17780Y50800
X17780Y48260
T4
X15240Y8890
X19050Y28448
X19050Y72898
X16510Y72898
X16510Y28448
X22860Y54610
X15240Y54610
X11430Y54610
X3810Y54610
X15240Y92710
X12700Y92710
X12700Y8890
T5
X12649Y72035
X12649Y41555
X12649Y27585
X12700Y15569
X12700Y29539
X12700Y73989
X12649Y86005
X12700Y60019
T6
X16022Y57912
X18522Y57912
X12212Y3810
X14712Y3810
T7
X24638Y12954
X6985Y33973
X5080Y66358
X14160Y32321
X23495Y23495
X6350Y21273
X3175Y26987
X10160Y64452
X2223Y62865
X3810Y39053
X5715Y67945
X5715Y28257
X3810Y20320
X2223Y34290
X2223Y32385
X5398Y73343
X9525Y65405
X9208Y77470
X9208Y70803
X7366Y60198
X2286Y96774
X15494Y89154
X12192Y76962
X19304Y67818
X19304Y54610
X18034Y2540
X14224Y12700
X2032Y17780
X7874Y29972
X7112Y43942
X2540Y43942
X4826Y35814
M30