G04 EAGLE Gerber RS-274X export*
G75*
%MOMM*%
%FSLAX34Y34*%
%LPD*%
%INBottom Copper*%
%IPPOS*%
%AMOC8*
5,1,8,0,0,1.08239X$1,22.5*%
G01*
%ADD10C,2.184400*%
%ADD11C,1.950000*%
%ADD12R,1.651000X1.651000*%
%ADD13C,1.651000*%
%ADD14C,1.320800*%
%ADD15P,1.429621X8X202.500000*%
%ADD16P,1.429621X8X22.500000*%
%ADD17P,1.539592X8X202.500000*%
%ADD18C,1.650000*%
%ADD19C,0.756400*%
%ADD20C,0.152400*%

G36*
X255598Y10164D02*
X255598Y10164D01*
X255617Y10162D01*
X255719Y10184D01*
X255821Y10200D01*
X255838Y10210D01*
X255858Y10214D01*
X255947Y10267D01*
X256038Y10316D01*
X256052Y10330D01*
X256069Y10340D01*
X256136Y10419D01*
X256208Y10494D01*
X256216Y10512D01*
X256229Y10527D01*
X256268Y10623D01*
X256311Y10717D01*
X256313Y10737D01*
X256321Y10755D01*
X256339Y10922D01*
X256339Y343343D01*
X256328Y343413D01*
X256326Y343485D01*
X256308Y343534D01*
X256300Y343585D01*
X256266Y343649D01*
X256241Y343716D01*
X256209Y343757D01*
X256184Y343803D01*
X256133Y343852D01*
X256088Y343908D01*
X256044Y343936D01*
X256006Y343972D01*
X255941Y344002D01*
X255881Y344041D01*
X255830Y344054D01*
X255783Y344076D01*
X255712Y344084D01*
X255642Y344101D01*
X255590Y344097D01*
X255539Y344103D01*
X255468Y344088D01*
X255397Y344082D01*
X255349Y344062D01*
X255298Y344051D01*
X255237Y344014D01*
X255171Y343986D01*
X255115Y343941D01*
X255087Y343924D01*
X255072Y343907D01*
X255040Y343881D01*
X254724Y343565D01*
X240888Y329729D01*
X240861Y329692D01*
X240827Y329661D01*
X240790Y329592D01*
X240744Y329529D01*
X240731Y329485D01*
X240709Y329445D01*
X240695Y329368D01*
X240672Y329294D01*
X240673Y329248D01*
X240665Y329203D01*
X240676Y329126D01*
X240678Y329048D01*
X240694Y329005D01*
X240701Y328960D01*
X240736Y328890D01*
X240763Y328817D01*
X240792Y328781D01*
X240812Y328741D01*
X240868Y328686D01*
X240917Y328625D01*
X240955Y328600D01*
X240988Y328568D01*
X241108Y328502D01*
X241123Y328492D01*
X241128Y328491D01*
X241135Y328487D01*
X243137Y327658D01*
X246308Y324487D01*
X248025Y320343D01*
X248025Y315857D01*
X246308Y311713D01*
X243137Y308542D01*
X238993Y306825D01*
X215007Y306825D01*
X210863Y308542D01*
X207692Y311713D01*
X205975Y315857D01*
X205975Y320343D01*
X207692Y324487D01*
X210863Y327658D01*
X215007Y329375D01*
X233751Y329375D01*
X233841Y329389D01*
X233932Y329397D01*
X233961Y329409D01*
X233993Y329414D01*
X234074Y329457D01*
X234158Y329493D01*
X234190Y329519D01*
X234211Y329530D01*
X234233Y329553D01*
X234289Y329598D01*
X251490Y346799D01*
X251543Y346873D01*
X251603Y346943D01*
X251615Y346973D01*
X251634Y346999D01*
X251661Y347086D01*
X251695Y347171D01*
X251699Y347212D01*
X251706Y347234D01*
X251705Y347266D01*
X251713Y347337D01*
X251713Y564142D01*
X251702Y564212D01*
X251700Y564284D01*
X251682Y564333D01*
X251674Y564384D01*
X251640Y564448D01*
X251615Y564515D01*
X251583Y564556D01*
X251558Y564602D01*
X251507Y564651D01*
X251462Y564707D01*
X251418Y564735D01*
X251380Y564771D01*
X251315Y564801D01*
X251255Y564840D01*
X251204Y564853D01*
X251157Y564875D01*
X251086Y564883D01*
X251016Y564900D01*
X250964Y564896D01*
X250913Y564902D01*
X250842Y564887D01*
X250771Y564881D01*
X250723Y564861D01*
X250672Y564850D01*
X250611Y564813D01*
X250545Y564785D01*
X250489Y564740D01*
X250461Y564723D01*
X250446Y564706D01*
X250414Y564680D01*
X239805Y554071D01*
X239793Y554055D01*
X239778Y554043D01*
X239722Y553955D01*
X239662Y553871D01*
X239656Y553853D01*
X239645Y553836D01*
X239620Y553735D01*
X239589Y553636D01*
X239590Y553616D01*
X239585Y553597D01*
X239593Y553494D01*
X239596Y553390D01*
X239602Y553372D01*
X239604Y553352D01*
X239644Y553257D01*
X239680Y553159D01*
X239693Y553144D01*
X239700Y553126D01*
X239805Y552995D01*
X242095Y550705D01*
X243333Y547717D01*
X243333Y544483D01*
X242095Y541495D01*
X239809Y539209D01*
X236821Y537971D01*
X220379Y537971D01*
X217391Y539209D01*
X215105Y541495D01*
X213867Y544483D01*
X213867Y547717D01*
X215105Y550705D01*
X217391Y552991D01*
X220379Y554229D01*
X233179Y554229D01*
X233270Y554243D01*
X233360Y554251D01*
X233390Y554263D01*
X233422Y554268D01*
X233503Y554311D01*
X233587Y554347D01*
X233619Y554373D01*
X233640Y554384D01*
X233662Y554407D01*
X233718Y554452D01*
X248315Y569049D01*
X248368Y569123D01*
X248428Y569193D01*
X248440Y569223D01*
X248459Y569249D01*
X248486Y569336D01*
X248520Y569421D01*
X248524Y569462D01*
X248531Y569484D01*
X248530Y569516D01*
X248538Y569588D01*
X248538Y618070D01*
X248523Y618166D01*
X248513Y618263D01*
X248503Y618287D01*
X248499Y618313D01*
X248453Y618399D01*
X248413Y618488D01*
X248396Y618507D01*
X248383Y618530D01*
X248313Y618597D01*
X248247Y618669D01*
X248224Y618682D01*
X248205Y618700D01*
X248117Y618741D01*
X248031Y618788D01*
X248006Y618792D01*
X247982Y618803D01*
X247885Y618814D01*
X247789Y618831D01*
X247763Y618827D01*
X247738Y618830D01*
X247642Y618810D01*
X247546Y618795D01*
X247523Y618784D01*
X247497Y618778D01*
X247414Y618728D01*
X247327Y618684D01*
X247308Y618665D01*
X247286Y618652D01*
X247223Y618578D01*
X247155Y618508D01*
X247139Y618480D01*
X247126Y618465D01*
X247114Y618434D01*
X247074Y618361D01*
X246308Y616513D01*
X243137Y613342D01*
X238993Y611625D01*
X215007Y611625D01*
X210863Y613342D01*
X207692Y616513D01*
X205975Y620657D01*
X205975Y625143D01*
X207692Y629287D01*
X210863Y632458D01*
X215007Y634175D01*
X238993Y634175D01*
X243137Y632458D01*
X246308Y629287D01*
X247074Y627439D01*
X247125Y627356D01*
X247171Y627270D01*
X247189Y627252D01*
X247203Y627230D01*
X247279Y627167D01*
X247349Y627100D01*
X247373Y627089D01*
X247393Y627073D01*
X247484Y627038D01*
X247572Y626997D01*
X247598Y626994D01*
X247622Y626985D01*
X247720Y626980D01*
X247816Y626970D01*
X247842Y626975D01*
X247868Y626974D01*
X247962Y627001D01*
X248057Y627022D01*
X248079Y627035D01*
X248104Y627043D01*
X248184Y627098D01*
X248268Y627148D01*
X248285Y627168D01*
X248306Y627183D01*
X248365Y627261D01*
X248428Y627335D01*
X248438Y627359D01*
X248453Y627380D01*
X248483Y627473D01*
X248520Y627563D01*
X248523Y627596D01*
X248529Y627614D01*
X248529Y627647D01*
X248538Y627730D01*
X248538Y653372D01*
X248537Y653380D01*
X248538Y653388D01*
X248517Y653501D01*
X248499Y653615D01*
X248495Y653622D01*
X248493Y653630D01*
X248437Y653731D01*
X248383Y653832D01*
X248378Y653838D01*
X248374Y653845D01*
X248288Y653923D01*
X248205Y654002D01*
X248198Y654005D01*
X248192Y654010D01*
X248086Y654057D01*
X247982Y654105D01*
X247974Y654106D01*
X247967Y654109D01*
X247852Y654120D01*
X247738Y654132D01*
X247730Y654131D01*
X247722Y654131D01*
X247610Y654104D01*
X247497Y654080D01*
X247490Y654076D01*
X247483Y654074D01*
X247385Y654013D01*
X247286Y653954D01*
X247281Y653948D01*
X247274Y653944D01*
X247161Y653820D01*
X246125Y652393D01*
X244757Y651025D01*
X243192Y649888D01*
X241468Y649010D01*
X239628Y648412D01*
X237717Y648109D01*
X228523Y648109D01*
X228523Y659638D01*
X228520Y659658D01*
X228522Y659677D01*
X228500Y659779D01*
X228483Y659881D01*
X228474Y659898D01*
X228470Y659918D01*
X228417Y660007D01*
X228368Y660098D01*
X228354Y660112D01*
X228344Y660129D01*
X228265Y660196D01*
X228190Y660267D01*
X228172Y660276D01*
X228157Y660289D01*
X228061Y660327D01*
X227967Y660371D01*
X227947Y660373D01*
X227929Y660381D01*
X227762Y660399D01*
X226999Y660399D01*
X226999Y660401D01*
X227762Y660401D01*
X227782Y660404D01*
X227801Y660402D01*
X227903Y660424D01*
X228005Y660441D01*
X228022Y660450D01*
X228042Y660454D01*
X228131Y660507D01*
X228222Y660556D01*
X228236Y660570D01*
X228253Y660580D01*
X228320Y660659D01*
X228391Y660734D01*
X228400Y660752D01*
X228413Y660767D01*
X228452Y660863D01*
X228495Y660957D01*
X228497Y660977D01*
X228505Y660995D01*
X228523Y661162D01*
X228523Y672691D01*
X237717Y672691D01*
X239628Y672388D01*
X241468Y671790D01*
X243192Y670912D01*
X244757Y669775D01*
X246125Y668407D01*
X247161Y666980D01*
X247167Y666975D01*
X247171Y666968D01*
X247254Y666889D01*
X247336Y666807D01*
X247343Y666804D01*
X247349Y666798D01*
X247453Y666750D01*
X247557Y666699D01*
X247565Y666698D01*
X247572Y666695D01*
X247686Y666682D01*
X247801Y666667D01*
X247809Y666669D01*
X247816Y666668D01*
X247929Y666692D01*
X248042Y666714D01*
X248049Y666718D01*
X248057Y666720D01*
X248155Y666779D01*
X248256Y666836D01*
X248261Y666842D01*
X248268Y666846D01*
X248343Y666934D01*
X248420Y667020D01*
X248423Y667027D01*
X248428Y667033D01*
X248471Y667140D01*
X248516Y667246D01*
X248517Y667254D01*
X248520Y667261D01*
X248538Y667428D01*
X248538Y693070D01*
X248523Y693166D01*
X248513Y693263D01*
X248503Y693287D01*
X248499Y693313D01*
X248453Y693399D01*
X248413Y693488D01*
X248396Y693507D01*
X248383Y693530D01*
X248313Y693597D01*
X248247Y693669D01*
X248224Y693682D01*
X248205Y693700D01*
X248117Y693741D01*
X248031Y693788D01*
X248006Y693792D01*
X247982Y693803D01*
X247885Y693814D01*
X247789Y693831D01*
X247763Y693827D01*
X247738Y693830D01*
X247642Y693810D01*
X247546Y693795D01*
X247523Y693784D01*
X247497Y693778D01*
X247414Y693728D01*
X247327Y693684D01*
X247308Y693665D01*
X247286Y693652D01*
X247223Y693578D01*
X247155Y693508D01*
X247139Y693480D01*
X247126Y693465D01*
X247114Y693434D01*
X247074Y693361D01*
X246308Y691513D01*
X243137Y688342D01*
X238993Y686625D01*
X215007Y686625D01*
X210863Y688342D01*
X207692Y691513D01*
X205975Y695657D01*
X205975Y700143D01*
X207692Y704287D01*
X210863Y707458D01*
X215007Y709175D01*
X238254Y709175D01*
X238324Y709186D01*
X238396Y709188D01*
X238445Y709206D01*
X238496Y709214D01*
X238560Y709248D01*
X238627Y709273D01*
X238668Y709305D01*
X238714Y709330D01*
X238763Y709382D01*
X238819Y709426D01*
X238847Y709470D01*
X238883Y709508D01*
X238913Y709573D01*
X238952Y709633D01*
X238965Y709684D01*
X238987Y709731D01*
X238995Y709802D01*
X239012Y709872D01*
X239008Y709924D01*
X239014Y709975D01*
X238999Y710046D01*
X238993Y710117D01*
X238973Y710165D01*
X238962Y710216D01*
X238925Y710277D01*
X238897Y710343D01*
X238852Y710399D01*
X238835Y710427D01*
X238818Y710442D01*
X238792Y710474D01*
X200913Y748353D01*
X200913Y813747D01*
X202476Y815310D01*
X213130Y825964D01*
X213157Y826001D01*
X213190Y826032D01*
X213228Y826100D01*
X213273Y826163D01*
X213287Y826207D01*
X213309Y826247D01*
X213323Y826324D01*
X213346Y826398D01*
X213344Y826444D01*
X213353Y826490D01*
X213341Y826567D01*
X213339Y826644D01*
X213324Y826687D01*
X213317Y826733D01*
X213282Y826802D01*
X213255Y826875D01*
X213226Y826911D01*
X213205Y826952D01*
X213150Y827007D01*
X213101Y827067D01*
X213063Y827092D01*
X213030Y827124D01*
X212910Y827190D01*
X212894Y827200D01*
X212889Y827202D01*
X212883Y827205D01*
X210863Y828042D01*
X207692Y831213D01*
X205975Y835357D01*
X205975Y839843D01*
X207692Y843987D01*
X210863Y847158D01*
X215007Y848875D01*
X238993Y848875D01*
X243137Y847158D01*
X246308Y843987D01*
X248025Y839843D01*
X248025Y835357D01*
X246308Y831213D01*
X243137Y828042D01*
X238993Y826325D01*
X220274Y826325D01*
X220184Y826311D01*
X220093Y826303D01*
X220064Y826291D01*
X220032Y826286D01*
X219951Y826243D01*
X219867Y826207D01*
X219835Y826181D01*
X219814Y826170D01*
X219792Y826147D01*
X219736Y826102D01*
X205710Y812076D01*
X205657Y812002D01*
X205597Y811932D01*
X205585Y811902D01*
X205566Y811876D01*
X205539Y811789D01*
X205505Y811704D01*
X205501Y811663D01*
X205494Y811641D01*
X205495Y811609D01*
X205487Y811537D01*
X205487Y804990D01*
X205502Y804894D01*
X205512Y804797D01*
X205522Y804773D01*
X205526Y804748D01*
X205572Y804662D01*
X205612Y804573D01*
X205629Y804553D01*
X205642Y804530D01*
X205712Y804463D01*
X205778Y804391D01*
X205801Y804379D01*
X205820Y804361D01*
X205908Y804320D01*
X205994Y804273D01*
X206019Y804268D01*
X206043Y804257D01*
X206140Y804246D01*
X206236Y804229D01*
X206262Y804233D01*
X206287Y804230D01*
X206383Y804251D01*
X206479Y804265D01*
X206502Y804277D01*
X206528Y804282D01*
X206611Y804332D01*
X206698Y804376D01*
X206717Y804395D01*
X206739Y804409D01*
X206802Y804482D01*
X206870Y804552D01*
X206886Y804581D01*
X206899Y804595D01*
X206911Y804626D01*
X206951Y804699D01*
X207692Y806487D01*
X210863Y809658D01*
X215007Y811375D01*
X238993Y811375D01*
X243137Y809658D01*
X246308Y806487D01*
X248025Y802343D01*
X248025Y797857D01*
X246308Y793713D01*
X243137Y790542D01*
X238993Y788825D01*
X215007Y788825D01*
X210863Y790542D01*
X207692Y793713D01*
X206951Y795501D01*
X206900Y795584D01*
X206854Y795670D01*
X206836Y795688D01*
X206822Y795710D01*
X206746Y795772D01*
X206676Y795839D01*
X206652Y795850D01*
X206632Y795867D01*
X206541Y795902D01*
X206453Y795943D01*
X206427Y795946D01*
X206403Y795955D01*
X206305Y795959D01*
X206209Y795970D01*
X206183Y795964D01*
X206157Y795965D01*
X206063Y795938D01*
X205968Y795918D01*
X205946Y795904D01*
X205921Y795897D01*
X205841Y795841D01*
X205757Y795791D01*
X205740Y795772D01*
X205719Y795757D01*
X205660Y795679D01*
X205597Y795605D01*
X205587Y795580D01*
X205572Y795559D01*
X205542Y795467D01*
X205505Y795376D01*
X205502Y795344D01*
X205496Y795325D01*
X205496Y795292D01*
X205487Y795210D01*
X205487Y767490D01*
X205502Y767394D01*
X205512Y767297D01*
X205522Y767273D01*
X205526Y767248D01*
X205572Y767162D01*
X205612Y767073D01*
X205629Y767053D01*
X205642Y767030D01*
X205712Y766963D01*
X205778Y766891D01*
X205801Y766879D01*
X205820Y766861D01*
X205908Y766820D01*
X205994Y766773D01*
X206019Y766768D01*
X206043Y766757D01*
X206140Y766746D01*
X206236Y766729D01*
X206262Y766733D01*
X206287Y766730D01*
X206383Y766751D01*
X206479Y766765D01*
X206502Y766777D01*
X206528Y766782D01*
X206611Y766832D01*
X206698Y766876D01*
X206717Y766895D01*
X206739Y766909D01*
X206802Y766982D01*
X206870Y767052D01*
X206886Y767081D01*
X206899Y767095D01*
X206911Y767126D01*
X206951Y767199D01*
X207692Y768987D01*
X210863Y772158D01*
X215007Y773875D01*
X238993Y773875D01*
X243137Y772158D01*
X246308Y768987D01*
X248025Y764843D01*
X248025Y760357D01*
X246308Y756213D01*
X243137Y753042D01*
X242531Y752791D01*
X242492Y752767D01*
X242449Y752751D01*
X242389Y752703D01*
X242322Y752661D01*
X242293Y752626D01*
X242257Y752597D01*
X242215Y752532D01*
X242166Y752472D01*
X242149Y752429D01*
X242124Y752391D01*
X242105Y752315D01*
X242077Y752242D01*
X242075Y752197D01*
X242064Y752152D01*
X242070Y752074D01*
X242067Y751997D01*
X242080Y751952D01*
X242083Y751907D01*
X242114Y751835D01*
X242135Y751760D01*
X242162Y751723D01*
X242180Y751680D01*
X242265Y751574D01*
X242276Y751558D01*
X242280Y751555D01*
X242284Y751549D01*
X254724Y739110D01*
X255040Y738794D01*
X255098Y738752D01*
X255150Y738703D01*
X255197Y738681D01*
X255239Y738651D01*
X255308Y738630D01*
X255373Y738599D01*
X255425Y738594D01*
X255475Y738578D01*
X255546Y738580D01*
X255617Y738572D01*
X255668Y738583D01*
X255720Y738585D01*
X255788Y738609D01*
X255858Y738624D01*
X255903Y738651D01*
X255951Y738669D01*
X256007Y738714D01*
X256069Y738751D01*
X256103Y738790D01*
X256143Y738823D01*
X256182Y738883D01*
X256229Y738938D01*
X256248Y738986D01*
X256276Y739030D01*
X256294Y739099D01*
X256321Y739166D01*
X256329Y739237D01*
X256337Y739268D01*
X256335Y739292D01*
X256339Y739332D01*
X256339Y989078D01*
X256336Y989098D01*
X256338Y989117D01*
X256316Y989219D01*
X256300Y989321D01*
X256290Y989338D01*
X256286Y989358D01*
X256233Y989447D01*
X256184Y989538D01*
X256170Y989552D01*
X256160Y989569D01*
X256081Y989636D01*
X256006Y989708D01*
X255988Y989716D01*
X255973Y989729D01*
X255877Y989768D01*
X255783Y989811D01*
X255763Y989813D01*
X255745Y989821D01*
X255578Y989839D01*
X10922Y989839D01*
X10902Y989836D01*
X10883Y989838D01*
X10781Y989816D01*
X10679Y989800D01*
X10662Y989790D01*
X10642Y989786D01*
X10553Y989733D01*
X10462Y989684D01*
X10448Y989670D01*
X10431Y989660D01*
X10364Y989581D01*
X10292Y989506D01*
X10284Y989488D01*
X10271Y989473D01*
X10232Y989377D01*
X10189Y989283D01*
X10187Y989263D01*
X10179Y989245D01*
X10161Y989078D01*
X10161Y10922D01*
X10164Y10902D01*
X10162Y10883D01*
X10184Y10781D01*
X10200Y10679D01*
X10210Y10662D01*
X10214Y10642D01*
X10267Y10553D01*
X10316Y10462D01*
X10330Y10448D01*
X10340Y10431D01*
X10419Y10364D01*
X10494Y10292D01*
X10512Y10284D01*
X10527Y10271D01*
X10623Y10232D01*
X10717Y10189D01*
X10737Y10187D01*
X10755Y10179D01*
X10922Y10161D01*
X255578Y10161D01*
X255598Y10164D01*
G37*
%LPC*%
G36*
X149033Y80771D02*
X149033Y80771D01*
X144271Y85533D01*
X144271Y92267D01*
X144497Y92493D01*
X144509Y92509D01*
X144524Y92521D01*
X144580Y92608D01*
X144640Y92692D01*
X144646Y92711D01*
X144657Y92728D01*
X144682Y92829D01*
X144713Y92927D01*
X144712Y92947D01*
X144717Y92967D01*
X144709Y93070D01*
X144706Y93173D01*
X144700Y93192D01*
X144698Y93212D01*
X144658Y93307D01*
X144622Y93404D01*
X144609Y93420D01*
X144602Y93438D01*
X144497Y93569D01*
X87248Y150818D01*
X87248Y623577D01*
X87234Y623668D01*
X87226Y623758D01*
X87214Y623788D01*
X87209Y623820D01*
X87166Y623901D01*
X87130Y623985D01*
X87104Y624017D01*
X87093Y624038D01*
X87070Y624060D01*
X87025Y624116D01*
X53096Y658045D01*
X53022Y658098D01*
X52952Y658158D01*
X52922Y658170D01*
X52896Y658189D01*
X52809Y658216D01*
X52724Y658250D01*
X52683Y658254D01*
X52661Y658261D01*
X52629Y658260D01*
X52557Y658268D01*
X48602Y658268D01*
X45493Y661377D01*
X45493Y662722D01*
X45482Y662792D01*
X45480Y662864D01*
X45462Y662913D01*
X45454Y662964D01*
X45420Y663028D01*
X45395Y663095D01*
X45363Y663136D01*
X45338Y663182D01*
X45286Y663231D01*
X45242Y663287D01*
X45198Y663315D01*
X45160Y663351D01*
X45095Y663381D01*
X45035Y663420D01*
X44984Y663433D01*
X44937Y663455D01*
X44866Y663463D01*
X44796Y663480D01*
X44744Y663476D01*
X44693Y663482D01*
X44622Y663467D01*
X44551Y663461D01*
X44503Y663441D01*
X44452Y663430D01*
X44391Y663393D01*
X44325Y663365D01*
X44269Y663320D01*
X44241Y663303D01*
X44226Y663286D01*
X44194Y663260D01*
X40610Y659676D01*
X40557Y659602D01*
X40497Y659532D01*
X40485Y659502D01*
X40466Y659476D01*
X40439Y659389D01*
X40405Y659304D01*
X40401Y659263D01*
X40394Y659241D01*
X40395Y659209D01*
X40387Y659137D01*
X40387Y554990D01*
X40390Y554970D01*
X40388Y554951D01*
X40410Y554849D01*
X40426Y554747D01*
X40436Y554730D01*
X40440Y554710D01*
X40493Y554621D01*
X40542Y554530D01*
X40556Y554516D01*
X40566Y554499D01*
X40645Y554432D01*
X40720Y554360D01*
X40738Y554352D01*
X40753Y554339D01*
X40849Y554300D01*
X40943Y554257D01*
X40963Y554255D01*
X40981Y554247D01*
X41148Y554229D01*
X46321Y554229D01*
X49309Y552991D01*
X51595Y550705D01*
X52833Y547717D01*
X52833Y544483D01*
X51595Y541495D01*
X49309Y539209D01*
X46321Y537971D01*
X41148Y537971D01*
X41128Y537968D01*
X41109Y537970D01*
X41007Y537948D01*
X40905Y537932D01*
X40888Y537922D01*
X40868Y537918D01*
X40779Y537865D01*
X40688Y537816D01*
X40674Y537802D01*
X40657Y537792D01*
X40590Y537713D01*
X40518Y537638D01*
X40510Y537620D01*
X40497Y537605D01*
X40458Y537509D01*
X40415Y537415D01*
X40413Y537395D01*
X40405Y537377D01*
X40387Y537210D01*
X40387Y396058D01*
X40401Y395968D01*
X40409Y395877D01*
X40421Y395848D01*
X40426Y395816D01*
X40469Y395735D01*
X40505Y395651D01*
X40531Y395619D01*
X40542Y395598D01*
X40565Y395576D01*
X40610Y395520D01*
X43407Y392723D01*
X43407Y388327D01*
X40610Y385530D01*
X40557Y385456D01*
X40497Y385386D01*
X40485Y385356D01*
X40466Y385330D01*
X40439Y385243D01*
X40405Y385158D01*
X40401Y385117D01*
X40394Y385095D01*
X40395Y385063D01*
X40387Y384992D01*
X40387Y302888D01*
X40401Y302797D01*
X40409Y302707D01*
X40421Y302677D01*
X40426Y302645D01*
X40469Y302564D01*
X40505Y302480D01*
X40531Y302448D01*
X40542Y302427D01*
X40565Y302405D01*
X40610Y302349D01*
X54854Y288105D01*
X54928Y288052D01*
X54998Y287992D01*
X55028Y287980D01*
X55054Y287961D01*
X55141Y287934D01*
X55226Y287900D01*
X55267Y287896D01*
X55289Y287889D01*
X55321Y287890D01*
X55393Y287882D01*
X59348Y287882D01*
X62457Y284773D01*
X62457Y280377D01*
X59348Y277268D01*
X54952Y277268D01*
X51843Y280377D01*
X51843Y284332D01*
X51829Y284423D01*
X51821Y284513D01*
X51809Y284543D01*
X51804Y284575D01*
X51761Y284656D01*
X51725Y284740D01*
X51699Y284772D01*
X51688Y284793D01*
X51665Y284815D01*
X51620Y284871D01*
X35813Y300678D01*
X35813Y384992D01*
X35799Y385082D01*
X35791Y385173D01*
X35779Y385202D01*
X35774Y385234D01*
X35731Y385315D01*
X35695Y385399D01*
X35669Y385431D01*
X35658Y385452D01*
X35635Y385474D01*
X35590Y385530D01*
X32793Y388327D01*
X32793Y392723D01*
X35590Y395520D01*
X35643Y395594D01*
X35703Y395664D01*
X35715Y395694D01*
X35734Y395720D01*
X35761Y395807D01*
X35795Y395892D01*
X35799Y395933D01*
X35806Y395955D01*
X35805Y395987D01*
X35813Y396058D01*
X35813Y537210D01*
X35810Y537230D01*
X35812Y537249D01*
X35790Y537351D01*
X35774Y537453D01*
X35764Y537470D01*
X35760Y537490D01*
X35707Y537579D01*
X35658Y537670D01*
X35644Y537684D01*
X35634Y537701D01*
X35555Y537768D01*
X35480Y537840D01*
X35462Y537848D01*
X35447Y537861D01*
X35351Y537900D01*
X35257Y537943D01*
X35237Y537945D01*
X35219Y537953D01*
X35052Y537971D01*
X29879Y537971D01*
X26891Y539209D01*
X24605Y541495D01*
X23367Y544483D01*
X23367Y547717D01*
X24605Y550705D01*
X26891Y552991D01*
X29879Y554229D01*
X35052Y554229D01*
X35072Y554232D01*
X35091Y554230D01*
X35193Y554252D01*
X35295Y554268D01*
X35312Y554278D01*
X35332Y554282D01*
X35421Y554335D01*
X35512Y554384D01*
X35526Y554398D01*
X35543Y554408D01*
X35610Y554487D01*
X35682Y554562D01*
X35690Y554580D01*
X35703Y554595D01*
X35742Y554691D01*
X35785Y554785D01*
X35787Y554805D01*
X35795Y554823D01*
X35813Y554990D01*
X35813Y661347D01*
X51620Y677154D01*
X51673Y677228D01*
X51733Y677298D01*
X51745Y677328D01*
X51764Y677354D01*
X51791Y677441D01*
X51825Y677526D01*
X51829Y677567D01*
X51836Y677589D01*
X51835Y677621D01*
X51843Y677693D01*
X51843Y681648D01*
X54952Y684757D01*
X59472Y684757D01*
X59542Y684768D01*
X59614Y684770D01*
X59663Y684788D01*
X59714Y684796D01*
X59778Y684830D01*
X59845Y684855D01*
X59886Y684887D01*
X59932Y684912D01*
X59981Y684964D01*
X60037Y685008D01*
X60065Y685052D01*
X60101Y685090D01*
X60131Y685155D01*
X60170Y685215D01*
X60183Y685266D01*
X60205Y685313D01*
X60213Y685384D01*
X60230Y685454D01*
X60226Y685506D01*
X60232Y685557D01*
X60217Y685628D01*
X60211Y685699D01*
X60191Y685747D01*
X60180Y685798D01*
X60143Y685859D01*
X60115Y685925D01*
X60070Y685981D01*
X60053Y686009D01*
X60036Y686024D01*
X60010Y686056D01*
X53251Y692815D01*
X51688Y694378D01*
X51688Y727892D01*
X51674Y727982D01*
X51666Y728073D01*
X51654Y728102D01*
X51649Y728134D01*
X51606Y728215D01*
X51570Y728299D01*
X51544Y728331D01*
X51533Y728352D01*
X51510Y728374D01*
X51465Y728430D01*
X48668Y731227D01*
X48668Y735623D01*
X51777Y738732D01*
X56173Y738732D01*
X59282Y735623D01*
X59282Y731227D01*
X56485Y728430D01*
X56432Y728356D01*
X56372Y728286D01*
X56360Y728256D01*
X56341Y728230D01*
X56314Y728143D01*
X56280Y728058D01*
X56276Y728017D01*
X56269Y727995D01*
X56270Y727963D01*
X56262Y727892D01*
X56262Y696588D01*
X56276Y696497D01*
X56284Y696407D01*
X56296Y696377D01*
X56301Y696345D01*
X56344Y696264D01*
X56380Y696180D01*
X56406Y696148D01*
X56417Y696127D01*
X56440Y696105D01*
X56485Y696049D01*
X92954Y659580D01*
X93028Y659527D01*
X93098Y659467D01*
X93128Y659455D01*
X93154Y659436D01*
X93241Y659409D01*
X93326Y659375D01*
X93367Y659371D01*
X93389Y659364D01*
X93421Y659365D01*
X93493Y659357D01*
X97448Y659357D01*
X98014Y658791D01*
X98072Y658749D01*
X98124Y658700D01*
X98171Y658678D01*
X98213Y658648D01*
X98282Y658626D01*
X98347Y658596D01*
X98399Y658591D01*
X98449Y658575D01*
X98520Y658577D01*
X98591Y658569D01*
X98642Y658580D01*
X98694Y658582D01*
X98762Y658606D01*
X98832Y658621D01*
X98877Y658648D01*
X98925Y658666D01*
X98981Y658711D01*
X99043Y658748D01*
X99077Y658787D01*
X99117Y658820D01*
X99156Y658880D01*
X99203Y658935D01*
X99222Y658983D01*
X99250Y659027D01*
X99268Y659096D01*
X99295Y659163D01*
X99303Y659234D01*
X99311Y659265D01*
X99309Y659288D01*
X99313Y659329D01*
X99313Y887992D01*
X99302Y888062D01*
X99300Y888134D01*
X99282Y888183D01*
X99274Y888234D01*
X99240Y888298D01*
X99215Y888365D01*
X99183Y888406D01*
X99158Y888452D01*
X99106Y888501D01*
X99062Y888557D01*
X99018Y888585D01*
X98980Y888621D01*
X98915Y888651D01*
X98855Y888690D01*
X98804Y888703D01*
X98757Y888725D01*
X98686Y888733D01*
X98616Y888750D01*
X98564Y888746D01*
X98513Y888752D01*
X98442Y888737D01*
X98371Y888731D01*
X98323Y888711D01*
X98272Y888700D01*
X98211Y888663D01*
X98145Y888635D01*
X98089Y888590D01*
X98061Y888573D01*
X98046Y888556D01*
X98014Y888530D01*
X24735Y815251D01*
X24682Y815177D01*
X24622Y815107D01*
X24610Y815077D01*
X24591Y815051D01*
X24564Y814964D01*
X24530Y814879D01*
X24526Y814838D01*
X24519Y814816D01*
X24520Y814784D01*
X24512Y814712D01*
X24512Y634183D01*
X24526Y634093D01*
X24534Y634002D01*
X24546Y633973D01*
X24551Y633941D01*
X24594Y633860D01*
X24630Y633776D01*
X24656Y633744D01*
X24667Y633723D01*
X24690Y633701D01*
X24735Y633645D01*
X27532Y630848D01*
X27532Y626452D01*
X24423Y623343D01*
X20027Y623343D01*
X16918Y626452D01*
X16918Y630848D01*
X19715Y633645D01*
X19768Y633719D01*
X19828Y633789D01*
X19840Y633819D01*
X19859Y633845D01*
X19886Y633932D01*
X19920Y634017D01*
X19924Y634058D01*
X19931Y634080D01*
X19930Y634112D01*
X19938Y634183D01*
X19938Y816922D01*
X53172Y850156D01*
X53177Y850163D01*
X53183Y850168D01*
X53249Y850263D01*
X53316Y850356D01*
X53318Y850364D01*
X53323Y850370D01*
X53354Y850481D01*
X53388Y850591D01*
X53388Y850599D01*
X53390Y850607D01*
X53385Y850721D01*
X53382Y850837D01*
X53379Y850844D01*
X53379Y850852D01*
X53337Y850959D01*
X53297Y851068D01*
X53292Y851074D01*
X53290Y851082D01*
X53216Y851170D01*
X53144Y851260D01*
X53137Y851264D01*
X53132Y851270D01*
X53034Y851331D01*
X52937Y851393D01*
X52929Y851395D01*
X52922Y851399D01*
X52810Y851425D01*
X52698Y851453D01*
X52690Y851452D01*
X52683Y851454D01*
X52515Y851446D01*
X52323Y851416D01*
X52323Y860577D01*
X61484Y860577D01*
X61454Y860385D01*
X61454Y860377D01*
X61451Y860369D01*
X61454Y860254D01*
X61455Y860139D01*
X61457Y860132D01*
X61458Y860124D01*
X61497Y860015D01*
X61535Y859906D01*
X61539Y859900D01*
X61542Y859893D01*
X61614Y859803D01*
X61684Y859711D01*
X61691Y859707D01*
X61696Y859700D01*
X61793Y859638D01*
X61888Y859574D01*
X61896Y859572D01*
X61903Y859567D01*
X62014Y859539D01*
X62126Y859509D01*
X62134Y859509D01*
X62141Y859507D01*
X62256Y859516D01*
X62371Y859523D01*
X62379Y859526D01*
X62386Y859527D01*
X62492Y859571D01*
X62599Y859615D01*
X62606Y859620D01*
X62613Y859623D01*
X62744Y859728D01*
X121315Y918299D01*
X121368Y918373D01*
X121428Y918443D01*
X121440Y918473D01*
X121459Y918499D01*
X121486Y918586D01*
X121520Y918671D01*
X121524Y918712D01*
X121531Y918734D01*
X121530Y918766D01*
X121538Y918838D01*
X121538Y920751D01*
X121524Y920841D01*
X121516Y920932D01*
X121504Y920961D01*
X121499Y920993D01*
X121456Y921074D01*
X121420Y921158D01*
X121394Y921190D01*
X121383Y921211D01*
X121360Y921233D01*
X121315Y921289D01*
X118871Y923733D01*
X118871Y930467D01*
X123633Y935229D01*
X130367Y935229D01*
X135129Y930467D01*
X135129Y923733D01*
X130367Y918971D01*
X126873Y918971D01*
X126853Y918968D01*
X126834Y918970D01*
X126732Y918948D01*
X126630Y918932D01*
X126613Y918922D01*
X126593Y918918D01*
X126504Y918865D01*
X126413Y918816D01*
X126399Y918802D01*
X126382Y918792D01*
X126315Y918713D01*
X126243Y918638D01*
X126235Y918620D01*
X126222Y918605D01*
X126183Y918509D01*
X126140Y918415D01*
X126138Y918395D01*
X126130Y918377D01*
X126112Y918210D01*
X126112Y916628D01*
X103798Y894314D01*
X103797Y894313D01*
X103721Y894207D01*
X103655Y894114D01*
X103654Y894114D01*
X103654Y894113D01*
X103616Y893990D01*
X103582Y893879D01*
X103582Y893878D01*
X103582Y893877D01*
X103585Y893757D01*
X103589Y893634D01*
X103589Y893632D01*
X103589Y893631D01*
X103630Y893521D01*
X103673Y893402D01*
X103674Y893402D01*
X103674Y893401D01*
X103749Y893307D01*
X103827Y893210D01*
X103828Y893210D01*
X103828Y893209D01*
X103932Y893143D01*
X104034Y893077D01*
X104035Y893077D01*
X104036Y893077D01*
X104158Y893046D01*
X104272Y893017D01*
X104273Y893017D01*
X104274Y893017D01*
X104399Y893027D01*
X104517Y893037D01*
X104518Y893037D01*
X104519Y893037D01*
X104677Y893095D01*
X125535Y903524D01*
X125566Y903547D01*
X125602Y903562D01*
X125733Y903667D01*
X144497Y922431D01*
X144509Y922447D01*
X144524Y922459D01*
X144580Y922547D01*
X144640Y922631D01*
X144646Y922650D01*
X144657Y922666D01*
X144682Y922767D01*
X144713Y922866D01*
X144712Y922886D01*
X144717Y922905D01*
X144709Y923008D01*
X144706Y923111D01*
X144700Y923130D01*
X144698Y923150D01*
X144658Y923245D01*
X144622Y923343D01*
X144609Y923358D01*
X144602Y923376D01*
X144497Y923507D01*
X144271Y923733D01*
X144271Y930467D01*
X149033Y935229D01*
X155767Y935229D01*
X160529Y930467D01*
X160529Y923733D01*
X155767Y918971D01*
X149033Y918971D01*
X148807Y919197D01*
X148791Y919209D01*
X148779Y919224D01*
X148692Y919280D01*
X148608Y919340D01*
X148589Y919346D01*
X148572Y919357D01*
X148471Y919382D01*
X148373Y919413D01*
X148353Y919412D01*
X148333Y919417D01*
X148230Y919409D01*
X148127Y919406D01*
X148108Y919400D01*
X148088Y919398D01*
X147993Y919358D01*
X147896Y919322D01*
X147880Y919309D01*
X147862Y919302D01*
X147731Y919197D01*
X129126Y900592D01*
X129083Y900532D01*
X129043Y900490D01*
X129036Y900474D01*
X129012Y900447D01*
X128995Y900411D01*
X128982Y900392D01*
X128973Y900361D01*
X128942Y900294D01*
X128870Y900078D01*
X128465Y899876D01*
X128434Y899853D01*
X128398Y899838D01*
X128267Y899733D01*
X127947Y899413D01*
X127720Y899413D01*
X127628Y899398D01*
X127536Y899391D01*
X127499Y899377D01*
X127477Y899374D01*
X127448Y899358D01*
X127379Y899333D01*
X104308Y887797D01*
X104249Y887755D01*
X104197Y887727D01*
X104185Y887715D01*
X104157Y887698D01*
X104135Y887673D01*
X104108Y887653D01*
X104056Y887580D01*
X104047Y887569D01*
X104027Y887549D01*
X104025Y887544D01*
X103997Y887511D01*
X103985Y887480D01*
X103965Y887453D01*
X103939Y887367D01*
X103905Y887283D01*
X103901Y887241D01*
X103894Y887218D01*
X103894Y887186D01*
X103887Y887116D01*
X103887Y869218D01*
X103888Y869210D01*
X103887Y869202D01*
X103908Y869089D01*
X103926Y868976D01*
X103930Y868969D01*
X103932Y868961D01*
X103988Y868860D01*
X104042Y868758D01*
X104047Y868753D01*
X104051Y868746D01*
X104137Y868668D01*
X104220Y868589D01*
X104227Y868586D01*
X104233Y868580D01*
X104339Y868534D01*
X104443Y868485D01*
X104451Y868484D01*
X104458Y868481D01*
X104574Y868471D01*
X104687Y868458D01*
X104695Y868460D01*
X104703Y868459D01*
X104816Y868486D01*
X104928Y868510D01*
X104935Y868515D01*
X104943Y868516D01*
X105041Y868578D01*
X105139Y868637D01*
X105144Y868643D01*
X105151Y868647D01*
X105264Y868771D01*
X105301Y868822D01*
X106800Y870321D01*
X108514Y871566D01*
X110402Y872528D01*
X112418Y873183D01*
X114510Y873515D01*
X124969Y873515D01*
X124969Y860814D01*
X124972Y860794D01*
X124970Y860775D01*
X124992Y860673D01*
X125009Y860571D01*
X125018Y860554D01*
X125022Y860534D01*
X125075Y860445D01*
X125124Y860354D01*
X125138Y860340D01*
X125148Y860323D01*
X125227Y860256D01*
X125302Y860185D01*
X125320Y860176D01*
X125335Y860163D01*
X125431Y860125D01*
X125525Y860081D01*
X125545Y860079D01*
X125563Y860071D01*
X125730Y860053D01*
X126493Y860053D01*
X126493Y860051D01*
X125730Y860051D01*
X125710Y860048D01*
X125691Y860050D01*
X125589Y860028D01*
X125487Y860011D01*
X125470Y860002D01*
X125450Y859998D01*
X125361Y859945D01*
X125270Y859896D01*
X125256Y859882D01*
X125239Y859872D01*
X125172Y859793D01*
X125101Y859718D01*
X125092Y859700D01*
X125079Y859685D01*
X125040Y859589D01*
X124997Y859495D01*
X124995Y859475D01*
X124987Y859457D01*
X124969Y859290D01*
X124969Y846589D01*
X114510Y846589D01*
X112418Y846921D01*
X110402Y847576D01*
X108514Y848538D01*
X106800Y849783D01*
X105301Y851282D01*
X105264Y851333D01*
X105258Y851339D01*
X105254Y851346D01*
X105171Y851425D01*
X105089Y851506D01*
X105082Y851510D01*
X105076Y851515D01*
X104972Y851564D01*
X104868Y851614D01*
X104860Y851615D01*
X104853Y851619D01*
X104739Y851631D01*
X104624Y851646D01*
X104617Y851645D01*
X104609Y851646D01*
X104496Y851621D01*
X104383Y851599D01*
X104376Y851595D01*
X104368Y851594D01*
X104269Y851535D01*
X104169Y851478D01*
X104164Y851472D01*
X104157Y851467D01*
X104082Y851380D01*
X104006Y851294D01*
X104002Y851287D01*
X103997Y851280D01*
X103954Y851173D01*
X103909Y851068D01*
X103908Y851060D01*
X103905Y851052D01*
X103887Y850886D01*
X103887Y748361D01*
X103888Y748353D01*
X103887Y748345D01*
X103908Y748232D01*
X103926Y748118D01*
X103930Y748111D01*
X103932Y748104D01*
X103988Y748002D01*
X104042Y747901D01*
X104047Y747896D01*
X104051Y747889D01*
X104137Y747811D01*
X104220Y747732D01*
X104227Y747728D01*
X104233Y747723D01*
X104339Y747677D01*
X104443Y747628D01*
X104451Y747627D01*
X104458Y747624D01*
X104573Y747614D01*
X104687Y747601D01*
X104695Y747603D01*
X104703Y747602D01*
X104815Y747629D01*
X104928Y747653D01*
X104935Y747657D01*
X104942Y747659D01*
X105040Y747720D01*
X105139Y747779D01*
X105144Y747785D01*
X105151Y747790D01*
X105264Y747914D01*
X105809Y748664D01*
X107308Y750163D01*
X109022Y751408D01*
X110910Y752370D01*
X112926Y753025D01*
X115018Y753357D01*
X125477Y753357D01*
X125477Y740656D01*
X125480Y740636D01*
X125478Y740617D01*
X125500Y740515D01*
X125517Y740413D01*
X125526Y740396D01*
X125530Y740376D01*
X125583Y740287D01*
X125632Y740196D01*
X125646Y740182D01*
X125656Y740165D01*
X125735Y740098D01*
X125810Y740027D01*
X125828Y740018D01*
X125843Y740005D01*
X125939Y739967D01*
X126033Y739923D01*
X126053Y739921D01*
X126071Y739913D01*
X126238Y739895D01*
X127001Y739895D01*
X127001Y739893D01*
X126238Y739893D01*
X126218Y739890D01*
X126199Y739892D01*
X126097Y739870D01*
X125995Y739853D01*
X125978Y739844D01*
X125958Y739840D01*
X125869Y739787D01*
X125778Y739738D01*
X125764Y739724D01*
X125747Y739714D01*
X125680Y739635D01*
X125609Y739560D01*
X125600Y739542D01*
X125587Y739527D01*
X125548Y739431D01*
X125505Y739337D01*
X125503Y739317D01*
X125495Y739299D01*
X125477Y739132D01*
X125477Y726386D01*
X125470Y726382D01*
X125450Y726378D01*
X125361Y726325D01*
X125270Y726276D01*
X125256Y726262D01*
X125239Y726252D01*
X125172Y726173D01*
X125101Y726098D01*
X125092Y726080D01*
X125079Y726065D01*
X125040Y725969D01*
X124997Y725875D01*
X124995Y725855D01*
X124987Y725837D01*
X124969Y725670D01*
X124969Y721114D01*
X124972Y721094D01*
X124970Y721075D01*
X124992Y720973D01*
X125009Y720871D01*
X125018Y720854D01*
X125022Y720834D01*
X125075Y720745D01*
X125124Y720654D01*
X125138Y720640D01*
X125148Y720623D01*
X125227Y720556D01*
X125302Y720485D01*
X125320Y720476D01*
X125335Y720463D01*
X125431Y720425D01*
X125525Y720381D01*
X125545Y720379D01*
X125563Y720371D01*
X125730Y720353D01*
X126493Y720353D01*
X126493Y720351D01*
X125730Y720351D01*
X125710Y720348D01*
X125691Y720350D01*
X125589Y720328D01*
X125487Y720311D01*
X125470Y720302D01*
X125450Y720298D01*
X125361Y720245D01*
X125270Y720196D01*
X125256Y720182D01*
X125239Y720172D01*
X125172Y720093D01*
X125101Y720018D01*
X125092Y720000D01*
X125079Y719985D01*
X125040Y719889D01*
X124997Y719795D01*
X124995Y719775D01*
X124987Y719757D01*
X124969Y719590D01*
X124969Y706889D01*
X114510Y706889D01*
X112418Y707221D01*
X110402Y707876D01*
X108514Y708838D01*
X106800Y710083D01*
X105301Y711582D01*
X105264Y711633D01*
X105258Y711639D01*
X105254Y711646D01*
X105171Y711725D01*
X105089Y711806D01*
X105082Y711810D01*
X105076Y711815D01*
X104972Y711864D01*
X104868Y711914D01*
X104860Y711915D01*
X104853Y711919D01*
X104739Y711931D01*
X104624Y711946D01*
X104617Y711945D01*
X104609Y711946D01*
X104496Y711921D01*
X104383Y711899D01*
X104376Y711895D01*
X104368Y711894D01*
X104269Y711835D01*
X104169Y711778D01*
X104164Y711772D01*
X104157Y711767D01*
X104082Y711680D01*
X104006Y711594D01*
X104002Y711587D01*
X103997Y711580D01*
X103954Y711473D01*
X103909Y711368D01*
X103908Y711360D01*
X103905Y711352D01*
X103887Y711186D01*
X103887Y650058D01*
X103901Y649968D01*
X103909Y649877D01*
X103921Y649848D01*
X103926Y649816D01*
X103969Y649735D01*
X104005Y649651D01*
X104031Y649619D01*
X104042Y649598D01*
X104065Y649576D01*
X104110Y649520D01*
X106907Y646723D01*
X106907Y642327D01*
X103798Y639218D01*
X99402Y639218D01*
X96293Y642327D01*
X96293Y646723D01*
X97014Y647444D01*
X97056Y647502D01*
X97105Y647554D01*
X97127Y647601D01*
X97157Y647643D01*
X97179Y647712D01*
X97209Y647777D01*
X97214Y647829D01*
X97230Y647879D01*
X97228Y647950D01*
X97236Y648021D01*
X97225Y648072D01*
X97223Y648124D01*
X97199Y648192D01*
X97184Y648262D01*
X97157Y648307D01*
X97139Y648355D01*
X97094Y648411D01*
X97057Y648473D01*
X97018Y648507D01*
X96985Y648547D01*
X96925Y648586D01*
X96870Y648633D01*
X96822Y648652D01*
X96778Y648680D01*
X96709Y648698D01*
X96642Y648725D01*
X96571Y648733D01*
X96540Y648741D01*
X96517Y648739D01*
X96476Y648743D01*
X93052Y648743D01*
X89943Y651852D01*
X89943Y655807D01*
X89929Y655898D01*
X89921Y655988D01*
X89909Y656018D01*
X89904Y656050D01*
X89861Y656131D01*
X89825Y656215D01*
X89799Y656247D01*
X89788Y656268D01*
X89765Y656290D01*
X89720Y656346D01*
X63756Y682310D01*
X63698Y682352D01*
X63646Y682401D01*
X63599Y682423D01*
X63557Y682453D01*
X63488Y682474D01*
X63423Y682505D01*
X63371Y682510D01*
X63321Y682526D01*
X63250Y682524D01*
X63179Y682532D01*
X63128Y682521D01*
X63076Y682519D01*
X63008Y682495D01*
X62938Y682480D01*
X62893Y682453D01*
X62845Y682435D01*
X62789Y682390D01*
X62727Y682353D01*
X62693Y682314D01*
X62653Y682281D01*
X62614Y682221D01*
X62567Y682166D01*
X62548Y682118D01*
X62520Y682074D01*
X62502Y682005D01*
X62475Y681938D01*
X62467Y681867D01*
X62459Y681836D01*
X62461Y681812D01*
X62457Y681772D01*
X62457Y677252D01*
X59348Y674143D01*
X55393Y674143D01*
X55302Y674129D01*
X55212Y674121D01*
X55182Y674109D01*
X55150Y674104D01*
X55069Y674061D01*
X54985Y674025D01*
X54953Y673999D01*
X54932Y673988D01*
X54910Y673965D01*
X54854Y673920D01*
X51115Y670181D01*
X51073Y670123D01*
X51024Y670071D01*
X51002Y670024D01*
X50972Y669982D01*
X50951Y669913D01*
X50920Y669848D01*
X50915Y669796D01*
X50899Y669746D01*
X50901Y669675D01*
X50893Y669604D01*
X50904Y669553D01*
X50906Y669501D01*
X50930Y669433D01*
X50945Y669363D01*
X50972Y669318D01*
X50990Y669270D01*
X51035Y669214D01*
X51072Y669152D01*
X51111Y669118D01*
X51144Y669078D01*
X51204Y669039D01*
X51259Y668992D01*
X51307Y668973D01*
X51351Y668945D01*
X51420Y668927D01*
X51487Y668900D01*
X51558Y668892D01*
X51589Y668884D01*
X51613Y668886D01*
X51653Y668882D01*
X52998Y668882D01*
X56107Y665773D01*
X56107Y661818D01*
X56121Y661727D01*
X56129Y661637D01*
X56141Y661607D01*
X56146Y661575D01*
X56189Y661494D01*
X56225Y661410D01*
X56251Y661378D01*
X56262Y661357D01*
X56285Y661335D01*
X56312Y661301D01*
X56313Y661300D01*
X56314Y661299D01*
X56330Y661279D01*
X91822Y625787D01*
X91822Y513711D01*
X91833Y513640D01*
X91835Y513568D01*
X91853Y513519D01*
X91861Y513468D01*
X91895Y513404D01*
X91920Y513337D01*
X91952Y513296D01*
X91977Y513250D01*
X92029Y513201D01*
X92073Y513145D01*
X92117Y513117D01*
X92155Y513081D01*
X92220Y513051D01*
X92280Y513012D01*
X92331Y512999D01*
X92378Y512977D01*
X92449Y512970D01*
X92519Y512952D01*
X92571Y512956D01*
X92622Y512950D01*
X92693Y512966D01*
X92764Y512971D01*
X92812Y512991D01*
X92863Y513003D01*
X92924Y513039D01*
X92990Y513067D01*
X93046Y513112D01*
X93074Y513129D01*
X93089Y513147D01*
X93121Y513172D01*
X97602Y517653D01*
X100077Y517653D01*
X100077Y508762D01*
X100079Y508749D01*
X100078Y508740D01*
X100079Y508734D01*
X100078Y508723D01*
X100100Y508621D01*
X100117Y508519D01*
X100126Y508502D01*
X100130Y508482D01*
X100183Y508393D01*
X100232Y508302D01*
X100246Y508288D01*
X100256Y508271D01*
X100335Y508204D01*
X100410Y508133D01*
X100428Y508124D01*
X100443Y508111D01*
X100539Y508073D01*
X100633Y508029D01*
X100653Y508027D01*
X100671Y508019D01*
X100838Y508001D01*
X101601Y508001D01*
X101601Y507999D01*
X100838Y507999D01*
X100818Y507996D01*
X100799Y507998D01*
X100697Y507976D01*
X100595Y507959D01*
X100578Y507950D01*
X100558Y507946D01*
X100469Y507893D01*
X100378Y507844D01*
X100364Y507830D01*
X100347Y507820D01*
X100280Y507741D01*
X100209Y507666D01*
X100200Y507648D01*
X100187Y507633D01*
X100148Y507537D01*
X100105Y507443D01*
X100103Y507423D01*
X100095Y507405D01*
X100077Y507238D01*
X100077Y498347D01*
X97602Y498347D01*
X93121Y502828D01*
X93063Y502870D01*
X93011Y502919D01*
X92964Y502941D01*
X92922Y502971D01*
X92853Y502992D01*
X92788Y503023D01*
X92736Y503028D01*
X92686Y503044D01*
X92615Y503042D01*
X92544Y503050D01*
X92493Y503039D01*
X92441Y503037D01*
X92373Y503013D01*
X92303Y502997D01*
X92258Y502971D01*
X92210Y502953D01*
X92154Y502908D01*
X92092Y502871D01*
X92058Y502832D01*
X92018Y502799D01*
X91979Y502739D01*
X91932Y502684D01*
X91913Y502636D01*
X91885Y502592D01*
X91867Y502523D01*
X91840Y502456D01*
X91832Y502385D01*
X91824Y502354D01*
X91826Y502330D01*
X91822Y502289D01*
X91822Y488311D01*
X91833Y488240D01*
X91835Y488168D01*
X91853Y488119D01*
X91861Y488068D01*
X91895Y488004D01*
X91920Y487937D01*
X91952Y487896D01*
X91977Y487850D01*
X92029Y487801D01*
X92073Y487745D01*
X92117Y487717D01*
X92155Y487681D01*
X92220Y487651D01*
X92280Y487612D01*
X92331Y487599D01*
X92378Y487577D01*
X92449Y487570D01*
X92519Y487552D01*
X92571Y487556D01*
X92622Y487550D01*
X92693Y487566D01*
X92764Y487571D01*
X92812Y487591D01*
X92863Y487603D01*
X92924Y487639D01*
X92990Y487667D01*
X93046Y487712D01*
X93074Y487729D01*
X93089Y487747D01*
X93121Y487772D01*
X97602Y492253D01*
X100077Y492253D01*
X100077Y483362D01*
X100080Y483342D01*
X100078Y483323D01*
X100100Y483221D01*
X100117Y483119D01*
X100126Y483102D01*
X100130Y483082D01*
X100183Y482993D01*
X100232Y482902D01*
X100246Y482888D01*
X100256Y482871D01*
X100335Y482804D01*
X100410Y482733D01*
X100428Y482724D01*
X100443Y482711D01*
X100539Y482673D01*
X100633Y482629D01*
X100653Y482627D01*
X100671Y482619D01*
X100838Y482601D01*
X101601Y482601D01*
X101601Y482599D01*
X100838Y482599D01*
X100818Y482596D01*
X100799Y482598D01*
X100697Y482576D01*
X100595Y482559D01*
X100578Y482550D01*
X100558Y482546D01*
X100469Y482493D01*
X100378Y482444D01*
X100364Y482430D01*
X100347Y482420D01*
X100280Y482341D01*
X100209Y482266D01*
X100200Y482248D01*
X100187Y482233D01*
X100148Y482137D01*
X100105Y482043D01*
X100103Y482023D01*
X100095Y482005D01*
X100077Y481838D01*
X100077Y472947D01*
X97602Y472947D01*
X93121Y477428D01*
X93063Y477470D01*
X93011Y477519D01*
X92964Y477541D01*
X92922Y477571D01*
X92853Y477592D01*
X92788Y477623D01*
X92736Y477628D01*
X92686Y477644D01*
X92615Y477642D01*
X92544Y477650D01*
X92493Y477639D01*
X92441Y477637D01*
X92373Y477613D01*
X92303Y477597D01*
X92258Y477571D01*
X92210Y477553D01*
X92154Y477508D01*
X92092Y477471D01*
X92058Y477432D01*
X92018Y477399D01*
X91979Y477339D01*
X91932Y477284D01*
X91913Y477236D01*
X91885Y477192D01*
X91867Y477123D01*
X91840Y477056D01*
X91832Y476985D01*
X91824Y476954D01*
X91826Y476930D01*
X91822Y476889D01*
X91822Y153028D01*
X91836Y152937D01*
X91844Y152847D01*
X91856Y152817D01*
X91861Y152785D01*
X91904Y152704D01*
X91940Y152620D01*
X91966Y152588D01*
X91977Y152567D01*
X92000Y152545D01*
X92045Y152489D01*
X147731Y96803D01*
X147747Y96791D01*
X147759Y96776D01*
X147847Y96720D01*
X147931Y96660D01*
X147950Y96654D01*
X147966Y96643D01*
X148067Y96618D01*
X148166Y96587D01*
X148186Y96588D01*
X148205Y96583D01*
X148308Y96591D01*
X148411Y96594D01*
X148430Y96600D01*
X148450Y96602D01*
X148545Y96642D01*
X148643Y96678D01*
X148658Y96691D01*
X148676Y96698D01*
X148807Y96803D01*
X149033Y97029D01*
X155767Y97029D01*
X160529Y92267D01*
X160529Y85533D01*
X155767Y80771D01*
X149033Y80771D01*
G37*
%LPD*%
%LPC*%
G36*
X213956Y129125D02*
X213956Y129125D01*
X210363Y130613D01*
X207613Y133363D01*
X206125Y136956D01*
X206125Y140844D01*
X207511Y144190D01*
X207538Y144304D01*
X207566Y144417D01*
X207566Y144424D01*
X207567Y144430D01*
X207556Y144546D01*
X207547Y144663D01*
X207545Y144668D01*
X207544Y144675D01*
X207496Y144782D01*
X207451Y144889D01*
X207446Y144895D01*
X207444Y144899D01*
X207432Y144913D01*
X207346Y145020D01*
X200913Y151453D01*
X200913Y306077D01*
X200899Y306168D01*
X200891Y306258D01*
X200879Y306288D01*
X200874Y306320D01*
X200831Y306401D01*
X200795Y306485D01*
X200769Y306517D01*
X200758Y306538D01*
X200735Y306560D01*
X200690Y306616D01*
X186601Y320705D01*
X186527Y320758D01*
X186457Y320818D01*
X186427Y320830D01*
X186401Y320849D01*
X186314Y320876D01*
X186229Y320910D01*
X186188Y320914D01*
X186166Y320921D01*
X186134Y320920D01*
X186062Y320928D01*
X147138Y320928D01*
X147048Y320914D01*
X146957Y320906D01*
X146928Y320894D01*
X146896Y320889D01*
X146815Y320846D01*
X146731Y320810D01*
X146699Y320784D01*
X146678Y320773D01*
X146656Y320750D01*
X146600Y320705D01*
X143803Y317908D01*
X139407Y317908D01*
X136298Y321017D01*
X136298Y325413D01*
X139407Y328522D01*
X143803Y328522D01*
X146600Y325725D01*
X146674Y325672D01*
X146744Y325612D01*
X146774Y325600D01*
X146800Y325581D01*
X146887Y325554D01*
X146972Y325520D01*
X147013Y325516D01*
X147035Y325509D01*
X147067Y325510D01*
X147138Y325502D01*
X188272Y325502D01*
X205487Y308287D01*
X205487Y258290D01*
X205502Y258194D01*
X205512Y258097D01*
X205522Y258073D01*
X205526Y258048D01*
X205572Y257962D01*
X205612Y257873D01*
X205629Y257853D01*
X205642Y257830D01*
X205712Y257763D01*
X205778Y257691D01*
X205801Y257679D01*
X205820Y257661D01*
X205908Y257620D01*
X205994Y257573D01*
X206019Y257568D01*
X206043Y257557D01*
X206140Y257546D01*
X206236Y257529D01*
X206262Y257533D01*
X206287Y257530D01*
X206383Y257551D01*
X206479Y257565D01*
X206502Y257577D01*
X206528Y257582D01*
X206611Y257632D01*
X206698Y257676D01*
X206717Y257695D01*
X206739Y257708D01*
X206802Y257782D01*
X206870Y257852D01*
X206886Y257881D01*
X206899Y257895D01*
X206911Y257926D01*
X206951Y257999D01*
X207692Y259787D01*
X210863Y262958D01*
X215007Y264675D01*
X238993Y264675D01*
X243137Y262958D01*
X246308Y259787D01*
X248025Y255643D01*
X248025Y251157D01*
X246308Y247013D01*
X243137Y243842D01*
X238993Y242125D01*
X215007Y242125D01*
X210863Y243842D01*
X207692Y247013D01*
X206951Y248801D01*
X206900Y248884D01*
X206854Y248970D01*
X206836Y248988D01*
X206822Y249010D01*
X206746Y249072D01*
X206676Y249139D01*
X206652Y249150D01*
X206632Y249167D01*
X206541Y249202D01*
X206453Y249243D01*
X206427Y249246D01*
X206403Y249255D01*
X206305Y249259D01*
X206209Y249270D01*
X206183Y249264D01*
X206157Y249266D01*
X206063Y249238D01*
X205968Y249218D01*
X205946Y249204D01*
X205921Y249197D01*
X205841Y249141D01*
X205757Y249092D01*
X205740Y249072D01*
X205719Y249057D01*
X205660Y248979D01*
X205597Y248905D01*
X205587Y248880D01*
X205572Y248859D01*
X205542Y248767D01*
X205505Y248676D01*
X205502Y248644D01*
X205496Y248625D01*
X205496Y248592D01*
X205487Y248510D01*
X205487Y222962D01*
X205488Y222955D01*
X205487Y222947D01*
X205508Y222833D01*
X205526Y222720D01*
X205530Y222713D01*
X205532Y222705D01*
X205588Y222604D01*
X205642Y222502D01*
X205647Y222497D01*
X205651Y222490D01*
X205736Y222412D01*
X205820Y222333D01*
X205827Y222329D01*
X205833Y222324D01*
X205938Y222278D01*
X206043Y222229D01*
X206051Y222228D01*
X206058Y222225D01*
X206173Y222215D01*
X206287Y222202D01*
X206295Y222204D01*
X206303Y222203D01*
X206415Y222230D01*
X206528Y222254D01*
X206535Y222259D01*
X206542Y222260D01*
X206640Y222321D01*
X206739Y222381D01*
X206744Y222387D01*
X206751Y222391D01*
X206864Y222515D01*
X207875Y223907D01*
X209243Y225275D01*
X210808Y226412D01*
X212532Y227290D01*
X214372Y227888D01*
X216283Y228191D01*
X225477Y228191D01*
X225477Y216662D01*
X225480Y216642D01*
X225478Y216623D01*
X225500Y216521D01*
X225517Y216419D01*
X225526Y216402D01*
X225530Y216382D01*
X225583Y216293D01*
X225632Y216202D01*
X225646Y216188D01*
X225656Y216171D01*
X225735Y216104D01*
X225810Y216033D01*
X225828Y216024D01*
X225843Y216011D01*
X225939Y215973D01*
X226033Y215929D01*
X226053Y215927D01*
X226071Y215919D01*
X226238Y215901D01*
X227762Y215901D01*
X227782Y215904D01*
X227801Y215902D01*
X227903Y215924D01*
X228005Y215941D01*
X228022Y215950D01*
X228042Y215954D01*
X228131Y216007D01*
X228222Y216056D01*
X228236Y216070D01*
X228253Y216080D01*
X228320Y216159D01*
X228391Y216234D01*
X228400Y216252D01*
X228413Y216267D01*
X228452Y216363D01*
X228495Y216457D01*
X228497Y216477D01*
X228505Y216495D01*
X228523Y216662D01*
X228523Y228191D01*
X232367Y228191D01*
X232437Y228202D01*
X232509Y228204D01*
X232558Y228222D01*
X232609Y228230D01*
X232673Y228264D01*
X232740Y228289D01*
X232781Y228321D01*
X232827Y228346D01*
X232876Y228397D01*
X232932Y228442D01*
X232960Y228486D01*
X232996Y228524D01*
X233026Y228589D01*
X233065Y228649D01*
X233078Y228700D01*
X233100Y228747D01*
X233108Y228818D01*
X233125Y228888D01*
X233121Y228940D01*
X233127Y228991D01*
X233112Y229062D01*
X233106Y229133D01*
X233086Y229181D01*
X233075Y229232D01*
X233038Y229293D01*
X233010Y229359D01*
X232965Y229415D01*
X232948Y229443D01*
X232931Y229458D01*
X232905Y229490D01*
X229643Y232752D01*
X229643Y237148D01*
X232752Y240257D01*
X237148Y240257D01*
X240257Y237148D01*
X240257Y233193D01*
X240259Y233179D01*
X240258Y233168D01*
X240270Y233110D01*
X240271Y233102D01*
X240279Y233012D01*
X240291Y232982D01*
X240296Y232950D01*
X240339Y232869D01*
X240375Y232785D01*
X240401Y232753D01*
X240412Y232732D01*
X240435Y232710D01*
X240480Y232654D01*
X253112Y220022D01*
X253112Y202253D01*
X240888Y190029D01*
X240861Y189992D01*
X240827Y189961D01*
X240790Y189892D01*
X240744Y189829D01*
X240731Y189785D01*
X240709Y189745D01*
X240695Y189668D01*
X240672Y189594D01*
X240673Y189548D01*
X240665Y189503D01*
X240676Y189426D01*
X240678Y189348D01*
X240694Y189305D01*
X240701Y189260D01*
X240736Y189190D01*
X240763Y189117D01*
X240792Y189081D01*
X240812Y189041D01*
X240868Y188986D01*
X240917Y188925D01*
X240955Y188900D01*
X240988Y188868D01*
X241108Y188802D01*
X241123Y188792D01*
X241128Y188791D01*
X241135Y188787D01*
X243137Y187958D01*
X246308Y184787D01*
X248025Y180643D01*
X248025Y176157D01*
X246308Y172013D01*
X243137Y168842D01*
X238993Y167125D01*
X215007Y167125D01*
X210863Y168842D01*
X207692Y172013D01*
X206951Y173801D01*
X206900Y173884D01*
X206854Y173970D01*
X206836Y173988D01*
X206822Y174010D01*
X206746Y174072D01*
X206676Y174139D01*
X206652Y174150D01*
X206632Y174167D01*
X206541Y174202D01*
X206453Y174243D01*
X206427Y174246D01*
X206403Y174255D01*
X206305Y174259D01*
X206209Y174270D01*
X206183Y174264D01*
X206157Y174265D01*
X206063Y174238D01*
X205968Y174218D01*
X205946Y174204D01*
X205921Y174197D01*
X205841Y174141D01*
X205757Y174091D01*
X205740Y174072D01*
X205719Y174057D01*
X205660Y173979D01*
X205597Y173905D01*
X205587Y173880D01*
X205572Y173859D01*
X205542Y173767D01*
X205505Y173676D01*
X205502Y173644D01*
X205496Y173625D01*
X205496Y173592D01*
X205487Y173510D01*
X205487Y153663D01*
X205501Y153572D01*
X205509Y153482D01*
X205521Y153452D01*
X205526Y153420D01*
X205569Y153339D01*
X205605Y153255D01*
X205631Y153223D01*
X205642Y153202D01*
X205665Y153180D01*
X205710Y153124D01*
X210911Y147922D01*
X211007Y147854D01*
X211100Y147784D01*
X211106Y147783D01*
X211111Y147779D01*
X211223Y147745D01*
X211334Y147708D01*
X211340Y147708D01*
X211346Y147707D01*
X211463Y147710D01*
X211580Y147711D01*
X211587Y147713D01*
X211592Y147713D01*
X211610Y147719D01*
X211741Y147757D01*
X213956Y148675D01*
X217844Y148675D01*
X221437Y147187D01*
X224187Y144437D01*
X225675Y140844D01*
X225675Y136956D01*
X224187Y133363D01*
X221437Y130613D01*
X217844Y129125D01*
X213956Y129125D01*
G37*
%LPD*%
%LPC*%
G36*
X213956Y882325D02*
X213956Y882325D01*
X210363Y883813D01*
X207613Y886563D01*
X206125Y890156D01*
X206125Y894044D01*
X207613Y897637D01*
X207776Y897800D01*
X207818Y897858D01*
X207867Y897910D01*
X207889Y897957D01*
X207920Y897999D01*
X207941Y898068D01*
X207971Y898133D01*
X207977Y898185D01*
X207992Y898235D01*
X207990Y898306D01*
X207998Y898377D01*
X207987Y898428D01*
X207986Y898480D01*
X207961Y898548D01*
X207946Y898618D01*
X207919Y898663D01*
X207901Y898711D01*
X207856Y898767D01*
X207820Y898829D01*
X207780Y898863D01*
X207748Y898903D01*
X207687Y898942D01*
X207633Y898989D01*
X207584Y899008D01*
X207541Y899036D01*
X207471Y899054D01*
X207405Y899081D01*
X207333Y899089D01*
X207302Y899097D01*
X207279Y899095D01*
X207238Y899099D01*
X187900Y899099D01*
X187899Y899100D01*
X187899Y955100D01*
X187900Y955101D01*
X243900Y955101D01*
X243901Y955100D01*
X243901Y899100D01*
X243900Y899099D01*
X224562Y899099D01*
X224491Y899088D01*
X224420Y899086D01*
X224371Y899068D01*
X224319Y899060D01*
X224256Y899026D01*
X224189Y899001D01*
X224148Y898969D01*
X224102Y898944D01*
X224053Y898893D01*
X223997Y898848D01*
X223968Y898804D01*
X223933Y898766D01*
X223902Y898701D01*
X223864Y898641D01*
X223851Y898590D01*
X223829Y898543D01*
X223821Y898472D01*
X223804Y898402D01*
X223808Y898350D01*
X223802Y898299D01*
X223817Y898228D01*
X223823Y898157D01*
X223843Y898109D01*
X223854Y898058D01*
X223891Y897997D01*
X223919Y897931D01*
X223964Y897875D01*
X223980Y897847D01*
X223998Y897832D01*
X224024Y897800D01*
X224187Y897637D01*
X225675Y894044D01*
X225675Y890156D01*
X224187Y886563D01*
X221437Y883813D01*
X217844Y882325D01*
X213956Y882325D01*
G37*
%LPD*%
%LPC*%
G36*
X48856Y882325D02*
X48856Y882325D01*
X45263Y883813D01*
X42513Y886563D01*
X41025Y890156D01*
X41025Y894044D01*
X42513Y897637D01*
X42676Y897800D01*
X42718Y897858D01*
X42767Y897910D01*
X42789Y897957D01*
X42820Y897999D01*
X42841Y898068D01*
X42871Y898133D01*
X42877Y898185D01*
X42892Y898235D01*
X42890Y898306D01*
X42898Y898377D01*
X42887Y898428D01*
X42886Y898480D01*
X42861Y898548D01*
X42846Y898618D01*
X42819Y898663D01*
X42801Y898711D01*
X42756Y898767D01*
X42720Y898829D01*
X42680Y898863D01*
X42648Y898903D01*
X42587Y898942D01*
X42533Y898989D01*
X42484Y899008D01*
X42441Y899036D01*
X42371Y899054D01*
X42305Y899081D01*
X42233Y899089D01*
X42202Y899097D01*
X42179Y899095D01*
X42138Y899099D01*
X22800Y899099D01*
X22799Y899100D01*
X22799Y955100D01*
X22800Y955101D01*
X78800Y955101D01*
X78801Y955100D01*
X78801Y899100D01*
X78800Y899099D01*
X59462Y899099D01*
X59391Y899088D01*
X59320Y899086D01*
X59271Y899068D01*
X59219Y899060D01*
X59156Y899026D01*
X59089Y899001D01*
X59048Y898969D01*
X59002Y898944D01*
X58953Y898893D01*
X58897Y898848D01*
X58868Y898804D01*
X58833Y898766D01*
X58802Y898701D01*
X58764Y898641D01*
X58751Y898590D01*
X58729Y898543D01*
X58721Y898472D01*
X58704Y898402D01*
X58708Y898350D01*
X58702Y898299D01*
X58717Y898228D01*
X58723Y898157D01*
X58743Y898109D01*
X58754Y898058D01*
X58791Y897997D01*
X58819Y897931D01*
X58864Y897875D01*
X58880Y897847D01*
X58898Y897832D01*
X58924Y897800D01*
X59087Y897637D01*
X60575Y894044D01*
X60575Y890156D01*
X59087Y886563D01*
X56337Y883813D01*
X52744Y882325D01*
X48856Y882325D01*
G37*
%LPD*%
%LPC*%
G36*
X48856Y44125D02*
X48856Y44125D01*
X45263Y45613D01*
X42513Y48363D01*
X41025Y51956D01*
X41025Y55844D01*
X42513Y59437D01*
X42676Y59600D01*
X42718Y59658D01*
X42767Y59710D01*
X42789Y59757D01*
X42820Y59799D01*
X42841Y59868D01*
X42871Y59933D01*
X42877Y59985D01*
X42892Y60035D01*
X42890Y60106D01*
X42898Y60177D01*
X42887Y60228D01*
X42886Y60280D01*
X42861Y60348D01*
X42846Y60418D01*
X42819Y60463D01*
X42801Y60511D01*
X42756Y60567D01*
X42720Y60629D01*
X42680Y60663D01*
X42648Y60703D01*
X42587Y60742D01*
X42533Y60789D01*
X42484Y60808D01*
X42441Y60836D01*
X42371Y60854D01*
X42305Y60881D01*
X42233Y60889D01*
X42202Y60897D01*
X42179Y60895D01*
X42138Y60899D01*
X22800Y60899D01*
X22799Y60900D01*
X22799Y116900D01*
X22800Y116901D01*
X78800Y116901D01*
X78801Y116900D01*
X78801Y60900D01*
X78800Y60899D01*
X59462Y60899D01*
X59391Y60888D01*
X59320Y60886D01*
X59271Y60868D01*
X59219Y60860D01*
X59156Y60826D01*
X59089Y60801D01*
X59048Y60769D01*
X59002Y60744D01*
X58953Y60693D01*
X58897Y60648D01*
X58868Y60604D01*
X58833Y60566D01*
X58802Y60501D01*
X58764Y60441D01*
X58751Y60390D01*
X58729Y60343D01*
X58721Y60272D01*
X58704Y60202D01*
X58708Y60150D01*
X58702Y60099D01*
X58717Y60028D01*
X58723Y59957D01*
X58743Y59909D01*
X58754Y59858D01*
X58791Y59797D01*
X58819Y59731D01*
X58864Y59675D01*
X58880Y59647D01*
X58898Y59632D01*
X58924Y59600D01*
X59087Y59437D01*
X60575Y55844D01*
X60575Y51956D01*
X59087Y48363D01*
X56337Y45613D01*
X52744Y44125D01*
X48856Y44125D01*
G37*
%LPD*%
%LPC*%
G36*
X213956Y44125D02*
X213956Y44125D01*
X210363Y45613D01*
X207613Y48363D01*
X206125Y51956D01*
X206125Y55844D01*
X207613Y59437D01*
X207776Y59600D01*
X207818Y59658D01*
X207867Y59710D01*
X207889Y59757D01*
X207920Y59799D01*
X207941Y59868D01*
X207971Y59933D01*
X207977Y59985D01*
X207992Y60035D01*
X207990Y60106D01*
X207998Y60177D01*
X207987Y60228D01*
X207986Y60280D01*
X207961Y60348D01*
X207946Y60418D01*
X207919Y60463D01*
X207901Y60511D01*
X207856Y60567D01*
X207820Y60629D01*
X207780Y60663D01*
X207748Y60703D01*
X207687Y60742D01*
X207633Y60789D01*
X207584Y60808D01*
X207541Y60836D01*
X207471Y60854D01*
X207405Y60881D01*
X207333Y60889D01*
X207302Y60897D01*
X207279Y60895D01*
X207238Y60899D01*
X187900Y60899D01*
X187899Y60900D01*
X187899Y116900D01*
X187900Y116901D01*
X243900Y116901D01*
X243901Y116900D01*
X243901Y60900D01*
X243900Y60899D01*
X224562Y60899D01*
X224491Y60888D01*
X224420Y60886D01*
X224371Y60868D01*
X224319Y60860D01*
X224256Y60826D01*
X224189Y60801D01*
X224148Y60769D01*
X224102Y60744D01*
X224053Y60693D01*
X223997Y60648D01*
X223968Y60604D01*
X223933Y60566D01*
X223902Y60501D01*
X223864Y60441D01*
X223851Y60390D01*
X223829Y60343D01*
X223821Y60272D01*
X223804Y60202D01*
X223808Y60150D01*
X223802Y60099D01*
X223817Y60028D01*
X223823Y59957D01*
X223843Y59909D01*
X223854Y59858D01*
X223891Y59797D01*
X223919Y59731D01*
X223964Y59675D01*
X223980Y59647D01*
X223998Y59632D01*
X224024Y59600D01*
X224187Y59437D01*
X225675Y55844D01*
X225675Y51956D01*
X224187Y48363D01*
X221437Y45613D01*
X217844Y44125D01*
X213956Y44125D01*
G37*
%LPD*%
%LPC*%
G36*
X123633Y80771D02*
X123633Y80771D01*
X118871Y85533D01*
X118871Y92267D01*
X119097Y92493D01*
X119109Y92509D01*
X119124Y92521D01*
X119180Y92608D01*
X119240Y92692D01*
X119246Y92711D01*
X119257Y92728D01*
X119282Y92829D01*
X119313Y92927D01*
X119312Y92947D01*
X119317Y92967D01*
X119309Y93070D01*
X119306Y93173D01*
X119300Y93192D01*
X119298Y93212D01*
X119258Y93307D01*
X119222Y93404D01*
X119209Y93420D01*
X119202Y93438D01*
X119097Y93569D01*
X69126Y143540D01*
X67563Y145103D01*
X67563Y207446D01*
X67552Y207516D01*
X67550Y207588D01*
X67532Y207637D01*
X67524Y207688D01*
X67490Y207752D01*
X67465Y207819D01*
X67433Y207860D01*
X67408Y207906D01*
X67356Y207955D01*
X67312Y208011D01*
X67268Y208039D01*
X67230Y208075D01*
X67165Y208105D01*
X67105Y208144D01*
X67054Y208157D01*
X67007Y208179D01*
X66936Y208187D01*
X66866Y208204D01*
X66814Y208200D01*
X66763Y208206D01*
X66692Y208191D01*
X66621Y208185D01*
X66573Y208165D01*
X66522Y208154D01*
X66461Y208117D01*
X66395Y208089D01*
X66339Y208044D01*
X66311Y208027D01*
X66296Y208010D01*
X66264Y207984D01*
X65698Y207418D01*
X61302Y207418D01*
X58193Y210527D01*
X58193Y214923D01*
X60990Y217720D01*
X61043Y217794D01*
X61103Y217864D01*
X61115Y217894D01*
X61134Y217920D01*
X61161Y218007D01*
X61195Y218092D01*
X61199Y218133D01*
X61206Y218155D01*
X61205Y218187D01*
X61213Y218258D01*
X61213Y236862D01*
X61199Y236953D01*
X61191Y237043D01*
X61179Y237073D01*
X61174Y237105D01*
X61131Y237186D01*
X61095Y237270D01*
X61069Y237302D01*
X61058Y237323D01*
X61035Y237345D01*
X60990Y237401D01*
X34046Y264345D01*
X33972Y264398D01*
X33902Y264458D01*
X33872Y264470D01*
X33846Y264489D01*
X33759Y264516D01*
X33674Y264550D01*
X33633Y264554D01*
X33611Y264561D01*
X33579Y264560D01*
X33507Y264568D01*
X29552Y264568D01*
X28785Y265335D01*
X28763Y265351D01*
X28746Y265372D01*
X28664Y265422D01*
X28586Y265478D01*
X28560Y265486D01*
X28536Y265501D01*
X28442Y265522D01*
X28351Y265551D01*
X28323Y265550D01*
X28297Y265556D01*
X28201Y265547D01*
X28105Y265544D01*
X28079Y265535D01*
X28052Y265532D01*
X27964Y265493D01*
X27874Y265460D01*
X27852Y265443D01*
X27827Y265432D01*
X27757Y265366D01*
X27682Y265306D01*
X27667Y265283D01*
X27647Y265265D01*
X27601Y265180D01*
X27549Y265099D01*
X27542Y265073D01*
X27529Y265049D01*
X27512Y264954D01*
X27489Y264861D01*
X27491Y264833D01*
X27486Y264807D01*
X27502Y264640D01*
X39192Y209111D01*
X39216Y209051D01*
X39229Y208988D01*
X39260Y208937D01*
X39281Y208882D01*
X39323Y208832D01*
X39356Y208777D01*
X39401Y208738D01*
X39439Y208693D01*
X39493Y208659D01*
X39542Y208617D01*
X39598Y208595D01*
X39648Y208564D01*
X39711Y208549D01*
X39771Y208525D01*
X39856Y208516D01*
X39888Y208508D01*
X39906Y208510D01*
X39937Y208507D01*
X40298Y208507D01*
X43407Y205398D01*
X43407Y201002D01*
X40298Y197893D01*
X35902Y197893D01*
X32793Y201002D01*
X32793Y205398D01*
X34573Y207178D01*
X34600Y207216D01*
X34635Y207248D01*
X34672Y207315D01*
X34716Y207377D01*
X34730Y207422D01*
X34753Y207464D01*
X34766Y207539D01*
X34789Y207612D01*
X34787Y207659D01*
X34796Y207706D01*
X34783Y207837D01*
X34782Y207858D01*
X34780Y207864D01*
X34779Y207873D01*
X15623Y298865D01*
X15618Y298877D01*
X15617Y298891D01*
X15559Y299048D01*
X15311Y299545D01*
X15349Y299660D01*
X15368Y299775D01*
X15388Y299890D01*
X15388Y299898D01*
X15388Y299902D01*
X15385Y299921D01*
X15372Y300057D01*
X15347Y300176D01*
X15650Y300640D01*
X15656Y300653D01*
X15664Y300663D01*
X15735Y300815D01*
X18051Y307763D01*
X18053Y307780D01*
X18085Y307916D01*
X19343Y318820D01*
X19342Y318832D01*
X19345Y318843D01*
X19336Y318954D01*
X19331Y319066D01*
X19327Y319077D01*
X19326Y319088D01*
X19282Y319190D01*
X19242Y319295D01*
X19234Y319304D01*
X19230Y319314D01*
X19125Y319445D01*
X16918Y321652D01*
X16918Y326048D01*
X19715Y328845D01*
X19768Y328919D01*
X19828Y328989D01*
X19840Y329019D01*
X19859Y329045D01*
X19886Y329132D01*
X19920Y329217D01*
X19924Y329258D01*
X19931Y329280D01*
X19930Y329312D01*
X19938Y329383D01*
X19938Y337367D01*
X19924Y337457D01*
X19916Y337548D01*
X19904Y337577D01*
X19899Y337609D01*
X19856Y337690D01*
X19820Y337774D01*
X19794Y337806D01*
X19783Y337827D01*
X19760Y337849D01*
X19715Y337905D01*
X16918Y340702D01*
X16918Y345098D01*
X20027Y348207D01*
X24423Y348207D01*
X27532Y345098D01*
X27532Y340702D01*
X24735Y337905D01*
X24682Y337831D01*
X24622Y337761D01*
X24610Y337731D01*
X24591Y337705D01*
X24564Y337618D01*
X24530Y337533D01*
X24526Y337492D01*
X24519Y337470D01*
X24520Y337438D01*
X24512Y337367D01*
X24512Y329383D01*
X24526Y329293D01*
X24534Y329202D01*
X24546Y329173D01*
X24551Y329141D01*
X24594Y329060D01*
X24630Y328976D01*
X24656Y328944D01*
X24667Y328923D01*
X24690Y328901D01*
X24735Y328845D01*
X27532Y326048D01*
X27532Y321652D01*
X24397Y318518D01*
X24396Y318517D01*
X24374Y318507D01*
X24350Y318504D01*
X24263Y318457D01*
X24172Y318416D01*
X24154Y318400D01*
X24133Y318388D01*
X24065Y318317D01*
X23992Y318249D01*
X23980Y318228D01*
X23964Y318210D01*
X23922Y318120D01*
X23874Y318033D01*
X23868Y318004D01*
X23860Y317987D01*
X23856Y317954D01*
X23837Y317869D01*
X22696Y307979D01*
X22696Y307966D01*
X22693Y307954D01*
X22702Y307844D01*
X22707Y307733D01*
X22712Y307721D01*
X22713Y307709D01*
X22771Y307551D01*
X22789Y307515D01*
X22589Y306917D01*
X22587Y306900D01*
X22555Y306763D01*
X22483Y306137D01*
X22452Y306112D01*
X22443Y306103D01*
X22432Y306096D01*
X22360Y306012D01*
X22286Y305930D01*
X22281Y305918D01*
X22273Y305909D01*
X22203Y305756D01*
X20211Y299780D01*
X20192Y299665D01*
X20172Y299550D01*
X20172Y299542D01*
X20171Y299538D01*
X20175Y299519D01*
X20188Y299383D01*
X25736Y273030D01*
X25777Y272923D01*
X25817Y272814D01*
X25822Y272808D01*
X25825Y272801D01*
X25899Y272712D01*
X25971Y272622D01*
X25977Y272618D01*
X25982Y272612D01*
X26081Y272551D01*
X26178Y272489D01*
X26185Y272487D01*
X26191Y272483D01*
X26304Y272457D01*
X26416Y272429D01*
X26424Y272429D01*
X26431Y272427D01*
X26546Y272439D01*
X26662Y272448D01*
X26668Y272451D01*
X26676Y272451D01*
X26781Y272499D01*
X26888Y272544D01*
X26895Y272550D01*
X26900Y272552D01*
X26916Y272566D01*
X27019Y272649D01*
X29552Y275182D01*
X33948Y275182D01*
X37057Y272073D01*
X37057Y268118D01*
X37071Y268027D01*
X37079Y267937D01*
X37091Y267907D01*
X37096Y267875D01*
X37139Y267794D01*
X37175Y267710D01*
X37201Y267678D01*
X37212Y267657D01*
X37235Y267635D01*
X37280Y267579D01*
X65787Y239072D01*
X65787Y218258D01*
X65801Y218169D01*
X65809Y218078D01*
X65821Y218048D01*
X65826Y218016D01*
X65869Y217935D01*
X65905Y217851D01*
X65931Y217819D01*
X65942Y217798D01*
X65965Y217776D01*
X66010Y217720D01*
X66264Y217466D01*
X66322Y217424D01*
X66374Y217375D01*
X66421Y217353D01*
X66463Y217323D01*
X66532Y217301D01*
X66597Y217271D01*
X66649Y217266D01*
X66699Y217250D01*
X66770Y217252D01*
X66841Y217244D01*
X66892Y217255D01*
X66944Y217257D01*
X67012Y217281D01*
X67082Y217296D01*
X67127Y217323D01*
X67175Y217341D01*
X67231Y217386D01*
X67293Y217423D01*
X67327Y217462D01*
X67367Y217495D01*
X67406Y217555D01*
X67453Y217610D01*
X67472Y217658D01*
X67500Y217702D01*
X67518Y217771D01*
X67545Y217838D01*
X67553Y217909D01*
X67561Y217940D01*
X67559Y217963D01*
X67563Y218004D01*
X67563Y334192D01*
X67549Y334282D01*
X67541Y334373D01*
X67529Y334402D01*
X67524Y334434D01*
X67481Y334515D01*
X67445Y334599D01*
X67419Y334631D01*
X67408Y334652D01*
X67385Y334674D01*
X67340Y334730D01*
X64543Y337527D01*
X64543Y341923D01*
X67652Y345032D01*
X72048Y345032D01*
X75157Y341923D01*
X75157Y337527D01*
X72360Y334730D01*
X72307Y334656D01*
X72247Y334586D01*
X72235Y334556D01*
X72216Y334530D01*
X72189Y334443D01*
X72155Y334358D01*
X72151Y334317D01*
X72144Y334295D01*
X72145Y334263D01*
X72137Y334192D01*
X72137Y147313D01*
X72151Y147222D01*
X72159Y147132D01*
X72171Y147102D01*
X72176Y147070D01*
X72219Y146989D01*
X72255Y146905D01*
X72281Y146873D01*
X72292Y146852D01*
X72315Y146830D01*
X72360Y146774D01*
X122331Y96803D01*
X122347Y96791D01*
X122359Y96776D01*
X122447Y96720D01*
X122531Y96660D01*
X122550Y96654D01*
X122566Y96643D01*
X122667Y96618D01*
X122766Y96587D01*
X122786Y96588D01*
X122805Y96583D01*
X122908Y96591D01*
X123011Y96594D01*
X123030Y96600D01*
X123050Y96602D01*
X123145Y96642D01*
X123243Y96678D01*
X123258Y96691D01*
X123276Y96698D01*
X123407Y96803D01*
X123633Y97029D01*
X130367Y97029D01*
X135129Y92267D01*
X135129Y85533D01*
X130367Y80771D01*
X123633Y80771D01*
G37*
%LPD*%
%LPC*%
G36*
X215007Y381825D02*
X215007Y381825D01*
X210863Y383542D01*
X207692Y386713D01*
X205975Y390857D01*
X205975Y395343D01*
X207692Y399487D01*
X210863Y402658D01*
X215007Y404375D01*
X238993Y404375D01*
X243137Y402658D01*
X246308Y399487D01*
X248025Y395343D01*
X248025Y390857D01*
X246308Y386713D01*
X243137Y383542D01*
X238993Y381825D01*
X215007Y381825D01*
G37*
%LPD*%
%LPC*%
G36*
X215007Y344325D02*
X215007Y344325D01*
X210863Y346042D01*
X207692Y349213D01*
X205975Y353357D01*
X205975Y357843D01*
X207692Y361987D01*
X210863Y365158D01*
X215007Y366875D01*
X238993Y366875D01*
X243137Y365158D01*
X246308Y361987D01*
X248025Y357843D01*
X248025Y353357D01*
X246308Y349213D01*
X243137Y346042D01*
X238993Y344325D01*
X215007Y344325D01*
G37*
%LPD*%
G36*
X206262Y182533D02*
X206262Y182533D01*
X206287Y182530D01*
X206383Y182551D01*
X206479Y182565D01*
X206502Y182577D01*
X206528Y182582D01*
X206611Y182632D01*
X206698Y182676D01*
X206717Y182695D01*
X206739Y182709D01*
X206802Y182782D01*
X206870Y182852D01*
X206886Y182881D01*
X206899Y182895D01*
X206911Y182926D01*
X206951Y182999D01*
X207692Y184787D01*
X210863Y187958D01*
X215007Y189675D01*
X233751Y189675D01*
X233841Y189689D01*
X233932Y189697D01*
X233961Y189709D01*
X233993Y189714D01*
X234074Y189757D01*
X234158Y189793D01*
X234190Y189819D01*
X234211Y189830D01*
X234233Y189853D01*
X234289Y189898D01*
X248315Y203924D01*
X248368Y203998D01*
X248428Y204068D01*
X248440Y204098D01*
X248459Y204124D01*
X248486Y204211D01*
X248520Y204296D01*
X248524Y204337D01*
X248531Y204359D01*
X248530Y204391D01*
X248538Y204463D01*
X248538Y208872D01*
X248537Y208880D01*
X248538Y208888D01*
X248517Y209001D01*
X248499Y209115D01*
X248495Y209122D01*
X248493Y209130D01*
X248437Y209231D01*
X248383Y209332D01*
X248378Y209338D01*
X248374Y209345D01*
X248288Y209423D01*
X248205Y209502D01*
X248198Y209505D01*
X248192Y209510D01*
X248086Y209557D01*
X247982Y209605D01*
X247974Y209606D01*
X247967Y209609D01*
X247852Y209620D01*
X247738Y209632D01*
X247730Y209631D01*
X247722Y209631D01*
X247610Y209604D01*
X247497Y209580D01*
X247490Y209576D01*
X247483Y209574D01*
X247385Y209513D01*
X247286Y209454D01*
X247281Y209448D01*
X247274Y209444D01*
X247161Y209320D01*
X246125Y207893D01*
X244757Y206525D01*
X243192Y205388D01*
X241468Y204510D01*
X239628Y203912D01*
X237717Y203609D01*
X228523Y203609D01*
X228523Y215138D01*
X228520Y215158D01*
X228522Y215177D01*
X228500Y215279D01*
X228483Y215381D01*
X228474Y215398D01*
X228470Y215418D01*
X228417Y215507D01*
X228368Y215598D01*
X228354Y215612D01*
X228344Y215629D01*
X228265Y215696D01*
X228190Y215767D01*
X228172Y215776D01*
X228157Y215789D01*
X228061Y215827D01*
X227967Y215871D01*
X227947Y215873D01*
X227929Y215881D01*
X227762Y215899D01*
X226238Y215899D01*
X226218Y215896D01*
X226199Y215898D01*
X226097Y215876D01*
X225995Y215859D01*
X225978Y215850D01*
X225958Y215846D01*
X225869Y215793D01*
X225778Y215744D01*
X225764Y215730D01*
X225747Y215720D01*
X225680Y215641D01*
X225609Y215566D01*
X225600Y215548D01*
X225587Y215533D01*
X225548Y215437D01*
X225505Y215343D01*
X225503Y215323D01*
X225495Y215305D01*
X225477Y215138D01*
X225477Y203609D01*
X216283Y203609D01*
X214372Y203912D01*
X212532Y204510D01*
X210808Y205388D01*
X209243Y206525D01*
X207875Y207893D01*
X206864Y209285D01*
X206858Y209291D01*
X206854Y209298D01*
X206771Y209377D01*
X206689Y209458D01*
X206682Y209462D01*
X206676Y209467D01*
X206572Y209516D01*
X206468Y209566D01*
X206460Y209567D01*
X206453Y209571D01*
X206339Y209583D01*
X206224Y209599D01*
X206216Y209597D01*
X206209Y209598D01*
X206096Y209573D01*
X205983Y209551D01*
X205976Y209547D01*
X205968Y209546D01*
X205870Y209487D01*
X205769Y209429D01*
X205764Y209423D01*
X205757Y209419D01*
X205682Y209332D01*
X205605Y209246D01*
X205602Y209239D01*
X205597Y209233D01*
X205554Y209125D01*
X205509Y209020D01*
X205508Y209012D01*
X205505Y209004D01*
X205487Y208838D01*
X205487Y183290D01*
X205502Y183194D01*
X205512Y183097D01*
X205522Y183073D01*
X205526Y183048D01*
X205572Y182962D01*
X205612Y182873D01*
X205629Y182853D01*
X205642Y182830D01*
X205712Y182763D01*
X205778Y182691D01*
X205801Y182679D01*
X205820Y182661D01*
X205908Y182620D01*
X205994Y182573D01*
X206019Y182568D01*
X206043Y182557D01*
X206140Y182546D01*
X206236Y182529D01*
X206262Y182533D01*
G37*
%LPC*%
G36*
X89877Y702718D02*
X89877Y702718D01*
X86768Y705827D01*
X86768Y710223D01*
X89565Y713020D01*
X89608Y713079D01*
X89654Y713128D01*
X89662Y713145D01*
X89678Y713164D01*
X89690Y713194D01*
X89709Y713220D01*
X89733Y713298D01*
X89757Y713351D01*
X89759Y713365D01*
X89770Y713392D01*
X89774Y713433D01*
X89781Y713455D01*
X89780Y713487D01*
X89788Y713558D01*
X89788Y769167D01*
X89774Y769257D01*
X89766Y769348D01*
X89754Y769377D01*
X89749Y769409D01*
X89706Y769490D01*
X89670Y769574D01*
X89644Y769606D01*
X89633Y769627D01*
X89610Y769649D01*
X89565Y769705D01*
X86768Y772502D01*
X86768Y776898D01*
X89877Y780007D01*
X94273Y780007D01*
X97382Y776898D01*
X97382Y772502D01*
X94585Y769705D01*
X94532Y769631D01*
X94472Y769561D01*
X94460Y769531D01*
X94441Y769505D01*
X94414Y769418D01*
X94380Y769333D01*
X94376Y769292D01*
X94369Y769270D01*
X94370Y769238D01*
X94362Y769167D01*
X94362Y713558D01*
X94367Y713528D01*
X94365Y713516D01*
X94377Y713464D01*
X94384Y713377D01*
X94396Y713348D01*
X94401Y713316D01*
X94414Y713291D01*
X94418Y713276D01*
X94449Y713223D01*
X94480Y713151D01*
X94506Y713119D01*
X94517Y713098D01*
X94534Y713082D01*
X94544Y713065D01*
X94560Y713051D01*
X94585Y713020D01*
X97382Y710223D01*
X97382Y705827D01*
X94273Y702718D01*
X89877Y702718D01*
G37*
%LPD*%
%LPC*%
G36*
X144179Y537971D02*
X144179Y537971D01*
X141191Y539209D01*
X138905Y541495D01*
X137667Y544483D01*
X137667Y547717D01*
X138905Y550705D01*
X141191Y552991D01*
X144179Y554229D01*
X160621Y554229D01*
X163609Y552991D01*
X165895Y550705D01*
X167133Y547717D01*
X167133Y544483D01*
X165895Y541495D01*
X163609Y539209D01*
X160621Y537971D01*
X144179Y537971D01*
G37*
%LPD*%
%LPC*%
G36*
X106079Y537971D02*
X106079Y537971D01*
X103091Y539209D01*
X100805Y541495D01*
X99567Y544483D01*
X99567Y547717D01*
X100805Y550705D01*
X103091Y552991D01*
X106079Y554229D01*
X122521Y554229D01*
X125509Y552991D01*
X127795Y550705D01*
X129033Y547717D01*
X129033Y544483D01*
X127795Y541495D01*
X125509Y539209D01*
X122521Y537971D01*
X106079Y537971D01*
G37*
%LPD*%
%LPC*%
G36*
X138233Y28320D02*
X138233Y28320D01*
X137340Y29213D01*
X137340Y46987D01*
X138233Y47880D01*
X156007Y47880D01*
X156900Y46987D01*
X156900Y29213D01*
X156007Y28320D01*
X138233Y28320D01*
G37*
%LPD*%
%LPC*%
G36*
X128015Y277375D02*
X128015Y277375D01*
X128015Y289360D01*
X128022Y289364D01*
X128042Y289368D01*
X128131Y289421D01*
X128222Y289470D01*
X128236Y289484D01*
X128253Y289494D01*
X128320Y289573D01*
X128391Y289648D01*
X128400Y289666D01*
X128413Y289681D01*
X128452Y289777D01*
X128495Y289871D01*
X128497Y289891D01*
X128505Y289909D01*
X128523Y290076D01*
X128523Y293871D01*
X151311Y293871D01*
X151053Y292242D01*
X150398Y290226D01*
X149436Y288338D01*
X148191Y286624D01*
X147474Y285907D01*
X147463Y285891D01*
X147447Y285879D01*
X147391Y285791D01*
X147331Y285708D01*
X147325Y285689D01*
X147314Y285672D01*
X147289Y285571D01*
X147259Y285472D01*
X147259Y285453D01*
X147254Y285433D01*
X147262Y285330D01*
X147265Y285227D01*
X147272Y285208D01*
X147273Y285188D01*
X147314Y285093D01*
X147349Y284996D01*
X147362Y284980D01*
X147370Y284962D01*
X147474Y284831D01*
X147683Y284622D01*
X148928Y282908D01*
X149890Y281020D01*
X150545Y279004D01*
X150803Y277375D01*
X128015Y277375D01*
G37*
%LPD*%
%LPC*%
G36*
X128015Y721875D02*
X128015Y721875D01*
X128015Y733860D01*
X128022Y733864D01*
X128042Y733868D01*
X128131Y733921D01*
X128222Y733970D01*
X128236Y733984D01*
X128253Y733994D01*
X128320Y734073D01*
X128391Y734148D01*
X128400Y734166D01*
X128413Y734181D01*
X128452Y734277D01*
X128495Y734371D01*
X128497Y734391D01*
X128505Y734409D01*
X128523Y734576D01*
X128523Y738371D01*
X151311Y738371D01*
X151053Y736742D01*
X150398Y734726D01*
X149436Y732838D01*
X148191Y731124D01*
X147474Y730407D01*
X147463Y730391D01*
X147447Y730379D01*
X147391Y730291D01*
X147331Y730208D01*
X147325Y730188D01*
X147314Y730172D01*
X147289Y730071D01*
X147259Y729972D01*
X147259Y729952D01*
X147254Y729933D01*
X147262Y729830D01*
X147265Y729727D01*
X147272Y729708D01*
X147273Y729688D01*
X147314Y729593D01*
X147349Y729496D01*
X147362Y729480D01*
X147370Y729462D01*
X147474Y729331D01*
X147683Y729122D01*
X148928Y727408D01*
X149890Y725520D01*
X150545Y723504D01*
X150803Y721875D01*
X128015Y721875D01*
G37*
%LPD*%
%LPC*%
G36*
X102181Y277375D02*
X102181Y277375D01*
X102439Y279004D01*
X103094Y281020D01*
X104056Y282908D01*
X105301Y284622D01*
X106018Y285339D01*
X106029Y285355D01*
X106045Y285367D01*
X106101Y285455D01*
X106161Y285538D01*
X106167Y285558D01*
X106178Y285574D01*
X106203Y285675D01*
X106233Y285774D01*
X106233Y285794D01*
X106238Y285813D01*
X106230Y285916D01*
X106227Y286019D01*
X106220Y286038D01*
X106219Y286058D01*
X106178Y286153D01*
X106143Y286250D01*
X106130Y286266D01*
X106122Y286284D01*
X106018Y286415D01*
X105809Y286624D01*
X104564Y288338D01*
X103602Y290226D01*
X102947Y292242D01*
X102689Y293871D01*
X125477Y293871D01*
X125477Y281886D01*
X125470Y281882D01*
X125450Y281878D01*
X125361Y281825D01*
X125270Y281776D01*
X125256Y281762D01*
X125239Y281752D01*
X125172Y281673D01*
X125101Y281598D01*
X125092Y281580D01*
X125079Y281565D01*
X125040Y281469D01*
X124997Y281375D01*
X124995Y281355D01*
X124987Y281337D01*
X124969Y281170D01*
X124969Y277375D01*
X102181Y277375D01*
G37*
%LPD*%
%LPC*%
G36*
X158275Y569340D02*
X158275Y569340D01*
X154680Y570829D01*
X151929Y573580D01*
X150440Y577175D01*
X150440Y581065D01*
X151929Y584660D01*
X154680Y587411D01*
X158275Y588900D01*
X162165Y588900D01*
X165760Y587411D01*
X168511Y584660D01*
X170000Y581065D01*
X170000Y577175D01*
X168511Y573580D01*
X165760Y570829D01*
X162165Y569340D01*
X158275Y569340D01*
G37*
%LPD*%
%LPC*%
G36*
X213956Y967325D02*
X213956Y967325D01*
X210363Y968813D01*
X207613Y971563D01*
X206125Y975156D01*
X206125Y979044D01*
X207613Y982637D01*
X210363Y985387D01*
X213956Y986875D01*
X217844Y986875D01*
X221437Y985387D01*
X224187Y982637D01*
X225675Y979044D01*
X225675Y975156D01*
X224187Y971563D01*
X221437Y968813D01*
X217844Y967325D01*
X213956Y967325D01*
G37*
%LPD*%
%LPC*%
G36*
X48856Y129125D02*
X48856Y129125D01*
X45263Y130613D01*
X42513Y133363D01*
X41025Y136956D01*
X41025Y140844D01*
X42513Y144437D01*
X45263Y147187D01*
X48856Y148675D01*
X52744Y148675D01*
X56337Y147187D01*
X59087Y144437D01*
X60575Y140844D01*
X60575Y136956D01*
X59087Y133363D01*
X56337Y130613D01*
X52744Y129125D01*
X48856Y129125D01*
G37*
%LPD*%
%LPC*%
G36*
X48856Y967325D02*
X48856Y967325D01*
X45263Y968813D01*
X42513Y971563D01*
X41025Y975156D01*
X41025Y979044D01*
X42513Y982637D01*
X45263Y985387D01*
X48856Y986875D01*
X52744Y986875D01*
X56337Y985387D01*
X59087Y982637D01*
X60575Y979044D01*
X60575Y975156D01*
X59087Y971563D01*
X56337Y968813D01*
X52744Y967325D01*
X48856Y967325D01*
G37*
%LPD*%
%LPC*%
G36*
X72623Y499363D02*
X72623Y499363D01*
X67563Y504423D01*
X67563Y511577D01*
X72623Y516637D01*
X79777Y516637D01*
X84837Y511577D01*
X84837Y504423D01*
X79777Y499363D01*
X72623Y499363D01*
G37*
%LPD*%
%LPC*%
G36*
X174223Y499363D02*
X174223Y499363D01*
X169163Y504423D01*
X169163Y511577D01*
X174223Y516637D01*
X181377Y516637D01*
X186437Y511577D01*
X186437Y504423D01*
X181377Y499363D01*
X174223Y499363D01*
G37*
%LPD*%
%LPC*%
G36*
X174223Y473963D02*
X174223Y473963D01*
X169163Y479023D01*
X169163Y486177D01*
X174223Y491237D01*
X181377Y491237D01*
X186437Y486177D01*
X186437Y479023D01*
X181377Y473963D01*
X174223Y473963D01*
G37*
%LPD*%
%LPC*%
G36*
X72623Y473963D02*
X72623Y473963D01*
X67563Y479023D01*
X67563Y486177D01*
X72623Y491237D01*
X79777Y491237D01*
X84837Y486177D01*
X84837Y479023D01*
X79777Y473963D01*
X72623Y473963D01*
G37*
%LPD*%
%LPC*%
G36*
X128523Y601717D02*
X128523Y601717D01*
X128523Y613657D01*
X138982Y613657D01*
X141074Y613325D01*
X143090Y612670D01*
X144978Y611708D01*
X146692Y610463D01*
X148191Y608964D01*
X149436Y607250D01*
X150398Y605362D01*
X151053Y603346D01*
X151311Y601717D01*
X128523Y601717D01*
G37*
%LPD*%
%LPC*%
G36*
X128523Y296917D02*
X128523Y296917D01*
X128523Y308857D01*
X138982Y308857D01*
X141074Y308525D01*
X143090Y307870D01*
X144978Y306908D01*
X146692Y305663D01*
X148191Y304164D01*
X149436Y302450D01*
X150398Y300562D01*
X151053Y298546D01*
X151311Y296917D01*
X128523Y296917D01*
G37*
%LPD*%
%LPC*%
G36*
X128523Y741417D02*
X128523Y741417D01*
X128523Y753357D01*
X138982Y753357D01*
X141074Y753025D01*
X143090Y752370D01*
X144978Y751408D01*
X146692Y750163D01*
X148191Y748664D01*
X149436Y746950D01*
X150398Y745062D01*
X151053Y743046D01*
X151311Y741417D01*
X128523Y741417D01*
G37*
%LPD*%
%LPC*%
G36*
X128523Y157217D02*
X128523Y157217D01*
X128523Y169157D01*
X138982Y169157D01*
X141074Y168825D01*
X143090Y168170D01*
X144978Y167208D01*
X146692Y165963D01*
X148191Y164464D01*
X149436Y162750D01*
X150398Y160862D01*
X151053Y158846D01*
X151311Y157217D01*
X128523Y157217D01*
G37*
%LPD*%
%LPC*%
G36*
X128015Y861575D02*
X128015Y861575D01*
X128015Y873515D01*
X138474Y873515D01*
X140566Y873183D01*
X142582Y872528D01*
X144470Y871566D01*
X146184Y870321D01*
X147683Y868822D01*
X148928Y867108D01*
X149890Y865220D01*
X150545Y863204D01*
X150803Y861575D01*
X128015Y861575D01*
G37*
%LPD*%
%LPC*%
G36*
X128015Y417075D02*
X128015Y417075D01*
X128015Y429015D01*
X138474Y429015D01*
X140566Y428683D01*
X142582Y428028D01*
X144470Y427066D01*
X146184Y425821D01*
X147683Y424322D01*
X148928Y422608D01*
X149890Y420720D01*
X150545Y418704D01*
X150803Y417075D01*
X128015Y417075D01*
G37*
%LPD*%
%LPC*%
G36*
X102181Y417075D02*
X102181Y417075D01*
X102439Y418704D01*
X103094Y420720D01*
X104056Y422608D01*
X105301Y424322D01*
X106800Y425821D01*
X108514Y427066D01*
X110402Y428028D01*
X112418Y428683D01*
X114510Y429015D01*
X124969Y429015D01*
X124969Y417075D01*
X102181Y417075D01*
G37*
%LPD*%
%LPC*%
G36*
X102689Y601717D02*
X102689Y601717D01*
X102947Y603346D01*
X103602Y605362D01*
X104564Y607250D01*
X105809Y608964D01*
X107308Y610463D01*
X109022Y611708D01*
X110910Y612670D01*
X112926Y613325D01*
X115018Y613657D01*
X125477Y613657D01*
X125477Y601717D01*
X102689Y601717D01*
G37*
%LPD*%
%LPC*%
G36*
X102689Y296917D02*
X102689Y296917D01*
X102947Y298546D01*
X103602Y300562D01*
X104564Y302450D01*
X105809Y304164D01*
X107308Y305663D01*
X109022Y306908D01*
X110910Y307870D01*
X112926Y308525D01*
X115018Y308857D01*
X125477Y308857D01*
X125477Y296917D01*
X102689Y296917D01*
G37*
%LPD*%
%LPC*%
G36*
X102689Y157217D02*
X102689Y157217D01*
X102947Y158846D01*
X103602Y160862D01*
X104564Y162750D01*
X105809Y164464D01*
X107308Y165963D01*
X109022Y167208D01*
X110910Y168170D01*
X112926Y168825D01*
X115018Y169157D01*
X125477Y169157D01*
X125477Y157217D01*
X102689Y157217D01*
G37*
%LPD*%
%LPC*%
G36*
X128015Y846589D02*
X128015Y846589D01*
X128015Y858529D01*
X150803Y858529D01*
X150545Y856900D01*
X149890Y854884D01*
X148928Y852996D01*
X147683Y851282D01*
X146184Y849783D01*
X144470Y848538D01*
X142582Y847576D01*
X140566Y846921D01*
X138474Y846589D01*
X128015Y846589D01*
G37*
%LPD*%
%LPC*%
G36*
X128015Y402089D02*
X128015Y402089D01*
X128015Y414029D01*
X150803Y414029D01*
X150545Y412400D01*
X149890Y410384D01*
X148928Y408496D01*
X147683Y406782D01*
X146184Y405283D01*
X144470Y404038D01*
X142582Y403076D01*
X140566Y402421D01*
X138474Y402089D01*
X128015Y402089D01*
G37*
%LPD*%
%LPC*%
G36*
X128523Y586731D02*
X128523Y586731D01*
X128523Y598671D01*
X151311Y598671D01*
X151053Y597042D01*
X150398Y595026D01*
X149436Y593138D01*
X148191Y591424D01*
X146692Y589925D01*
X144978Y588680D01*
X143090Y587718D01*
X141074Y587063D01*
X138982Y586731D01*
X128523Y586731D01*
G37*
%LPD*%
%LPC*%
G36*
X128523Y142231D02*
X128523Y142231D01*
X128523Y154171D01*
X151311Y154171D01*
X151053Y152542D01*
X150398Y150526D01*
X149436Y148638D01*
X148191Y146924D01*
X146692Y145425D01*
X144978Y144180D01*
X143090Y143218D01*
X141074Y142563D01*
X138982Y142231D01*
X128523Y142231D01*
G37*
%LPD*%
%LPC*%
G36*
X128015Y706889D02*
X128015Y706889D01*
X128015Y718829D01*
X150803Y718829D01*
X150545Y717200D01*
X149890Y715184D01*
X148928Y713296D01*
X147683Y711582D01*
X146184Y710083D01*
X144470Y708838D01*
X142582Y707876D01*
X140566Y707221D01*
X138474Y706889D01*
X128015Y706889D01*
G37*
%LPD*%
%LPC*%
G36*
X128015Y262389D02*
X128015Y262389D01*
X128015Y274329D01*
X150803Y274329D01*
X150545Y272700D01*
X149890Y270684D01*
X148928Y268796D01*
X147683Y267082D01*
X146184Y265583D01*
X144470Y264338D01*
X142582Y263376D01*
X140566Y262721D01*
X138474Y262389D01*
X128015Y262389D01*
G37*
%LPD*%
%LPC*%
G36*
X114510Y262389D02*
X114510Y262389D01*
X112418Y262721D01*
X110402Y263376D01*
X108514Y264338D01*
X106800Y265583D01*
X105301Y267082D01*
X104056Y268796D01*
X103094Y270684D01*
X102439Y272700D01*
X102181Y274329D01*
X124969Y274329D01*
X124969Y262389D01*
X114510Y262389D01*
G37*
%LPD*%
%LPC*%
G36*
X115018Y142231D02*
X115018Y142231D01*
X112926Y142563D01*
X110910Y143218D01*
X109022Y144180D01*
X107308Y145425D01*
X105809Y146924D01*
X104564Y148638D01*
X103602Y150526D01*
X102947Y152542D01*
X102689Y154171D01*
X125477Y154171D01*
X125477Y142231D01*
X115018Y142231D01*
G37*
%LPD*%
%LPC*%
G36*
X115018Y586731D02*
X115018Y586731D01*
X112926Y587063D01*
X110910Y587718D01*
X109022Y588680D01*
X107308Y589925D01*
X105809Y591424D01*
X104564Y593138D01*
X103602Y595026D01*
X102947Y597042D01*
X102689Y598671D01*
X125477Y598671D01*
X125477Y586731D01*
X115018Y586731D01*
G37*
%LPD*%
%LPC*%
G36*
X114510Y402089D02*
X114510Y402089D01*
X112418Y402421D01*
X110402Y403076D01*
X108514Y404038D01*
X106800Y405283D01*
X105301Y406782D01*
X104056Y408496D01*
X103094Y410384D01*
X102439Y412400D01*
X102181Y414029D01*
X124969Y414029D01*
X124969Y402089D01*
X114510Y402089D01*
G37*
%LPD*%
%LPC*%
G36*
X187133Y276351D02*
X187133Y276351D01*
X182371Y281113D01*
X182371Y287847D01*
X187133Y292609D01*
X193867Y292609D01*
X198629Y287847D01*
X198629Y281113D01*
X193867Y276351D01*
X187133Y276351D01*
G37*
%LPD*%
%LPC*%
G36*
X161733Y720851D02*
X161733Y720851D01*
X156971Y725613D01*
X156971Y732347D01*
X161733Y737109D01*
X168467Y737109D01*
X173229Y732347D01*
X173229Y725613D01*
X168467Y720851D01*
X161733Y720851D01*
G37*
%LPD*%
%LPC*%
G36*
X187133Y720851D02*
X187133Y720851D01*
X182371Y725613D01*
X182371Y732347D01*
X187133Y737109D01*
X193867Y737109D01*
X198629Y732347D01*
X198629Y725613D01*
X193867Y720851D01*
X187133Y720851D01*
G37*
%LPD*%
%LPC*%
G36*
X161733Y276351D02*
X161733Y276351D01*
X156971Y281113D01*
X156971Y287847D01*
X161733Y292609D01*
X168467Y292609D01*
X173229Y287847D01*
X173229Y281113D01*
X168467Y276351D01*
X161733Y276351D01*
G37*
%LPD*%
%LPC*%
G36*
X205047Y661923D02*
X205047Y661923D01*
X205262Y663278D01*
X205860Y665118D01*
X206738Y666842D01*
X207875Y668407D01*
X209243Y669775D01*
X210808Y670912D01*
X212532Y671790D01*
X214372Y672388D01*
X216283Y672691D01*
X225477Y672691D01*
X225477Y661923D01*
X205047Y661923D01*
G37*
%LPD*%
%LPC*%
G36*
X216283Y648109D02*
X216283Y648109D01*
X214372Y648412D01*
X212532Y649010D01*
X210808Y649888D01*
X209243Y651025D01*
X207875Y652393D01*
X206738Y653958D01*
X205860Y655682D01*
X205262Y657522D01*
X205047Y658877D01*
X225477Y658877D01*
X225477Y648109D01*
X216283Y648109D01*
G37*
%LPD*%
%LPC*%
G36*
X244182Y124233D02*
X244182Y124233D01*
X241073Y127342D01*
X241073Y131738D01*
X244182Y134847D01*
X248578Y134847D01*
X251687Y131738D01*
X251687Y127342D01*
X248578Y124233D01*
X244182Y124233D01*
G37*
%LPD*%
%LPC*%
G36*
X186743Y580643D02*
X186743Y580643D01*
X186743Y589916D01*
X193809Y589916D01*
X194456Y589743D01*
X195035Y589408D01*
X195508Y588935D01*
X195843Y588356D01*
X196016Y587709D01*
X196016Y580643D01*
X186743Y580643D01*
G37*
%LPD*%
%LPC*%
G36*
X186743Y577597D02*
X186743Y577597D01*
X196016Y577597D01*
X196016Y570531D01*
X195843Y569884D01*
X195508Y569305D01*
X195035Y568832D01*
X194456Y568497D01*
X193809Y568324D01*
X186743Y568324D01*
X186743Y577597D01*
G37*
%LPD*%
%LPC*%
G36*
X174424Y580643D02*
X174424Y580643D01*
X174424Y587709D01*
X174597Y588356D01*
X174932Y588935D01*
X175405Y589408D01*
X175984Y589743D01*
X176631Y589916D01*
X183697Y589916D01*
X183697Y580643D01*
X174424Y580643D01*
G37*
%LPD*%
%LPC*%
G36*
X176631Y568324D02*
X176631Y568324D01*
X175984Y568497D01*
X175405Y568832D01*
X174932Y569305D01*
X174597Y569884D01*
X174424Y570531D01*
X174424Y577597D01*
X183697Y577597D01*
X183697Y568324D01*
X176631Y568324D01*
G37*
%LPD*%
%LPC*%
G36*
X123643Y39623D02*
X123643Y39623D01*
X123643Y48789D01*
X124648Y48630D01*
X126264Y48105D01*
X127778Y47333D01*
X129153Y46334D01*
X130354Y45133D01*
X131353Y43758D01*
X132125Y42244D01*
X132650Y40628D01*
X132809Y39623D01*
X123643Y39623D01*
G37*
%LPD*%
%LPC*%
G36*
X123643Y36577D02*
X123643Y36577D01*
X132809Y36577D01*
X132650Y35572D01*
X132125Y33956D01*
X131353Y32442D01*
X130354Y31067D01*
X129153Y29866D01*
X127778Y28867D01*
X126264Y28095D01*
X124648Y27570D01*
X123643Y27411D01*
X123643Y36577D01*
G37*
%LPD*%
%LPC*%
G36*
X111431Y39623D02*
X111431Y39623D01*
X111590Y40628D01*
X112115Y42244D01*
X112887Y43758D01*
X113886Y45133D01*
X115087Y46334D01*
X116462Y47333D01*
X117976Y48105D01*
X119592Y48630D01*
X120597Y48789D01*
X120597Y39623D01*
X111431Y39623D01*
G37*
%LPD*%
%LPC*%
G36*
X119592Y27570D02*
X119592Y27570D01*
X117976Y28095D01*
X116462Y28867D01*
X115087Y29866D01*
X113886Y31067D01*
X112887Y32442D01*
X112115Y33956D01*
X111590Y35572D01*
X111431Y36577D01*
X120597Y36577D01*
X120597Y27411D01*
X119592Y27570D01*
G37*
%LPD*%
%LPC*%
G36*
X52323Y863623D02*
X52323Y863623D01*
X52323Y872784D01*
X53327Y872625D01*
X54942Y872100D01*
X56455Y871329D01*
X57830Y870331D01*
X59031Y869130D01*
X60029Y867755D01*
X60800Y866242D01*
X61325Y864627D01*
X61484Y863623D01*
X52323Y863623D01*
G37*
%LPD*%
%LPC*%
G36*
X217423Y25423D02*
X217423Y25423D01*
X217423Y34584D01*
X218427Y34425D01*
X220042Y33900D01*
X221555Y33129D01*
X222930Y32131D01*
X224131Y30930D01*
X225129Y29555D01*
X225900Y28042D01*
X226425Y26427D01*
X226584Y25423D01*
X217423Y25423D01*
G37*
%LPD*%
%LPC*%
G36*
X217423Y863623D02*
X217423Y863623D01*
X217423Y872784D01*
X218427Y872625D01*
X220042Y872100D01*
X221555Y871329D01*
X222930Y870331D01*
X224131Y869130D01*
X225129Y867755D01*
X225900Y866242D01*
X226425Y864627D01*
X226584Y863623D01*
X217423Y863623D01*
G37*
%LPD*%
%LPC*%
G36*
X52323Y25423D02*
X52323Y25423D01*
X52323Y34584D01*
X53327Y34425D01*
X54942Y33900D01*
X56455Y33129D01*
X57830Y32131D01*
X59031Y30930D01*
X60029Y29555D01*
X60800Y28042D01*
X61325Y26427D01*
X61484Y25423D01*
X52323Y25423D01*
G37*
%LPD*%
%LPC*%
G36*
X217423Y22377D02*
X217423Y22377D01*
X226584Y22377D01*
X226425Y21373D01*
X225900Y19758D01*
X225129Y18245D01*
X224131Y16870D01*
X222930Y15669D01*
X221555Y14671D01*
X220042Y13900D01*
X218427Y13375D01*
X217423Y13216D01*
X217423Y22377D01*
G37*
%LPD*%
%LPC*%
G36*
X217423Y860577D02*
X217423Y860577D01*
X226584Y860577D01*
X226425Y859573D01*
X225900Y857958D01*
X225129Y856445D01*
X224131Y855070D01*
X222930Y853869D01*
X221555Y852871D01*
X220042Y852100D01*
X218427Y851575D01*
X217423Y851416D01*
X217423Y860577D01*
G37*
%LPD*%
%LPC*%
G36*
X40116Y25423D02*
X40116Y25423D01*
X40275Y26427D01*
X40800Y28042D01*
X41571Y29555D01*
X42569Y30930D01*
X43770Y32131D01*
X45145Y33129D01*
X46658Y33900D01*
X48273Y34425D01*
X49277Y34584D01*
X49277Y25423D01*
X40116Y25423D01*
G37*
%LPD*%
%LPC*%
G36*
X52323Y22377D02*
X52323Y22377D01*
X61484Y22377D01*
X61325Y21373D01*
X60800Y19758D01*
X60029Y18245D01*
X59031Y16870D01*
X57830Y15669D01*
X56455Y14671D01*
X54942Y13900D01*
X53327Y13375D01*
X52323Y13216D01*
X52323Y22377D01*
G37*
%LPD*%
%LPC*%
G36*
X40116Y863623D02*
X40116Y863623D01*
X40275Y864627D01*
X40800Y866242D01*
X41571Y867755D01*
X42569Y869130D01*
X43770Y870331D01*
X45145Y871329D01*
X46658Y872100D01*
X48273Y872625D01*
X49277Y872784D01*
X49277Y863623D01*
X40116Y863623D01*
G37*
%LPD*%
%LPC*%
G36*
X205216Y25423D02*
X205216Y25423D01*
X205375Y26427D01*
X205900Y28042D01*
X206671Y29555D01*
X207669Y30930D01*
X208870Y32131D01*
X210245Y33129D01*
X211758Y33900D01*
X213373Y34425D01*
X214377Y34584D01*
X214377Y25423D01*
X205216Y25423D01*
G37*
%LPD*%
%LPC*%
G36*
X205216Y863623D02*
X205216Y863623D01*
X205375Y864627D01*
X205900Y866242D01*
X206671Y867755D01*
X207669Y869130D01*
X208870Y870331D01*
X210245Y871329D01*
X211758Y872100D01*
X213373Y872625D01*
X214377Y872784D01*
X214377Y863623D01*
X205216Y863623D01*
G37*
%LPD*%
%LPC*%
G36*
X213373Y13375D02*
X213373Y13375D01*
X211758Y13900D01*
X210245Y14671D01*
X208870Y15669D01*
X207669Y16870D01*
X206671Y18245D01*
X205900Y19758D01*
X205375Y21373D01*
X205216Y22377D01*
X214377Y22377D01*
X214377Y13216D01*
X213373Y13375D01*
G37*
%LPD*%
%LPC*%
G36*
X213373Y851575D02*
X213373Y851575D01*
X211758Y852100D01*
X210245Y852871D01*
X208870Y853869D01*
X207669Y855070D01*
X206671Y856445D01*
X205900Y857958D01*
X205375Y859573D01*
X205216Y860577D01*
X214377Y860577D01*
X214377Y851416D01*
X213373Y851575D01*
G37*
%LPD*%
%LPC*%
G36*
X48273Y13375D02*
X48273Y13375D01*
X46658Y13900D01*
X45145Y14671D01*
X43770Y15669D01*
X42569Y16870D01*
X41571Y18245D01*
X40800Y19758D01*
X40275Y21373D01*
X40116Y22377D01*
X49277Y22377D01*
X49277Y13216D01*
X48273Y13375D01*
G37*
%LPD*%
%LPC*%
G36*
X48273Y851575D02*
X48273Y851575D01*
X46658Y852100D01*
X45145Y852871D01*
X43770Y853869D01*
X42569Y855070D01*
X41571Y856445D01*
X40800Y857958D01*
X40275Y859573D01*
X40116Y860577D01*
X49277Y860577D01*
X49277Y851416D01*
X48273Y851575D01*
G37*
%LPD*%
%LPC*%
G36*
X103123Y484123D02*
X103123Y484123D01*
X103123Y492253D01*
X105598Y492253D01*
X111253Y486598D01*
X111253Y484123D01*
X103123Y484123D01*
G37*
%LPD*%
%LPC*%
G36*
X103123Y509523D02*
X103123Y509523D01*
X103123Y517653D01*
X105598Y517653D01*
X111253Y511998D01*
X111253Y509523D01*
X103123Y509523D01*
G37*
%LPD*%
%LPC*%
G36*
X128523Y509523D02*
X128523Y509523D01*
X128523Y517653D01*
X130998Y517653D01*
X136653Y511998D01*
X136653Y509523D01*
X128523Y509523D01*
G37*
%LPD*%
%LPC*%
G36*
X128523Y484123D02*
X128523Y484123D01*
X128523Y492253D01*
X130998Y492253D01*
X136653Y486598D01*
X136653Y484123D01*
X128523Y484123D01*
G37*
%LPD*%
%LPC*%
G36*
X153923Y484123D02*
X153923Y484123D01*
X153923Y492253D01*
X156398Y492253D01*
X162053Y486598D01*
X162053Y484123D01*
X153923Y484123D01*
G37*
%LPD*%
%LPC*%
G36*
X153923Y509523D02*
X153923Y509523D01*
X153923Y517653D01*
X156398Y517653D01*
X162053Y511998D01*
X162053Y509523D01*
X153923Y509523D01*
G37*
%LPD*%
%LPC*%
G36*
X142747Y484123D02*
X142747Y484123D01*
X142747Y486598D01*
X148402Y492253D01*
X150877Y492253D01*
X150877Y484123D01*
X142747Y484123D01*
G37*
%LPD*%
%LPC*%
G36*
X117347Y509523D02*
X117347Y509523D01*
X117347Y511998D01*
X123002Y517653D01*
X125477Y517653D01*
X125477Y509523D01*
X117347Y509523D01*
G37*
%LPD*%
%LPC*%
G36*
X117347Y484123D02*
X117347Y484123D01*
X117347Y486598D01*
X123002Y492253D01*
X125477Y492253D01*
X125477Y484123D01*
X117347Y484123D01*
G37*
%LPD*%
%LPC*%
G36*
X142747Y509523D02*
X142747Y509523D01*
X142747Y511998D01*
X148402Y517653D01*
X150877Y517653D01*
X150877Y509523D01*
X142747Y509523D01*
G37*
%LPD*%
%LPC*%
G36*
X153923Y498347D02*
X153923Y498347D01*
X153923Y506477D01*
X162053Y506477D01*
X162053Y504002D01*
X156398Y498347D01*
X153923Y498347D01*
G37*
%LPD*%
%LPC*%
G36*
X103123Y498347D02*
X103123Y498347D01*
X103123Y506477D01*
X111253Y506477D01*
X111253Y504002D01*
X105598Y498347D01*
X103123Y498347D01*
G37*
%LPD*%
%LPC*%
G36*
X128523Y472947D02*
X128523Y472947D01*
X128523Y481077D01*
X136653Y481077D01*
X136653Y478602D01*
X130998Y472947D01*
X128523Y472947D01*
G37*
%LPD*%
%LPC*%
G36*
X153923Y472947D02*
X153923Y472947D01*
X153923Y481077D01*
X162053Y481077D01*
X162053Y478602D01*
X156398Y472947D01*
X153923Y472947D01*
G37*
%LPD*%
%LPC*%
G36*
X128523Y498347D02*
X128523Y498347D01*
X128523Y506477D01*
X136653Y506477D01*
X136653Y504002D01*
X130998Y498347D01*
X128523Y498347D01*
G37*
%LPD*%
%LPC*%
G36*
X103123Y472947D02*
X103123Y472947D01*
X103123Y481077D01*
X111253Y481077D01*
X111253Y478602D01*
X105598Y472947D01*
X103123Y472947D01*
G37*
%LPD*%
%LPC*%
G36*
X123002Y472947D02*
X123002Y472947D01*
X117347Y478602D01*
X117347Y481077D01*
X125477Y481077D01*
X125477Y472947D01*
X123002Y472947D01*
G37*
%LPD*%
%LPC*%
G36*
X148402Y472947D02*
X148402Y472947D01*
X142747Y478602D01*
X142747Y481077D01*
X150877Y481077D01*
X150877Y472947D01*
X148402Y472947D01*
G37*
%LPD*%
%LPC*%
G36*
X123002Y498347D02*
X123002Y498347D01*
X117347Y504002D01*
X117347Y506477D01*
X125477Y506477D01*
X125477Y498347D01*
X123002Y498347D01*
G37*
%LPD*%
%LPC*%
G36*
X148402Y498347D02*
X148402Y498347D01*
X142747Y504002D01*
X142747Y506477D01*
X150877Y506477D01*
X150877Y498347D01*
X148402Y498347D01*
G37*
%LPD*%
%LPC*%
G36*
X152399Y482599D02*
X152399Y482599D01*
X152399Y482601D01*
X152401Y482601D01*
X152401Y482599D01*
X152399Y482599D01*
G37*
%LPD*%
%LPC*%
G36*
X126999Y482599D02*
X126999Y482599D01*
X126999Y482601D01*
X127001Y482601D01*
X127001Y482599D01*
X126999Y482599D01*
G37*
%LPD*%
%LPC*%
G36*
X122119Y38099D02*
X122119Y38099D01*
X122119Y38101D01*
X122121Y38101D01*
X122121Y38099D01*
X122119Y38099D01*
G37*
%LPD*%
%LPC*%
G36*
X126491Y275851D02*
X126491Y275851D01*
X126491Y275853D01*
X126493Y275853D01*
X126493Y275851D01*
X126491Y275851D01*
G37*
%LPD*%
%LPC*%
G36*
X126999Y295393D02*
X126999Y295393D01*
X126999Y295395D01*
X127001Y295395D01*
X127001Y295393D01*
X126999Y295393D01*
G37*
%LPD*%
%LPC*%
G36*
X126491Y415551D02*
X126491Y415551D01*
X126491Y415553D01*
X126493Y415553D01*
X126493Y415551D01*
X126491Y415551D01*
G37*
%LPD*%
%LPC*%
G36*
X126999Y600193D02*
X126999Y600193D01*
X126999Y600195D01*
X127001Y600195D01*
X127001Y600193D01*
X126999Y600193D01*
G37*
%LPD*%
%LPC*%
G36*
X152399Y507999D02*
X152399Y507999D01*
X152399Y508001D01*
X152401Y508001D01*
X152401Y507999D01*
X152399Y507999D01*
G37*
%LPD*%
%LPC*%
G36*
X126999Y507999D02*
X126999Y507999D01*
X126999Y508001D01*
X127001Y508001D01*
X127001Y507999D01*
X126999Y507999D01*
G37*
%LPD*%
%LPC*%
G36*
X215899Y23899D02*
X215899Y23899D01*
X215899Y23901D01*
X215901Y23901D01*
X215901Y23899D01*
X215899Y23899D01*
G37*
%LPD*%
%LPC*%
G36*
X50799Y23899D02*
X50799Y23899D01*
X50799Y23901D01*
X50801Y23901D01*
X50801Y23899D01*
X50799Y23899D01*
G37*
%LPD*%
%LPC*%
G36*
X50799Y862099D02*
X50799Y862099D01*
X50799Y862101D01*
X50801Y862101D01*
X50801Y862099D01*
X50799Y862099D01*
G37*
%LPD*%
%LPC*%
G36*
X126999Y155693D02*
X126999Y155693D01*
X126999Y155695D01*
X127001Y155695D01*
X127001Y155693D01*
X126999Y155693D01*
G37*
%LPD*%
%LPC*%
G36*
X215899Y862099D02*
X215899Y862099D01*
X215899Y862101D01*
X215901Y862101D01*
X215901Y862099D01*
X215899Y862099D01*
G37*
%LPD*%
%LPC*%
G36*
X185219Y579119D02*
X185219Y579119D01*
X185219Y579121D01*
X185221Y579121D01*
X185221Y579119D01*
X185219Y579119D01*
G37*
%LPD*%
D10*
X137414Y720352D02*
X115570Y720352D01*
X116078Y600194D02*
X137922Y600194D01*
D11*
X217250Y660400D02*
X236750Y660400D01*
X236750Y622900D02*
X217250Y622900D01*
X217250Y697900D02*
X236750Y697900D01*
D10*
X137414Y275852D02*
X115570Y275852D01*
X116078Y155694D02*
X137922Y155694D01*
D11*
X217250Y215900D02*
X236750Y215900D01*
X236750Y178400D02*
X217250Y178400D01*
X217250Y253400D02*
X236750Y253400D01*
D12*
X147120Y38100D03*
D13*
X122120Y38100D03*
D12*
X185220Y579120D03*
D13*
X160220Y579120D03*
D14*
X221996Y546100D02*
X235204Y546100D01*
X159004Y546100D02*
X145796Y546100D01*
X120904Y546100D02*
X107696Y546100D01*
X44704Y546100D02*
X31496Y546100D01*
D15*
X152400Y927100D03*
X127000Y927100D03*
D16*
X127000Y88900D03*
X152400Y88900D03*
D10*
X137414Y860052D02*
X115570Y860052D01*
X116078Y739894D02*
X137922Y739894D01*
D11*
X217250Y800100D02*
X236750Y800100D01*
X236750Y762600D02*
X217250Y762600D01*
X217250Y837600D02*
X236750Y837600D01*
D10*
X137414Y415552D02*
X115570Y415552D01*
X116078Y295394D02*
X137922Y295394D01*
D11*
X217250Y355600D02*
X236750Y355600D01*
X236750Y318100D02*
X217250Y318100D01*
X217250Y393100D02*
X236750Y393100D01*
D17*
X177800Y482600D03*
X177800Y508000D03*
X152400Y482600D03*
X152400Y508000D03*
X127000Y482600D03*
X127000Y508000D03*
X101600Y482600D03*
X101600Y508000D03*
X76200Y482600D03*
X76200Y508000D03*
D15*
X190500Y728980D03*
X165100Y728980D03*
D16*
X165100Y284480D03*
X190500Y284480D03*
D18*
X215900Y977100D03*
X215900Y892100D03*
X215900Y862100D03*
X215900Y138900D03*
X215900Y53900D03*
X215900Y23900D03*
X50800Y138900D03*
X50800Y53900D03*
X50800Y23900D03*
X50800Y977100D03*
X50800Y892100D03*
X50800Y862100D03*
D19*
X48260Y358140D03*
X25400Y439420D03*
X71120Y439420D03*
X78740Y299720D03*
X20320Y177800D03*
X142240Y127000D03*
X180340Y25400D03*
X193040Y546100D03*
X193040Y678180D03*
X121920Y769620D03*
X154940Y891540D03*
X22860Y967740D03*
X73660Y601980D03*
D20*
X92075Y708025D02*
X92075Y774700D01*
D19*
X92075Y708025D03*
X92075Y774700D03*
D20*
X53975Y695325D02*
X95250Y654050D01*
X53975Y695325D02*
X53975Y733425D01*
D19*
X95250Y654050D03*
X53975Y733425D03*
D20*
X22225Y342900D02*
X22225Y323850D01*
X203200Y812800D02*
X225425Y835025D01*
X203200Y812800D02*
X203200Y749300D01*
X250825Y701675D01*
X250825Y568325D01*
X228600Y546100D01*
X225425Y835025D02*
X227000Y837600D01*
D19*
X22225Y323850D03*
X22225Y342900D03*
X38100Y203200D03*
D20*
X17780Y299720D01*
X20320Y307340D01*
X22225Y323850D01*
X38100Y301625D02*
X57150Y282575D01*
X38100Y390525D02*
X38100Y546100D01*
X38100Y390525D02*
X38100Y301625D01*
X38100Y660400D02*
X57150Y679450D01*
X38100Y660400D02*
X38100Y546100D01*
X254000Y736600D02*
X228600Y762000D01*
X254000Y736600D02*
X254000Y346075D01*
X228600Y320675D01*
X228600Y762000D02*
X227000Y762600D01*
X228600Y320675D02*
X227000Y318100D01*
D19*
X57150Y282575D03*
X57150Y679450D03*
X38100Y390525D03*
D20*
X22225Y628650D02*
X22225Y815975D01*
X123825Y923925D02*
X127000Y927100D01*
X123825Y923925D02*
X123825Y917575D01*
X22225Y815975D01*
D19*
X22225Y628650D03*
D20*
X127000Y901700D02*
X152400Y927100D01*
X127000Y901700D02*
X101600Y889000D01*
X101600Y644525D01*
D19*
X101600Y644525D03*
D20*
X31750Y269875D02*
X63500Y238125D01*
X63500Y212725D01*
D19*
X31750Y269875D03*
X63500Y212725D03*
D20*
X234950Y234950D02*
X250825Y219075D01*
X250825Y203200D01*
X228600Y180975D01*
X227000Y178400D01*
D19*
X234950Y234950D03*
D20*
X203200Y307340D02*
X187325Y323215D01*
X141605Y323215D01*
X203200Y307340D02*
X203200Y152400D01*
X215900Y139700D01*
X215900Y138900D01*
D19*
X141605Y323215D03*
D20*
X89535Y624840D02*
X50800Y663575D01*
X89535Y624840D02*
X89535Y151765D01*
X152400Y88900D01*
D19*
X50800Y663575D03*
D20*
X69850Y146050D02*
X127000Y88900D01*
X69850Y146050D02*
X69850Y339725D01*
D19*
X69850Y339725D03*
X246380Y129540D03*
M02*
