G04 EAGLE Gerber RS-274X export*
G75*
%MOMM*%
%FSLAX34Y34*%
%LPD*%
%INBottom Silkscreen*%
%IPPOS*%
%AMOC8*
5,1,8,0,0,1.08239X$1,22.5*%
G01*
%ADD10C,0.127000*%
%ADD11C,0.304800*%
%ADD12R,0.254000X1.270000*%
%ADD13C,0.177800*%
%ADD14C,0.152400*%
%ADD15R,0.508000X2.032000*%
%ADD16R,0.635000X0.508000*%
%ADD17C,0.050800*%
%ADD18C,0.101600*%


D10*
X179300Y660400D02*
X217000Y660400D01*
X102080Y705240D02*
X74700Y660400D01*
X104620Y615560D01*
X154460Y615560D01*
X179300Y660400D01*
X154380Y705240D01*
X102080Y705240D01*
D11*
X142000Y675400D02*
X112000Y645400D01*
D10*
X64000Y660400D02*
X64019Y661946D01*
X64076Y663491D01*
X64171Y665035D01*
X64303Y666575D01*
X64474Y668112D01*
X64682Y669644D01*
X64928Y671171D01*
X65211Y672691D01*
X65531Y674203D01*
X65888Y675708D01*
X66282Y677203D01*
X66713Y678688D01*
X67180Y680162D01*
X67683Y681624D01*
X68221Y683073D01*
X68796Y684509D01*
X69405Y685930D01*
X70049Y687336D01*
X70727Y688726D01*
X71439Y690098D01*
X72185Y691453D01*
X72963Y692788D01*
X73774Y694105D01*
X74617Y695401D01*
X75492Y696676D01*
X76398Y697929D01*
X77334Y699160D01*
X78300Y700367D01*
X79296Y701550D01*
X80320Y702708D01*
X81372Y703841D01*
X82452Y704948D01*
X83559Y706028D01*
X84692Y707080D01*
X85850Y708104D01*
X87033Y709100D01*
X88240Y710066D01*
X89471Y711002D01*
X90724Y711908D01*
X91999Y712783D01*
X93295Y713626D01*
X94612Y714437D01*
X95947Y715215D01*
X97302Y715961D01*
X98674Y716673D01*
X100064Y717351D01*
X101470Y717995D01*
X102891Y718604D01*
X104327Y719179D01*
X105776Y719717D01*
X107238Y720220D01*
X108712Y720687D01*
X110197Y721118D01*
X111692Y721512D01*
X113197Y721869D01*
X114709Y722189D01*
X116229Y722472D01*
X117756Y722718D01*
X119288Y722926D01*
X120825Y723097D01*
X122365Y723229D01*
X123909Y723324D01*
X125454Y723381D01*
X127000Y723400D01*
X128546Y723381D01*
X130091Y723324D01*
X131635Y723229D01*
X133175Y723097D01*
X134712Y722926D01*
X136244Y722718D01*
X137771Y722472D01*
X139291Y722189D01*
X140803Y721869D01*
X142308Y721512D01*
X143803Y721118D01*
X145288Y720687D01*
X146762Y720220D01*
X148224Y719717D01*
X149673Y719179D01*
X151109Y718604D01*
X152530Y717995D01*
X153936Y717351D01*
X155326Y716673D01*
X156698Y715961D01*
X158053Y715215D01*
X159388Y714437D01*
X160705Y713626D01*
X162001Y712783D01*
X163276Y711908D01*
X164529Y711002D01*
X165760Y710066D01*
X166967Y709100D01*
X168150Y708104D01*
X169308Y707080D01*
X170441Y706028D01*
X171548Y704948D01*
X172628Y703841D01*
X173680Y702708D01*
X174704Y701550D01*
X175700Y700367D01*
X176666Y699160D01*
X177602Y697929D01*
X178508Y696676D01*
X179383Y695401D01*
X180226Y694105D01*
X181037Y692788D01*
X181815Y691453D01*
X182561Y690098D01*
X183273Y688726D01*
X183951Y687336D01*
X184595Y685930D01*
X185204Y684509D01*
X185779Y683073D01*
X186317Y681624D01*
X186820Y680162D01*
X187287Y678688D01*
X187718Y677203D01*
X188112Y675708D01*
X188469Y674203D01*
X188789Y672691D01*
X189072Y671171D01*
X189318Y669644D01*
X189526Y668112D01*
X189697Y666575D01*
X189829Y665035D01*
X189924Y663491D01*
X189981Y661946D01*
X190000Y660400D01*
X189981Y658854D01*
X189924Y657309D01*
X189829Y655765D01*
X189697Y654225D01*
X189526Y652688D01*
X189318Y651156D01*
X189072Y649629D01*
X188789Y648109D01*
X188469Y646597D01*
X188112Y645092D01*
X187718Y643597D01*
X187287Y642112D01*
X186820Y640638D01*
X186317Y639176D01*
X185779Y637727D01*
X185204Y636291D01*
X184595Y634870D01*
X183951Y633464D01*
X183273Y632074D01*
X182561Y630702D01*
X181815Y629347D01*
X181037Y628012D01*
X180226Y626695D01*
X179383Y625399D01*
X178508Y624124D01*
X177602Y622871D01*
X176666Y621640D01*
X175700Y620433D01*
X174704Y619250D01*
X173680Y618092D01*
X172628Y616959D01*
X171548Y615852D01*
X170441Y614772D01*
X169308Y613720D01*
X168150Y612696D01*
X166967Y611700D01*
X165760Y610734D01*
X164529Y609798D01*
X163276Y608892D01*
X162001Y608017D01*
X160705Y607174D01*
X159388Y606363D01*
X158053Y605585D01*
X156698Y604839D01*
X155326Y604127D01*
X153936Y603449D01*
X152530Y602805D01*
X151109Y602196D01*
X149673Y601621D01*
X148224Y601083D01*
X146762Y600580D01*
X145288Y600113D01*
X143803Y599682D01*
X142308Y599288D01*
X140803Y598931D01*
X139291Y598611D01*
X137771Y598328D01*
X136244Y598082D01*
X134712Y597874D01*
X133175Y597703D01*
X131635Y597571D01*
X130091Y597476D01*
X128546Y597419D01*
X127000Y597400D01*
X125454Y597419D01*
X123909Y597476D01*
X122365Y597571D01*
X120825Y597703D01*
X119288Y597874D01*
X117756Y598082D01*
X116229Y598328D01*
X114709Y598611D01*
X113197Y598931D01*
X111692Y599288D01*
X110197Y599682D01*
X108712Y600113D01*
X107238Y600580D01*
X105776Y601083D01*
X104327Y601621D01*
X102891Y602196D01*
X101470Y602805D01*
X100064Y603449D01*
X98674Y604127D01*
X97302Y604839D01*
X95947Y605585D01*
X94612Y606363D01*
X93295Y607174D01*
X91999Y608017D01*
X90724Y608892D01*
X89471Y609798D01*
X88240Y610734D01*
X87033Y611700D01*
X85850Y612696D01*
X84692Y613720D01*
X83559Y614772D01*
X82452Y615852D01*
X81372Y616959D01*
X80320Y618092D01*
X79296Y619250D01*
X78300Y620433D01*
X77334Y621640D01*
X76398Y622871D01*
X75492Y624124D01*
X74617Y625399D01*
X73774Y626695D01*
X72963Y628012D01*
X72185Y629347D01*
X71439Y630702D01*
X70727Y632074D01*
X70049Y633464D01*
X69405Y634870D01*
X68796Y636291D01*
X68221Y637727D01*
X67683Y639176D01*
X67180Y640638D01*
X66713Y642112D01*
X66282Y643597D01*
X65888Y645092D01*
X65531Y646597D01*
X65211Y648109D01*
X64928Y649629D01*
X64682Y651156D01*
X64474Y652688D01*
X64303Y654225D01*
X64171Y655765D01*
X64076Y657309D01*
X64019Y658854D01*
X64000Y660400D01*
X62969Y660400D02*
X62988Y661971D01*
X63046Y663542D01*
X63142Y665110D01*
X63277Y666676D01*
X63451Y668238D01*
X63662Y669795D01*
X63912Y671347D01*
X64199Y672892D01*
X64525Y674429D01*
X64888Y675958D01*
X65288Y677478D01*
X65726Y678987D01*
X66201Y680485D01*
X66712Y681971D01*
X67260Y683444D01*
X67843Y684904D01*
X68462Y686348D01*
X69117Y687777D01*
X69806Y689189D01*
X70530Y690584D01*
X71287Y691961D01*
X72079Y693319D01*
X72903Y694656D01*
X73760Y695974D01*
X74649Y697270D01*
X75570Y698543D01*
X76521Y699794D01*
X77503Y701021D01*
X78515Y702223D01*
X79556Y703401D01*
X80626Y704552D01*
X81723Y705677D01*
X82848Y706774D01*
X83999Y707844D01*
X85177Y708885D01*
X86379Y709897D01*
X87606Y710879D01*
X88857Y711830D01*
X90130Y712751D01*
X91426Y713640D01*
X92744Y714497D01*
X94081Y715321D01*
X95439Y716113D01*
X96816Y716870D01*
X98211Y717594D01*
X99623Y718283D01*
X101052Y718938D01*
X102496Y719557D01*
X103956Y720140D01*
X105429Y720688D01*
X106915Y721199D01*
X108413Y721674D01*
X109922Y722112D01*
X111442Y722512D01*
X112971Y722875D01*
X114508Y723201D01*
X116053Y723488D01*
X117605Y723738D01*
X119162Y723949D01*
X120724Y724123D01*
X122290Y724258D01*
X123858Y724354D01*
X125429Y724412D01*
X127000Y724431D01*
X128571Y724412D01*
X130142Y724354D01*
X131710Y724258D01*
X133276Y724123D01*
X134838Y723949D01*
X136395Y723738D01*
X137947Y723488D01*
X139492Y723201D01*
X141029Y722875D01*
X142558Y722512D01*
X144078Y722112D01*
X145587Y721674D01*
X147085Y721199D01*
X148571Y720688D01*
X150044Y720140D01*
X151504Y719557D01*
X152948Y718938D01*
X154377Y718283D01*
X155789Y717594D01*
X157184Y716870D01*
X158561Y716113D01*
X159919Y715321D01*
X161256Y714497D01*
X162574Y713640D01*
X163870Y712751D01*
X165143Y711830D01*
X166394Y710879D01*
X167621Y709897D01*
X168823Y708885D01*
X170001Y707844D01*
X171152Y706774D01*
X172277Y705677D01*
X173374Y704552D01*
X174444Y703401D01*
X175485Y702223D01*
X176497Y701021D01*
X177479Y699794D01*
X178430Y698543D01*
X179351Y697270D01*
X180240Y695974D01*
X181097Y694656D01*
X181921Y693319D01*
X182713Y691961D01*
X183470Y690584D01*
X184194Y689189D01*
X184883Y687777D01*
X185538Y686348D01*
X186157Y684904D01*
X186740Y683444D01*
X187288Y681971D01*
X187799Y680485D01*
X188274Y678987D01*
X188712Y677478D01*
X189112Y675958D01*
X189475Y674429D01*
X189801Y672892D01*
X190088Y671347D01*
X190338Y669795D01*
X190549Y668238D01*
X190723Y666676D01*
X190858Y665110D01*
X190954Y663542D01*
X191012Y661971D01*
X191031Y660400D01*
X191012Y658829D01*
X190954Y657258D01*
X190858Y655690D01*
X190723Y654124D01*
X190549Y652562D01*
X190338Y651005D01*
X190088Y649453D01*
X189801Y647908D01*
X189475Y646371D01*
X189112Y644842D01*
X188712Y643322D01*
X188274Y641813D01*
X187799Y640315D01*
X187288Y638829D01*
X186740Y637356D01*
X186157Y635896D01*
X185538Y634452D01*
X184883Y633023D01*
X184194Y631611D01*
X183470Y630216D01*
X182713Y628839D01*
X181921Y627481D01*
X181097Y626144D01*
X180240Y624826D01*
X179351Y623530D01*
X178430Y622257D01*
X177479Y621006D01*
X176497Y619779D01*
X175485Y618577D01*
X174444Y617399D01*
X173374Y616248D01*
X172277Y615123D01*
X171152Y614026D01*
X170001Y612956D01*
X168823Y611915D01*
X167621Y610903D01*
X166394Y609921D01*
X165143Y608970D01*
X163870Y608049D01*
X162574Y607160D01*
X161256Y606303D01*
X159919Y605479D01*
X158561Y604687D01*
X157184Y603930D01*
X155789Y603206D01*
X154377Y602517D01*
X152948Y601862D01*
X151504Y601243D01*
X150044Y600660D01*
X148571Y600112D01*
X147085Y599601D01*
X145587Y599126D01*
X144078Y598688D01*
X142558Y598288D01*
X141029Y597925D01*
X139492Y597599D01*
X137947Y597312D01*
X136395Y597062D01*
X134838Y596851D01*
X133276Y596677D01*
X131710Y596542D01*
X130142Y596446D01*
X128571Y596388D01*
X127000Y596369D01*
X125429Y596388D01*
X123858Y596446D01*
X122290Y596542D01*
X120724Y596677D01*
X119162Y596851D01*
X117605Y597062D01*
X116053Y597312D01*
X114508Y597599D01*
X112971Y597925D01*
X111442Y598288D01*
X109922Y598688D01*
X108413Y599126D01*
X106915Y599601D01*
X105429Y600112D01*
X103956Y600660D01*
X102496Y601243D01*
X101052Y601862D01*
X99623Y602517D01*
X98211Y603206D01*
X96816Y603930D01*
X95439Y604687D01*
X94081Y605479D01*
X92744Y606303D01*
X91426Y607160D01*
X90130Y608049D01*
X88857Y608970D01*
X87606Y609921D01*
X86379Y610903D01*
X85177Y611915D01*
X83999Y612956D01*
X82848Y614026D01*
X81723Y615123D01*
X80626Y616248D01*
X79556Y617399D01*
X78515Y618577D01*
X77503Y619779D01*
X76521Y621006D01*
X75570Y622257D01*
X74649Y623530D01*
X73760Y624826D01*
X72903Y626144D01*
X72079Y627481D01*
X71287Y628839D01*
X70530Y630216D01*
X69806Y631611D01*
X69117Y633023D01*
X68462Y634452D01*
X67843Y635896D01*
X67260Y637356D01*
X66712Y638829D01*
X66201Y640315D01*
X65726Y641813D01*
X65288Y643322D01*
X64888Y644842D01*
X64525Y646371D01*
X64199Y647908D01*
X63912Y649453D01*
X63662Y651005D01*
X63451Y652562D01*
X63277Y654124D01*
X63142Y655690D01*
X63046Y657258D01*
X62988Y658829D01*
X62969Y660400D01*
X87949Y660400D02*
X87961Y661358D01*
X87996Y662316D01*
X88055Y663273D01*
X88137Y664228D01*
X88243Y665180D01*
X88372Y666130D01*
X88524Y667076D01*
X88699Y668018D01*
X88898Y668956D01*
X89119Y669889D01*
X89364Y670815D01*
X89631Y671736D01*
X89920Y672650D01*
X90232Y673556D01*
X90566Y674454D01*
X90922Y675344D01*
X91299Y676225D01*
X91698Y677096D01*
X92119Y677958D01*
X92560Y678809D01*
X93022Y679648D01*
X93505Y680476D01*
X94008Y681292D01*
X94530Y682096D01*
X95072Y682886D01*
X95634Y683663D01*
X96214Y684425D01*
X96813Y685174D01*
X97430Y685907D01*
X98065Y686625D01*
X98717Y687327D01*
X99387Y688013D01*
X100073Y688683D01*
X100775Y689335D01*
X101493Y689970D01*
X102226Y690587D01*
X102975Y691186D01*
X103737Y691766D01*
X104514Y692328D01*
X105304Y692870D01*
X106108Y693392D01*
X106924Y693895D01*
X107752Y694378D01*
X108591Y694840D01*
X109442Y695281D01*
X110304Y695702D01*
X111175Y696101D01*
X112056Y696478D01*
X112946Y696834D01*
X113844Y697168D01*
X114750Y697480D01*
X115664Y697769D01*
X116585Y698036D01*
X117511Y698281D01*
X118444Y698502D01*
X119382Y698701D01*
X120324Y698876D01*
X121270Y699028D01*
X122220Y699157D01*
X123172Y699263D01*
X124127Y699345D01*
X125084Y699404D01*
X126042Y699439D01*
X127000Y699451D01*
X127958Y699439D01*
X128916Y699404D01*
X129873Y699345D01*
X130828Y699263D01*
X131780Y699157D01*
X132730Y699028D01*
X133676Y698876D01*
X134618Y698701D01*
X135556Y698502D01*
X136489Y698281D01*
X137415Y698036D01*
X138336Y697769D01*
X139250Y697480D01*
X140156Y697168D01*
X141054Y696834D01*
X141944Y696478D01*
X142825Y696101D01*
X143696Y695702D01*
X144558Y695281D01*
X145409Y694840D01*
X146248Y694378D01*
X147076Y693895D01*
X147892Y693392D01*
X148696Y692870D01*
X149486Y692328D01*
X150263Y691766D01*
X151025Y691186D01*
X151774Y690587D01*
X152507Y689970D01*
X153225Y689335D01*
X153927Y688683D01*
X154613Y688013D01*
X155283Y687327D01*
X155935Y686625D01*
X156570Y685907D01*
X157187Y685174D01*
X157786Y684425D01*
X158366Y683663D01*
X158928Y682886D01*
X159470Y682096D01*
X159992Y681292D01*
X160495Y680476D01*
X160978Y679648D01*
X161440Y678809D01*
X161881Y677958D01*
X162302Y677096D01*
X162701Y676225D01*
X163078Y675344D01*
X163434Y674454D01*
X163768Y673556D01*
X164080Y672650D01*
X164369Y671736D01*
X164636Y670815D01*
X164881Y669889D01*
X165102Y668956D01*
X165301Y668018D01*
X165476Y667076D01*
X165628Y666130D01*
X165757Y665180D01*
X165863Y664228D01*
X165945Y663273D01*
X166004Y662316D01*
X166039Y661358D01*
X166051Y660400D01*
X166039Y659442D01*
X166004Y658484D01*
X165945Y657527D01*
X165863Y656572D01*
X165757Y655620D01*
X165628Y654670D01*
X165476Y653724D01*
X165301Y652782D01*
X165102Y651844D01*
X164881Y650911D01*
X164636Y649985D01*
X164369Y649064D01*
X164080Y648150D01*
X163768Y647244D01*
X163434Y646346D01*
X163078Y645456D01*
X162701Y644575D01*
X162302Y643704D01*
X161881Y642842D01*
X161440Y641991D01*
X160978Y641152D01*
X160495Y640324D01*
X159992Y639508D01*
X159470Y638704D01*
X158928Y637914D01*
X158366Y637137D01*
X157786Y636375D01*
X157187Y635626D01*
X156570Y634893D01*
X155935Y634175D01*
X155283Y633473D01*
X154613Y632787D01*
X153927Y632117D01*
X153225Y631465D01*
X152507Y630830D01*
X151774Y630213D01*
X151025Y629614D01*
X150263Y629034D01*
X149486Y628472D01*
X148696Y627930D01*
X147892Y627408D01*
X147076Y626905D01*
X146248Y626422D01*
X145409Y625960D01*
X144558Y625519D01*
X143696Y625098D01*
X142825Y624699D01*
X141944Y624322D01*
X141054Y623966D01*
X140156Y623632D01*
X139250Y623320D01*
X138336Y623031D01*
X137415Y622764D01*
X136489Y622519D01*
X135556Y622298D01*
X134618Y622099D01*
X133676Y621924D01*
X132730Y621772D01*
X131780Y621643D01*
X130828Y621537D01*
X129873Y621455D01*
X128916Y621396D01*
X127958Y621361D01*
X127000Y621349D01*
X126042Y621361D01*
X125084Y621396D01*
X124127Y621455D01*
X123172Y621537D01*
X122220Y621643D01*
X121270Y621772D01*
X120324Y621924D01*
X119382Y622099D01*
X118444Y622298D01*
X117511Y622519D01*
X116585Y622764D01*
X115664Y623031D01*
X114750Y623320D01*
X113844Y623632D01*
X112946Y623966D01*
X112056Y624322D01*
X111175Y624699D01*
X110304Y625098D01*
X109442Y625519D01*
X108591Y625960D01*
X107752Y626422D01*
X106924Y626905D01*
X106108Y627408D01*
X105304Y627930D01*
X104514Y628472D01*
X103737Y629034D01*
X102975Y629614D01*
X102226Y630213D01*
X101493Y630830D01*
X100775Y631465D01*
X100073Y632117D01*
X99387Y632787D01*
X98717Y633473D01*
X98065Y634175D01*
X97430Y634893D01*
X96813Y635626D01*
X96214Y636375D01*
X95634Y637137D01*
X95072Y637914D01*
X94530Y638704D01*
X94008Y639508D01*
X93505Y640324D01*
X93022Y641152D01*
X92560Y641991D01*
X92119Y642842D01*
X91698Y643704D01*
X91299Y644575D01*
X90922Y645456D01*
X90566Y646346D01*
X90232Y647244D01*
X89920Y648150D01*
X89631Y649064D01*
X89364Y649985D01*
X89119Y650911D01*
X88898Y651844D01*
X88699Y652782D01*
X88524Y653724D01*
X88372Y654670D01*
X88243Y655620D01*
X88137Y656572D01*
X88055Y657527D01*
X87996Y658484D01*
X87961Y659442D01*
X87949Y660400D01*
X105787Y660400D02*
X105793Y660921D01*
X105813Y661441D01*
X105844Y661961D01*
X105889Y662479D01*
X105947Y662997D01*
X106017Y663513D01*
X106099Y664027D01*
X106195Y664538D01*
X106302Y665048D01*
X106423Y665554D01*
X106555Y666058D01*
X106700Y666558D01*
X106858Y667054D01*
X107027Y667546D01*
X107208Y668034D01*
X107402Y668518D01*
X107607Y668996D01*
X107824Y669470D01*
X108052Y669938D01*
X108292Y670400D01*
X108543Y670856D01*
X108805Y671306D01*
X109078Y671749D01*
X109362Y672185D01*
X109657Y672615D01*
X109962Y673037D01*
X110277Y673451D01*
X110602Y673857D01*
X110937Y674256D01*
X111282Y674646D01*
X111637Y675027D01*
X112000Y675400D01*
X112373Y675763D01*
X112754Y676118D01*
X113144Y676463D01*
X113543Y676798D01*
X113949Y677123D01*
X114363Y677438D01*
X114785Y677743D01*
X115215Y678038D01*
X115651Y678322D01*
X116094Y678595D01*
X116544Y678857D01*
X117000Y679108D01*
X117462Y679348D01*
X117930Y679576D01*
X118404Y679793D01*
X118882Y679998D01*
X119366Y680192D01*
X119854Y680373D01*
X120346Y680542D01*
X120842Y680700D01*
X121342Y680845D01*
X121846Y680977D01*
X122352Y681098D01*
X122862Y681205D01*
X123373Y681301D01*
X123887Y681383D01*
X124403Y681453D01*
X124921Y681511D01*
X125439Y681556D01*
X125959Y681587D01*
X126479Y681607D01*
X127000Y681613D01*
X127521Y681607D01*
X128041Y681587D01*
X128561Y681556D01*
X129079Y681511D01*
X129597Y681453D01*
X130113Y681383D01*
X130627Y681301D01*
X131138Y681205D01*
X131648Y681098D01*
X132154Y680977D01*
X132658Y680845D01*
X133158Y680700D01*
X133654Y680542D01*
X134146Y680373D01*
X134634Y680192D01*
X135118Y679998D01*
X135596Y679793D01*
X136070Y679576D01*
X136538Y679348D01*
X137000Y679108D01*
X137456Y678857D01*
X137906Y678595D01*
X138349Y678322D01*
X138785Y678038D01*
X139215Y677743D01*
X139637Y677438D01*
X140051Y677123D01*
X140457Y676798D01*
X140856Y676463D01*
X141246Y676118D01*
X141627Y675763D01*
X142000Y675400D01*
X142363Y675027D01*
X142718Y674646D01*
X143063Y674256D01*
X143398Y673857D01*
X143723Y673451D01*
X144038Y673037D01*
X144343Y672615D01*
X144638Y672185D01*
X144922Y671749D01*
X145195Y671306D01*
X145457Y670856D01*
X145708Y670400D01*
X145948Y669938D01*
X146176Y669470D01*
X146393Y668996D01*
X146598Y668518D01*
X146792Y668034D01*
X146973Y667546D01*
X147142Y667054D01*
X147300Y666558D01*
X147445Y666058D01*
X147577Y665554D01*
X147698Y665048D01*
X147805Y664538D01*
X147901Y664027D01*
X147983Y663513D01*
X148053Y662997D01*
X148111Y662479D01*
X148156Y661961D01*
X148187Y661441D01*
X148207Y660921D01*
X148213Y660400D01*
X148207Y659879D01*
X148187Y659359D01*
X148156Y658839D01*
X148111Y658321D01*
X148053Y657803D01*
X147983Y657287D01*
X147901Y656773D01*
X147805Y656262D01*
X147698Y655752D01*
X147577Y655246D01*
X147445Y654742D01*
X147300Y654242D01*
X147142Y653746D01*
X146973Y653254D01*
X146792Y652766D01*
X146598Y652282D01*
X146393Y651804D01*
X146176Y651330D01*
X145948Y650862D01*
X145708Y650400D01*
X145457Y649944D01*
X145195Y649494D01*
X144922Y649051D01*
X144638Y648615D01*
X144343Y648185D01*
X144038Y647763D01*
X143723Y647349D01*
X143398Y646943D01*
X143063Y646544D01*
X142718Y646154D01*
X142363Y645773D01*
X142000Y645400D01*
X141627Y645037D01*
X141246Y644682D01*
X140856Y644337D01*
X140457Y644002D01*
X140051Y643677D01*
X139637Y643362D01*
X139215Y643057D01*
X138785Y642762D01*
X138349Y642478D01*
X137906Y642205D01*
X137456Y641943D01*
X137000Y641692D01*
X136538Y641452D01*
X136070Y641224D01*
X135596Y641007D01*
X135118Y640802D01*
X134634Y640608D01*
X134146Y640427D01*
X133654Y640258D01*
X133158Y640100D01*
X132658Y639955D01*
X132154Y639823D01*
X131648Y639702D01*
X131138Y639595D01*
X130627Y639499D01*
X130113Y639417D01*
X129597Y639347D01*
X129079Y639289D01*
X128561Y639244D01*
X128041Y639213D01*
X127521Y639193D01*
X127000Y639187D01*
X126479Y639193D01*
X125959Y639213D01*
X125439Y639244D01*
X124921Y639289D01*
X124403Y639347D01*
X123887Y639417D01*
X123373Y639499D01*
X122862Y639595D01*
X122352Y639702D01*
X121846Y639823D01*
X121342Y639955D01*
X120842Y640100D01*
X120346Y640258D01*
X119854Y640427D01*
X119366Y640608D01*
X118882Y640802D01*
X118404Y641007D01*
X117930Y641224D01*
X117462Y641452D01*
X117000Y641692D01*
X116544Y641943D01*
X116094Y642205D01*
X115651Y642478D01*
X115215Y642762D01*
X114785Y643057D01*
X114363Y643362D01*
X113949Y643677D01*
X113543Y644002D01*
X113144Y644337D01*
X112754Y644682D01*
X112373Y645037D01*
X112000Y645400D01*
X111637Y645773D01*
X111282Y646154D01*
X110937Y646544D01*
X110602Y646943D01*
X110277Y647349D01*
X109962Y647763D01*
X109657Y648185D01*
X109362Y648615D01*
X109078Y649051D01*
X108805Y649494D01*
X108543Y649944D01*
X108292Y650400D01*
X108052Y650862D01*
X107824Y651330D01*
X107607Y651804D01*
X107402Y652282D01*
X107208Y652766D01*
X107027Y653254D01*
X106858Y653746D01*
X106700Y654242D01*
X106555Y654742D01*
X106423Y655246D01*
X106302Y655752D01*
X106195Y656262D01*
X106099Y656773D01*
X106017Y657287D01*
X105947Y657803D01*
X105889Y658321D01*
X105844Y658839D01*
X105813Y659359D01*
X105793Y659879D01*
X105787Y660400D01*
X223520Y720400D02*
X223520Y600400D01*
X182880Y600400D01*
X167640Y609600D01*
X182880Y720400D02*
X223520Y720400D01*
X182880Y720400D02*
X167640Y711200D01*
D12*
X175260Y692150D03*
X175260Y629920D03*
X78740Y629920D03*
X78740Y692150D03*
D13*
X35687Y631422D02*
X19685Y626088D01*
X19685Y636756D02*
X35687Y631422D01*
X23686Y635423D02*
X23686Y627422D01*
X19685Y646012D02*
X35687Y646012D01*
X35687Y641567D02*
X35687Y650457D01*
X19685Y656710D02*
X19685Y663822D01*
X19685Y656710D02*
X35687Y656710D01*
X35687Y663822D01*
X28575Y662044D02*
X28575Y656710D01*
X35687Y670224D02*
X19685Y670224D01*
X19685Y679114D02*
X35687Y670224D01*
X35687Y679114D02*
X19685Y679114D01*
X17907Y685702D02*
X17907Y692814D01*
X32131Y698881D02*
X35687Y703326D01*
X19685Y703326D01*
X19685Y698881D02*
X19685Y707771D01*
D10*
X179300Y215900D02*
X217000Y215900D01*
X102080Y260740D02*
X74700Y215900D01*
X104620Y171060D01*
X154460Y171060D01*
X179300Y215900D01*
X154380Y260740D01*
X102080Y260740D01*
D11*
X142000Y230900D02*
X112000Y200900D01*
D10*
X64000Y215900D02*
X64019Y217446D01*
X64076Y218991D01*
X64171Y220535D01*
X64303Y222075D01*
X64474Y223612D01*
X64682Y225144D01*
X64928Y226671D01*
X65211Y228191D01*
X65531Y229703D01*
X65888Y231208D01*
X66282Y232703D01*
X66713Y234188D01*
X67180Y235662D01*
X67683Y237124D01*
X68221Y238573D01*
X68796Y240009D01*
X69405Y241430D01*
X70049Y242836D01*
X70727Y244226D01*
X71439Y245598D01*
X72185Y246953D01*
X72963Y248288D01*
X73774Y249605D01*
X74617Y250901D01*
X75492Y252176D01*
X76398Y253429D01*
X77334Y254660D01*
X78300Y255867D01*
X79296Y257050D01*
X80320Y258208D01*
X81372Y259341D01*
X82452Y260448D01*
X83559Y261528D01*
X84692Y262580D01*
X85850Y263604D01*
X87033Y264600D01*
X88240Y265566D01*
X89471Y266502D01*
X90724Y267408D01*
X91999Y268283D01*
X93295Y269126D01*
X94612Y269937D01*
X95947Y270715D01*
X97302Y271461D01*
X98674Y272173D01*
X100064Y272851D01*
X101470Y273495D01*
X102891Y274104D01*
X104327Y274679D01*
X105776Y275217D01*
X107238Y275720D01*
X108712Y276187D01*
X110197Y276618D01*
X111692Y277012D01*
X113197Y277369D01*
X114709Y277689D01*
X116229Y277972D01*
X117756Y278218D01*
X119288Y278426D01*
X120825Y278597D01*
X122365Y278729D01*
X123909Y278824D01*
X125454Y278881D01*
X127000Y278900D01*
X128546Y278881D01*
X130091Y278824D01*
X131635Y278729D01*
X133175Y278597D01*
X134712Y278426D01*
X136244Y278218D01*
X137771Y277972D01*
X139291Y277689D01*
X140803Y277369D01*
X142308Y277012D01*
X143803Y276618D01*
X145288Y276187D01*
X146762Y275720D01*
X148224Y275217D01*
X149673Y274679D01*
X151109Y274104D01*
X152530Y273495D01*
X153936Y272851D01*
X155326Y272173D01*
X156698Y271461D01*
X158053Y270715D01*
X159388Y269937D01*
X160705Y269126D01*
X162001Y268283D01*
X163276Y267408D01*
X164529Y266502D01*
X165760Y265566D01*
X166967Y264600D01*
X168150Y263604D01*
X169308Y262580D01*
X170441Y261528D01*
X171548Y260448D01*
X172628Y259341D01*
X173680Y258208D01*
X174704Y257050D01*
X175700Y255867D01*
X176666Y254660D01*
X177602Y253429D01*
X178508Y252176D01*
X179383Y250901D01*
X180226Y249605D01*
X181037Y248288D01*
X181815Y246953D01*
X182561Y245598D01*
X183273Y244226D01*
X183951Y242836D01*
X184595Y241430D01*
X185204Y240009D01*
X185779Y238573D01*
X186317Y237124D01*
X186820Y235662D01*
X187287Y234188D01*
X187718Y232703D01*
X188112Y231208D01*
X188469Y229703D01*
X188789Y228191D01*
X189072Y226671D01*
X189318Y225144D01*
X189526Y223612D01*
X189697Y222075D01*
X189829Y220535D01*
X189924Y218991D01*
X189981Y217446D01*
X190000Y215900D01*
X189981Y214354D01*
X189924Y212809D01*
X189829Y211265D01*
X189697Y209725D01*
X189526Y208188D01*
X189318Y206656D01*
X189072Y205129D01*
X188789Y203609D01*
X188469Y202097D01*
X188112Y200592D01*
X187718Y199097D01*
X187287Y197612D01*
X186820Y196138D01*
X186317Y194676D01*
X185779Y193227D01*
X185204Y191791D01*
X184595Y190370D01*
X183951Y188964D01*
X183273Y187574D01*
X182561Y186202D01*
X181815Y184847D01*
X181037Y183512D01*
X180226Y182195D01*
X179383Y180899D01*
X178508Y179624D01*
X177602Y178371D01*
X176666Y177140D01*
X175700Y175933D01*
X174704Y174750D01*
X173680Y173592D01*
X172628Y172459D01*
X171548Y171352D01*
X170441Y170272D01*
X169308Y169220D01*
X168150Y168196D01*
X166967Y167200D01*
X165760Y166234D01*
X164529Y165298D01*
X163276Y164392D01*
X162001Y163517D01*
X160705Y162674D01*
X159388Y161863D01*
X158053Y161085D01*
X156698Y160339D01*
X155326Y159627D01*
X153936Y158949D01*
X152530Y158305D01*
X151109Y157696D01*
X149673Y157121D01*
X148224Y156583D01*
X146762Y156080D01*
X145288Y155613D01*
X143803Y155182D01*
X142308Y154788D01*
X140803Y154431D01*
X139291Y154111D01*
X137771Y153828D01*
X136244Y153582D01*
X134712Y153374D01*
X133175Y153203D01*
X131635Y153071D01*
X130091Y152976D01*
X128546Y152919D01*
X127000Y152900D01*
X125454Y152919D01*
X123909Y152976D01*
X122365Y153071D01*
X120825Y153203D01*
X119288Y153374D01*
X117756Y153582D01*
X116229Y153828D01*
X114709Y154111D01*
X113197Y154431D01*
X111692Y154788D01*
X110197Y155182D01*
X108712Y155613D01*
X107238Y156080D01*
X105776Y156583D01*
X104327Y157121D01*
X102891Y157696D01*
X101470Y158305D01*
X100064Y158949D01*
X98674Y159627D01*
X97302Y160339D01*
X95947Y161085D01*
X94612Y161863D01*
X93295Y162674D01*
X91999Y163517D01*
X90724Y164392D01*
X89471Y165298D01*
X88240Y166234D01*
X87033Y167200D01*
X85850Y168196D01*
X84692Y169220D01*
X83559Y170272D01*
X82452Y171352D01*
X81372Y172459D01*
X80320Y173592D01*
X79296Y174750D01*
X78300Y175933D01*
X77334Y177140D01*
X76398Y178371D01*
X75492Y179624D01*
X74617Y180899D01*
X73774Y182195D01*
X72963Y183512D01*
X72185Y184847D01*
X71439Y186202D01*
X70727Y187574D01*
X70049Y188964D01*
X69405Y190370D01*
X68796Y191791D01*
X68221Y193227D01*
X67683Y194676D01*
X67180Y196138D01*
X66713Y197612D01*
X66282Y199097D01*
X65888Y200592D01*
X65531Y202097D01*
X65211Y203609D01*
X64928Y205129D01*
X64682Y206656D01*
X64474Y208188D01*
X64303Y209725D01*
X64171Y211265D01*
X64076Y212809D01*
X64019Y214354D01*
X64000Y215900D01*
X62969Y215900D02*
X62988Y217471D01*
X63046Y219042D01*
X63142Y220610D01*
X63277Y222176D01*
X63451Y223738D01*
X63662Y225295D01*
X63912Y226847D01*
X64199Y228392D01*
X64525Y229929D01*
X64888Y231458D01*
X65288Y232978D01*
X65726Y234487D01*
X66201Y235985D01*
X66712Y237471D01*
X67260Y238944D01*
X67843Y240404D01*
X68462Y241848D01*
X69117Y243277D01*
X69806Y244689D01*
X70530Y246084D01*
X71287Y247461D01*
X72079Y248819D01*
X72903Y250156D01*
X73760Y251474D01*
X74649Y252770D01*
X75570Y254043D01*
X76521Y255294D01*
X77503Y256521D01*
X78515Y257723D01*
X79556Y258901D01*
X80626Y260052D01*
X81723Y261177D01*
X82848Y262274D01*
X83999Y263344D01*
X85177Y264385D01*
X86379Y265397D01*
X87606Y266379D01*
X88857Y267330D01*
X90130Y268251D01*
X91426Y269140D01*
X92744Y269997D01*
X94081Y270821D01*
X95439Y271613D01*
X96816Y272370D01*
X98211Y273094D01*
X99623Y273783D01*
X101052Y274438D01*
X102496Y275057D01*
X103956Y275640D01*
X105429Y276188D01*
X106915Y276699D01*
X108413Y277174D01*
X109922Y277612D01*
X111442Y278012D01*
X112971Y278375D01*
X114508Y278701D01*
X116053Y278988D01*
X117605Y279238D01*
X119162Y279449D01*
X120724Y279623D01*
X122290Y279758D01*
X123858Y279854D01*
X125429Y279912D01*
X127000Y279931D01*
X128571Y279912D01*
X130142Y279854D01*
X131710Y279758D01*
X133276Y279623D01*
X134838Y279449D01*
X136395Y279238D01*
X137947Y278988D01*
X139492Y278701D01*
X141029Y278375D01*
X142558Y278012D01*
X144078Y277612D01*
X145587Y277174D01*
X147085Y276699D01*
X148571Y276188D01*
X150044Y275640D01*
X151504Y275057D01*
X152948Y274438D01*
X154377Y273783D01*
X155789Y273094D01*
X157184Y272370D01*
X158561Y271613D01*
X159919Y270821D01*
X161256Y269997D01*
X162574Y269140D01*
X163870Y268251D01*
X165143Y267330D01*
X166394Y266379D01*
X167621Y265397D01*
X168823Y264385D01*
X170001Y263344D01*
X171152Y262274D01*
X172277Y261177D01*
X173374Y260052D01*
X174444Y258901D01*
X175485Y257723D01*
X176497Y256521D01*
X177479Y255294D01*
X178430Y254043D01*
X179351Y252770D01*
X180240Y251474D01*
X181097Y250156D01*
X181921Y248819D01*
X182713Y247461D01*
X183470Y246084D01*
X184194Y244689D01*
X184883Y243277D01*
X185538Y241848D01*
X186157Y240404D01*
X186740Y238944D01*
X187288Y237471D01*
X187799Y235985D01*
X188274Y234487D01*
X188712Y232978D01*
X189112Y231458D01*
X189475Y229929D01*
X189801Y228392D01*
X190088Y226847D01*
X190338Y225295D01*
X190549Y223738D01*
X190723Y222176D01*
X190858Y220610D01*
X190954Y219042D01*
X191012Y217471D01*
X191031Y215900D01*
X191012Y214329D01*
X190954Y212758D01*
X190858Y211190D01*
X190723Y209624D01*
X190549Y208062D01*
X190338Y206505D01*
X190088Y204953D01*
X189801Y203408D01*
X189475Y201871D01*
X189112Y200342D01*
X188712Y198822D01*
X188274Y197313D01*
X187799Y195815D01*
X187288Y194329D01*
X186740Y192856D01*
X186157Y191396D01*
X185538Y189952D01*
X184883Y188523D01*
X184194Y187111D01*
X183470Y185716D01*
X182713Y184339D01*
X181921Y182981D01*
X181097Y181644D01*
X180240Y180326D01*
X179351Y179030D01*
X178430Y177757D01*
X177479Y176506D01*
X176497Y175279D01*
X175485Y174077D01*
X174444Y172899D01*
X173374Y171748D01*
X172277Y170623D01*
X171152Y169526D01*
X170001Y168456D01*
X168823Y167415D01*
X167621Y166403D01*
X166394Y165421D01*
X165143Y164470D01*
X163870Y163549D01*
X162574Y162660D01*
X161256Y161803D01*
X159919Y160979D01*
X158561Y160187D01*
X157184Y159430D01*
X155789Y158706D01*
X154377Y158017D01*
X152948Y157362D01*
X151504Y156743D01*
X150044Y156160D01*
X148571Y155612D01*
X147085Y155101D01*
X145587Y154626D01*
X144078Y154188D01*
X142558Y153788D01*
X141029Y153425D01*
X139492Y153099D01*
X137947Y152812D01*
X136395Y152562D01*
X134838Y152351D01*
X133276Y152177D01*
X131710Y152042D01*
X130142Y151946D01*
X128571Y151888D01*
X127000Y151869D01*
X125429Y151888D01*
X123858Y151946D01*
X122290Y152042D01*
X120724Y152177D01*
X119162Y152351D01*
X117605Y152562D01*
X116053Y152812D01*
X114508Y153099D01*
X112971Y153425D01*
X111442Y153788D01*
X109922Y154188D01*
X108413Y154626D01*
X106915Y155101D01*
X105429Y155612D01*
X103956Y156160D01*
X102496Y156743D01*
X101052Y157362D01*
X99623Y158017D01*
X98211Y158706D01*
X96816Y159430D01*
X95439Y160187D01*
X94081Y160979D01*
X92744Y161803D01*
X91426Y162660D01*
X90130Y163549D01*
X88857Y164470D01*
X87606Y165421D01*
X86379Y166403D01*
X85177Y167415D01*
X83999Y168456D01*
X82848Y169526D01*
X81723Y170623D01*
X80626Y171748D01*
X79556Y172899D01*
X78515Y174077D01*
X77503Y175279D01*
X76521Y176506D01*
X75570Y177757D01*
X74649Y179030D01*
X73760Y180326D01*
X72903Y181644D01*
X72079Y182981D01*
X71287Y184339D01*
X70530Y185716D01*
X69806Y187111D01*
X69117Y188523D01*
X68462Y189952D01*
X67843Y191396D01*
X67260Y192856D01*
X66712Y194329D01*
X66201Y195815D01*
X65726Y197313D01*
X65288Y198822D01*
X64888Y200342D01*
X64525Y201871D01*
X64199Y203408D01*
X63912Y204953D01*
X63662Y206505D01*
X63451Y208062D01*
X63277Y209624D01*
X63142Y211190D01*
X63046Y212758D01*
X62988Y214329D01*
X62969Y215900D01*
X87949Y215900D02*
X87961Y216858D01*
X87996Y217816D01*
X88055Y218773D01*
X88137Y219728D01*
X88243Y220680D01*
X88372Y221630D01*
X88524Y222576D01*
X88699Y223518D01*
X88898Y224456D01*
X89119Y225389D01*
X89364Y226315D01*
X89631Y227236D01*
X89920Y228150D01*
X90232Y229056D01*
X90566Y229954D01*
X90922Y230844D01*
X91299Y231725D01*
X91698Y232596D01*
X92119Y233458D01*
X92560Y234309D01*
X93022Y235148D01*
X93505Y235976D01*
X94008Y236792D01*
X94530Y237596D01*
X95072Y238386D01*
X95634Y239163D01*
X96214Y239925D01*
X96813Y240674D01*
X97430Y241407D01*
X98065Y242125D01*
X98717Y242827D01*
X99387Y243513D01*
X100073Y244183D01*
X100775Y244835D01*
X101493Y245470D01*
X102226Y246087D01*
X102975Y246686D01*
X103737Y247266D01*
X104514Y247828D01*
X105304Y248370D01*
X106108Y248892D01*
X106924Y249395D01*
X107752Y249878D01*
X108591Y250340D01*
X109442Y250781D01*
X110304Y251202D01*
X111175Y251601D01*
X112056Y251978D01*
X112946Y252334D01*
X113844Y252668D01*
X114750Y252980D01*
X115664Y253269D01*
X116585Y253536D01*
X117511Y253781D01*
X118444Y254002D01*
X119382Y254201D01*
X120324Y254376D01*
X121270Y254528D01*
X122220Y254657D01*
X123172Y254763D01*
X124127Y254845D01*
X125084Y254904D01*
X126042Y254939D01*
X127000Y254951D01*
X127958Y254939D01*
X128916Y254904D01*
X129873Y254845D01*
X130828Y254763D01*
X131780Y254657D01*
X132730Y254528D01*
X133676Y254376D01*
X134618Y254201D01*
X135556Y254002D01*
X136489Y253781D01*
X137415Y253536D01*
X138336Y253269D01*
X139250Y252980D01*
X140156Y252668D01*
X141054Y252334D01*
X141944Y251978D01*
X142825Y251601D01*
X143696Y251202D01*
X144558Y250781D01*
X145409Y250340D01*
X146248Y249878D01*
X147076Y249395D01*
X147892Y248892D01*
X148696Y248370D01*
X149486Y247828D01*
X150263Y247266D01*
X151025Y246686D01*
X151774Y246087D01*
X152507Y245470D01*
X153225Y244835D01*
X153927Y244183D01*
X154613Y243513D01*
X155283Y242827D01*
X155935Y242125D01*
X156570Y241407D01*
X157187Y240674D01*
X157786Y239925D01*
X158366Y239163D01*
X158928Y238386D01*
X159470Y237596D01*
X159992Y236792D01*
X160495Y235976D01*
X160978Y235148D01*
X161440Y234309D01*
X161881Y233458D01*
X162302Y232596D01*
X162701Y231725D01*
X163078Y230844D01*
X163434Y229954D01*
X163768Y229056D01*
X164080Y228150D01*
X164369Y227236D01*
X164636Y226315D01*
X164881Y225389D01*
X165102Y224456D01*
X165301Y223518D01*
X165476Y222576D01*
X165628Y221630D01*
X165757Y220680D01*
X165863Y219728D01*
X165945Y218773D01*
X166004Y217816D01*
X166039Y216858D01*
X166051Y215900D01*
X166039Y214942D01*
X166004Y213984D01*
X165945Y213027D01*
X165863Y212072D01*
X165757Y211120D01*
X165628Y210170D01*
X165476Y209224D01*
X165301Y208282D01*
X165102Y207344D01*
X164881Y206411D01*
X164636Y205485D01*
X164369Y204564D01*
X164080Y203650D01*
X163768Y202744D01*
X163434Y201846D01*
X163078Y200956D01*
X162701Y200075D01*
X162302Y199204D01*
X161881Y198342D01*
X161440Y197491D01*
X160978Y196652D01*
X160495Y195824D01*
X159992Y195008D01*
X159470Y194204D01*
X158928Y193414D01*
X158366Y192637D01*
X157786Y191875D01*
X157187Y191126D01*
X156570Y190393D01*
X155935Y189675D01*
X155283Y188973D01*
X154613Y188287D01*
X153927Y187617D01*
X153225Y186965D01*
X152507Y186330D01*
X151774Y185713D01*
X151025Y185114D01*
X150263Y184534D01*
X149486Y183972D01*
X148696Y183430D01*
X147892Y182908D01*
X147076Y182405D01*
X146248Y181922D01*
X145409Y181460D01*
X144558Y181019D01*
X143696Y180598D01*
X142825Y180199D01*
X141944Y179822D01*
X141054Y179466D01*
X140156Y179132D01*
X139250Y178820D01*
X138336Y178531D01*
X137415Y178264D01*
X136489Y178019D01*
X135556Y177798D01*
X134618Y177599D01*
X133676Y177424D01*
X132730Y177272D01*
X131780Y177143D01*
X130828Y177037D01*
X129873Y176955D01*
X128916Y176896D01*
X127958Y176861D01*
X127000Y176849D01*
X126042Y176861D01*
X125084Y176896D01*
X124127Y176955D01*
X123172Y177037D01*
X122220Y177143D01*
X121270Y177272D01*
X120324Y177424D01*
X119382Y177599D01*
X118444Y177798D01*
X117511Y178019D01*
X116585Y178264D01*
X115664Y178531D01*
X114750Y178820D01*
X113844Y179132D01*
X112946Y179466D01*
X112056Y179822D01*
X111175Y180199D01*
X110304Y180598D01*
X109442Y181019D01*
X108591Y181460D01*
X107752Y181922D01*
X106924Y182405D01*
X106108Y182908D01*
X105304Y183430D01*
X104514Y183972D01*
X103737Y184534D01*
X102975Y185114D01*
X102226Y185713D01*
X101493Y186330D01*
X100775Y186965D01*
X100073Y187617D01*
X99387Y188287D01*
X98717Y188973D01*
X98065Y189675D01*
X97430Y190393D01*
X96813Y191126D01*
X96214Y191875D01*
X95634Y192637D01*
X95072Y193414D01*
X94530Y194204D01*
X94008Y195008D01*
X93505Y195824D01*
X93022Y196652D01*
X92560Y197491D01*
X92119Y198342D01*
X91698Y199204D01*
X91299Y200075D01*
X90922Y200956D01*
X90566Y201846D01*
X90232Y202744D01*
X89920Y203650D01*
X89631Y204564D01*
X89364Y205485D01*
X89119Y206411D01*
X88898Y207344D01*
X88699Y208282D01*
X88524Y209224D01*
X88372Y210170D01*
X88243Y211120D01*
X88137Y212072D01*
X88055Y213027D01*
X87996Y213984D01*
X87961Y214942D01*
X87949Y215900D01*
X105787Y215900D02*
X105793Y216421D01*
X105813Y216941D01*
X105844Y217461D01*
X105889Y217979D01*
X105947Y218497D01*
X106017Y219013D01*
X106099Y219527D01*
X106195Y220038D01*
X106302Y220548D01*
X106423Y221054D01*
X106555Y221558D01*
X106700Y222058D01*
X106858Y222554D01*
X107027Y223046D01*
X107208Y223534D01*
X107402Y224018D01*
X107607Y224496D01*
X107824Y224970D01*
X108052Y225438D01*
X108292Y225900D01*
X108543Y226356D01*
X108805Y226806D01*
X109078Y227249D01*
X109362Y227685D01*
X109657Y228115D01*
X109962Y228537D01*
X110277Y228951D01*
X110602Y229357D01*
X110937Y229756D01*
X111282Y230146D01*
X111637Y230527D01*
X112000Y230900D01*
X112373Y231263D01*
X112754Y231618D01*
X113144Y231963D01*
X113543Y232298D01*
X113949Y232623D01*
X114363Y232938D01*
X114785Y233243D01*
X115215Y233538D01*
X115651Y233822D01*
X116094Y234095D01*
X116544Y234357D01*
X117000Y234608D01*
X117462Y234848D01*
X117930Y235076D01*
X118404Y235293D01*
X118882Y235498D01*
X119366Y235692D01*
X119854Y235873D01*
X120346Y236042D01*
X120842Y236200D01*
X121342Y236345D01*
X121846Y236477D01*
X122352Y236598D01*
X122862Y236705D01*
X123373Y236801D01*
X123887Y236883D01*
X124403Y236953D01*
X124921Y237011D01*
X125439Y237056D01*
X125959Y237087D01*
X126479Y237107D01*
X127000Y237113D01*
X127521Y237107D01*
X128041Y237087D01*
X128561Y237056D01*
X129079Y237011D01*
X129597Y236953D01*
X130113Y236883D01*
X130627Y236801D01*
X131138Y236705D01*
X131648Y236598D01*
X132154Y236477D01*
X132658Y236345D01*
X133158Y236200D01*
X133654Y236042D01*
X134146Y235873D01*
X134634Y235692D01*
X135118Y235498D01*
X135596Y235293D01*
X136070Y235076D01*
X136538Y234848D01*
X137000Y234608D01*
X137456Y234357D01*
X137906Y234095D01*
X138349Y233822D01*
X138785Y233538D01*
X139215Y233243D01*
X139637Y232938D01*
X140051Y232623D01*
X140457Y232298D01*
X140856Y231963D01*
X141246Y231618D01*
X141627Y231263D01*
X142000Y230900D01*
X142363Y230527D01*
X142718Y230146D01*
X143063Y229756D01*
X143398Y229357D01*
X143723Y228951D01*
X144038Y228537D01*
X144343Y228115D01*
X144638Y227685D01*
X144922Y227249D01*
X145195Y226806D01*
X145457Y226356D01*
X145708Y225900D01*
X145948Y225438D01*
X146176Y224970D01*
X146393Y224496D01*
X146598Y224018D01*
X146792Y223534D01*
X146973Y223046D01*
X147142Y222554D01*
X147300Y222058D01*
X147445Y221558D01*
X147577Y221054D01*
X147698Y220548D01*
X147805Y220038D01*
X147901Y219527D01*
X147983Y219013D01*
X148053Y218497D01*
X148111Y217979D01*
X148156Y217461D01*
X148187Y216941D01*
X148207Y216421D01*
X148213Y215900D01*
X148207Y215379D01*
X148187Y214859D01*
X148156Y214339D01*
X148111Y213821D01*
X148053Y213303D01*
X147983Y212787D01*
X147901Y212273D01*
X147805Y211762D01*
X147698Y211252D01*
X147577Y210746D01*
X147445Y210242D01*
X147300Y209742D01*
X147142Y209246D01*
X146973Y208754D01*
X146792Y208266D01*
X146598Y207782D01*
X146393Y207304D01*
X146176Y206830D01*
X145948Y206362D01*
X145708Y205900D01*
X145457Y205444D01*
X145195Y204994D01*
X144922Y204551D01*
X144638Y204115D01*
X144343Y203685D01*
X144038Y203263D01*
X143723Y202849D01*
X143398Y202443D01*
X143063Y202044D01*
X142718Y201654D01*
X142363Y201273D01*
X142000Y200900D01*
X141627Y200537D01*
X141246Y200182D01*
X140856Y199837D01*
X140457Y199502D01*
X140051Y199177D01*
X139637Y198862D01*
X139215Y198557D01*
X138785Y198262D01*
X138349Y197978D01*
X137906Y197705D01*
X137456Y197443D01*
X137000Y197192D01*
X136538Y196952D01*
X136070Y196724D01*
X135596Y196507D01*
X135118Y196302D01*
X134634Y196108D01*
X134146Y195927D01*
X133654Y195758D01*
X133158Y195600D01*
X132658Y195455D01*
X132154Y195323D01*
X131648Y195202D01*
X131138Y195095D01*
X130627Y194999D01*
X130113Y194917D01*
X129597Y194847D01*
X129079Y194789D01*
X128561Y194744D01*
X128041Y194713D01*
X127521Y194693D01*
X127000Y194687D01*
X126479Y194693D01*
X125959Y194713D01*
X125439Y194744D01*
X124921Y194789D01*
X124403Y194847D01*
X123887Y194917D01*
X123373Y194999D01*
X122862Y195095D01*
X122352Y195202D01*
X121846Y195323D01*
X121342Y195455D01*
X120842Y195600D01*
X120346Y195758D01*
X119854Y195927D01*
X119366Y196108D01*
X118882Y196302D01*
X118404Y196507D01*
X117930Y196724D01*
X117462Y196952D01*
X117000Y197192D01*
X116544Y197443D01*
X116094Y197705D01*
X115651Y197978D01*
X115215Y198262D01*
X114785Y198557D01*
X114363Y198862D01*
X113949Y199177D01*
X113543Y199502D01*
X113144Y199837D01*
X112754Y200182D01*
X112373Y200537D01*
X112000Y200900D01*
X111637Y201273D01*
X111282Y201654D01*
X110937Y202044D01*
X110602Y202443D01*
X110277Y202849D01*
X109962Y203263D01*
X109657Y203685D01*
X109362Y204115D01*
X109078Y204551D01*
X108805Y204994D01*
X108543Y205444D01*
X108292Y205900D01*
X108052Y206362D01*
X107824Y206830D01*
X107607Y207304D01*
X107402Y207782D01*
X107208Y208266D01*
X107027Y208754D01*
X106858Y209246D01*
X106700Y209742D01*
X106555Y210242D01*
X106423Y210746D01*
X106302Y211252D01*
X106195Y211762D01*
X106099Y212273D01*
X106017Y212787D01*
X105947Y213303D01*
X105889Y213821D01*
X105844Y214339D01*
X105813Y214859D01*
X105793Y215379D01*
X105787Y215900D01*
X223520Y275900D02*
X223520Y155900D01*
X182880Y155900D01*
X167640Y165100D01*
X182880Y275900D02*
X223520Y275900D01*
X182880Y275900D02*
X167640Y266700D01*
D12*
X175260Y247650D03*
X175260Y185420D03*
X78740Y185420D03*
X78740Y247650D03*
D13*
X35687Y186922D02*
X19685Y181588D01*
X19685Y192256D02*
X35687Y186922D01*
X23686Y190923D02*
X23686Y182922D01*
X19685Y201512D02*
X35687Y201512D01*
X35687Y197067D02*
X35687Y205957D01*
X19685Y212210D02*
X19685Y219322D01*
X19685Y212210D02*
X35687Y212210D01*
X35687Y219322D01*
X28575Y217544D02*
X28575Y212210D01*
X35687Y225724D02*
X19685Y225724D01*
X19685Y234614D02*
X35687Y225724D01*
X35687Y234614D02*
X19685Y234614D01*
X17907Y241202D02*
X17907Y248314D01*
X31687Y263272D02*
X31813Y263270D01*
X31938Y263264D01*
X32064Y263254D01*
X32188Y263240D01*
X32313Y263223D01*
X32437Y263201D01*
X32560Y263176D01*
X32682Y263146D01*
X32803Y263113D01*
X32923Y263076D01*
X33042Y263035D01*
X33160Y262991D01*
X33276Y262943D01*
X33391Y262891D01*
X33503Y262836D01*
X33614Y262777D01*
X33724Y262715D01*
X33831Y262649D01*
X33936Y262580D01*
X34039Y262508D01*
X34139Y262432D01*
X34237Y262354D01*
X34333Y262272D01*
X34426Y262188D01*
X34516Y262100D01*
X34604Y262010D01*
X34688Y261917D01*
X34770Y261821D01*
X34848Y261723D01*
X34924Y261623D01*
X34996Y261520D01*
X35065Y261415D01*
X35131Y261308D01*
X35193Y261198D01*
X35252Y261087D01*
X35307Y260975D01*
X35359Y260860D01*
X35407Y260744D01*
X35451Y260626D01*
X35492Y260507D01*
X35529Y260387D01*
X35562Y260266D01*
X35592Y260144D01*
X35617Y260021D01*
X35639Y259897D01*
X35656Y259772D01*
X35670Y259648D01*
X35680Y259522D01*
X35686Y259397D01*
X35688Y259271D01*
X35687Y259271D02*
X35685Y259130D01*
X35679Y258990D01*
X35670Y258850D01*
X35656Y258710D01*
X35639Y258571D01*
X35618Y258432D01*
X35593Y258293D01*
X35565Y258156D01*
X35532Y258019D01*
X35496Y257883D01*
X35456Y257748D01*
X35413Y257615D01*
X35366Y257482D01*
X35315Y257351D01*
X35261Y257222D01*
X35203Y257094D01*
X35142Y256967D01*
X35077Y256842D01*
X35009Y256720D01*
X34938Y256599D01*
X34863Y256479D01*
X34785Y256363D01*
X34704Y256248D01*
X34620Y256135D01*
X34532Y256025D01*
X34442Y255917D01*
X34349Y255812D01*
X34253Y255710D01*
X34154Y255610D01*
X34053Y255512D01*
X33949Y255418D01*
X33842Y255326D01*
X33733Y255238D01*
X33622Y255152D01*
X33508Y255070D01*
X33392Y254990D01*
X33274Y254914D01*
X33154Y254841D01*
X33032Y254772D01*
X32908Y254705D01*
X32782Y254642D01*
X32655Y254583D01*
X32526Y254527D01*
X32396Y254475D01*
X32264Y254426D01*
X32131Y254381D01*
X28575Y261937D02*
X28666Y262029D01*
X28759Y262119D01*
X28854Y262205D01*
X28952Y262289D01*
X29053Y262369D01*
X29156Y262447D01*
X29261Y262521D01*
X29369Y262592D01*
X29478Y262660D01*
X29590Y262724D01*
X29703Y262786D01*
X29818Y262843D01*
X29935Y262898D01*
X30054Y262949D01*
X30174Y262996D01*
X30295Y263039D01*
X30417Y263079D01*
X30541Y263115D01*
X30666Y263148D01*
X30791Y263177D01*
X30918Y263202D01*
X31045Y263223D01*
X31173Y263240D01*
X31301Y263254D01*
X31429Y263263D01*
X31558Y263269D01*
X31687Y263271D01*
X28575Y261938D02*
X19685Y254381D01*
X19685Y263271D01*
D14*
X190500Y546100D02*
X196850Y546100D01*
X180340Y552450D02*
X180340Y539750D01*
X190500Y546100D01*
X175260Y546100D01*
X180340Y552450D02*
X190500Y546100D01*
X190500Y552450D01*
X190500Y546100D02*
X190500Y539750D01*
X170180Y556260D02*
X170080Y556258D01*
X169981Y556252D01*
X169881Y556242D01*
X169783Y556229D01*
X169684Y556211D01*
X169587Y556190D01*
X169491Y556165D01*
X169395Y556136D01*
X169301Y556103D01*
X169208Y556067D01*
X169117Y556027D01*
X169027Y555983D01*
X168939Y555936D01*
X168853Y555886D01*
X168769Y555832D01*
X168687Y555775D01*
X168608Y555715D01*
X168530Y555651D01*
X168456Y555585D01*
X168384Y555516D01*
X168315Y555444D01*
X168249Y555370D01*
X168185Y555292D01*
X168125Y555213D01*
X168068Y555131D01*
X168014Y555047D01*
X167964Y554961D01*
X167917Y554873D01*
X167873Y554783D01*
X167833Y554692D01*
X167797Y554599D01*
X167764Y554505D01*
X167735Y554409D01*
X167710Y554313D01*
X167689Y554216D01*
X167671Y554117D01*
X167658Y554019D01*
X167648Y553919D01*
X167642Y553820D01*
X167640Y553720D01*
X167640Y538480D01*
X167642Y538380D01*
X167648Y538281D01*
X167658Y538181D01*
X167671Y538083D01*
X167689Y537984D01*
X167710Y537887D01*
X167735Y537791D01*
X167764Y537695D01*
X167797Y537601D01*
X167833Y537508D01*
X167873Y537417D01*
X167917Y537327D01*
X167964Y537239D01*
X168014Y537153D01*
X168068Y537069D01*
X168125Y536987D01*
X168185Y536908D01*
X168249Y536830D01*
X168315Y536756D01*
X168384Y536684D01*
X168456Y536615D01*
X168530Y536549D01*
X168608Y536485D01*
X168687Y536425D01*
X168769Y536368D01*
X168853Y536314D01*
X168939Y536264D01*
X169027Y536217D01*
X169117Y536173D01*
X169208Y536133D01*
X169301Y536097D01*
X169395Y536064D01*
X169491Y536035D01*
X169587Y536010D01*
X169684Y535989D01*
X169783Y535971D01*
X169881Y535958D01*
X169981Y535948D01*
X170080Y535942D01*
X170180Y535940D01*
X210820Y556260D02*
X210920Y556258D01*
X211019Y556252D01*
X211119Y556242D01*
X211217Y556229D01*
X211316Y556211D01*
X211413Y556190D01*
X211509Y556165D01*
X211605Y556136D01*
X211699Y556103D01*
X211792Y556067D01*
X211883Y556027D01*
X211973Y555983D01*
X212061Y555936D01*
X212147Y555886D01*
X212231Y555832D01*
X212313Y555775D01*
X212392Y555715D01*
X212470Y555651D01*
X212544Y555585D01*
X212616Y555516D01*
X212685Y555444D01*
X212751Y555370D01*
X212815Y555292D01*
X212875Y555213D01*
X212932Y555131D01*
X212986Y555047D01*
X213036Y554961D01*
X213083Y554873D01*
X213127Y554783D01*
X213167Y554692D01*
X213203Y554599D01*
X213236Y554505D01*
X213265Y554409D01*
X213290Y554313D01*
X213311Y554216D01*
X213329Y554117D01*
X213342Y554019D01*
X213352Y553919D01*
X213358Y553820D01*
X213360Y553720D01*
X213360Y538480D02*
X213358Y538380D01*
X213352Y538281D01*
X213342Y538181D01*
X213329Y538083D01*
X213311Y537984D01*
X213290Y537887D01*
X213265Y537791D01*
X213236Y537695D01*
X213203Y537601D01*
X213167Y537508D01*
X213127Y537417D01*
X213083Y537327D01*
X213036Y537239D01*
X212986Y537153D01*
X212932Y537069D01*
X212875Y536987D01*
X212815Y536908D01*
X212751Y536830D01*
X212685Y536756D01*
X212616Y536684D01*
X212544Y536615D01*
X212470Y536549D01*
X212392Y536485D01*
X212313Y536425D01*
X212231Y536368D01*
X212147Y536314D01*
X212061Y536264D01*
X211973Y536217D01*
X211883Y536173D01*
X211792Y536133D01*
X211699Y536097D01*
X211605Y536064D01*
X211509Y536035D01*
X211413Y536010D01*
X211316Y535989D01*
X211217Y535971D01*
X211119Y535958D01*
X211019Y535948D01*
X210920Y535942D01*
X210820Y535940D01*
X170180Y535940D01*
X213360Y538480D02*
X213360Y553720D01*
X210820Y556260D02*
X170180Y556260D01*
D15*
X207010Y546100D03*
D16*
X164465Y546100D03*
X216535Y546100D03*
D10*
X197485Y559435D02*
X197485Y570865D01*
X194310Y570865D01*
X194199Y570863D01*
X194089Y570857D01*
X193978Y570848D01*
X193868Y570834D01*
X193759Y570817D01*
X193650Y570796D01*
X193542Y570771D01*
X193435Y570742D01*
X193329Y570710D01*
X193224Y570674D01*
X193121Y570634D01*
X193019Y570591D01*
X192918Y570544D01*
X192819Y570493D01*
X192723Y570440D01*
X192628Y570383D01*
X192535Y570322D01*
X192444Y570259D01*
X192355Y570192D01*
X192269Y570122D01*
X192186Y570049D01*
X192104Y569974D01*
X192026Y569896D01*
X191951Y569814D01*
X191878Y569731D01*
X191808Y569645D01*
X191741Y569556D01*
X191678Y569465D01*
X191617Y569372D01*
X191560Y569278D01*
X191507Y569181D01*
X191456Y569082D01*
X191409Y568981D01*
X191366Y568879D01*
X191326Y568776D01*
X191290Y568671D01*
X191258Y568565D01*
X191229Y568458D01*
X191204Y568350D01*
X191183Y568241D01*
X191166Y568132D01*
X191152Y568022D01*
X191143Y567911D01*
X191137Y567801D01*
X191135Y567690D01*
X191135Y562610D01*
X191137Y562499D01*
X191143Y562389D01*
X191152Y562278D01*
X191166Y562168D01*
X191183Y562059D01*
X191204Y561950D01*
X191229Y561842D01*
X191258Y561735D01*
X191290Y561629D01*
X191326Y561524D01*
X191366Y561421D01*
X191409Y561319D01*
X191456Y561218D01*
X191507Y561119D01*
X191560Y561023D01*
X191617Y560928D01*
X191678Y560835D01*
X191741Y560744D01*
X191808Y560655D01*
X191878Y560569D01*
X191951Y560486D01*
X192026Y560404D01*
X192104Y560326D01*
X192186Y560251D01*
X192269Y560178D01*
X192355Y560108D01*
X192444Y560041D01*
X192535Y559978D01*
X192628Y559917D01*
X192723Y559860D01*
X192819Y559807D01*
X192918Y559756D01*
X193019Y559709D01*
X193121Y559666D01*
X193224Y559626D01*
X193329Y559590D01*
X193435Y559558D01*
X193542Y559529D01*
X193650Y559504D01*
X193759Y559483D01*
X193868Y559466D01*
X193978Y559452D01*
X194089Y559443D01*
X194199Y559437D01*
X194310Y559435D01*
X197485Y559435D01*
X185674Y568325D02*
X182499Y570865D01*
X182499Y559435D01*
X185674Y559435D02*
X179324Y559435D01*
D14*
X82550Y546100D02*
X76200Y546100D01*
X66040Y552450D02*
X66040Y539750D01*
X76200Y546100D01*
X60960Y546100D01*
X66040Y552450D02*
X76200Y546100D01*
X76200Y552450D01*
X76200Y546100D02*
X76200Y539750D01*
X55880Y556260D02*
X55780Y556258D01*
X55681Y556252D01*
X55581Y556242D01*
X55483Y556229D01*
X55384Y556211D01*
X55287Y556190D01*
X55191Y556165D01*
X55095Y556136D01*
X55001Y556103D01*
X54908Y556067D01*
X54817Y556027D01*
X54727Y555983D01*
X54639Y555936D01*
X54553Y555886D01*
X54469Y555832D01*
X54387Y555775D01*
X54308Y555715D01*
X54230Y555651D01*
X54156Y555585D01*
X54084Y555516D01*
X54015Y555444D01*
X53949Y555370D01*
X53885Y555292D01*
X53825Y555213D01*
X53768Y555131D01*
X53714Y555047D01*
X53664Y554961D01*
X53617Y554873D01*
X53573Y554783D01*
X53533Y554692D01*
X53497Y554599D01*
X53464Y554505D01*
X53435Y554409D01*
X53410Y554313D01*
X53389Y554216D01*
X53371Y554117D01*
X53358Y554019D01*
X53348Y553919D01*
X53342Y553820D01*
X53340Y553720D01*
X53340Y538480D01*
X53342Y538380D01*
X53348Y538281D01*
X53358Y538181D01*
X53371Y538083D01*
X53389Y537984D01*
X53410Y537887D01*
X53435Y537791D01*
X53464Y537695D01*
X53497Y537601D01*
X53533Y537508D01*
X53573Y537417D01*
X53617Y537327D01*
X53664Y537239D01*
X53714Y537153D01*
X53768Y537069D01*
X53825Y536987D01*
X53885Y536908D01*
X53949Y536830D01*
X54015Y536756D01*
X54084Y536684D01*
X54156Y536615D01*
X54230Y536549D01*
X54308Y536485D01*
X54387Y536425D01*
X54469Y536368D01*
X54553Y536314D01*
X54639Y536264D01*
X54727Y536217D01*
X54817Y536173D01*
X54908Y536133D01*
X55001Y536097D01*
X55095Y536064D01*
X55191Y536035D01*
X55287Y536010D01*
X55384Y535989D01*
X55483Y535971D01*
X55581Y535958D01*
X55681Y535948D01*
X55780Y535942D01*
X55880Y535940D01*
X96520Y556260D02*
X96620Y556258D01*
X96719Y556252D01*
X96819Y556242D01*
X96917Y556229D01*
X97016Y556211D01*
X97113Y556190D01*
X97209Y556165D01*
X97305Y556136D01*
X97399Y556103D01*
X97492Y556067D01*
X97583Y556027D01*
X97673Y555983D01*
X97761Y555936D01*
X97847Y555886D01*
X97931Y555832D01*
X98013Y555775D01*
X98092Y555715D01*
X98170Y555651D01*
X98244Y555585D01*
X98316Y555516D01*
X98385Y555444D01*
X98451Y555370D01*
X98515Y555292D01*
X98575Y555213D01*
X98632Y555131D01*
X98686Y555047D01*
X98736Y554961D01*
X98783Y554873D01*
X98827Y554783D01*
X98867Y554692D01*
X98903Y554599D01*
X98936Y554505D01*
X98965Y554409D01*
X98990Y554313D01*
X99011Y554216D01*
X99029Y554117D01*
X99042Y554019D01*
X99052Y553919D01*
X99058Y553820D01*
X99060Y553720D01*
X99060Y538480D02*
X99058Y538380D01*
X99052Y538281D01*
X99042Y538181D01*
X99029Y538083D01*
X99011Y537984D01*
X98990Y537887D01*
X98965Y537791D01*
X98936Y537695D01*
X98903Y537601D01*
X98867Y537508D01*
X98827Y537417D01*
X98783Y537327D01*
X98736Y537239D01*
X98686Y537153D01*
X98632Y537069D01*
X98575Y536987D01*
X98515Y536908D01*
X98451Y536830D01*
X98385Y536756D01*
X98316Y536684D01*
X98244Y536615D01*
X98170Y536549D01*
X98092Y536485D01*
X98013Y536425D01*
X97931Y536368D01*
X97847Y536314D01*
X97761Y536264D01*
X97673Y536217D01*
X97583Y536173D01*
X97492Y536133D01*
X97399Y536097D01*
X97305Y536064D01*
X97209Y536035D01*
X97113Y536010D01*
X97016Y535989D01*
X96917Y535971D01*
X96819Y535958D01*
X96719Y535948D01*
X96620Y535942D01*
X96520Y535940D01*
X55880Y535940D01*
X99060Y538480D02*
X99060Y553720D01*
X96520Y556260D02*
X55880Y556260D01*
D15*
X92710Y546100D03*
D16*
X50165Y546100D03*
X102235Y546100D03*
D10*
X83185Y556895D02*
X83185Y568325D01*
X80010Y568325D01*
X79899Y568323D01*
X79789Y568317D01*
X79678Y568308D01*
X79568Y568294D01*
X79459Y568277D01*
X79350Y568256D01*
X79242Y568231D01*
X79135Y568202D01*
X79029Y568170D01*
X78924Y568134D01*
X78821Y568094D01*
X78719Y568051D01*
X78618Y568004D01*
X78519Y567953D01*
X78423Y567900D01*
X78328Y567843D01*
X78235Y567782D01*
X78144Y567719D01*
X78055Y567652D01*
X77969Y567582D01*
X77886Y567509D01*
X77804Y567434D01*
X77726Y567356D01*
X77651Y567274D01*
X77578Y567191D01*
X77508Y567105D01*
X77441Y567016D01*
X77378Y566925D01*
X77317Y566832D01*
X77260Y566738D01*
X77207Y566641D01*
X77156Y566542D01*
X77109Y566441D01*
X77066Y566339D01*
X77026Y566236D01*
X76990Y566131D01*
X76958Y566025D01*
X76929Y565918D01*
X76904Y565810D01*
X76883Y565701D01*
X76866Y565592D01*
X76852Y565482D01*
X76843Y565371D01*
X76837Y565261D01*
X76835Y565150D01*
X76835Y560070D01*
X76837Y559959D01*
X76843Y559849D01*
X76852Y559738D01*
X76866Y559628D01*
X76883Y559519D01*
X76904Y559410D01*
X76929Y559302D01*
X76958Y559195D01*
X76990Y559089D01*
X77026Y558984D01*
X77066Y558881D01*
X77109Y558779D01*
X77156Y558678D01*
X77207Y558579D01*
X77260Y558483D01*
X77317Y558388D01*
X77378Y558295D01*
X77441Y558204D01*
X77508Y558115D01*
X77578Y558029D01*
X77651Y557946D01*
X77726Y557864D01*
X77804Y557786D01*
X77886Y557711D01*
X77969Y557638D01*
X78055Y557568D01*
X78144Y557501D01*
X78235Y557438D01*
X78328Y557377D01*
X78423Y557320D01*
X78519Y557267D01*
X78618Y557216D01*
X78719Y557169D01*
X78821Y557126D01*
X78924Y557086D01*
X79029Y557050D01*
X79135Y557018D01*
X79242Y556989D01*
X79350Y556964D01*
X79459Y556943D01*
X79568Y556926D01*
X79678Y556912D01*
X79789Y556903D01*
X79899Y556897D01*
X80010Y556895D01*
X83185Y556895D01*
X67882Y568326D02*
X67778Y568324D01*
X67673Y568318D01*
X67569Y568309D01*
X67466Y568296D01*
X67363Y568278D01*
X67261Y568258D01*
X67159Y568233D01*
X67059Y568205D01*
X66959Y568173D01*
X66861Y568137D01*
X66764Y568098D01*
X66669Y568056D01*
X66575Y568010D01*
X66483Y567960D01*
X66393Y567908D01*
X66305Y567852D01*
X66219Y567792D01*
X66135Y567730D01*
X66054Y567665D01*
X65975Y567597D01*
X65898Y567525D01*
X65825Y567452D01*
X65753Y567375D01*
X65685Y567296D01*
X65620Y567215D01*
X65558Y567131D01*
X65498Y567045D01*
X65442Y566957D01*
X65390Y566867D01*
X65340Y566775D01*
X65294Y566681D01*
X65252Y566586D01*
X65213Y566489D01*
X65177Y566391D01*
X65145Y566291D01*
X65117Y566191D01*
X65092Y566089D01*
X65072Y565987D01*
X65054Y565884D01*
X65041Y565781D01*
X65032Y565677D01*
X65026Y565572D01*
X65024Y565468D01*
X67882Y568325D02*
X68000Y568323D01*
X68119Y568317D01*
X68237Y568308D01*
X68354Y568295D01*
X68471Y568277D01*
X68588Y568257D01*
X68704Y568232D01*
X68819Y568204D01*
X68932Y568171D01*
X69045Y568136D01*
X69157Y568096D01*
X69267Y568054D01*
X69376Y568007D01*
X69484Y567957D01*
X69589Y567904D01*
X69693Y567847D01*
X69795Y567787D01*
X69895Y567724D01*
X69993Y567657D01*
X70089Y567588D01*
X70182Y567515D01*
X70273Y567439D01*
X70362Y567361D01*
X70448Y567279D01*
X70531Y567195D01*
X70612Y567109D01*
X70689Y567019D01*
X70764Y566928D01*
X70836Y566834D01*
X70905Y566737D01*
X70970Y566639D01*
X71033Y566538D01*
X71092Y566435D01*
X71148Y566331D01*
X71200Y566225D01*
X71249Y566117D01*
X71294Y566008D01*
X71336Y565897D01*
X71374Y565785D01*
X65976Y563246D02*
X65900Y563321D01*
X65825Y563400D01*
X65754Y563481D01*
X65685Y563565D01*
X65620Y563651D01*
X65558Y563739D01*
X65498Y563829D01*
X65442Y563921D01*
X65389Y564016D01*
X65340Y564112D01*
X65294Y564210D01*
X65251Y564309D01*
X65212Y564410D01*
X65177Y564512D01*
X65145Y564615D01*
X65117Y564719D01*
X65092Y564824D01*
X65071Y564931D01*
X65054Y565037D01*
X65041Y565144D01*
X65032Y565252D01*
X65026Y565360D01*
X65024Y565468D01*
X65977Y563245D02*
X71374Y556895D01*
X65024Y556895D01*
X179300Y800100D02*
X217000Y800100D01*
X102080Y844940D02*
X74700Y800100D01*
X104620Y755260D01*
X154460Y755260D01*
X179300Y800100D01*
X154380Y844940D01*
X102080Y844940D01*
D11*
X142000Y815100D02*
X112000Y785100D01*
D10*
X64000Y800100D02*
X64019Y801646D01*
X64076Y803191D01*
X64171Y804735D01*
X64303Y806275D01*
X64474Y807812D01*
X64682Y809344D01*
X64928Y810871D01*
X65211Y812391D01*
X65531Y813903D01*
X65888Y815408D01*
X66282Y816903D01*
X66713Y818388D01*
X67180Y819862D01*
X67683Y821324D01*
X68221Y822773D01*
X68796Y824209D01*
X69405Y825630D01*
X70049Y827036D01*
X70727Y828426D01*
X71439Y829798D01*
X72185Y831153D01*
X72963Y832488D01*
X73774Y833805D01*
X74617Y835101D01*
X75492Y836376D01*
X76398Y837629D01*
X77334Y838860D01*
X78300Y840067D01*
X79296Y841250D01*
X80320Y842408D01*
X81372Y843541D01*
X82452Y844648D01*
X83559Y845728D01*
X84692Y846780D01*
X85850Y847804D01*
X87033Y848800D01*
X88240Y849766D01*
X89471Y850702D01*
X90724Y851608D01*
X91999Y852483D01*
X93295Y853326D01*
X94612Y854137D01*
X95947Y854915D01*
X97302Y855661D01*
X98674Y856373D01*
X100064Y857051D01*
X101470Y857695D01*
X102891Y858304D01*
X104327Y858879D01*
X105776Y859417D01*
X107238Y859920D01*
X108712Y860387D01*
X110197Y860818D01*
X111692Y861212D01*
X113197Y861569D01*
X114709Y861889D01*
X116229Y862172D01*
X117756Y862418D01*
X119288Y862626D01*
X120825Y862797D01*
X122365Y862929D01*
X123909Y863024D01*
X125454Y863081D01*
X127000Y863100D01*
X128546Y863081D01*
X130091Y863024D01*
X131635Y862929D01*
X133175Y862797D01*
X134712Y862626D01*
X136244Y862418D01*
X137771Y862172D01*
X139291Y861889D01*
X140803Y861569D01*
X142308Y861212D01*
X143803Y860818D01*
X145288Y860387D01*
X146762Y859920D01*
X148224Y859417D01*
X149673Y858879D01*
X151109Y858304D01*
X152530Y857695D01*
X153936Y857051D01*
X155326Y856373D01*
X156698Y855661D01*
X158053Y854915D01*
X159388Y854137D01*
X160705Y853326D01*
X162001Y852483D01*
X163276Y851608D01*
X164529Y850702D01*
X165760Y849766D01*
X166967Y848800D01*
X168150Y847804D01*
X169308Y846780D01*
X170441Y845728D01*
X171548Y844648D01*
X172628Y843541D01*
X173680Y842408D01*
X174704Y841250D01*
X175700Y840067D01*
X176666Y838860D01*
X177602Y837629D01*
X178508Y836376D01*
X179383Y835101D01*
X180226Y833805D01*
X181037Y832488D01*
X181815Y831153D01*
X182561Y829798D01*
X183273Y828426D01*
X183951Y827036D01*
X184595Y825630D01*
X185204Y824209D01*
X185779Y822773D01*
X186317Y821324D01*
X186820Y819862D01*
X187287Y818388D01*
X187718Y816903D01*
X188112Y815408D01*
X188469Y813903D01*
X188789Y812391D01*
X189072Y810871D01*
X189318Y809344D01*
X189526Y807812D01*
X189697Y806275D01*
X189829Y804735D01*
X189924Y803191D01*
X189981Y801646D01*
X190000Y800100D01*
X189981Y798554D01*
X189924Y797009D01*
X189829Y795465D01*
X189697Y793925D01*
X189526Y792388D01*
X189318Y790856D01*
X189072Y789329D01*
X188789Y787809D01*
X188469Y786297D01*
X188112Y784792D01*
X187718Y783297D01*
X187287Y781812D01*
X186820Y780338D01*
X186317Y778876D01*
X185779Y777427D01*
X185204Y775991D01*
X184595Y774570D01*
X183951Y773164D01*
X183273Y771774D01*
X182561Y770402D01*
X181815Y769047D01*
X181037Y767712D01*
X180226Y766395D01*
X179383Y765099D01*
X178508Y763824D01*
X177602Y762571D01*
X176666Y761340D01*
X175700Y760133D01*
X174704Y758950D01*
X173680Y757792D01*
X172628Y756659D01*
X171548Y755552D01*
X170441Y754472D01*
X169308Y753420D01*
X168150Y752396D01*
X166967Y751400D01*
X165760Y750434D01*
X164529Y749498D01*
X163276Y748592D01*
X162001Y747717D01*
X160705Y746874D01*
X159388Y746063D01*
X158053Y745285D01*
X156698Y744539D01*
X155326Y743827D01*
X153936Y743149D01*
X152530Y742505D01*
X151109Y741896D01*
X149673Y741321D01*
X148224Y740783D01*
X146762Y740280D01*
X145288Y739813D01*
X143803Y739382D01*
X142308Y738988D01*
X140803Y738631D01*
X139291Y738311D01*
X137771Y738028D01*
X136244Y737782D01*
X134712Y737574D01*
X133175Y737403D01*
X131635Y737271D01*
X130091Y737176D01*
X128546Y737119D01*
X127000Y737100D01*
X125454Y737119D01*
X123909Y737176D01*
X122365Y737271D01*
X120825Y737403D01*
X119288Y737574D01*
X117756Y737782D01*
X116229Y738028D01*
X114709Y738311D01*
X113197Y738631D01*
X111692Y738988D01*
X110197Y739382D01*
X108712Y739813D01*
X107238Y740280D01*
X105776Y740783D01*
X104327Y741321D01*
X102891Y741896D01*
X101470Y742505D01*
X100064Y743149D01*
X98674Y743827D01*
X97302Y744539D01*
X95947Y745285D01*
X94612Y746063D01*
X93295Y746874D01*
X91999Y747717D01*
X90724Y748592D01*
X89471Y749498D01*
X88240Y750434D01*
X87033Y751400D01*
X85850Y752396D01*
X84692Y753420D01*
X83559Y754472D01*
X82452Y755552D01*
X81372Y756659D01*
X80320Y757792D01*
X79296Y758950D01*
X78300Y760133D01*
X77334Y761340D01*
X76398Y762571D01*
X75492Y763824D01*
X74617Y765099D01*
X73774Y766395D01*
X72963Y767712D01*
X72185Y769047D01*
X71439Y770402D01*
X70727Y771774D01*
X70049Y773164D01*
X69405Y774570D01*
X68796Y775991D01*
X68221Y777427D01*
X67683Y778876D01*
X67180Y780338D01*
X66713Y781812D01*
X66282Y783297D01*
X65888Y784792D01*
X65531Y786297D01*
X65211Y787809D01*
X64928Y789329D01*
X64682Y790856D01*
X64474Y792388D01*
X64303Y793925D01*
X64171Y795465D01*
X64076Y797009D01*
X64019Y798554D01*
X64000Y800100D01*
X62969Y800100D02*
X62988Y801671D01*
X63046Y803242D01*
X63142Y804810D01*
X63277Y806376D01*
X63451Y807938D01*
X63662Y809495D01*
X63912Y811047D01*
X64199Y812592D01*
X64525Y814129D01*
X64888Y815658D01*
X65288Y817178D01*
X65726Y818687D01*
X66201Y820185D01*
X66712Y821671D01*
X67260Y823144D01*
X67843Y824604D01*
X68462Y826048D01*
X69117Y827477D01*
X69806Y828889D01*
X70530Y830284D01*
X71287Y831661D01*
X72079Y833019D01*
X72903Y834356D01*
X73760Y835674D01*
X74649Y836970D01*
X75570Y838243D01*
X76521Y839494D01*
X77503Y840721D01*
X78515Y841923D01*
X79556Y843101D01*
X80626Y844252D01*
X81723Y845377D01*
X82848Y846474D01*
X83999Y847544D01*
X85177Y848585D01*
X86379Y849597D01*
X87606Y850579D01*
X88857Y851530D01*
X90130Y852451D01*
X91426Y853340D01*
X92744Y854197D01*
X94081Y855021D01*
X95439Y855813D01*
X96816Y856570D01*
X98211Y857294D01*
X99623Y857983D01*
X101052Y858638D01*
X102496Y859257D01*
X103956Y859840D01*
X105429Y860388D01*
X106915Y860899D01*
X108413Y861374D01*
X109922Y861812D01*
X111442Y862212D01*
X112971Y862575D01*
X114508Y862901D01*
X116053Y863188D01*
X117605Y863438D01*
X119162Y863649D01*
X120724Y863823D01*
X122290Y863958D01*
X123858Y864054D01*
X125429Y864112D01*
X127000Y864131D01*
X128571Y864112D01*
X130142Y864054D01*
X131710Y863958D01*
X133276Y863823D01*
X134838Y863649D01*
X136395Y863438D01*
X137947Y863188D01*
X139492Y862901D01*
X141029Y862575D01*
X142558Y862212D01*
X144078Y861812D01*
X145587Y861374D01*
X147085Y860899D01*
X148571Y860388D01*
X150044Y859840D01*
X151504Y859257D01*
X152948Y858638D01*
X154377Y857983D01*
X155789Y857294D01*
X157184Y856570D01*
X158561Y855813D01*
X159919Y855021D01*
X161256Y854197D01*
X162574Y853340D01*
X163870Y852451D01*
X165143Y851530D01*
X166394Y850579D01*
X167621Y849597D01*
X168823Y848585D01*
X170001Y847544D01*
X171152Y846474D01*
X172277Y845377D01*
X173374Y844252D01*
X174444Y843101D01*
X175485Y841923D01*
X176497Y840721D01*
X177479Y839494D01*
X178430Y838243D01*
X179351Y836970D01*
X180240Y835674D01*
X181097Y834356D01*
X181921Y833019D01*
X182713Y831661D01*
X183470Y830284D01*
X184194Y828889D01*
X184883Y827477D01*
X185538Y826048D01*
X186157Y824604D01*
X186740Y823144D01*
X187288Y821671D01*
X187799Y820185D01*
X188274Y818687D01*
X188712Y817178D01*
X189112Y815658D01*
X189475Y814129D01*
X189801Y812592D01*
X190088Y811047D01*
X190338Y809495D01*
X190549Y807938D01*
X190723Y806376D01*
X190858Y804810D01*
X190954Y803242D01*
X191012Y801671D01*
X191031Y800100D01*
X191012Y798529D01*
X190954Y796958D01*
X190858Y795390D01*
X190723Y793824D01*
X190549Y792262D01*
X190338Y790705D01*
X190088Y789153D01*
X189801Y787608D01*
X189475Y786071D01*
X189112Y784542D01*
X188712Y783022D01*
X188274Y781513D01*
X187799Y780015D01*
X187288Y778529D01*
X186740Y777056D01*
X186157Y775596D01*
X185538Y774152D01*
X184883Y772723D01*
X184194Y771311D01*
X183470Y769916D01*
X182713Y768539D01*
X181921Y767181D01*
X181097Y765844D01*
X180240Y764526D01*
X179351Y763230D01*
X178430Y761957D01*
X177479Y760706D01*
X176497Y759479D01*
X175485Y758277D01*
X174444Y757099D01*
X173374Y755948D01*
X172277Y754823D01*
X171152Y753726D01*
X170001Y752656D01*
X168823Y751615D01*
X167621Y750603D01*
X166394Y749621D01*
X165143Y748670D01*
X163870Y747749D01*
X162574Y746860D01*
X161256Y746003D01*
X159919Y745179D01*
X158561Y744387D01*
X157184Y743630D01*
X155789Y742906D01*
X154377Y742217D01*
X152948Y741562D01*
X151504Y740943D01*
X150044Y740360D01*
X148571Y739812D01*
X147085Y739301D01*
X145587Y738826D01*
X144078Y738388D01*
X142558Y737988D01*
X141029Y737625D01*
X139492Y737299D01*
X137947Y737012D01*
X136395Y736762D01*
X134838Y736551D01*
X133276Y736377D01*
X131710Y736242D01*
X130142Y736146D01*
X128571Y736088D01*
X127000Y736069D01*
X125429Y736088D01*
X123858Y736146D01*
X122290Y736242D01*
X120724Y736377D01*
X119162Y736551D01*
X117605Y736762D01*
X116053Y737012D01*
X114508Y737299D01*
X112971Y737625D01*
X111442Y737988D01*
X109922Y738388D01*
X108413Y738826D01*
X106915Y739301D01*
X105429Y739812D01*
X103956Y740360D01*
X102496Y740943D01*
X101052Y741562D01*
X99623Y742217D01*
X98211Y742906D01*
X96816Y743630D01*
X95439Y744387D01*
X94081Y745179D01*
X92744Y746003D01*
X91426Y746860D01*
X90130Y747749D01*
X88857Y748670D01*
X87606Y749621D01*
X86379Y750603D01*
X85177Y751615D01*
X83999Y752656D01*
X82848Y753726D01*
X81723Y754823D01*
X80626Y755948D01*
X79556Y757099D01*
X78515Y758277D01*
X77503Y759479D01*
X76521Y760706D01*
X75570Y761957D01*
X74649Y763230D01*
X73760Y764526D01*
X72903Y765844D01*
X72079Y767181D01*
X71287Y768539D01*
X70530Y769916D01*
X69806Y771311D01*
X69117Y772723D01*
X68462Y774152D01*
X67843Y775596D01*
X67260Y777056D01*
X66712Y778529D01*
X66201Y780015D01*
X65726Y781513D01*
X65288Y783022D01*
X64888Y784542D01*
X64525Y786071D01*
X64199Y787608D01*
X63912Y789153D01*
X63662Y790705D01*
X63451Y792262D01*
X63277Y793824D01*
X63142Y795390D01*
X63046Y796958D01*
X62988Y798529D01*
X62969Y800100D01*
X87949Y800100D02*
X87961Y801058D01*
X87996Y802016D01*
X88055Y802973D01*
X88137Y803928D01*
X88243Y804880D01*
X88372Y805830D01*
X88524Y806776D01*
X88699Y807718D01*
X88898Y808656D01*
X89119Y809589D01*
X89364Y810515D01*
X89631Y811436D01*
X89920Y812350D01*
X90232Y813256D01*
X90566Y814154D01*
X90922Y815044D01*
X91299Y815925D01*
X91698Y816796D01*
X92119Y817658D01*
X92560Y818509D01*
X93022Y819348D01*
X93505Y820176D01*
X94008Y820992D01*
X94530Y821796D01*
X95072Y822586D01*
X95634Y823363D01*
X96214Y824125D01*
X96813Y824874D01*
X97430Y825607D01*
X98065Y826325D01*
X98717Y827027D01*
X99387Y827713D01*
X100073Y828383D01*
X100775Y829035D01*
X101493Y829670D01*
X102226Y830287D01*
X102975Y830886D01*
X103737Y831466D01*
X104514Y832028D01*
X105304Y832570D01*
X106108Y833092D01*
X106924Y833595D01*
X107752Y834078D01*
X108591Y834540D01*
X109442Y834981D01*
X110304Y835402D01*
X111175Y835801D01*
X112056Y836178D01*
X112946Y836534D01*
X113844Y836868D01*
X114750Y837180D01*
X115664Y837469D01*
X116585Y837736D01*
X117511Y837981D01*
X118444Y838202D01*
X119382Y838401D01*
X120324Y838576D01*
X121270Y838728D01*
X122220Y838857D01*
X123172Y838963D01*
X124127Y839045D01*
X125084Y839104D01*
X126042Y839139D01*
X127000Y839151D01*
X127958Y839139D01*
X128916Y839104D01*
X129873Y839045D01*
X130828Y838963D01*
X131780Y838857D01*
X132730Y838728D01*
X133676Y838576D01*
X134618Y838401D01*
X135556Y838202D01*
X136489Y837981D01*
X137415Y837736D01*
X138336Y837469D01*
X139250Y837180D01*
X140156Y836868D01*
X141054Y836534D01*
X141944Y836178D01*
X142825Y835801D01*
X143696Y835402D01*
X144558Y834981D01*
X145409Y834540D01*
X146248Y834078D01*
X147076Y833595D01*
X147892Y833092D01*
X148696Y832570D01*
X149486Y832028D01*
X150263Y831466D01*
X151025Y830886D01*
X151774Y830287D01*
X152507Y829670D01*
X153225Y829035D01*
X153927Y828383D01*
X154613Y827713D01*
X155283Y827027D01*
X155935Y826325D01*
X156570Y825607D01*
X157187Y824874D01*
X157786Y824125D01*
X158366Y823363D01*
X158928Y822586D01*
X159470Y821796D01*
X159992Y820992D01*
X160495Y820176D01*
X160978Y819348D01*
X161440Y818509D01*
X161881Y817658D01*
X162302Y816796D01*
X162701Y815925D01*
X163078Y815044D01*
X163434Y814154D01*
X163768Y813256D01*
X164080Y812350D01*
X164369Y811436D01*
X164636Y810515D01*
X164881Y809589D01*
X165102Y808656D01*
X165301Y807718D01*
X165476Y806776D01*
X165628Y805830D01*
X165757Y804880D01*
X165863Y803928D01*
X165945Y802973D01*
X166004Y802016D01*
X166039Y801058D01*
X166051Y800100D01*
X166039Y799142D01*
X166004Y798184D01*
X165945Y797227D01*
X165863Y796272D01*
X165757Y795320D01*
X165628Y794370D01*
X165476Y793424D01*
X165301Y792482D01*
X165102Y791544D01*
X164881Y790611D01*
X164636Y789685D01*
X164369Y788764D01*
X164080Y787850D01*
X163768Y786944D01*
X163434Y786046D01*
X163078Y785156D01*
X162701Y784275D01*
X162302Y783404D01*
X161881Y782542D01*
X161440Y781691D01*
X160978Y780852D01*
X160495Y780024D01*
X159992Y779208D01*
X159470Y778404D01*
X158928Y777614D01*
X158366Y776837D01*
X157786Y776075D01*
X157187Y775326D01*
X156570Y774593D01*
X155935Y773875D01*
X155283Y773173D01*
X154613Y772487D01*
X153927Y771817D01*
X153225Y771165D01*
X152507Y770530D01*
X151774Y769913D01*
X151025Y769314D01*
X150263Y768734D01*
X149486Y768172D01*
X148696Y767630D01*
X147892Y767108D01*
X147076Y766605D01*
X146248Y766122D01*
X145409Y765660D01*
X144558Y765219D01*
X143696Y764798D01*
X142825Y764399D01*
X141944Y764022D01*
X141054Y763666D01*
X140156Y763332D01*
X139250Y763020D01*
X138336Y762731D01*
X137415Y762464D01*
X136489Y762219D01*
X135556Y761998D01*
X134618Y761799D01*
X133676Y761624D01*
X132730Y761472D01*
X131780Y761343D01*
X130828Y761237D01*
X129873Y761155D01*
X128916Y761096D01*
X127958Y761061D01*
X127000Y761049D01*
X126042Y761061D01*
X125084Y761096D01*
X124127Y761155D01*
X123172Y761237D01*
X122220Y761343D01*
X121270Y761472D01*
X120324Y761624D01*
X119382Y761799D01*
X118444Y761998D01*
X117511Y762219D01*
X116585Y762464D01*
X115664Y762731D01*
X114750Y763020D01*
X113844Y763332D01*
X112946Y763666D01*
X112056Y764022D01*
X111175Y764399D01*
X110304Y764798D01*
X109442Y765219D01*
X108591Y765660D01*
X107752Y766122D01*
X106924Y766605D01*
X106108Y767108D01*
X105304Y767630D01*
X104514Y768172D01*
X103737Y768734D01*
X102975Y769314D01*
X102226Y769913D01*
X101493Y770530D01*
X100775Y771165D01*
X100073Y771817D01*
X99387Y772487D01*
X98717Y773173D01*
X98065Y773875D01*
X97430Y774593D01*
X96813Y775326D01*
X96214Y776075D01*
X95634Y776837D01*
X95072Y777614D01*
X94530Y778404D01*
X94008Y779208D01*
X93505Y780024D01*
X93022Y780852D01*
X92560Y781691D01*
X92119Y782542D01*
X91698Y783404D01*
X91299Y784275D01*
X90922Y785156D01*
X90566Y786046D01*
X90232Y786944D01*
X89920Y787850D01*
X89631Y788764D01*
X89364Y789685D01*
X89119Y790611D01*
X88898Y791544D01*
X88699Y792482D01*
X88524Y793424D01*
X88372Y794370D01*
X88243Y795320D01*
X88137Y796272D01*
X88055Y797227D01*
X87996Y798184D01*
X87961Y799142D01*
X87949Y800100D01*
X105787Y800100D02*
X105793Y800621D01*
X105813Y801141D01*
X105844Y801661D01*
X105889Y802179D01*
X105947Y802697D01*
X106017Y803213D01*
X106099Y803727D01*
X106195Y804238D01*
X106302Y804748D01*
X106423Y805254D01*
X106555Y805758D01*
X106700Y806258D01*
X106858Y806754D01*
X107027Y807246D01*
X107208Y807734D01*
X107402Y808218D01*
X107607Y808696D01*
X107824Y809170D01*
X108052Y809638D01*
X108292Y810100D01*
X108543Y810556D01*
X108805Y811006D01*
X109078Y811449D01*
X109362Y811885D01*
X109657Y812315D01*
X109962Y812737D01*
X110277Y813151D01*
X110602Y813557D01*
X110937Y813956D01*
X111282Y814346D01*
X111637Y814727D01*
X112000Y815100D01*
X112373Y815463D01*
X112754Y815818D01*
X113144Y816163D01*
X113543Y816498D01*
X113949Y816823D01*
X114363Y817138D01*
X114785Y817443D01*
X115215Y817738D01*
X115651Y818022D01*
X116094Y818295D01*
X116544Y818557D01*
X117000Y818808D01*
X117462Y819048D01*
X117930Y819276D01*
X118404Y819493D01*
X118882Y819698D01*
X119366Y819892D01*
X119854Y820073D01*
X120346Y820242D01*
X120842Y820400D01*
X121342Y820545D01*
X121846Y820677D01*
X122352Y820798D01*
X122862Y820905D01*
X123373Y821001D01*
X123887Y821083D01*
X124403Y821153D01*
X124921Y821211D01*
X125439Y821256D01*
X125959Y821287D01*
X126479Y821307D01*
X127000Y821313D01*
X127521Y821307D01*
X128041Y821287D01*
X128561Y821256D01*
X129079Y821211D01*
X129597Y821153D01*
X130113Y821083D01*
X130627Y821001D01*
X131138Y820905D01*
X131648Y820798D01*
X132154Y820677D01*
X132658Y820545D01*
X133158Y820400D01*
X133654Y820242D01*
X134146Y820073D01*
X134634Y819892D01*
X135118Y819698D01*
X135596Y819493D01*
X136070Y819276D01*
X136538Y819048D01*
X137000Y818808D01*
X137456Y818557D01*
X137906Y818295D01*
X138349Y818022D01*
X138785Y817738D01*
X139215Y817443D01*
X139637Y817138D01*
X140051Y816823D01*
X140457Y816498D01*
X140856Y816163D01*
X141246Y815818D01*
X141627Y815463D01*
X142000Y815100D01*
X142363Y814727D01*
X142718Y814346D01*
X143063Y813956D01*
X143398Y813557D01*
X143723Y813151D01*
X144038Y812737D01*
X144343Y812315D01*
X144638Y811885D01*
X144922Y811449D01*
X145195Y811006D01*
X145457Y810556D01*
X145708Y810100D01*
X145948Y809638D01*
X146176Y809170D01*
X146393Y808696D01*
X146598Y808218D01*
X146792Y807734D01*
X146973Y807246D01*
X147142Y806754D01*
X147300Y806258D01*
X147445Y805758D01*
X147577Y805254D01*
X147698Y804748D01*
X147805Y804238D01*
X147901Y803727D01*
X147983Y803213D01*
X148053Y802697D01*
X148111Y802179D01*
X148156Y801661D01*
X148187Y801141D01*
X148207Y800621D01*
X148213Y800100D01*
X148207Y799579D01*
X148187Y799059D01*
X148156Y798539D01*
X148111Y798021D01*
X148053Y797503D01*
X147983Y796987D01*
X147901Y796473D01*
X147805Y795962D01*
X147698Y795452D01*
X147577Y794946D01*
X147445Y794442D01*
X147300Y793942D01*
X147142Y793446D01*
X146973Y792954D01*
X146792Y792466D01*
X146598Y791982D01*
X146393Y791504D01*
X146176Y791030D01*
X145948Y790562D01*
X145708Y790100D01*
X145457Y789644D01*
X145195Y789194D01*
X144922Y788751D01*
X144638Y788315D01*
X144343Y787885D01*
X144038Y787463D01*
X143723Y787049D01*
X143398Y786643D01*
X143063Y786244D01*
X142718Y785854D01*
X142363Y785473D01*
X142000Y785100D01*
X141627Y784737D01*
X141246Y784382D01*
X140856Y784037D01*
X140457Y783702D01*
X140051Y783377D01*
X139637Y783062D01*
X139215Y782757D01*
X138785Y782462D01*
X138349Y782178D01*
X137906Y781905D01*
X137456Y781643D01*
X137000Y781392D01*
X136538Y781152D01*
X136070Y780924D01*
X135596Y780707D01*
X135118Y780502D01*
X134634Y780308D01*
X134146Y780127D01*
X133654Y779958D01*
X133158Y779800D01*
X132658Y779655D01*
X132154Y779523D01*
X131648Y779402D01*
X131138Y779295D01*
X130627Y779199D01*
X130113Y779117D01*
X129597Y779047D01*
X129079Y778989D01*
X128561Y778944D01*
X128041Y778913D01*
X127521Y778893D01*
X127000Y778887D01*
X126479Y778893D01*
X125959Y778913D01*
X125439Y778944D01*
X124921Y778989D01*
X124403Y779047D01*
X123887Y779117D01*
X123373Y779199D01*
X122862Y779295D01*
X122352Y779402D01*
X121846Y779523D01*
X121342Y779655D01*
X120842Y779800D01*
X120346Y779958D01*
X119854Y780127D01*
X119366Y780308D01*
X118882Y780502D01*
X118404Y780707D01*
X117930Y780924D01*
X117462Y781152D01*
X117000Y781392D01*
X116544Y781643D01*
X116094Y781905D01*
X115651Y782178D01*
X115215Y782462D01*
X114785Y782757D01*
X114363Y783062D01*
X113949Y783377D01*
X113543Y783702D01*
X113144Y784037D01*
X112754Y784382D01*
X112373Y784737D01*
X112000Y785100D01*
X111637Y785473D01*
X111282Y785854D01*
X110937Y786244D01*
X110602Y786643D01*
X110277Y787049D01*
X109962Y787463D01*
X109657Y787885D01*
X109362Y788315D01*
X109078Y788751D01*
X108805Y789194D01*
X108543Y789644D01*
X108292Y790100D01*
X108052Y790562D01*
X107824Y791030D01*
X107607Y791504D01*
X107402Y791982D01*
X107208Y792466D01*
X107027Y792954D01*
X106858Y793446D01*
X106700Y793942D01*
X106555Y794442D01*
X106423Y794946D01*
X106302Y795452D01*
X106195Y795962D01*
X106099Y796473D01*
X106017Y796987D01*
X105947Y797503D01*
X105889Y798021D01*
X105844Y798539D01*
X105813Y799059D01*
X105793Y799579D01*
X105787Y800100D01*
X223520Y860100D02*
X223520Y740100D01*
X182880Y740100D01*
X167640Y749300D01*
X182880Y860100D02*
X223520Y860100D01*
X182880Y860100D02*
X167640Y850900D01*
D12*
X175260Y831850D03*
X175260Y769620D03*
X78740Y769620D03*
X78740Y831850D03*
D13*
X31242Y741667D02*
X24130Y741667D01*
X31242Y741667D02*
X31374Y741669D01*
X31505Y741675D01*
X31637Y741685D01*
X31768Y741698D01*
X31898Y741716D01*
X32028Y741737D01*
X32158Y741762D01*
X32286Y741791D01*
X32414Y741824D01*
X32540Y741861D01*
X32666Y741901D01*
X32790Y741945D01*
X32913Y741993D01*
X33034Y742044D01*
X33154Y742099D01*
X33272Y742157D01*
X33388Y742219D01*
X33502Y742285D01*
X33615Y742353D01*
X33725Y742425D01*
X33833Y742500D01*
X33939Y742579D01*
X34043Y742660D01*
X34144Y742745D01*
X34242Y742832D01*
X34338Y742923D01*
X34431Y743016D01*
X34522Y743112D01*
X34609Y743210D01*
X34694Y743311D01*
X34775Y743415D01*
X34854Y743521D01*
X34929Y743629D01*
X35001Y743739D01*
X35069Y743852D01*
X35135Y743966D01*
X35197Y744082D01*
X35255Y744200D01*
X35310Y744320D01*
X35361Y744441D01*
X35409Y744564D01*
X35453Y744688D01*
X35493Y744814D01*
X35530Y744940D01*
X35563Y745068D01*
X35592Y745196D01*
X35617Y745326D01*
X35638Y745456D01*
X35656Y745586D01*
X35669Y745717D01*
X35679Y745849D01*
X35685Y745980D01*
X35687Y746112D01*
X35685Y746244D01*
X35679Y746375D01*
X35669Y746507D01*
X35656Y746638D01*
X35638Y746768D01*
X35617Y746898D01*
X35592Y747028D01*
X35563Y747156D01*
X35530Y747284D01*
X35493Y747410D01*
X35453Y747536D01*
X35409Y747660D01*
X35361Y747783D01*
X35310Y747904D01*
X35255Y748024D01*
X35197Y748142D01*
X35135Y748258D01*
X35069Y748372D01*
X35001Y748485D01*
X34929Y748595D01*
X34854Y748703D01*
X34775Y748809D01*
X34694Y748913D01*
X34609Y749014D01*
X34522Y749112D01*
X34431Y749208D01*
X34338Y749301D01*
X34242Y749392D01*
X34144Y749479D01*
X34043Y749564D01*
X33939Y749645D01*
X33833Y749724D01*
X33725Y749799D01*
X33615Y749871D01*
X33502Y749939D01*
X33388Y750005D01*
X33272Y750067D01*
X33154Y750125D01*
X33034Y750180D01*
X32913Y750231D01*
X32790Y750279D01*
X32666Y750323D01*
X32540Y750363D01*
X32414Y750400D01*
X32286Y750433D01*
X32158Y750462D01*
X32028Y750487D01*
X31898Y750508D01*
X31768Y750526D01*
X31637Y750539D01*
X31505Y750549D01*
X31374Y750555D01*
X31242Y750557D01*
X24130Y750557D01*
X23998Y750555D01*
X23867Y750549D01*
X23735Y750539D01*
X23604Y750526D01*
X23474Y750508D01*
X23344Y750487D01*
X23214Y750462D01*
X23086Y750433D01*
X22958Y750400D01*
X22832Y750363D01*
X22706Y750323D01*
X22582Y750279D01*
X22459Y750231D01*
X22338Y750180D01*
X22218Y750125D01*
X22100Y750067D01*
X21984Y750005D01*
X21870Y749939D01*
X21757Y749871D01*
X21647Y749799D01*
X21539Y749724D01*
X21433Y749645D01*
X21329Y749564D01*
X21228Y749479D01*
X21130Y749392D01*
X21034Y749301D01*
X20941Y749208D01*
X20850Y749112D01*
X20763Y749014D01*
X20678Y748913D01*
X20597Y748809D01*
X20518Y748703D01*
X20443Y748595D01*
X20371Y748485D01*
X20303Y748372D01*
X20237Y748258D01*
X20175Y748142D01*
X20117Y748024D01*
X20062Y747904D01*
X20011Y747783D01*
X19963Y747660D01*
X19919Y747536D01*
X19879Y747410D01*
X19842Y747284D01*
X19809Y747156D01*
X19780Y747028D01*
X19755Y746898D01*
X19734Y746768D01*
X19716Y746638D01*
X19703Y746507D01*
X19693Y746375D01*
X19687Y746244D01*
X19685Y746112D01*
X19687Y745980D01*
X19693Y745849D01*
X19703Y745717D01*
X19716Y745586D01*
X19734Y745456D01*
X19755Y745326D01*
X19780Y745196D01*
X19809Y745068D01*
X19842Y744940D01*
X19879Y744814D01*
X19919Y744688D01*
X19963Y744564D01*
X20011Y744441D01*
X20062Y744320D01*
X20117Y744200D01*
X20175Y744082D01*
X20237Y743966D01*
X20303Y743852D01*
X20371Y743739D01*
X20443Y743629D01*
X20518Y743521D01*
X20597Y743415D01*
X20678Y743311D01*
X20763Y743210D01*
X20850Y743112D01*
X20941Y743016D01*
X21034Y742923D01*
X21130Y742832D01*
X21228Y742745D01*
X21329Y742660D01*
X21433Y742579D01*
X21539Y742500D01*
X21647Y742425D01*
X21757Y742353D01*
X21870Y742285D01*
X21984Y742219D01*
X22100Y742157D01*
X22218Y742099D01*
X22338Y742044D01*
X22459Y741993D01*
X22582Y741945D01*
X22706Y741901D01*
X22832Y741861D01*
X22958Y741824D01*
X23086Y741791D01*
X23214Y741762D01*
X23344Y741737D01*
X23474Y741716D01*
X23604Y741698D01*
X23735Y741685D01*
X23867Y741675D01*
X23998Y741669D01*
X24130Y741667D01*
X19685Y757853D02*
X35687Y757853D01*
X35687Y764965D01*
X28575Y764965D02*
X28575Y757853D01*
X35687Y771400D02*
X19685Y771400D01*
X35687Y771400D02*
X35687Y778512D01*
X28575Y778512D02*
X28575Y771400D01*
X19685Y789206D02*
X19687Y789322D01*
X19693Y789439D01*
X19702Y789555D01*
X19715Y789670D01*
X19732Y789785D01*
X19753Y789900D01*
X19778Y790013D01*
X19806Y790126D01*
X19838Y790238D01*
X19874Y790349D01*
X19913Y790459D01*
X19956Y790567D01*
X20002Y790674D01*
X20052Y790779D01*
X20105Y790882D01*
X20161Y790984D01*
X20221Y791084D01*
X20284Y791182D01*
X20351Y791277D01*
X20420Y791371D01*
X20492Y791462D01*
X20567Y791551D01*
X20646Y791637D01*
X20727Y791720D01*
X20810Y791801D01*
X20896Y791880D01*
X20985Y791955D01*
X21076Y792027D01*
X21170Y792096D01*
X21265Y792163D01*
X21363Y792226D01*
X21463Y792286D01*
X21565Y792342D01*
X21668Y792395D01*
X21773Y792445D01*
X21880Y792491D01*
X21988Y792534D01*
X22098Y792573D01*
X22209Y792609D01*
X22321Y792641D01*
X22434Y792669D01*
X22547Y792694D01*
X22662Y792715D01*
X22777Y792732D01*
X22892Y792745D01*
X23008Y792754D01*
X23125Y792760D01*
X23241Y792762D01*
X19685Y789206D02*
X19687Y789026D01*
X19694Y788847D01*
X19704Y788667D01*
X19719Y788488D01*
X19739Y788309D01*
X19762Y788131D01*
X19790Y787954D01*
X19822Y787777D01*
X19858Y787601D01*
X19899Y787426D01*
X19944Y787252D01*
X19993Y787079D01*
X20045Y786907D01*
X20103Y786736D01*
X20164Y786567D01*
X20229Y786400D01*
X20298Y786234D01*
X20371Y786070D01*
X20448Y785907D01*
X20529Y785747D01*
X20613Y785588D01*
X20702Y785432D01*
X20794Y785278D01*
X20890Y785126D01*
X20989Y784976D01*
X21092Y784828D01*
X21199Y784684D01*
X21309Y784541D01*
X21422Y784402D01*
X21539Y784265D01*
X21658Y784131D01*
X21781Y784000D01*
X21907Y783872D01*
X32131Y784316D02*
X32247Y784318D01*
X32364Y784324D01*
X32480Y784333D01*
X32595Y784346D01*
X32710Y784363D01*
X32825Y784384D01*
X32938Y784409D01*
X33051Y784437D01*
X33163Y784469D01*
X33274Y784505D01*
X33384Y784544D01*
X33492Y784587D01*
X33599Y784633D01*
X33704Y784683D01*
X33807Y784736D01*
X33909Y784792D01*
X34009Y784852D01*
X34107Y784915D01*
X34202Y784982D01*
X34296Y785051D01*
X34387Y785123D01*
X34476Y785198D01*
X34562Y785277D01*
X34645Y785358D01*
X34726Y785441D01*
X34805Y785527D01*
X34880Y785616D01*
X34952Y785707D01*
X35021Y785801D01*
X35088Y785896D01*
X35151Y785994D01*
X35211Y786094D01*
X35267Y786196D01*
X35320Y786299D01*
X35370Y786404D01*
X35416Y786511D01*
X35459Y786619D01*
X35498Y786729D01*
X35534Y786840D01*
X35566Y786952D01*
X35594Y787065D01*
X35619Y787178D01*
X35640Y787293D01*
X35657Y787408D01*
X35670Y787523D01*
X35679Y787639D01*
X35685Y787756D01*
X35687Y787872D01*
X35688Y787872D02*
X35686Y788031D01*
X35680Y788190D01*
X35671Y788348D01*
X35658Y788507D01*
X35641Y788665D01*
X35620Y788822D01*
X35595Y788979D01*
X35567Y789136D01*
X35535Y789291D01*
X35500Y789446D01*
X35460Y789600D01*
X35417Y789753D01*
X35370Y789905D01*
X35320Y790056D01*
X35266Y790205D01*
X35209Y790354D01*
X35148Y790500D01*
X35084Y790646D01*
X35016Y790789D01*
X34945Y790931D01*
X34870Y791072D01*
X34792Y791210D01*
X34711Y791347D01*
X34627Y791481D01*
X34539Y791614D01*
X34448Y791745D01*
X34354Y791873D01*
X29019Y786094D02*
X29080Y785994D01*
X29145Y785896D01*
X29212Y785800D01*
X29283Y785707D01*
X29356Y785616D01*
X29433Y785527D01*
X29512Y785441D01*
X29594Y785357D01*
X29679Y785276D01*
X29766Y785198D01*
X29856Y785123D01*
X29948Y785050D01*
X30043Y784981D01*
X30139Y784915D01*
X30238Y784852D01*
X30339Y784792D01*
X30442Y784735D01*
X30546Y784682D01*
X30652Y784633D01*
X30760Y784586D01*
X30869Y784544D01*
X30979Y784504D01*
X31091Y784469D01*
X31204Y784437D01*
X31318Y784409D01*
X31432Y784384D01*
X31548Y784363D01*
X31664Y784346D01*
X31780Y784333D01*
X31897Y784324D01*
X32014Y784318D01*
X32131Y784316D01*
X26353Y790984D02*
X26292Y791084D01*
X26227Y791182D01*
X26160Y791278D01*
X26089Y791371D01*
X26016Y791462D01*
X25939Y791551D01*
X25860Y791637D01*
X25778Y791721D01*
X25693Y791802D01*
X25606Y791880D01*
X25516Y791955D01*
X25424Y792028D01*
X25329Y792097D01*
X25233Y792163D01*
X25134Y792226D01*
X25033Y792286D01*
X24930Y792343D01*
X24826Y792396D01*
X24720Y792445D01*
X24612Y792492D01*
X24503Y792534D01*
X24393Y792574D01*
X24281Y792609D01*
X24168Y792641D01*
X24054Y792669D01*
X23940Y792694D01*
X23824Y792715D01*
X23708Y792732D01*
X23592Y792745D01*
X23475Y792754D01*
X23358Y792760D01*
X23241Y792762D01*
X26353Y790984D02*
X29020Y786094D01*
X19685Y799536D02*
X19685Y806648D01*
X19685Y799536D02*
X35687Y799536D01*
X35687Y806648D01*
X28575Y804870D02*
X28575Y799536D01*
X35687Y815932D02*
X19685Y815932D01*
X35687Y811487D02*
X35687Y820377D01*
X17907Y825402D02*
X17907Y832514D01*
X32131Y838581D02*
X35687Y843026D01*
X19685Y843026D01*
X19685Y838581D02*
X19685Y847471D01*
D10*
X179300Y355600D02*
X217000Y355600D01*
X102080Y400440D02*
X74700Y355600D01*
X104620Y310760D01*
X154460Y310760D01*
X179300Y355600D01*
X154380Y400440D01*
X102080Y400440D01*
D11*
X142000Y370600D02*
X112000Y340600D01*
D10*
X64000Y355600D02*
X64019Y357146D01*
X64076Y358691D01*
X64171Y360235D01*
X64303Y361775D01*
X64474Y363312D01*
X64682Y364844D01*
X64928Y366371D01*
X65211Y367891D01*
X65531Y369403D01*
X65888Y370908D01*
X66282Y372403D01*
X66713Y373888D01*
X67180Y375362D01*
X67683Y376824D01*
X68221Y378273D01*
X68796Y379709D01*
X69405Y381130D01*
X70049Y382536D01*
X70727Y383926D01*
X71439Y385298D01*
X72185Y386653D01*
X72963Y387988D01*
X73774Y389305D01*
X74617Y390601D01*
X75492Y391876D01*
X76398Y393129D01*
X77334Y394360D01*
X78300Y395567D01*
X79296Y396750D01*
X80320Y397908D01*
X81372Y399041D01*
X82452Y400148D01*
X83559Y401228D01*
X84692Y402280D01*
X85850Y403304D01*
X87033Y404300D01*
X88240Y405266D01*
X89471Y406202D01*
X90724Y407108D01*
X91999Y407983D01*
X93295Y408826D01*
X94612Y409637D01*
X95947Y410415D01*
X97302Y411161D01*
X98674Y411873D01*
X100064Y412551D01*
X101470Y413195D01*
X102891Y413804D01*
X104327Y414379D01*
X105776Y414917D01*
X107238Y415420D01*
X108712Y415887D01*
X110197Y416318D01*
X111692Y416712D01*
X113197Y417069D01*
X114709Y417389D01*
X116229Y417672D01*
X117756Y417918D01*
X119288Y418126D01*
X120825Y418297D01*
X122365Y418429D01*
X123909Y418524D01*
X125454Y418581D01*
X127000Y418600D01*
X128546Y418581D01*
X130091Y418524D01*
X131635Y418429D01*
X133175Y418297D01*
X134712Y418126D01*
X136244Y417918D01*
X137771Y417672D01*
X139291Y417389D01*
X140803Y417069D01*
X142308Y416712D01*
X143803Y416318D01*
X145288Y415887D01*
X146762Y415420D01*
X148224Y414917D01*
X149673Y414379D01*
X151109Y413804D01*
X152530Y413195D01*
X153936Y412551D01*
X155326Y411873D01*
X156698Y411161D01*
X158053Y410415D01*
X159388Y409637D01*
X160705Y408826D01*
X162001Y407983D01*
X163276Y407108D01*
X164529Y406202D01*
X165760Y405266D01*
X166967Y404300D01*
X168150Y403304D01*
X169308Y402280D01*
X170441Y401228D01*
X171548Y400148D01*
X172628Y399041D01*
X173680Y397908D01*
X174704Y396750D01*
X175700Y395567D01*
X176666Y394360D01*
X177602Y393129D01*
X178508Y391876D01*
X179383Y390601D01*
X180226Y389305D01*
X181037Y387988D01*
X181815Y386653D01*
X182561Y385298D01*
X183273Y383926D01*
X183951Y382536D01*
X184595Y381130D01*
X185204Y379709D01*
X185779Y378273D01*
X186317Y376824D01*
X186820Y375362D01*
X187287Y373888D01*
X187718Y372403D01*
X188112Y370908D01*
X188469Y369403D01*
X188789Y367891D01*
X189072Y366371D01*
X189318Y364844D01*
X189526Y363312D01*
X189697Y361775D01*
X189829Y360235D01*
X189924Y358691D01*
X189981Y357146D01*
X190000Y355600D01*
X189981Y354054D01*
X189924Y352509D01*
X189829Y350965D01*
X189697Y349425D01*
X189526Y347888D01*
X189318Y346356D01*
X189072Y344829D01*
X188789Y343309D01*
X188469Y341797D01*
X188112Y340292D01*
X187718Y338797D01*
X187287Y337312D01*
X186820Y335838D01*
X186317Y334376D01*
X185779Y332927D01*
X185204Y331491D01*
X184595Y330070D01*
X183951Y328664D01*
X183273Y327274D01*
X182561Y325902D01*
X181815Y324547D01*
X181037Y323212D01*
X180226Y321895D01*
X179383Y320599D01*
X178508Y319324D01*
X177602Y318071D01*
X176666Y316840D01*
X175700Y315633D01*
X174704Y314450D01*
X173680Y313292D01*
X172628Y312159D01*
X171548Y311052D01*
X170441Y309972D01*
X169308Y308920D01*
X168150Y307896D01*
X166967Y306900D01*
X165760Y305934D01*
X164529Y304998D01*
X163276Y304092D01*
X162001Y303217D01*
X160705Y302374D01*
X159388Y301563D01*
X158053Y300785D01*
X156698Y300039D01*
X155326Y299327D01*
X153936Y298649D01*
X152530Y298005D01*
X151109Y297396D01*
X149673Y296821D01*
X148224Y296283D01*
X146762Y295780D01*
X145288Y295313D01*
X143803Y294882D01*
X142308Y294488D01*
X140803Y294131D01*
X139291Y293811D01*
X137771Y293528D01*
X136244Y293282D01*
X134712Y293074D01*
X133175Y292903D01*
X131635Y292771D01*
X130091Y292676D01*
X128546Y292619D01*
X127000Y292600D01*
X125454Y292619D01*
X123909Y292676D01*
X122365Y292771D01*
X120825Y292903D01*
X119288Y293074D01*
X117756Y293282D01*
X116229Y293528D01*
X114709Y293811D01*
X113197Y294131D01*
X111692Y294488D01*
X110197Y294882D01*
X108712Y295313D01*
X107238Y295780D01*
X105776Y296283D01*
X104327Y296821D01*
X102891Y297396D01*
X101470Y298005D01*
X100064Y298649D01*
X98674Y299327D01*
X97302Y300039D01*
X95947Y300785D01*
X94612Y301563D01*
X93295Y302374D01*
X91999Y303217D01*
X90724Y304092D01*
X89471Y304998D01*
X88240Y305934D01*
X87033Y306900D01*
X85850Y307896D01*
X84692Y308920D01*
X83559Y309972D01*
X82452Y311052D01*
X81372Y312159D01*
X80320Y313292D01*
X79296Y314450D01*
X78300Y315633D01*
X77334Y316840D01*
X76398Y318071D01*
X75492Y319324D01*
X74617Y320599D01*
X73774Y321895D01*
X72963Y323212D01*
X72185Y324547D01*
X71439Y325902D01*
X70727Y327274D01*
X70049Y328664D01*
X69405Y330070D01*
X68796Y331491D01*
X68221Y332927D01*
X67683Y334376D01*
X67180Y335838D01*
X66713Y337312D01*
X66282Y338797D01*
X65888Y340292D01*
X65531Y341797D01*
X65211Y343309D01*
X64928Y344829D01*
X64682Y346356D01*
X64474Y347888D01*
X64303Y349425D01*
X64171Y350965D01*
X64076Y352509D01*
X64019Y354054D01*
X64000Y355600D01*
X62969Y355600D02*
X62988Y357171D01*
X63046Y358742D01*
X63142Y360310D01*
X63277Y361876D01*
X63451Y363438D01*
X63662Y364995D01*
X63912Y366547D01*
X64199Y368092D01*
X64525Y369629D01*
X64888Y371158D01*
X65288Y372678D01*
X65726Y374187D01*
X66201Y375685D01*
X66712Y377171D01*
X67260Y378644D01*
X67843Y380104D01*
X68462Y381548D01*
X69117Y382977D01*
X69806Y384389D01*
X70530Y385784D01*
X71287Y387161D01*
X72079Y388519D01*
X72903Y389856D01*
X73760Y391174D01*
X74649Y392470D01*
X75570Y393743D01*
X76521Y394994D01*
X77503Y396221D01*
X78515Y397423D01*
X79556Y398601D01*
X80626Y399752D01*
X81723Y400877D01*
X82848Y401974D01*
X83999Y403044D01*
X85177Y404085D01*
X86379Y405097D01*
X87606Y406079D01*
X88857Y407030D01*
X90130Y407951D01*
X91426Y408840D01*
X92744Y409697D01*
X94081Y410521D01*
X95439Y411313D01*
X96816Y412070D01*
X98211Y412794D01*
X99623Y413483D01*
X101052Y414138D01*
X102496Y414757D01*
X103956Y415340D01*
X105429Y415888D01*
X106915Y416399D01*
X108413Y416874D01*
X109922Y417312D01*
X111442Y417712D01*
X112971Y418075D01*
X114508Y418401D01*
X116053Y418688D01*
X117605Y418938D01*
X119162Y419149D01*
X120724Y419323D01*
X122290Y419458D01*
X123858Y419554D01*
X125429Y419612D01*
X127000Y419631D01*
X128571Y419612D01*
X130142Y419554D01*
X131710Y419458D01*
X133276Y419323D01*
X134838Y419149D01*
X136395Y418938D01*
X137947Y418688D01*
X139492Y418401D01*
X141029Y418075D01*
X142558Y417712D01*
X144078Y417312D01*
X145587Y416874D01*
X147085Y416399D01*
X148571Y415888D01*
X150044Y415340D01*
X151504Y414757D01*
X152948Y414138D01*
X154377Y413483D01*
X155789Y412794D01*
X157184Y412070D01*
X158561Y411313D01*
X159919Y410521D01*
X161256Y409697D01*
X162574Y408840D01*
X163870Y407951D01*
X165143Y407030D01*
X166394Y406079D01*
X167621Y405097D01*
X168823Y404085D01*
X170001Y403044D01*
X171152Y401974D01*
X172277Y400877D01*
X173374Y399752D01*
X174444Y398601D01*
X175485Y397423D01*
X176497Y396221D01*
X177479Y394994D01*
X178430Y393743D01*
X179351Y392470D01*
X180240Y391174D01*
X181097Y389856D01*
X181921Y388519D01*
X182713Y387161D01*
X183470Y385784D01*
X184194Y384389D01*
X184883Y382977D01*
X185538Y381548D01*
X186157Y380104D01*
X186740Y378644D01*
X187288Y377171D01*
X187799Y375685D01*
X188274Y374187D01*
X188712Y372678D01*
X189112Y371158D01*
X189475Y369629D01*
X189801Y368092D01*
X190088Y366547D01*
X190338Y364995D01*
X190549Y363438D01*
X190723Y361876D01*
X190858Y360310D01*
X190954Y358742D01*
X191012Y357171D01*
X191031Y355600D01*
X191012Y354029D01*
X190954Y352458D01*
X190858Y350890D01*
X190723Y349324D01*
X190549Y347762D01*
X190338Y346205D01*
X190088Y344653D01*
X189801Y343108D01*
X189475Y341571D01*
X189112Y340042D01*
X188712Y338522D01*
X188274Y337013D01*
X187799Y335515D01*
X187288Y334029D01*
X186740Y332556D01*
X186157Y331096D01*
X185538Y329652D01*
X184883Y328223D01*
X184194Y326811D01*
X183470Y325416D01*
X182713Y324039D01*
X181921Y322681D01*
X181097Y321344D01*
X180240Y320026D01*
X179351Y318730D01*
X178430Y317457D01*
X177479Y316206D01*
X176497Y314979D01*
X175485Y313777D01*
X174444Y312599D01*
X173374Y311448D01*
X172277Y310323D01*
X171152Y309226D01*
X170001Y308156D01*
X168823Y307115D01*
X167621Y306103D01*
X166394Y305121D01*
X165143Y304170D01*
X163870Y303249D01*
X162574Y302360D01*
X161256Y301503D01*
X159919Y300679D01*
X158561Y299887D01*
X157184Y299130D01*
X155789Y298406D01*
X154377Y297717D01*
X152948Y297062D01*
X151504Y296443D01*
X150044Y295860D01*
X148571Y295312D01*
X147085Y294801D01*
X145587Y294326D01*
X144078Y293888D01*
X142558Y293488D01*
X141029Y293125D01*
X139492Y292799D01*
X137947Y292512D01*
X136395Y292262D01*
X134838Y292051D01*
X133276Y291877D01*
X131710Y291742D01*
X130142Y291646D01*
X128571Y291588D01*
X127000Y291569D01*
X125429Y291588D01*
X123858Y291646D01*
X122290Y291742D01*
X120724Y291877D01*
X119162Y292051D01*
X117605Y292262D01*
X116053Y292512D01*
X114508Y292799D01*
X112971Y293125D01*
X111442Y293488D01*
X109922Y293888D01*
X108413Y294326D01*
X106915Y294801D01*
X105429Y295312D01*
X103956Y295860D01*
X102496Y296443D01*
X101052Y297062D01*
X99623Y297717D01*
X98211Y298406D01*
X96816Y299130D01*
X95439Y299887D01*
X94081Y300679D01*
X92744Y301503D01*
X91426Y302360D01*
X90130Y303249D01*
X88857Y304170D01*
X87606Y305121D01*
X86379Y306103D01*
X85177Y307115D01*
X83999Y308156D01*
X82848Y309226D01*
X81723Y310323D01*
X80626Y311448D01*
X79556Y312599D01*
X78515Y313777D01*
X77503Y314979D01*
X76521Y316206D01*
X75570Y317457D01*
X74649Y318730D01*
X73760Y320026D01*
X72903Y321344D01*
X72079Y322681D01*
X71287Y324039D01*
X70530Y325416D01*
X69806Y326811D01*
X69117Y328223D01*
X68462Y329652D01*
X67843Y331096D01*
X67260Y332556D01*
X66712Y334029D01*
X66201Y335515D01*
X65726Y337013D01*
X65288Y338522D01*
X64888Y340042D01*
X64525Y341571D01*
X64199Y343108D01*
X63912Y344653D01*
X63662Y346205D01*
X63451Y347762D01*
X63277Y349324D01*
X63142Y350890D01*
X63046Y352458D01*
X62988Y354029D01*
X62969Y355600D01*
X87949Y355600D02*
X87961Y356558D01*
X87996Y357516D01*
X88055Y358473D01*
X88137Y359428D01*
X88243Y360380D01*
X88372Y361330D01*
X88524Y362276D01*
X88699Y363218D01*
X88898Y364156D01*
X89119Y365089D01*
X89364Y366015D01*
X89631Y366936D01*
X89920Y367850D01*
X90232Y368756D01*
X90566Y369654D01*
X90922Y370544D01*
X91299Y371425D01*
X91698Y372296D01*
X92119Y373158D01*
X92560Y374009D01*
X93022Y374848D01*
X93505Y375676D01*
X94008Y376492D01*
X94530Y377296D01*
X95072Y378086D01*
X95634Y378863D01*
X96214Y379625D01*
X96813Y380374D01*
X97430Y381107D01*
X98065Y381825D01*
X98717Y382527D01*
X99387Y383213D01*
X100073Y383883D01*
X100775Y384535D01*
X101493Y385170D01*
X102226Y385787D01*
X102975Y386386D01*
X103737Y386966D01*
X104514Y387528D01*
X105304Y388070D01*
X106108Y388592D01*
X106924Y389095D01*
X107752Y389578D01*
X108591Y390040D01*
X109442Y390481D01*
X110304Y390902D01*
X111175Y391301D01*
X112056Y391678D01*
X112946Y392034D01*
X113844Y392368D01*
X114750Y392680D01*
X115664Y392969D01*
X116585Y393236D01*
X117511Y393481D01*
X118444Y393702D01*
X119382Y393901D01*
X120324Y394076D01*
X121270Y394228D01*
X122220Y394357D01*
X123172Y394463D01*
X124127Y394545D01*
X125084Y394604D01*
X126042Y394639D01*
X127000Y394651D01*
X127958Y394639D01*
X128916Y394604D01*
X129873Y394545D01*
X130828Y394463D01*
X131780Y394357D01*
X132730Y394228D01*
X133676Y394076D01*
X134618Y393901D01*
X135556Y393702D01*
X136489Y393481D01*
X137415Y393236D01*
X138336Y392969D01*
X139250Y392680D01*
X140156Y392368D01*
X141054Y392034D01*
X141944Y391678D01*
X142825Y391301D01*
X143696Y390902D01*
X144558Y390481D01*
X145409Y390040D01*
X146248Y389578D01*
X147076Y389095D01*
X147892Y388592D01*
X148696Y388070D01*
X149486Y387528D01*
X150263Y386966D01*
X151025Y386386D01*
X151774Y385787D01*
X152507Y385170D01*
X153225Y384535D01*
X153927Y383883D01*
X154613Y383213D01*
X155283Y382527D01*
X155935Y381825D01*
X156570Y381107D01*
X157187Y380374D01*
X157786Y379625D01*
X158366Y378863D01*
X158928Y378086D01*
X159470Y377296D01*
X159992Y376492D01*
X160495Y375676D01*
X160978Y374848D01*
X161440Y374009D01*
X161881Y373158D01*
X162302Y372296D01*
X162701Y371425D01*
X163078Y370544D01*
X163434Y369654D01*
X163768Y368756D01*
X164080Y367850D01*
X164369Y366936D01*
X164636Y366015D01*
X164881Y365089D01*
X165102Y364156D01*
X165301Y363218D01*
X165476Y362276D01*
X165628Y361330D01*
X165757Y360380D01*
X165863Y359428D01*
X165945Y358473D01*
X166004Y357516D01*
X166039Y356558D01*
X166051Y355600D01*
X166039Y354642D01*
X166004Y353684D01*
X165945Y352727D01*
X165863Y351772D01*
X165757Y350820D01*
X165628Y349870D01*
X165476Y348924D01*
X165301Y347982D01*
X165102Y347044D01*
X164881Y346111D01*
X164636Y345185D01*
X164369Y344264D01*
X164080Y343350D01*
X163768Y342444D01*
X163434Y341546D01*
X163078Y340656D01*
X162701Y339775D01*
X162302Y338904D01*
X161881Y338042D01*
X161440Y337191D01*
X160978Y336352D01*
X160495Y335524D01*
X159992Y334708D01*
X159470Y333904D01*
X158928Y333114D01*
X158366Y332337D01*
X157786Y331575D01*
X157187Y330826D01*
X156570Y330093D01*
X155935Y329375D01*
X155283Y328673D01*
X154613Y327987D01*
X153927Y327317D01*
X153225Y326665D01*
X152507Y326030D01*
X151774Y325413D01*
X151025Y324814D01*
X150263Y324234D01*
X149486Y323672D01*
X148696Y323130D01*
X147892Y322608D01*
X147076Y322105D01*
X146248Y321622D01*
X145409Y321160D01*
X144558Y320719D01*
X143696Y320298D01*
X142825Y319899D01*
X141944Y319522D01*
X141054Y319166D01*
X140156Y318832D01*
X139250Y318520D01*
X138336Y318231D01*
X137415Y317964D01*
X136489Y317719D01*
X135556Y317498D01*
X134618Y317299D01*
X133676Y317124D01*
X132730Y316972D01*
X131780Y316843D01*
X130828Y316737D01*
X129873Y316655D01*
X128916Y316596D01*
X127958Y316561D01*
X127000Y316549D01*
X126042Y316561D01*
X125084Y316596D01*
X124127Y316655D01*
X123172Y316737D01*
X122220Y316843D01*
X121270Y316972D01*
X120324Y317124D01*
X119382Y317299D01*
X118444Y317498D01*
X117511Y317719D01*
X116585Y317964D01*
X115664Y318231D01*
X114750Y318520D01*
X113844Y318832D01*
X112946Y319166D01*
X112056Y319522D01*
X111175Y319899D01*
X110304Y320298D01*
X109442Y320719D01*
X108591Y321160D01*
X107752Y321622D01*
X106924Y322105D01*
X106108Y322608D01*
X105304Y323130D01*
X104514Y323672D01*
X103737Y324234D01*
X102975Y324814D01*
X102226Y325413D01*
X101493Y326030D01*
X100775Y326665D01*
X100073Y327317D01*
X99387Y327987D01*
X98717Y328673D01*
X98065Y329375D01*
X97430Y330093D01*
X96813Y330826D01*
X96214Y331575D01*
X95634Y332337D01*
X95072Y333114D01*
X94530Y333904D01*
X94008Y334708D01*
X93505Y335524D01*
X93022Y336352D01*
X92560Y337191D01*
X92119Y338042D01*
X91698Y338904D01*
X91299Y339775D01*
X90922Y340656D01*
X90566Y341546D01*
X90232Y342444D01*
X89920Y343350D01*
X89631Y344264D01*
X89364Y345185D01*
X89119Y346111D01*
X88898Y347044D01*
X88699Y347982D01*
X88524Y348924D01*
X88372Y349870D01*
X88243Y350820D01*
X88137Y351772D01*
X88055Y352727D01*
X87996Y353684D01*
X87961Y354642D01*
X87949Y355600D01*
X105787Y355600D02*
X105793Y356121D01*
X105813Y356641D01*
X105844Y357161D01*
X105889Y357679D01*
X105947Y358197D01*
X106017Y358713D01*
X106099Y359227D01*
X106195Y359738D01*
X106302Y360248D01*
X106423Y360754D01*
X106555Y361258D01*
X106700Y361758D01*
X106858Y362254D01*
X107027Y362746D01*
X107208Y363234D01*
X107402Y363718D01*
X107607Y364196D01*
X107824Y364670D01*
X108052Y365138D01*
X108292Y365600D01*
X108543Y366056D01*
X108805Y366506D01*
X109078Y366949D01*
X109362Y367385D01*
X109657Y367815D01*
X109962Y368237D01*
X110277Y368651D01*
X110602Y369057D01*
X110937Y369456D01*
X111282Y369846D01*
X111637Y370227D01*
X112000Y370600D01*
X112373Y370963D01*
X112754Y371318D01*
X113144Y371663D01*
X113543Y371998D01*
X113949Y372323D01*
X114363Y372638D01*
X114785Y372943D01*
X115215Y373238D01*
X115651Y373522D01*
X116094Y373795D01*
X116544Y374057D01*
X117000Y374308D01*
X117462Y374548D01*
X117930Y374776D01*
X118404Y374993D01*
X118882Y375198D01*
X119366Y375392D01*
X119854Y375573D01*
X120346Y375742D01*
X120842Y375900D01*
X121342Y376045D01*
X121846Y376177D01*
X122352Y376298D01*
X122862Y376405D01*
X123373Y376501D01*
X123887Y376583D01*
X124403Y376653D01*
X124921Y376711D01*
X125439Y376756D01*
X125959Y376787D01*
X126479Y376807D01*
X127000Y376813D01*
X127521Y376807D01*
X128041Y376787D01*
X128561Y376756D01*
X129079Y376711D01*
X129597Y376653D01*
X130113Y376583D01*
X130627Y376501D01*
X131138Y376405D01*
X131648Y376298D01*
X132154Y376177D01*
X132658Y376045D01*
X133158Y375900D01*
X133654Y375742D01*
X134146Y375573D01*
X134634Y375392D01*
X135118Y375198D01*
X135596Y374993D01*
X136070Y374776D01*
X136538Y374548D01*
X137000Y374308D01*
X137456Y374057D01*
X137906Y373795D01*
X138349Y373522D01*
X138785Y373238D01*
X139215Y372943D01*
X139637Y372638D01*
X140051Y372323D01*
X140457Y371998D01*
X140856Y371663D01*
X141246Y371318D01*
X141627Y370963D01*
X142000Y370600D01*
X142363Y370227D01*
X142718Y369846D01*
X143063Y369456D01*
X143398Y369057D01*
X143723Y368651D01*
X144038Y368237D01*
X144343Y367815D01*
X144638Y367385D01*
X144922Y366949D01*
X145195Y366506D01*
X145457Y366056D01*
X145708Y365600D01*
X145948Y365138D01*
X146176Y364670D01*
X146393Y364196D01*
X146598Y363718D01*
X146792Y363234D01*
X146973Y362746D01*
X147142Y362254D01*
X147300Y361758D01*
X147445Y361258D01*
X147577Y360754D01*
X147698Y360248D01*
X147805Y359738D01*
X147901Y359227D01*
X147983Y358713D01*
X148053Y358197D01*
X148111Y357679D01*
X148156Y357161D01*
X148187Y356641D01*
X148207Y356121D01*
X148213Y355600D01*
X148207Y355079D01*
X148187Y354559D01*
X148156Y354039D01*
X148111Y353521D01*
X148053Y353003D01*
X147983Y352487D01*
X147901Y351973D01*
X147805Y351462D01*
X147698Y350952D01*
X147577Y350446D01*
X147445Y349942D01*
X147300Y349442D01*
X147142Y348946D01*
X146973Y348454D01*
X146792Y347966D01*
X146598Y347482D01*
X146393Y347004D01*
X146176Y346530D01*
X145948Y346062D01*
X145708Y345600D01*
X145457Y345144D01*
X145195Y344694D01*
X144922Y344251D01*
X144638Y343815D01*
X144343Y343385D01*
X144038Y342963D01*
X143723Y342549D01*
X143398Y342143D01*
X143063Y341744D01*
X142718Y341354D01*
X142363Y340973D01*
X142000Y340600D01*
X141627Y340237D01*
X141246Y339882D01*
X140856Y339537D01*
X140457Y339202D01*
X140051Y338877D01*
X139637Y338562D01*
X139215Y338257D01*
X138785Y337962D01*
X138349Y337678D01*
X137906Y337405D01*
X137456Y337143D01*
X137000Y336892D01*
X136538Y336652D01*
X136070Y336424D01*
X135596Y336207D01*
X135118Y336002D01*
X134634Y335808D01*
X134146Y335627D01*
X133654Y335458D01*
X133158Y335300D01*
X132658Y335155D01*
X132154Y335023D01*
X131648Y334902D01*
X131138Y334795D01*
X130627Y334699D01*
X130113Y334617D01*
X129597Y334547D01*
X129079Y334489D01*
X128561Y334444D01*
X128041Y334413D01*
X127521Y334393D01*
X127000Y334387D01*
X126479Y334393D01*
X125959Y334413D01*
X125439Y334444D01*
X124921Y334489D01*
X124403Y334547D01*
X123887Y334617D01*
X123373Y334699D01*
X122862Y334795D01*
X122352Y334902D01*
X121846Y335023D01*
X121342Y335155D01*
X120842Y335300D01*
X120346Y335458D01*
X119854Y335627D01*
X119366Y335808D01*
X118882Y336002D01*
X118404Y336207D01*
X117930Y336424D01*
X117462Y336652D01*
X117000Y336892D01*
X116544Y337143D01*
X116094Y337405D01*
X115651Y337678D01*
X115215Y337962D01*
X114785Y338257D01*
X114363Y338562D01*
X113949Y338877D01*
X113543Y339202D01*
X113144Y339537D01*
X112754Y339882D01*
X112373Y340237D01*
X112000Y340600D01*
X111637Y340973D01*
X111282Y341354D01*
X110937Y341744D01*
X110602Y342143D01*
X110277Y342549D01*
X109962Y342963D01*
X109657Y343385D01*
X109362Y343815D01*
X109078Y344251D01*
X108805Y344694D01*
X108543Y345144D01*
X108292Y345600D01*
X108052Y346062D01*
X107824Y346530D01*
X107607Y347004D01*
X107402Y347482D01*
X107208Y347966D01*
X107027Y348454D01*
X106858Y348946D01*
X106700Y349442D01*
X106555Y349942D01*
X106423Y350446D01*
X106302Y350952D01*
X106195Y351462D01*
X106099Y351973D01*
X106017Y352487D01*
X105947Y353003D01*
X105889Y353521D01*
X105844Y354039D01*
X105813Y354559D01*
X105793Y355079D01*
X105787Y355600D01*
X223520Y415600D02*
X223520Y295600D01*
X182880Y295600D01*
X167640Y304800D01*
X182880Y415600D02*
X223520Y415600D01*
X182880Y415600D02*
X167640Y406400D01*
D12*
X175260Y387350D03*
X175260Y325120D03*
X78740Y325120D03*
X78740Y387350D03*
D13*
X31242Y297167D02*
X24130Y297167D01*
X31242Y297167D02*
X31374Y297169D01*
X31505Y297175D01*
X31637Y297185D01*
X31768Y297198D01*
X31898Y297216D01*
X32028Y297237D01*
X32158Y297262D01*
X32286Y297291D01*
X32414Y297324D01*
X32540Y297361D01*
X32666Y297401D01*
X32790Y297445D01*
X32913Y297493D01*
X33034Y297544D01*
X33154Y297599D01*
X33272Y297657D01*
X33388Y297719D01*
X33502Y297785D01*
X33615Y297853D01*
X33725Y297925D01*
X33833Y298000D01*
X33939Y298079D01*
X34043Y298160D01*
X34144Y298245D01*
X34242Y298332D01*
X34338Y298423D01*
X34431Y298516D01*
X34522Y298612D01*
X34609Y298710D01*
X34694Y298811D01*
X34775Y298915D01*
X34854Y299021D01*
X34929Y299129D01*
X35001Y299239D01*
X35069Y299352D01*
X35135Y299466D01*
X35197Y299582D01*
X35255Y299700D01*
X35310Y299820D01*
X35361Y299941D01*
X35409Y300064D01*
X35453Y300188D01*
X35493Y300314D01*
X35530Y300440D01*
X35563Y300568D01*
X35592Y300696D01*
X35617Y300826D01*
X35638Y300956D01*
X35656Y301086D01*
X35669Y301217D01*
X35679Y301349D01*
X35685Y301480D01*
X35687Y301612D01*
X35685Y301744D01*
X35679Y301875D01*
X35669Y302007D01*
X35656Y302138D01*
X35638Y302268D01*
X35617Y302398D01*
X35592Y302528D01*
X35563Y302656D01*
X35530Y302784D01*
X35493Y302910D01*
X35453Y303036D01*
X35409Y303160D01*
X35361Y303283D01*
X35310Y303404D01*
X35255Y303524D01*
X35197Y303642D01*
X35135Y303758D01*
X35069Y303872D01*
X35001Y303985D01*
X34929Y304095D01*
X34854Y304203D01*
X34775Y304309D01*
X34694Y304413D01*
X34609Y304514D01*
X34522Y304612D01*
X34431Y304708D01*
X34338Y304801D01*
X34242Y304892D01*
X34144Y304979D01*
X34043Y305064D01*
X33939Y305145D01*
X33833Y305224D01*
X33725Y305299D01*
X33615Y305371D01*
X33502Y305439D01*
X33388Y305505D01*
X33272Y305567D01*
X33154Y305625D01*
X33034Y305680D01*
X32913Y305731D01*
X32790Y305779D01*
X32666Y305823D01*
X32540Y305863D01*
X32414Y305900D01*
X32286Y305933D01*
X32158Y305962D01*
X32028Y305987D01*
X31898Y306008D01*
X31768Y306026D01*
X31637Y306039D01*
X31505Y306049D01*
X31374Y306055D01*
X31242Y306057D01*
X24130Y306057D01*
X23998Y306055D01*
X23867Y306049D01*
X23735Y306039D01*
X23604Y306026D01*
X23474Y306008D01*
X23344Y305987D01*
X23214Y305962D01*
X23086Y305933D01*
X22958Y305900D01*
X22832Y305863D01*
X22706Y305823D01*
X22582Y305779D01*
X22459Y305731D01*
X22338Y305680D01*
X22218Y305625D01*
X22100Y305567D01*
X21984Y305505D01*
X21870Y305439D01*
X21757Y305371D01*
X21647Y305299D01*
X21539Y305224D01*
X21433Y305145D01*
X21329Y305064D01*
X21228Y304979D01*
X21130Y304892D01*
X21034Y304801D01*
X20941Y304708D01*
X20850Y304612D01*
X20763Y304514D01*
X20678Y304413D01*
X20597Y304309D01*
X20518Y304203D01*
X20443Y304095D01*
X20371Y303985D01*
X20303Y303872D01*
X20237Y303758D01*
X20175Y303642D01*
X20117Y303524D01*
X20062Y303404D01*
X20011Y303283D01*
X19963Y303160D01*
X19919Y303036D01*
X19879Y302910D01*
X19842Y302784D01*
X19809Y302656D01*
X19780Y302528D01*
X19755Y302398D01*
X19734Y302268D01*
X19716Y302138D01*
X19703Y302007D01*
X19693Y301875D01*
X19687Y301744D01*
X19685Y301612D01*
X19687Y301480D01*
X19693Y301349D01*
X19703Y301217D01*
X19716Y301086D01*
X19734Y300956D01*
X19755Y300826D01*
X19780Y300696D01*
X19809Y300568D01*
X19842Y300440D01*
X19879Y300314D01*
X19919Y300188D01*
X19963Y300064D01*
X20011Y299941D01*
X20062Y299820D01*
X20117Y299700D01*
X20175Y299582D01*
X20237Y299466D01*
X20303Y299352D01*
X20371Y299239D01*
X20443Y299129D01*
X20518Y299021D01*
X20597Y298915D01*
X20678Y298811D01*
X20763Y298710D01*
X20850Y298612D01*
X20941Y298516D01*
X21034Y298423D01*
X21130Y298332D01*
X21228Y298245D01*
X21329Y298160D01*
X21433Y298079D01*
X21539Y298000D01*
X21647Y297925D01*
X21757Y297853D01*
X21870Y297785D01*
X21984Y297719D01*
X22100Y297657D01*
X22218Y297599D01*
X22338Y297544D01*
X22459Y297493D01*
X22582Y297445D01*
X22706Y297401D01*
X22832Y297361D01*
X22958Y297324D01*
X23086Y297291D01*
X23214Y297262D01*
X23344Y297237D01*
X23474Y297216D01*
X23604Y297198D01*
X23735Y297185D01*
X23867Y297175D01*
X23998Y297169D01*
X24130Y297167D01*
X19685Y313353D02*
X35687Y313353D01*
X35687Y320465D01*
X28575Y320465D02*
X28575Y313353D01*
X35687Y326900D02*
X19685Y326900D01*
X35687Y326900D02*
X35687Y334012D01*
X28575Y334012D02*
X28575Y326900D01*
X19685Y344706D02*
X19687Y344822D01*
X19693Y344939D01*
X19702Y345055D01*
X19715Y345170D01*
X19732Y345285D01*
X19753Y345400D01*
X19778Y345513D01*
X19806Y345626D01*
X19838Y345738D01*
X19874Y345849D01*
X19913Y345959D01*
X19956Y346067D01*
X20002Y346174D01*
X20052Y346279D01*
X20105Y346382D01*
X20161Y346484D01*
X20221Y346584D01*
X20284Y346682D01*
X20351Y346777D01*
X20420Y346871D01*
X20492Y346962D01*
X20567Y347051D01*
X20646Y347137D01*
X20727Y347220D01*
X20810Y347301D01*
X20896Y347380D01*
X20985Y347455D01*
X21076Y347527D01*
X21170Y347596D01*
X21265Y347663D01*
X21363Y347726D01*
X21463Y347786D01*
X21565Y347842D01*
X21668Y347895D01*
X21773Y347945D01*
X21880Y347991D01*
X21988Y348034D01*
X22098Y348073D01*
X22209Y348109D01*
X22321Y348141D01*
X22434Y348169D01*
X22547Y348194D01*
X22662Y348215D01*
X22777Y348232D01*
X22892Y348245D01*
X23008Y348254D01*
X23125Y348260D01*
X23241Y348262D01*
X19685Y344706D02*
X19687Y344526D01*
X19694Y344347D01*
X19704Y344167D01*
X19719Y343988D01*
X19739Y343809D01*
X19762Y343631D01*
X19790Y343454D01*
X19822Y343277D01*
X19858Y343101D01*
X19899Y342926D01*
X19944Y342752D01*
X19993Y342579D01*
X20045Y342407D01*
X20103Y342236D01*
X20164Y342067D01*
X20229Y341900D01*
X20298Y341734D01*
X20371Y341570D01*
X20448Y341407D01*
X20529Y341247D01*
X20613Y341088D01*
X20702Y340932D01*
X20794Y340778D01*
X20890Y340626D01*
X20989Y340476D01*
X21092Y340328D01*
X21199Y340184D01*
X21309Y340041D01*
X21422Y339902D01*
X21539Y339765D01*
X21658Y339631D01*
X21781Y339500D01*
X21907Y339372D01*
X32131Y339816D02*
X32247Y339818D01*
X32364Y339824D01*
X32480Y339833D01*
X32595Y339846D01*
X32710Y339863D01*
X32825Y339884D01*
X32938Y339909D01*
X33051Y339937D01*
X33163Y339969D01*
X33274Y340005D01*
X33384Y340044D01*
X33492Y340087D01*
X33599Y340133D01*
X33704Y340183D01*
X33807Y340236D01*
X33909Y340292D01*
X34009Y340352D01*
X34107Y340415D01*
X34202Y340482D01*
X34296Y340551D01*
X34387Y340623D01*
X34476Y340698D01*
X34562Y340777D01*
X34645Y340858D01*
X34726Y340941D01*
X34805Y341027D01*
X34880Y341116D01*
X34952Y341207D01*
X35021Y341301D01*
X35088Y341396D01*
X35151Y341494D01*
X35211Y341594D01*
X35267Y341696D01*
X35320Y341799D01*
X35370Y341904D01*
X35416Y342011D01*
X35459Y342119D01*
X35498Y342229D01*
X35534Y342340D01*
X35566Y342452D01*
X35594Y342565D01*
X35619Y342678D01*
X35640Y342793D01*
X35657Y342908D01*
X35670Y343023D01*
X35679Y343139D01*
X35685Y343256D01*
X35687Y343372D01*
X35688Y343372D02*
X35686Y343531D01*
X35680Y343690D01*
X35671Y343848D01*
X35658Y344007D01*
X35641Y344165D01*
X35620Y344322D01*
X35595Y344479D01*
X35567Y344636D01*
X35535Y344791D01*
X35500Y344946D01*
X35460Y345100D01*
X35417Y345253D01*
X35370Y345405D01*
X35320Y345556D01*
X35266Y345705D01*
X35209Y345854D01*
X35148Y346000D01*
X35084Y346146D01*
X35016Y346289D01*
X34945Y346431D01*
X34870Y346572D01*
X34792Y346710D01*
X34711Y346847D01*
X34627Y346981D01*
X34539Y347114D01*
X34448Y347245D01*
X34354Y347373D01*
X29019Y341594D02*
X29080Y341494D01*
X29145Y341396D01*
X29212Y341300D01*
X29283Y341207D01*
X29356Y341116D01*
X29433Y341027D01*
X29512Y340941D01*
X29594Y340857D01*
X29679Y340776D01*
X29766Y340698D01*
X29856Y340623D01*
X29948Y340550D01*
X30043Y340481D01*
X30139Y340415D01*
X30238Y340352D01*
X30339Y340292D01*
X30442Y340235D01*
X30546Y340182D01*
X30652Y340133D01*
X30760Y340086D01*
X30869Y340044D01*
X30979Y340004D01*
X31091Y339969D01*
X31204Y339937D01*
X31318Y339909D01*
X31432Y339884D01*
X31548Y339863D01*
X31664Y339846D01*
X31780Y339833D01*
X31897Y339824D01*
X32014Y339818D01*
X32131Y339816D01*
X26353Y346484D02*
X26292Y346584D01*
X26227Y346682D01*
X26160Y346778D01*
X26089Y346871D01*
X26016Y346962D01*
X25939Y347051D01*
X25860Y347137D01*
X25778Y347221D01*
X25693Y347302D01*
X25606Y347380D01*
X25516Y347455D01*
X25424Y347528D01*
X25329Y347597D01*
X25233Y347663D01*
X25134Y347726D01*
X25033Y347786D01*
X24930Y347843D01*
X24826Y347896D01*
X24720Y347945D01*
X24612Y347992D01*
X24503Y348034D01*
X24393Y348074D01*
X24281Y348109D01*
X24168Y348141D01*
X24054Y348169D01*
X23940Y348194D01*
X23824Y348215D01*
X23708Y348232D01*
X23592Y348245D01*
X23475Y348254D01*
X23358Y348260D01*
X23241Y348262D01*
X26353Y346484D02*
X29020Y341594D01*
X19685Y355036D02*
X19685Y362148D01*
X19685Y355036D02*
X35687Y355036D01*
X35687Y362148D01*
X28575Y360370D02*
X28575Y355036D01*
X35687Y371432D02*
X19685Y371432D01*
X35687Y366987D02*
X35687Y375877D01*
X17907Y380902D02*
X17907Y388014D01*
X31687Y402972D02*
X31813Y402970D01*
X31938Y402964D01*
X32064Y402954D01*
X32188Y402940D01*
X32313Y402923D01*
X32437Y402901D01*
X32560Y402876D01*
X32682Y402846D01*
X32803Y402813D01*
X32923Y402776D01*
X33042Y402735D01*
X33160Y402691D01*
X33276Y402643D01*
X33391Y402591D01*
X33503Y402536D01*
X33614Y402477D01*
X33724Y402415D01*
X33831Y402349D01*
X33936Y402280D01*
X34039Y402208D01*
X34139Y402132D01*
X34237Y402054D01*
X34333Y401972D01*
X34426Y401888D01*
X34516Y401800D01*
X34604Y401710D01*
X34688Y401617D01*
X34770Y401521D01*
X34848Y401423D01*
X34924Y401323D01*
X34996Y401220D01*
X35065Y401115D01*
X35131Y401008D01*
X35193Y400898D01*
X35252Y400787D01*
X35307Y400675D01*
X35359Y400560D01*
X35407Y400444D01*
X35451Y400326D01*
X35492Y400207D01*
X35529Y400087D01*
X35562Y399966D01*
X35592Y399844D01*
X35617Y399721D01*
X35639Y399597D01*
X35656Y399472D01*
X35670Y399348D01*
X35680Y399222D01*
X35686Y399097D01*
X35688Y398971D01*
X35687Y398971D02*
X35685Y398830D01*
X35679Y398690D01*
X35670Y398550D01*
X35656Y398410D01*
X35639Y398271D01*
X35618Y398132D01*
X35593Y397993D01*
X35565Y397856D01*
X35532Y397719D01*
X35496Y397583D01*
X35456Y397448D01*
X35413Y397315D01*
X35366Y397182D01*
X35315Y397051D01*
X35261Y396922D01*
X35203Y396794D01*
X35142Y396667D01*
X35077Y396542D01*
X35009Y396420D01*
X34938Y396299D01*
X34863Y396179D01*
X34785Y396063D01*
X34704Y395948D01*
X34620Y395835D01*
X34532Y395725D01*
X34442Y395617D01*
X34349Y395512D01*
X34253Y395410D01*
X34154Y395310D01*
X34053Y395212D01*
X33949Y395118D01*
X33842Y395026D01*
X33733Y394938D01*
X33622Y394852D01*
X33508Y394770D01*
X33392Y394690D01*
X33274Y394614D01*
X33154Y394541D01*
X33032Y394472D01*
X32908Y394405D01*
X32782Y394342D01*
X32655Y394283D01*
X32526Y394227D01*
X32396Y394175D01*
X32264Y394126D01*
X32131Y394081D01*
X28575Y401637D02*
X28666Y401729D01*
X28759Y401819D01*
X28854Y401905D01*
X28952Y401989D01*
X29053Y402069D01*
X29156Y402147D01*
X29261Y402221D01*
X29369Y402292D01*
X29478Y402360D01*
X29590Y402424D01*
X29703Y402486D01*
X29818Y402543D01*
X29935Y402598D01*
X30054Y402649D01*
X30174Y402696D01*
X30295Y402739D01*
X30417Y402779D01*
X30541Y402815D01*
X30666Y402848D01*
X30791Y402877D01*
X30918Y402902D01*
X31045Y402923D01*
X31173Y402940D01*
X31301Y402954D01*
X31429Y402963D01*
X31558Y402969D01*
X31687Y402971D01*
X28575Y401638D02*
X19685Y394081D01*
X19685Y402971D01*
D10*
X38100Y527050D02*
X215900Y527050D01*
X38100Y527050D02*
X38100Y463550D01*
X215900Y463550D02*
X215900Y527050D01*
X215900Y539750D02*
X228600Y539750D01*
X72390Y450850D02*
X25400Y450850D01*
X25400Y539750D01*
X228600Y539750D02*
X228600Y450850D01*
X81280Y463550D02*
X38100Y463550D01*
X106680Y471170D02*
X147320Y471170D01*
X147320Y463550D01*
X215900Y463550D01*
X147320Y463550D02*
X147320Y461010D01*
X106680Y463550D02*
X106680Y471170D01*
X106680Y463550D02*
X106680Y461010D01*
X38100Y539750D02*
X38100Y542290D01*
X50800Y542290D01*
X50800Y539750D01*
X38100Y539750D02*
X25400Y539750D01*
X120650Y542290D02*
X133350Y542290D01*
X120650Y542290D02*
X120650Y539750D01*
X50800Y539750D01*
X133350Y539750D02*
X133350Y542290D01*
X203200Y542290D02*
X215900Y542290D01*
X215900Y539750D01*
X203200Y539750D02*
X203200Y542290D01*
X203200Y539750D02*
X133350Y539750D01*
X106680Y450850D02*
X105410Y450850D01*
X106680Y450850D02*
X147320Y450850D01*
X96520Y461010D02*
X96520Y463550D01*
X106680Y463550D01*
X81280Y463550D02*
X81280Y461010D01*
X81280Y463550D02*
X96520Y463550D01*
X101600Y455930D02*
X105410Y450850D01*
X76200Y455930D02*
X72390Y450850D01*
X76200Y455930D02*
X81280Y455930D01*
D17*
X96520Y461010D02*
X106680Y461010D01*
D10*
X106680Y450850D01*
D17*
X81280Y461010D02*
X35560Y461010D01*
X35560Y529590D01*
X218440Y529590D01*
X218440Y461010D01*
X147320Y461010D01*
D10*
X147320Y450850D01*
X96520Y455930D02*
X96520Y461010D01*
X96520Y455930D02*
X101600Y455930D01*
X81280Y455930D02*
X81280Y461010D01*
X81280Y455930D02*
X96520Y455930D01*
X147320Y450850D02*
X171450Y450850D01*
X171450Y452120D01*
X184150Y452120D01*
X184150Y450850D01*
X228600Y450850D01*
X136525Y464185D02*
X133350Y466725D01*
X133350Y455295D01*
X136525Y455295D02*
X130175Y455295D01*
X125095Y461010D02*
X125092Y461235D01*
X125084Y461460D01*
X125071Y461684D01*
X125052Y461908D01*
X125028Y462132D01*
X124999Y462355D01*
X124964Y462577D01*
X124924Y462798D01*
X124878Y463018D01*
X124828Y463237D01*
X124772Y463455D01*
X124711Y463672D01*
X124645Y463887D01*
X124574Y464100D01*
X124497Y464311D01*
X124416Y464521D01*
X124330Y464729D01*
X124239Y464934D01*
X124143Y465137D01*
X124143Y465138D02*
X124111Y465226D01*
X124075Y465313D01*
X124036Y465399D01*
X123993Y465483D01*
X123947Y465565D01*
X123898Y465645D01*
X123846Y465723D01*
X123790Y465799D01*
X123732Y465873D01*
X123670Y465944D01*
X123606Y466013D01*
X123539Y466079D01*
X123470Y466142D01*
X123398Y466203D01*
X123324Y466261D01*
X123247Y466315D01*
X123169Y466367D01*
X123088Y466415D01*
X123006Y466460D01*
X122921Y466502D01*
X122835Y466540D01*
X122748Y466575D01*
X122660Y466607D01*
X122570Y466634D01*
X122479Y466659D01*
X122387Y466679D01*
X122295Y466696D01*
X122201Y466709D01*
X122108Y466718D01*
X122014Y466724D01*
X121920Y466726D01*
X121826Y466724D01*
X121732Y466718D01*
X121639Y466709D01*
X121545Y466696D01*
X121453Y466679D01*
X121361Y466659D01*
X121270Y466634D01*
X121180Y466607D01*
X121092Y466575D01*
X121005Y466540D01*
X120919Y466502D01*
X120834Y466460D01*
X120752Y466415D01*
X120671Y466367D01*
X120593Y466315D01*
X120516Y466261D01*
X120442Y466203D01*
X120370Y466142D01*
X120301Y466079D01*
X120234Y466013D01*
X120170Y465944D01*
X120108Y465873D01*
X120050Y465799D01*
X119994Y465723D01*
X119942Y465645D01*
X119893Y465565D01*
X119847Y465483D01*
X119804Y465399D01*
X119765Y465313D01*
X119729Y465226D01*
X119697Y465138D01*
X119697Y465137D02*
X119601Y464934D01*
X119510Y464729D01*
X119424Y464521D01*
X119343Y464311D01*
X119266Y464100D01*
X119195Y463887D01*
X119129Y463672D01*
X119068Y463455D01*
X119012Y463237D01*
X118962Y463018D01*
X118916Y462798D01*
X118876Y462577D01*
X118841Y462355D01*
X118812Y462132D01*
X118788Y461908D01*
X118769Y461684D01*
X118756Y461460D01*
X118748Y461235D01*
X118745Y461010D01*
X125095Y461010D02*
X125092Y460785D01*
X125084Y460560D01*
X125071Y460336D01*
X125052Y460112D01*
X125028Y459888D01*
X124999Y459665D01*
X124964Y459443D01*
X124924Y459222D01*
X124878Y459002D01*
X124828Y458783D01*
X124772Y458565D01*
X124711Y458348D01*
X124645Y458133D01*
X124574Y457920D01*
X124497Y457709D01*
X124416Y457499D01*
X124330Y457291D01*
X124239Y457086D01*
X124143Y456883D01*
X124111Y456795D01*
X124075Y456708D01*
X124036Y456622D01*
X123993Y456538D01*
X123947Y456456D01*
X123898Y456376D01*
X123846Y456298D01*
X123790Y456222D01*
X123732Y456148D01*
X123670Y456077D01*
X123606Y456008D01*
X123539Y455942D01*
X123470Y455879D01*
X123398Y455818D01*
X123324Y455760D01*
X123247Y455706D01*
X123169Y455654D01*
X123088Y455606D01*
X123006Y455561D01*
X122921Y455519D01*
X122835Y455481D01*
X122748Y455446D01*
X122660Y455414D01*
X122570Y455387D01*
X122479Y455362D01*
X122387Y455342D01*
X122295Y455325D01*
X122201Y455312D01*
X122108Y455303D01*
X122014Y455297D01*
X121920Y455295D01*
X119697Y456883D02*
X119601Y457086D01*
X119510Y457291D01*
X119424Y457499D01*
X119343Y457709D01*
X119266Y457920D01*
X119195Y458133D01*
X119129Y458348D01*
X119068Y458565D01*
X119012Y458783D01*
X118962Y459002D01*
X118916Y459222D01*
X118876Y459443D01*
X118841Y459665D01*
X118812Y459888D01*
X118788Y460112D01*
X118769Y460336D01*
X118756Y460560D01*
X118748Y460785D01*
X118745Y461010D01*
X119697Y456883D02*
X119729Y456795D01*
X119765Y456708D01*
X119804Y456622D01*
X119847Y456538D01*
X119893Y456456D01*
X119942Y456376D01*
X119994Y456298D01*
X120050Y456222D01*
X120108Y456148D01*
X120170Y456077D01*
X120234Y456008D01*
X120301Y455942D01*
X120370Y455879D01*
X120442Y455818D01*
X120516Y455760D01*
X120593Y455706D01*
X120671Y455654D01*
X120752Y455606D01*
X120834Y455561D01*
X120919Y455519D01*
X121005Y455481D01*
X121092Y455446D01*
X121180Y455414D01*
X121270Y455387D01*
X121361Y455362D01*
X121453Y455342D01*
X121545Y455325D01*
X121639Y455312D01*
X121732Y455303D01*
X121826Y455297D01*
X121920Y455295D01*
X124460Y457835D02*
X119380Y464185D01*
X199390Y488315D02*
X202565Y485775D01*
X199390Y488315D02*
X199390Y476885D01*
X202565Y476885D02*
X196215Y476885D01*
X196215Y510858D02*
X196217Y510962D01*
X196223Y511067D01*
X196232Y511171D01*
X196245Y511274D01*
X196263Y511377D01*
X196283Y511479D01*
X196308Y511581D01*
X196336Y511681D01*
X196368Y511781D01*
X196404Y511879D01*
X196443Y511976D01*
X196485Y512071D01*
X196531Y512165D01*
X196581Y512257D01*
X196633Y512347D01*
X196689Y512435D01*
X196749Y512521D01*
X196811Y512605D01*
X196876Y512686D01*
X196944Y512765D01*
X197016Y512842D01*
X197089Y512915D01*
X197166Y512987D01*
X197245Y513055D01*
X197326Y513120D01*
X197410Y513182D01*
X197496Y513242D01*
X197584Y513298D01*
X197674Y513350D01*
X197766Y513400D01*
X197860Y513446D01*
X197955Y513488D01*
X198052Y513527D01*
X198150Y513563D01*
X198250Y513595D01*
X198350Y513623D01*
X198452Y513648D01*
X198554Y513668D01*
X198657Y513686D01*
X198760Y513699D01*
X198864Y513708D01*
X198969Y513714D01*
X199073Y513716D01*
X199073Y513715D02*
X199191Y513713D01*
X199310Y513707D01*
X199428Y513698D01*
X199545Y513685D01*
X199662Y513667D01*
X199779Y513647D01*
X199895Y513622D01*
X200010Y513594D01*
X200123Y513561D01*
X200236Y513526D01*
X200348Y513486D01*
X200458Y513444D01*
X200567Y513397D01*
X200675Y513347D01*
X200780Y513294D01*
X200884Y513237D01*
X200986Y513177D01*
X201086Y513114D01*
X201184Y513047D01*
X201280Y512978D01*
X201373Y512905D01*
X201464Y512829D01*
X201553Y512751D01*
X201639Y512669D01*
X201722Y512585D01*
X201803Y512499D01*
X201880Y512409D01*
X201955Y512318D01*
X202027Y512224D01*
X202096Y512127D01*
X202161Y512029D01*
X202224Y511928D01*
X202283Y511825D01*
X202339Y511721D01*
X202391Y511615D01*
X202440Y511507D01*
X202485Y511398D01*
X202527Y511287D01*
X202565Y511175D01*
X197167Y508636D02*
X197091Y508711D01*
X197016Y508790D01*
X196945Y508871D01*
X196876Y508955D01*
X196811Y509041D01*
X196749Y509129D01*
X196689Y509219D01*
X196633Y509311D01*
X196580Y509406D01*
X196531Y509502D01*
X196485Y509600D01*
X196442Y509699D01*
X196403Y509800D01*
X196368Y509902D01*
X196336Y510005D01*
X196308Y510109D01*
X196283Y510214D01*
X196262Y510321D01*
X196245Y510427D01*
X196232Y510534D01*
X196223Y510642D01*
X196217Y510750D01*
X196215Y510858D01*
X197168Y508635D02*
X202565Y502285D01*
X196215Y502285D01*
X230900Y987100D02*
X260900Y987100D01*
X230900Y987100D02*
X200900Y987100D01*
X170900Y987100D01*
X260900Y987100D02*
X260900Y882100D01*
X213900Y882100D01*
X170900Y882100D01*
X170900Y987100D01*
X184277Y927100D02*
X184287Y927876D01*
X184315Y928652D01*
X184363Y929426D01*
X184429Y930200D01*
X184515Y930971D01*
X184619Y931740D01*
X184743Y932506D01*
X184885Y933269D01*
X185045Y934029D01*
X185225Y934784D01*
X185423Y935534D01*
X185639Y936280D01*
X185873Y937020D01*
X186126Y937753D01*
X186396Y938481D01*
X186684Y939202D01*
X186990Y939915D01*
X187313Y940621D01*
X187654Y941318D01*
X188011Y942007D01*
X188385Y942687D01*
X188776Y943357D01*
X189183Y944018D01*
X189606Y944669D01*
X190046Y945309D01*
X190500Y945938D01*
X190970Y946555D01*
X191455Y947161D01*
X191955Y947755D01*
X192469Y948337D01*
X192997Y948905D01*
X193539Y949461D01*
X194095Y950003D01*
X194663Y950531D01*
X195245Y951045D01*
X195839Y951545D01*
X196445Y952030D01*
X197062Y952500D01*
X197691Y952954D01*
X198331Y953394D01*
X198982Y953817D01*
X199643Y954224D01*
X200313Y954615D01*
X200993Y954989D01*
X201682Y955346D01*
X202379Y955687D01*
X203085Y956010D01*
X203798Y956316D01*
X204519Y956604D01*
X205247Y956874D01*
X205980Y957127D01*
X206720Y957361D01*
X207466Y957577D01*
X208216Y957775D01*
X208971Y957955D01*
X209731Y958115D01*
X210494Y958257D01*
X211260Y958381D01*
X212029Y958485D01*
X212800Y958571D01*
X213574Y958637D01*
X214348Y958685D01*
X215124Y958713D01*
X215900Y958723D01*
X216676Y958713D01*
X217452Y958685D01*
X218226Y958637D01*
X219000Y958571D01*
X219771Y958485D01*
X220540Y958381D01*
X221306Y958257D01*
X222069Y958115D01*
X222829Y957955D01*
X223584Y957775D01*
X224334Y957577D01*
X225080Y957361D01*
X225820Y957127D01*
X226553Y956874D01*
X227281Y956604D01*
X228002Y956316D01*
X228715Y956010D01*
X229421Y955687D01*
X230118Y955346D01*
X230807Y954989D01*
X231487Y954615D01*
X232157Y954224D01*
X232818Y953817D01*
X233469Y953394D01*
X234109Y952954D01*
X234738Y952500D01*
X235355Y952030D01*
X235961Y951545D01*
X236555Y951045D01*
X237137Y950531D01*
X237705Y950003D01*
X238261Y949461D01*
X238803Y948905D01*
X239331Y948337D01*
X239845Y947755D01*
X240345Y947161D01*
X240830Y946555D01*
X241300Y945938D01*
X241754Y945309D01*
X242194Y944669D01*
X242617Y944018D01*
X243024Y943357D01*
X243415Y942687D01*
X243789Y942007D01*
X244146Y941318D01*
X244487Y940621D01*
X244810Y939915D01*
X245116Y939202D01*
X245404Y938481D01*
X245674Y937753D01*
X245927Y937020D01*
X246161Y936280D01*
X246377Y935534D01*
X246575Y934784D01*
X246755Y934029D01*
X246915Y933269D01*
X247057Y932506D01*
X247181Y931740D01*
X247285Y930971D01*
X247371Y930200D01*
X247437Y929426D01*
X247485Y928652D01*
X247513Y927876D01*
X247523Y927100D01*
X247513Y926324D01*
X247485Y925548D01*
X247437Y924774D01*
X247371Y924000D01*
X247285Y923229D01*
X247181Y922460D01*
X247057Y921694D01*
X246915Y920931D01*
X246755Y920171D01*
X246575Y919416D01*
X246377Y918666D01*
X246161Y917920D01*
X245927Y917180D01*
X245674Y916447D01*
X245404Y915719D01*
X245116Y914998D01*
X244810Y914285D01*
X244487Y913579D01*
X244146Y912882D01*
X243789Y912193D01*
X243415Y911513D01*
X243024Y910843D01*
X242617Y910182D01*
X242194Y909531D01*
X241754Y908891D01*
X241300Y908262D01*
X240830Y907645D01*
X240345Y907039D01*
X239845Y906445D01*
X239331Y905863D01*
X238803Y905295D01*
X238261Y904739D01*
X237705Y904197D01*
X237137Y903669D01*
X236555Y903155D01*
X235961Y902655D01*
X235355Y902170D01*
X234738Y901700D01*
X234109Y901246D01*
X233469Y900806D01*
X232818Y900383D01*
X232157Y899976D01*
X231487Y899585D01*
X230807Y899211D01*
X230118Y898854D01*
X229421Y898513D01*
X228715Y898190D01*
X228002Y897884D01*
X227281Y897596D01*
X226553Y897326D01*
X225820Y897073D01*
X225080Y896839D01*
X224334Y896623D01*
X223584Y896425D01*
X222829Y896245D01*
X222069Y896085D01*
X221306Y895943D01*
X220540Y895819D01*
X219771Y895715D01*
X219000Y895629D01*
X218226Y895563D01*
X217452Y895515D01*
X216676Y895487D01*
X215900Y895477D01*
X215124Y895487D01*
X214348Y895515D01*
X213574Y895563D01*
X212800Y895629D01*
X212029Y895715D01*
X211260Y895819D01*
X210494Y895943D01*
X209731Y896085D01*
X208971Y896245D01*
X208216Y896425D01*
X207466Y896623D01*
X206720Y896839D01*
X205980Y897073D01*
X205247Y897326D01*
X204519Y897596D01*
X203798Y897884D01*
X203085Y898190D01*
X202379Y898513D01*
X201682Y898854D01*
X200993Y899211D01*
X200313Y899585D01*
X199643Y899976D01*
X198982Y900383D01*
X198331Y900806D01*
X197691Y901246D01*
X197062Y901700D01*
X196445Y902170D01*
X195839Y902655D01*
X195245Y903155D01*
X194663Y903669D01*
X194095Y904197D01*
X193539Y904739D01*
X192997Y905295D01*
X192469Y905863D01*
X191955Y906445D01*
X191455Y907039D01*
X190970Y907645D01*
X190500Y908262D01*
X190046Y908891D01*
X189606Y909531D01*
X189183Y910182D01*
X188776Y910843D01*
X188385Y911513D01*
X188011Y912193D01*
X187654Y912882D01*
X187313Y913579D01*
X186990Y914285D01*
X186684Y914998D01*
X186396Y915719D01*
X186126Y916447D01*
X185873Y917180D01*
X185639Y917920D01*
X185423Y918666D01*
X185225Y919416D01*
X185045Y920171D01*
X184885Y920931D01*
X184743Y921694D01*
X184619Y922460D01*
X184515Y923229D01*
X184429Y924000D01*
X184363Y924774D01*
X184315Y925548D01*
X184287Y926324D01*
X184277Y927100D01*
X230900Y967100D02*
X230900Y987100D01*
X230900Y967100D02*
X200900Y967100D01*
X200900Y987100D01*
X188993Y927100D02*
X189001Y927760D01*
X189025Y928420D01*
X189066Y929079D01*
X189123Y929737D01*
X189195Y930394D01*
X189284Y931048D01*
X189389Y931700D01*
X189510Y932349D01*
X189647Y932995D01*
X189799Y933638D01*
X189968Y934276D01*
X190152Y934911D01*
X190351Y935540D01*
X190566Y936165D01*
X190796Y936784D01*
X191041Y937397D01*
X191301Y938004D01*
X191576Y938604D01*
X191866Y939198D01*
X192170Y939784D01*
X192489Y940362D01*
X192821Y940933D01*
X193168Y941495D01*
X193528Y942049D01*
X193901Y942593D01*
X194288Y943128D01*
X194688Y943654D01*
X195101Y944170D01*
X195526Y944675D01*
X195963Y945170D01*
X196413Y945653D01*
X196874Y946126D01*
X197347Y946587D01*
X197830Y947037D01*
X198325Y947474D01*
X198830Y947899D01*
X199346Y948312D01*
X199872Y948712D01*
X200407Y949099D01*
X200951Y949472D01*
X201505Y949832D01*
X202067Y950179D01*
X202638Y950511D01*
X203216Y950830D01*
X203802Y951134D01*
X204396Y951424D01*
X204996Y951699D01*
X205603Y951959D01*
X206216Y952204D01*
X206835Y952434D01*
X207460Y952649D01*
X208089Y952848D01*
X208724Y953032D01*
X209362Y953201D01*
X210005Y953353D01*
X210651Y953490D01*
X211300Y953611D01*
X211952Y953716D01*
X212606Y953805D01*
X213263Y953877D01*
X213921Y953934D01*
X214580Y953975D01*
X215240Y953999D01*
X215900Y954007D01*
X216560Y953999D01*
X217220Y953975D01*
X217879Y953934D01*
X218537Y953877D01*
X219194Y953805D01*
X219848Y953716D01*
X220500Y953611D01*
X221149Y953490D01*
X221795Y953353D01*
X222438Y953201D01*
X223076Y953032D01*
X223711Y952848D01*
X224340Y952649D01*
X224965Y952434D01*
X225584Y952204D01*
X226197Y951959D01*
X226804Y951699D01*
X227404Y951424D01*
X227998Y951134D01*
X228584Y950830D01*
X229162Y950511D01*
X229733Y950179D01*
X230295Y949832D01*
X230849Y949472D01*
X231393Y949099D01*
X231928Y948712D01*
X232454Y948312D01*
X232970Y947899D01*
X233475Y947474D01*
X233970Y947037D01*
X234453Y946587D01*
X234926Y946126D01*
X235387Y945653D01*
X235837Y945170D01*
X236274Y944675D01*
X236699Y944170D01*
X237112Y943654D01*
X237512Y943128D01*
X237899Y942593D01*
X238272Y942049D01*
X238632Y941495D01*
X238979Y940933D01*
X239311Y940362D01*
X239630Y939784D01*
X239934Y939198D01*
X240224Y938604D01*
X240499Y938004D01*
X240759Y937397D01*
X241004Y936784D01*
X241234Y936165D01*
X241449Y935540D01*
X241648Y934911D01*
X241832Y934276D01*
X242001Y933638D01*
X242153Y932995D01*
X242290Y932349D01*
X242411Y931700D01*
X242516Y931048D01*
X242605Y930394D01*
X242677Y929737D01*
X242734Y929079D01*
X242775Y928420D01*
X242799Y927760D01*
X242807Y927100D01*
X242799Y926440D01*
X242775Y925780D01*
X242734Y925121D01*
X242677Y924463D01*
X242605Y923806D01*
X242516Y923152D01*
X242411Y922500D01*
X242290Y921851D01*
X242153Y921205D01*
X242001Y920562D01*
X241832Y919924D01*
X241648Y919289D01*
X241449Y918660D01*
X241234Y918035D01*
X241004Y917416D01*
X240759Y916803D01*
X240499Y916196D01*
X240224Y915596D01*
X239934Y915002D01*
X239630Y914416D01*
X239311Y913838D01*
X238979Y913267D01*
X238632Y912705D01*
X238272Y912151D01*
X237899Y911607D01*
X237512Y911072D01*
X237112Y910546D01*
X236699Y910030D01*
X236274Y909525D01*
X235837Y909030D01*
X235387Y908547D01*
X234926Y908074D01*
X234453Y907613D01*
X233970Y907163D01*
X233475Y906726D01*
X232970Y906301D01*
X232454Y905888D01*
X231928Y905488D01*
X231393Y905101D01*
X230849Y904728D01*
X230295Y904368D01*
X229733Y904021D01*
X229162Y903689D01*
X228584Y903370D01*
X227998Y903066D01*
X227404Y902776D01*
X226804Y902501D01*
X226197Y902241D01*
X225584Y901996D01*
X224965Y901766D01*
X224340Y901551D01*
X223711Y901352D01*
X223076Y901168D01*
X222438Y900999D01*
X221795Y900847D01*
X221149Y900710D01*
X220500Y900589D01*
X219848Y900484D01*
X219194Y900395D01*
X218537Y900323D01*
X217879Y900266D01*
X217220Y900225D01*
X216560Y900201D01*
X215900Y900193D01*
X215240Y900201D01*
X214580Y900225D01*
X213921Y900266D01*
X213263Y900323D01*
X212606Y900395D01*
X211952Y900484D01*
X211300Y900589D01*
X210651Y900710D01*
X210005Y900847D01*
X209362Y900999D01*
X208724Y901168D01*
X208089Y901352D01*
X207460Y901551D01*
X206835Y901766D01*
X206216Y901996D01*
X205603Y902241D01*
X204996Y902501D01*
X204396Y902776D01*
X203802Y903066D01*
X203216Y903370D01*
X202638Y903689D01*
X202067Y904021D01*
X201505Y904368D01*
X200951Y904728D01*
X200407Y905101D01*
X199872Y905488D01*
X199346Y905888D01*
X198830Y906301D01*
X198325Y906726D01*
X197830Y907163D01*
X197347Y907613D01*
X196874Y908074D01*
X196413Y908547D01*
X195963Y909030D01*
X195526Y909525D01*
X195101Y910030D01*
X194688Y910546D01*
X194288Y911072D01*
X193901Y911607D01*
X193528Y912151D01*
X193168Y912705D01*
X192821Y913267D01*
X192489Y913838D01*
X192170Y914416D01*
X191866Y915002D01*
X191576Y915596D01*
X191301Y916196D01*
X191041Y916803D01*
X190796Y917416D01*
X190566Y918035D01*
X190351Y918660D01*
X190152Y919289D01*
X189968Y919924D01*
X189799Y920562D01*
X189647Y921205D01*
X189510Y921851D01*
X189389Y922500D01*
X189284Y923152D01*
X189195Y923806D01*
X189123Y924463D01*
X189066Y925121D01*
X189025Y925780D01*
X189001Y926440D01*
X188993Y927100D01*
X217900Y881100D02*
X217900Y860100D01*
X213900Y860100D01*
X213900Y882100D01*
D18*
X267152Y882904D02*
X272344Y882904D01*
X272457Y882906D01*
X272570Y882912D01*
X272683Y882922D01*
X272796Y882936D01*
X272908Y882953D01*
X273019Y882975D01*
X273129Y883000D01*
X273239Y883030D01*
X273347Y883063D01*
X273454Y883100D01*
X273560Y883140D01*
X273664Y883185D01*
X273767Y883233D01*
X273868Y883284D01*
X273967Y883339D01*
X274064Y883397D01*
X274159Y883459D01*
X274252Y883524D01*
X274342Y883592D01*
X274430Y883663D01*
X274516Y883738D01*
X274599Y883815D01*
X274679Y883895D01*
X274756Y883978D01*
X274831Y884064D01*
X274902Y884152D01*
X274970Y884242D01*
X275035Y884335D01*
X275097Y884430D01*
X275155Y884527D01*
X275210Y884626D01*
X275261Y884727D01*
X275309Y884830D01*
X275354Y884934D01*
X275394Y885040D01*
X275431Y885147D01*
X275464Y885255D01*
X275494Y885365D01*
X275519Y885475D01*
X275541Y885586D01*
X275558Y885698D01*
X275572Y885811D01*
X275582Y885924D01*
X275588Y886037D01*
X275590Y886150D01*
X275588Y886263D01*
X275582Y886376D01*
X275572Y886489D01*
X275558Y886602D01*
X275541Y886714D01*
X275519Y886825D01*
X275494Y886935D01*
X275464Y887045D01*
X275431Y887153D01*
X275394Y887260D01*
X275354Y887366D01*
X275309Y887470D01*
X275261Y887573D01*
X275210Y887674D01*
X275155Y887773D01*
X275097Y887870D01*
X275035Y887965D01*
X274970Y888058D01*
X274902Y888148D01*
X274831Y888236D01*
X274756Y888322D01*
X274679Y888405D01*
X274599Y888485D01*
X274516Y888562D01*
X274430Y888637D01*
X274342Y888708D01*
X274252Y888776D01*
X274159Y888841D01*
X274064Y888903D01*
X273967Y888961D01*
X273868Y889016D01*
X273767Y889067D01*
X273664Y889115D01*
X273560Y889160D01*
X273454Y889200D01*
X273347Y889237D01*
X273239Y889270D01*
X273129Y889300D01*
X273019Y889325D01*
X272908Y889347D01*
X272796Y889364D01*
X272683Y889378D01*
X272570Y889388D01*
X272457Y889394D01*
X272344Y889396D01*
X272344Y889395D02*
X267152Y889395D01*
X267152Y889396D02*
X267039Y889394D01*
X266926Y889388D01*
X266813Y889378D01*
X266700Y889364D01*
X266588Y889347D01*
X266477Y889325D01*
X266367Y889300D01*
X266257Y889270D01*
X266149Y889237D01*
X266042Y889200D01*
X265936Y889160D01*
X265832Y889115D01*
X265729Y889067D01*
X265628Y889016D01*
X265529Y888961D01*
X265432Y888903D01*
X265337Y888841D01*
X265244Y888776D01*
X265154Y888708D01*
X265066Y888637D01*
X264980Y888562D01*
X264897Y888485D01*
X264817Y888405D01*
X264740Y888322D01*
X264665Y888236D01*
X264594Y888148D01*
X264526Y888058D01*
X264461Y887965D01*
X264399Y887870D01*
X264341Y887773D01*
X264286Y887674D01*
X264235Y887573D01*
X264187Y887470D01*
X264142Y887366D01*
X264102Y887260D01*
X264065Y887153D01*
X264032Y887045D01*
X264002Y886935D01*
X263977Y886825D01*
X263955Y886714D01*
X263938Y886602D01*
X263924Y886489D01*
X263914Y886376D01*
X263908Y886263D01*
X263906Y886150D01*
X263908Y886037D01*
X263914Y885924D01*
X263924Y885811D01*
X263938Y885698D01*
X263955Y885586D01*
X263977Y885475D01*
X264002Y885365D01*
X264032Y885255D01*
X264065Y885147D01*
X264102Y885040D01*
X264142Y884934D01*
X264187Y884830D01*
X264235Y884727D01*
X264286Y884626D01*
X264341Y884527D01*
X264399Y884430D01*
X264461Y884335D01*
X264526Y884242D01*
X264594Y884152D01*
X264665Y884064D01*
X264740Y883978D01*
X264817Y883895D01*
X264897Y883815D01*
X264980Y883738D01*
X265066Y883663D01*
X265154Y883592D01*
X265244Y883524D01*
X265337Y883459D01*
X265432Y883397D01*
X265529Y883339D01*
X265628Y883284D01*
X265729Y883233D01*
X265832Y883185D01*
X265936Y883140D01*
X266042Y883100D01*
X266149Y883063D01*
X266257Y883030D01*
X266367Y883000D01*
X266477Y882975D01*
X266588Y882953D01*
X266700Y882936D01*
X266813Y882922D01*
X266926Y882912D01*
X267039Y882906D01*
X267152Y882904D01*
X267152Y894715D02*
X275590Y894715D01*
X267152Y894715D02*
X267039Y894717D01*
X266926Y894723D01*
X266813Y894733D01*
X266700Y894747D01*
X266588Y894764D01*
X266477Y894786D01*
X266367Y894811D01*
X266257Y894841D01*
X266149Y894874D01*
X266042Y894911D01*
X265936Y894951D01*
X265832Y894996D01*
X265729Y895044D01*
X265628Y895095D01*
X265529Y895150D01*
X265432Y895208D01*
X265337Y895270D01*
X265244Y895335D01*
X265154Y895403D01*
X265066Y895474D01*
X264980Y895549D01*
X264897Y895626D01*
X264817Y895706D01*
X264740Y895789D01*
X264665Y895875D01*
X264594Y895963D01*
X264526Y896053D01*
X264461Y896146D01*
X264399Y896241D01*
X264341Y896338D01*
X264286Y896437D01*
X264235Y896538D01*
X264187Y896641D01*
X264142Y896745D01*
X264102Y896851D01*
X264065Y896958D01*
X264032Y897066D01*
X264002Y897176D01*
X263977Y897286D01*
X263955Y897397D01*
X263938Y897509D01*
X263924Y897622D01*
X263914Y897735D01*
X263908Y897848D01*
X263906Y897961D01*
X263908Y898074D01*
X263914Y898187D01*
X263924Y898300D01*
X263938Y898413D01*
X263955Y898525D01*
X263977Y898636D01*
X264002Y898746D01*
X264032Y898856D01*
X264065Y898964D01*
X264102Y899071D01*
X264142Y899177D01*
X264187Y899281D01*
X264235Y899384D01*
X264286Y899485D01*
X264341Y899584D01*
X264399Y899681D01*
X264461Y899776D01*
X264526Y899869D01*
X264594Y899959D01*
X264665Y900047D01*
X264740Y900133D01*
X264817Y900216D01*
X264897Y900296D01*
X264980Y900373D01*
X265066Y900448D01*
X265154Y900519D01*
X265244Y900587D01*
X265337Y900652D01*
X265432Y900714D01*
X265529Y900772D01*
X265628Y900827D01*
X265729Y900878D01*
X265832Y900926D01*
X265936Y900971D01*
X266042Y901011D01*
X266149Y901048D01*
X266257Y901081D01*
X266367Y901111D01*
X266477Y901136D01*
X266588Y901158D01*
X266700Y901175D01*
X266813Y901189D01*
X266926Y901199D01*
X267039Y901205D01*
X267152Y901207D01*
X267152Y901206D02*
X275590Y901206D01*
X275590Y909009D02*
X263906Y909009D01*
X275590Y905764D02*
X275590Y912255D01*
X272994Y916432D02*
X275590Y919677D01*
X263906Y919677D01*
X263906Y916432D02*
X263906Y922923D01*
D10*
X260900Y148900D02*
X230900Y148900D01*
X200900Y148900D01*
X170900Y148900D01*
X260900Y148900D02*
X260900Y43900D01*
X213900Y43900D01*
X170900Y43900D01*
X170900Y148900D01*
X184277Y88900D02*
X184287Y89676D01*
X184315Y90452D01*
X184363Y91226D01*
X184429Y92000D01*
X184515Y92771D01*
X184619Y93540D01*
X184743Y94306D01*
X184885Y95069D01*
X185045Y95829D01*
X185225Y96584D01*
X185423Y97334D01*
X185639Y98080D01*
X185873Y98820D01*
X186126Y99553D01*
X186396Y100281D01*
X186684Y101002D01*
X186990Y101715D01*
X187313Y102421D01*
X187654Y103118D01*
X188011Y103807D01*
X188385Y104487D01*
X188776Y105157D01*
X189183Y105818D01*
X189606Y106469D01*
X190046Y107109D01*
X190500Y107738D01*
X190970Y108355D01*
X191455Y108961D01*
X191955Y109555D01*
X192469Y110137D01*
X192997Y110705D01*
X193539Y111261D01*
X194095Y111803D01*
X194663Y112331D01*
X195245Y112845D01*
X195839Y113345D01*
X196445Y113830D01*
X197062Y114300D01*
X197691Y114754D01*
X198331Y115194D01*
X198982Y115617D01*
X199643Y116024D01*
X200313Y116415D01*
X200993Y116789D01*
X201682Y117146D01*
X202379Y117487D01*
X203085Y117810D01*
X203798Y118116D01*
X204519Y118404D01*
X205247Y118674D01*
X205980Y118927D01*
X206720Y119161D01*
X207466Y119377D01*
X208216Y119575D01*
X208971Y119755D01*
X209731Y119915D01*
X210494Y120057D01*
X211260Y120181D01*
X212029Y120285D01*
X212800Y120371D01*
X213574Y120437D01*
X214348Y120485D01*
X215124Y120513D01*
X215900Y120523D01*
X216676Y120513D01*
X217452Y120485D01*
X218226Y120437D01*
X219000Y120371D01*
X219771Y120285D01*
X220540Y120181D01*
X221306Y120057D01*
X222069Y119915D01*
X222829Y119755D01*
X223584Y119575D01*
X224334Y119377D01*
X225080Y119161D01*
X225820Y118927D01*
X226553Y118674D01*
X227281Y118404D01*
X228002Y118116D01*
X228715Y117810D01*
X229421Y117487D01*
X230118Y117146D01*
X230807Y116789D01*
X231487Y116415D01*
X232157Y116024D01*
X232818Y115617D01*
X233469Y115194D01*
X234109Y114754D01*
X234738Y114300D01*
X235355Y113830D01*
X235961Y113345D01*
X236555Y112845D01*
X237137Y112331D01*
X237705Y111803D01*
X238261Y111261D01*
X238803Y110705D01*
X239331Y110137D01*
X239845Y109555D01*
X240345Y108961D01*
X240830Y108355D01*
X241300Y107738D01*
X241754Y107109D01*
X242194Y106469D01*
X242617Y105818D01*
X243024Y105157D01*
X243415Y104487D01*
X243789Y103807D01*
X244146Y103118D01*
X244487Y102421D01*
X244810Y101715D01*
X245116Y101002D01*
X245404Y100281D01*
X245674Y99553D01*
X245927Y98820D01*
X246161Y98080D01*
X246377Y97334D01*
X246575Y96584D01*
X246755Y95829D01*
X246915Y95069D01*
X247057Y94306D01*
X247181Y93540D01*
X247285Y92771D01*
X247371Y92000D01*
X247437Y91226D01*
X247485Y90452D01*
X247513Y89676D01*
X247523Y88900D01*
X247513Y88124D01*
X247485Y87348D01*
X247437Y86574D01*
X247371Y85800D01*
X247285Y85029D01*
X247181Y84260D01*
X247057Y83494D01*
X246915Y82731D01*
X246755Y81971D01*
X246575Y81216D01*
X246377Y80466D01*
X246161Y79720D01*
X245927Y78980D01*
X245674Y78247D01*
X245404Y77519D01*
X245116Y76798D01*
X244810Y76085D01*
X244487Y75379D01*
X244146Y74682D01*
X243789Y73993D01*
X243415Y73313D01*
X243024Y72643D01*
X242617Y71982D01*
X242194Y71331D01*
X241754Y70691D01*
X241300Y70062D01*
X240830Y69445D01*
X240345Y68839D01*
X239845Y68245D01*
X239331Y67663D01*
X238803Y67095D01*
X238261Y66539D01*
X237705Y65997D01*
X237137Y65469D01*
X236555Y64955D01*
X235961Y64455D01*
X235355Y63970D01*
X234738Y63500D01*
X234109Y63046D01*
X233469Y62606D01*
X232818Y62183D01*
X232157Y61776D01*
X231487Y61385D01*
X230807Y61011D01*
X230118Y60654D01*
X229421Y60313D01*
X228715Y59990D01*
X228002Y59684D01*
X227281Y59396D01*
X226553Y59126D01*
X225820Y58873D01*
X225080Y58639D01*
X224334Y58423D01*
X223584Y58225D01*
X222829Y58045D01*
X222069Y57885D01*
X221306Y57743D01*
X220540Y57619D01*
X219771Y57515D01*
X219000Y57429D01*
X218226Y57363D01*
X217452Y57315D01*
X216676Y57287D01*
X215900Y57277D01*
X215124Y57287D01*
X214348Y57315D01*
X213574Y57363D01*
X212800Y57429D01*
X212029Y57515D01*
X211260Y57619D01*
X210494Y57743D01*
X209731Y57885D01*
X208971Y58045D01*
X208216Y58225D01*
X207466Y58423D01*
X206720Y58639D01*
X205980Y58873D01*
X205247Y59126D01*
X204519Y59396D01*
X203798Y59684D01*
X203085Y59990D01*
X202379Y60313D01*
X201682Y60654D01*
X200993Y61011D01*
X200313Y61385D01*
X199643Y61776D01*
X198982Y62183D01*
X198331Y62606D01*
X197691Y63046D01*
X197062Y63500D01*
X196445Y63970D01*
X195839Y64455D01*
X195245Y64955D01*
X194663Y65469D01*
X194095Y65997D01*
X193539Y66539D01*
X192997Y67095D01*
X192469Y67663D01*
X191955Y68245D01*
X191455Y68839D01*
X190970Y69445D01*
X190500Y70062D01*
X190046Y70691D01*
X189606Y71331D01*
X189183Y71982D01*
X188776Y72643D01*
X188385Y73313D01*
X188011Y73993D01*
X187654Y74682D01*
X187313Y75379D01*
X186990Y76085D01*
X186684Y76798D01*
X186396Y77519D01*
X186126Y78247D01*
X185873Y78980D01*
X185639Y79720D01*
X185423Y80466D01*
X185225Y81216D01*
X185045Y81971D01*
X184885Y82731D01*
X184743Y83494D01*
X184619Y84260D01*
X184515Y85029D01*
X184429Y85800D01*
X184363Y86574D01*
X184315Y87348D01*
X184287Y88124D01*
X184277Y88900D01*
X230900Y128900D02*
X230900Y148900D01*
X230900Y128900D02*
X200900Y128900D01*
X200900Y148900D01*
X188993Y88900D02*
X189001Y89560D01*
X189025Y90220D01*
X189066Y90879D01*
X189123Y91537D01*
X189195Y92194D01*
X189284Y92848D01*
X189389Y93500D01*
X189510Y94149D01*
X189647Y94795D01*
X189799Y95438D01*
X189968Y96076D01*
X190152Y96711D01*
X190351Y97340D01*
X190566Y97965D01*
X190796Y98584D01*
X191041Y99197D01*
X191301Y99804D01*
X191576Y100404D01*
X191866Y100998D01*
X192170Y101584D01*
X192489Y102162D01*
X192821Y102733D01*
X193168Y103295D01*
X193528Y103849D01*
X193901Y104393D01*
X194288Y104928D01*
X194688Y105454D01*
X195101Y105970D01*
X195526Y106475D01*
X195963Y106970D01*
X196413Y107453D01*
X196874Y107926D01*
X197347Y108387D01*
X197830Y108837D01*
X198325Y109274D01*
X198830Y109699D01*
X199346Y110112D01*
X199872Y110512D01*
X200407Y110899D01*
X200951Y111272D01*
X201505Y111632D01*
X202067Y111979D01*
X202638Y112311D01*
X203216Y112630D01*
X203802Y112934D01*
X204396Y113224D01*
X204996Y113499D01*
X205603Y113759D01*
X206216Y114004D01*
X206835Y114234D01*
X207460Y114449D01*
X208089Y114648D01*
X208724Y114832D01*
X209362Y115001D01*
X210005Y115153D01*
X210651Y115290D01*
X211300Y115411D01*
X211952Y115516D01*
X212606Y115605D01*
X213263Y115677D01*
X213921Y115734D01*
X214580Y115775D01*
X215240Y115799D01*
X215900Y115807D01*
X216560Y115799D01*
X217220Y115775D01*
X217879Y115734D01*
X218537Y115677D01*
X219194Y115605D01*
X219848Y115516D01*
X220500Y115411D01*
X221149Y115290D01*
X221795Y115153D01*
X222438Y115001D01*
X223076Y114832D01*
X223711Y114648D01*
X224340Y114449D01*
X224965Y114234D01*
X225584Y114004D01*
X226197Y113759D01*
X226804Y113499D01*
X227404Y113224D01*
X227998Y112934D01*
X228584Y112630D01*
X229162Y112311D01*
X229733Y111979D01*
X230295Y111632D01*
X230849Y111272D01*
X231393Y110899D01*
X231928Y110512D01*
X232454Y110112D01*
X232970Y109699D01*
X233475Y109274D01*
X233970Y108837D01*
X234453Y108387D01*
X234926Y107926D01*
X235387Y107453D01*
X235837Y106970D01*
X236274Y106475D01*
X236699Y105970D01*
X237112Y105454D01*
X237512Y104928D01*
X237899Y104393D01*
X238272Y103849D01*
X238632Y103295D01*
X238979Y102733D01*
X239311Y102162D01*
X239630Y101584D01*
X239934Y100998D01*
X240224Y100404D01*
X240499Y99804D01*
X240759Y99197D01*
X241004Y98584D01*
X241234Y97965D01*
X241449Y97340D01*
X241648Y96711D01*
X241832Y96076D01*
X242001Y95438D01*
X242153Y94795D01*
X242290Y94149D01*
X242411Y93500D01*
X242516Y92848D01*
X242605Y92194D01*
X242677Y91537D01*
X242734Y90879D01*
X242775Y90220D01*
X242799Y89560D01*
X242807Y88900D01*
X242799Y88240D01*
X242775Y87580D01*
X242734Y86921D01*
X242677Y86263D01*
X242605Y85606D01*
X242516Y84952D01*
X242411Y84300D01*
X242290Y83651D01*
X242153Y83005D01*
X242001Y82362D01*
X241832Y81724D01*
X241648Y81089D01*
X241449Y80460D01*
X241234Y79835D01*
X241004Y79216D01*
X240759Y78603D01*
X240499Y77996D01*
X240224Y77396D01*
X239934Y76802D01*
X239630Y76216D01*
X239311Y75638D01*
X238979Y75067D01*
X238632Y74505D01*
X238272Y73951D01*
X237899Y73407D01*
X237512Y72872D01*
X237112Y72346D01*
X236699Y71830D01*
X236274Y71325D01*
X235837Y70830D01*
X235387Y70347D01*
X234926Y69874D01*
X234453Y69413D01*
X233970Y68963D01*
X233475Y68526D01*
X232970Y68101D01*
X232454Y67688D01*
X231928Y67288D01*
X231393Y66901D01*
X230849Y66528D01*
X230295Y66168D01*
X229733Y65821D01*
X229162Y65489D01*
X228584Y65170D01*
X227998Y64866D01*
X227404Y64576D01*
X226804Y64301D01*
X226197Y64041D01*
X225584Y63796D01*
X224965Y63566D01*
X224340Y63351D01*
X223711Y63152D01*
X223076Y62968D01*
X222438Y62799D01*
X221795Y62647D01*
X221149Y62510D01*
X220500Y62389D01*
X219848Y62284D01*
X219194Y62195D01*
X218537Y62123D01*
X217879Y62066D01*
X217220Y62025D01*
X216560Y62001D01*
X215900Y61993D01*
X215240Y62001D01*
X214580Y62025D01*
X213921Y62066D01*
X213263Y62123D01*
X212606Y62195D01*
X211952Y62284D01*
X211300Y62389D01*
X210651Y62510D01*
X210005Y62647D01*
X209362Y62799D01*
X208724Y62968D01*
X208089Y63152D01*
X207460Y63351D01*
X206835Y63566D01*
X206216Y63796D01*
X205603Y64041D01*
X204996Y64301D01*
X204396Y64576D01*
X203802Y64866D01*
X203216Y65170D01*
X202638Y65489D01*
X202067Y65821D01*
X201505Y66168D01*
X200951Y66528D01*
X200407Y66901D01*
X199872Y67288D01*
X199346Y67688D01*
X198830Y68101D01*
X198325Y68526D01*
X197830Y68963D01*
X197347Y69413D01*
X196874Y69874D01*
X196413Y70347D01*
X195963Y70830D01*
X195526Y71325D01*
X195101Y71830D01*
X194688Y72346D01*
X194288Y72872D01*
X193901Y73407D01*
X193528Y73951D01*
X193168Y74505D01*
X192821Y75067D01*
X192489Y75638D01*
X192170Y76216D01*
X191866Y76802D01*
X191576Y77396D01*
X191301Y77996D01*
X191041Y78603D01*
X190796Y79216D01*
X190566Y79835D01*
X190351Y80460D01*
X190152Y81089D01*
X189968Y81724D01*
X189799Y82362D01*
X189647Y83005D01*
X189510Y83651D01*
X189389Y84300D01*
X189284Y84952D01*
X189195Y85606D01*
X189123Y86263D01*
X189066Y86921D01*
X189025Y87580D01*
X189001Y88240D01*
X188993Y88900D01*
X217900Y42900D02*
X217900Y21900D01*
X213900Y21900D01*
X213900Y43900D01*
D18*
X267152Y44704D02*
X272344Y44704D01*
X272457Y44706D01*
X272570Y44712D01*
X272683Y44722D01*
X272796Y44736D01*
X272908Y44753D01*
X273019Y44775D01*
X273129Y44800D01*
X273239Y44830D01*
X273347Y44863D01*
X273454Y44900D01*
X273560Y44940D01*
X273664Y44985D01*
X273767Y45033D01*
X273868Y45084D01*
X273967Y45139D01*
X274064Y45197D01*
X274159Y45259D01*
X274252Y45324D01*
X274342Y45392D01*
X274430Y45463D01*
X274516Y45538D01*
X274599Y45615D01*
X274679Y45695D01*
X274756Y45778D01*
X274831Y45864D01*
X274902Y45952D01*
X274970Y46042D01*
X275035Y46135D01*
X275097Y46230D01*
X275155Y46327D01*
X275210Y46426D01*
X275261Y46527D01*
X275309Y46630D01*
X275354Y46734D01*
X275394Y46840D01*
X275431Y46947D01*
X275464Y47055D01*
X275494Y47165D01*
X275519Y47275D01*
X275541Y47386D01*
X275558Y47498D01*
X275572Y47611D01*
X275582Y47724D01*
X275588Y47837D01*
X275590Y47950D01*
X275588Y48063D01*
X275582Y48176D01*
X275572Y48289D01*
X275558Y48402D01*
X275541Y48514D01*
X275519Y48625D01*
X275494Y48735D01*
X275464Y48845D01*
X275431Y48953D01*
X275394Y49060D01*
X275354Y49166D01*
X275309Y49270D01*
X275261Y49373D01*
X275210Y49474D01*
X275155Y49573D01*
X275097Y49670D01*
X275035Y49765D01*
X274970Y49858D01*
X274902Y49948D01*
X274831Y50036D01*
X274756Y50122D01*
X274679Y50205D01*
X274599Y50285D01*
X274516Y50362D01*
X274430Y50437D01*
X274342Y50508D01*
X274252Y50576D01*
X274159Y50641D01*
X274064Y50703D01*
X273967Y50761D01*
X273868Y50816D01*
X273767Y50867D01*
X273664Y50915D01*
X273560Y50960D01*
X273454Y51000D01*
X273347Y51037D01*
X273239Y51070D01*
X273129Y51100D01*
X273019Y51125D01*
X272908Y51147D01*
X272796Y51164D01*
X272683Y51178D01*
X272570Y51188D01*
X272457Y51194D01*
X272344Y51196D01*
X272344Y51195D02*
X267152Y51195D01*
X267152Y51196D02*
X267039Y51194D01*
X266926Y51188D01*
X266813Y51178D01*
X266700Y51164D01*
X266588Y51147D01*
X266477Y51125D01*
X266367Y51100D01*
X266257Y51070D01*
X266149Y51037D01*
X266042Y51000D01*
X265936Y50960D01*
X265832Y50915D01*
X265729Y50867D01*
X265628Y50816D01*
X265529Y50761D01*
X265432Y50703D01*
X265337Y50641D01*
X265244Y50576D01*
X265154Y50508D01*
X265066Y50437D01*
X264980Y50362D01*
X264897Y50285D01*
X264817Y50205D01*
X264740Y50122D01*
X264665Y50036D01*
X264594Y49948D01*
X264526Y49858D01*
X264461Y49765D01*
X264399Y49670D01*
X264341Y49573D01*
X264286Y49474D01*
X264235Y49373D01*
X264187Y49270D01*
X264142Y49166D01*
X264102Y49060D01*
X264065Y48953D01*
X264032Y48845D01*
X264002Y48735D01*
X263977Y48625D01*
X263955Y48514D01*
X263938Y48402D01*
X263924Y48289D01*
X263914Y48176D01*
X263908Y48063D01*
X263906Y47950D01*
X263908Y47837D01*
X263914Y47724D01*
X263924Y47611D01*
X263938Y47498D01*
X263955Y47386D01*
X263977Y47275D01*
X264002Y47165D01*
X264032Y47055D01*
X264065Y46947D01*
X264102Y46840D01*
X264142Y46734D01*
X264187Y46630D01*
X264235Y46527D01*
X264286Y46426D01*
X264341Y46327D01*
X264399Y46230D01*
X264461Y46135D01*
X264526Y46042D01*
X264594Y45952D01*
X264665Y45864D01*
X264740Y45778D01*
X264817Y45695D01*
X264897Y45615D01*
X264980Y45538D01*
X265066Y45463D01*
X265154Y45392D01*
X265244Y45324D01*
X265337Y45259D01*
X265432Y45197D01*
X265529Y45139D01*
X265628Y45084D01*
X265729Y45033D01*
X265832Y44985D01*
X265936Y44940D01*
X266042Y44900D01*
X266149Y44863D01*
X266257Y44830D01*
X266367Y44800D01*
X266477Y44775D01*
X266588Y44753D01*
X266700Y44736D01*
X266813Y44722D01*
X266926Y44712D01*
X267039Y44706D01*
X267152Y44704D01*
X267152Y56515D02*
X275590Y56515D01*
X267152Y56515D02*
X267039Y56517D01*
X266926Y56523D01*
X266813Y56533D01*
X266700Y56547D01*
X266588Y56564D01*
X266477Y56586D01*
X266367Y56611D01*
X266257Y56641D01*
X266149Y56674D01*
X266042Y56711D01*
X265936Y56751D01*
X265832Y56796D01*
X265729Y56844D01*
X265628Y56895D01*
X265529Y56950D01*
X265432Y57008D01*
X265337Y57070D01*
X265244Y57135D01*
X265154Y57203D01*
X265066Y57274D01*
X264980Y57349D01*
X264897Y57426D01*
X264817Y57506D01*
X264740Y57589D01*
X264665Y57675D01*
X264594Y57763D01*
X264526Y57853D01*
X264461Y57946D01*
X264399Y58041D01*
X264341Y58138D01*
X264286Y58237D01*
X264235Y58338D01*
X264187Y58441D01*
X264142Y58545D01*
X264102Y58651D01*
X264065Y58758D01*
X264032Y58866D01*
X264002Y58976D01*
X263977Y59086D01*
X263955Y59197D01*
X263938Y59309D01*
X263924Y59422D01*
X263914Y59535D01*
X263908Y59648D01*
X263906Y59761D01*
X263908Y59874D01*
X263914Y59987D01*
X263924Y60100D01*
X263938Y60213D01*
X263955Y60325D01*
X263977Y60436D01*
X264002Y60546D01*
X264032Y60656D01*
X264065Y60764D01*
X264102Y60871D01*
X264142Y60977D01*
X264187Y61081D01*
X264235Y61184D01*
X264286Y61285D01*
X264341Y61384D01*
X264399Y61481D01*
X264461Y61576D01*
X264526Y61669D01*
X264594Y61759D01*
X264665Y61847D01*
X264740Y61933D01*
X264817Y62016D01*
X264897Y62096D01*
X264980Y62173D01*
X265066Y62248D01*
X265154Y62319D01*
X265244Y62387D01*
X265337Y62452D01*
X265432Y62514D01*
X265529Y62572D01*
X265628Y62627D01*
X265729Y62678D01*
X265832Y62726D01*
X265936Y62771D01*
X266042Y62811D01*
X266149Y62848D01*
X266257Y62881D01*
X266367Y62911D01*
X266477Y62936D01*
X266588Y62958D01*
X266700Y62975D01*
X266813Y62989D01*
X266926Y62999D01*
X267039Y63005D01*
X267152Y63007D01*
X267152Y63006D02*
X275590Y63006D01*
X275590Y70809D02*
X263906Y70809D01*
X275590Y67564D02*
X275590Y74055D01*
X275590Y81802D02*
X275588Y81909D01*
X275582Y82015D01*
X275572Y82121D01*
X275559Y82227D01*
X275541Y82333D01*
X275520Y82437D01*
X275495Y82541D01*
X275466Y82644D01*
X275434Y82745D01*
X275397Y82845D01*
X275357Y82944D01*
X275314Y83042D01*
X275267Y83138D01*
X275216Y83232D01*
X275162Y83324D01*
X275105Y83414D01*
X275045Y83502D01*
X274981Y83587D01*
X274914Y83670D01*
X274844Y83751D01*
X274772Y83829D01*
X274696Y83905D01*
X274618Y83977D01*
X274537Y84047D01*
X274454Y84114D01*
X274369Y84178D01*
X274281Y84238D01*
X274191Y84295D01*
X274099Y84349D01*
X274005Y84400D01*
X273909Y84447D01*
X273811Y84490D01*
X273712Y84530D01*
X273612Y84567D01*
X273511Y84599D01*
X273408Y84628D01*
X273304Y84653D01*
X273200Y84674D01*
X273094Y84692D01*
X272988Y84705D01*
X272882Y84715D01*
X272776Y84721D01*
X272669Y84723D01*
X275590Y81802D02*
X275588Y81681D01*
X275582Y81560D01*
X275572Y81440D01*
X275559Y81319D01*
X275541Y81200D01*
X275520Y81080D01*
X275495Y80962D01*
X275466Y80845D01*
X275433Y80728D01*
X275397Y80613D01*
X275356Y80499D01*
X275313Y80386D01*
X275265Y80274D01*
X275214Y80165D01*
X275159Y80057D01*
X275101Y79950D01*
X275040Y79846D01*
X274975Y79744D01*
X274907Y79644D01*
X274836Y79546D01*
X274762Y79450D01*
X274685Y79357D01*
X274604Y79267D01*
X274521Y79179D01*
X274435Y79094D01*
X274346Y79011D01*
X274255Y78932D01*
X274161Y78855D01*
X274065Y78782D01*
X273967Y78712D01*
X273866Y78645D01*
X273763Y78581D01*
X273658Y78521D01*
X273551Y78464D01*
X273443Y78410D01*
X273333Y78360D01*
X273221Y78314D01*
X273108Y78271D01*
X272993Y78232D01*
X270397Y83750D02*
X270474Y83829D01*
X270555Y83905D01*
X270638Y83978D01*
X270723Y84048D01*
X270811Y84115D01*
X270901Y84179D01*
X270993Y84239D01*
X271088Y84296D01*
X271184Y84350D01*
X271282Y84401D01*
X271382Y84448D01*
X271484Y84492D01*
X271587Y84532D01*
X271691Y84568D01*
X271797Y84600D01*
X271903Y84629D01*
X272011Y84654D01*
X272119Y84676D01*
X272229Y84693D01*
X272338Y84707D01*
X272448Y84716D01*
X272559Y84722D01*
X272669Y84724D01*
X270397Y83749D02*
X263906Y78232D01*
X263906Y84723D01*
D10*
X95800Y148900D02*
X65800Y148900D01*
X35800Y148900D01*
X5800Y148900D01*
X95800Y148900D02*
X95800Y43900D01*
X48800Y43900D01*
X5800Y43900D01*
X5800Y148900D01*
X19177Y88900D02*
X19187Y89676D01*
X19215Y90452D01*
X19263Y91226D01*
X19329Y92000D01*
X19415Y92771D01*
X19519Y93540D01*
X19643Y94306D01*
X19785Y95069D01*
X19945Y95829D01*
X20125Y96584D01*
X20323Y97334D01*
X20539Y98080D01*
X20773Y98820D01*
X21026Y99553D01*
X21296Y100281D01*
X21584Y101002D01*
X21890Y101715D01*
X22213Y102421D01*
X22554Y103118D01*
X22911Y103807D01*
X23285Y104487D01*
X23676Y105157D01*
X24083Y105818D01*
X24506Y106469D01*
X24946Y107109D01*
X25400Y107738D01*
X25870Y108355D01*
X26355Y108961D01*
X26855Y109555D01*
X27369Y110137D01*
X27897Y110705D01*
X28439Y111261D01*
X28995Y111803D01*
X29563Y112331D01*
X30145Y112845D01*
X30739Y113345D01*
X31345Y113830D01*
X31962Y114300D01*
X32591Y114754D01*
X33231Y115194D01*
X33882Y115617D01*
X34543Y116024D01*
X35213Y116415D01*
X35893Y116789D01*
X36582Y117146D01*
X37279Y117487D01*
X37985Y117810D01*
X38698Y118116D01*
X39419Y118404D01*
X40147Y118674D01*
X40880Y118927D01*
X41620Y119161D01*
X42366Y119377D01*
X43116Y119575D01*
X43871Y119755D01*
X44631Y119915D01*
X45394Y120057D01*
X46160Y120181D01*
X46929Y120285D01*
X47700Y120371D01*
X48474Y120437D01*
X49248Y120485D01*
X50024Y120513D01*
X50800Y120523D01*
X51576Y120513D01*
X52352Y120485D01*
X53126Y120437D01*
X53900Y120371D01*
X54671Y120285D01*
X55440Y120181D01*
X56206Y120057D01*
X56969Y119915D01*
X57729Y119755D01*
X58484Y119575D01*
X59234Y119377D01*
X59980Y119161D01*
X60720Y118927D01*
X61453Y118674D01*
X62181Y118404D01*
X62902Y118116D01*
X63615Y117810D01*
X64321Y117487D01*
X65018Y117146D01*
X65707Y116789D01*
X66387Y116415D01*
X67057Y116024D01*
X67718Y115617D01*
X68369Y115194D01*
X69009Y114754D01*
X69638Y114300D01*
X70255Y113830D01*
X70861Y113345D01*
X71455Y112845D01*
X72037Y112331D01*
X72605Y111803D01*
X73161Y111261D01*
X73703Y110705D01*
X74231Y110137D01*
X74745Y109555D01*
X75245Y108961D01*
X75730Y108355D01*
X76200Y107738D01*
X76654Y107109D01*
X77094Y106469D01*
X77517Y105818D01*
X77924Y105157D01*
X78315Y104487D01*
X78689Y103807D01*
X79046Y103118D01*
X79387Y102421D01*
X79710Y101715D01*
X80016Y101002D01*
X80304Y100281D01*
X80574Y99553D01*
X80827Y98820D01*
X81061Y98080D01*
X81277Y97334D01*
X81475Y96584D01*
X81655Y95829D01*
X81815Y95069D01*
X81957Y94306D01*
X82081Y93540D01*
X82185Y92771D01*
X82271Y92000D01*
X82337Y91226D01*
X82385Y90452D01*
X82413Y89676D01*
X82423Y88900D01*
X82413Y88124D01*
X82385Y87348D01*
X82337Y86574D01*
X82271Y85800D01*
X82185Y85029D01*
X82081Y84260D01*
X81957Y83494D01*
X81815Y82731D01*
X81655Y81971D01*
X81475Y81216D01*
X81277Y80466D01*
X81061Y79720D01*
X80827Y78980D01*
X80574Y78247D01*
X80304Y77519D01*
X80016Y76798D01*
X79710Y76085D01*
X79387Y75379D01*
X79046Y74682D01*
X78689Y73993D01*
X78315Y73313D01*
X77924Y72643D01*
X77517Y71982D01*
X77094Y71331D01*
X76654Y70691D01*
X76200Y70062D01*
X75730Y69445D01*
X75245Y68839D01*
X74745Y68245D01*
X74231Y67663D01*
X73703Y67095D01*
X73161Y66539D01*
X72605Y65997D01*
X72037Y65469D01*
X71455Y64955D01*
X70861Y64455D01*
X70255Y63970D01*
X69638Y63500D01*
X69009Y63046D01*
X68369Y62606D01*
X67718Y62183D01*
X67057Y61776D01*
X66387Y61385D01*
X65707Y61011D01*
X65018Y60654D01*
X64321Y60313D01*
X63615Y59990D01*
X62902Y59684D01*
X62181Y59396D01*
X61453Y59126D01*
X60720Y58873D01*
X59980Y58639D01*
X59234Y58423D01*
X58484Y58225D01*
X57729Y58045D01*
X56969Y57885D01*
X56206Y57743D01*
X55440Y57619D01*
X54671Y57515D01*
X53900Y57429D01*
X53126Y57363D01*
X52352Y57315D01*
X51576Y57287D01*
X50800Y57277D01*
X50024Y57287D01*
X49248Y57315D01*
X48474Y57363D01*
X47700Y57429D01*
X46929Y57515D01*
X46160Y57619D01*
X45394Y57743D01*
X44631Y57885D01*
X43871Y58045D01*
X43116Y58225D01*
X42366Y58423D01*
X41620Y58639D01*
X40880Y58873D01*
X40147Y59126D01*
X39419Y59396D01*
X38698Y59684D01*
X37985Y59990D01*
X37279Y60313D01*
X36582Y60654D01*
X35893Y61011D01*
X35213Y61385D01*
X34543Y61776D01*
X33882Y62183D01*
X33231Y62606D01*
X32591Y63046D01*
X31962Y63500D01*
X31345Y63970D01*
X30739Y64455D01*
X30145Y64955D01*
X29563Y65469D01*
X28995Y65997D01*
X28439Y66539D01*
X27897Y67095D01*
X27369Y67663D01*
X26855Y68245D01*
X26355Y68839D01*
X25870Y69445D01*
X25400Y70062D01*
X24946Y70691D01*
X24506Y71331D01*
X24083Y71982D01*
X23676Y72643D01*
X23285Y73313D01*
X22911Y73993D01*
X22554Y74682D01*
X22213Y75379D01*
X21890Y76085D01*
X21584Y76798D01*
X21296Y77519D01*
X21026Y78247D01*
X20773Y78980D01*
X20539Y79720D01*
X20323Y80466D01*
X20125Y81216D01*
X19945Y81971D01*
X19785Y82731D01*
X19643Y83494D01*
X19519Y84260D01*
X19415Y85029D01*
X19329Y85800D01*
X19263Y86574D01*
X19215Y87348D01*
X19187Y88124D01*
X19177Y88900D01*
X65800Y128900D02*
X65800Y148900D01*
X65800Y128900D02*
X35800Y128900D01*
X35800Y148900D01*
X23893Y88900D02*
X23901Y89560D01*
X23925Y90220D01*
X23966Y90879D01*
X24023Y91537D01*
X24095Y92194D01*
X24184Y92848D01*
X24289Y93500D01*
X24410Y94149D01*
X24547Y94795D01*
X24699Y95438D01*
X24868Y96076D01*
X25052Y96711D01*
X25251Y97340D01*
X25466Y97965D01*
X25696Y98584D01*
X25941Y99197D01*
X26201Y99804D01*
X26476Y100404D01*
X26766Y100998D01*
X27070Y101584D01*
X27389Y102162D01*
X27721Y102733D01*
X28068Y103295D01*
X28428Y103849D01*
X28801Y104393D01*
X29188Y104928D01*
X29588Y105454D01*
X30001Y105970D01*
X30426Y106475D01*
X30863Y106970D01*
X31313Y107453D01*
X31774Y107926D01*
X32247Y108387D01*
X32730Y108837D01*
X33225Y109274D01*
X33730Y109699D01*
X34246Y110112D01*
X34772Y110512D01*
X35307Y110899D01*
X35851Y111272D01*
X36405Y111632D01*
X36967Y111979D01*
X37538Y112311D01*
X38116Y112630D01*
X38702Y112934D01*
X39296Y113224D01*
X39896Y113499D01*
X40503Y113759D01*
X41116Y114004D01*
X41735Y114234D01*
X42360Y114449D01*
X42989Y114648D01*
X43624Y114832D01*
X44262Y115001D01*
X44905Y115153D01*
X45551Y115290D01*
X46200Y115411D01*
X46852Y115516D01*
X47506Y115605D01*
X48163Y115677D01*
X48821Y115734D01*
X49480Y115775D01*
X50140Y115799D01*
X50800Y115807D01*
X51460Y115799D01*
X52120Y115775D01*
X52779Y115734D01*
X53437Y115677D01*
X54094Y115605D01*
X54748Y115516D01*
X55400Y115411D01*
X56049Y115290D01*
X56695Y115153D01*
X57338Y115001D01*
X57976Y114832D01*
X58611Y114648D01*
X59240Y114449D01*
X59865Y114234D01*
X60484Y114004D01*
X61097Y113759D01*
X61704Y113499D01*
X62304Y113224D01*
X62898Y112934D01*
X63484Y112630D01*
X64062Y112311D01*
X64633Y111979D01*
X65195Y111632D01*
X65749Y111272D01*
X66293Y110899D01*
X66828Y110512D01*
X67354Y110112D01*
X67870Y109699D01*
X68375Y109274D01*
X68870Y108837D01*
X69353Y108387D01*
X69826Y107926D01*
X70287Y107453D01*
X70737Y106970D01*
X71174Y106475D01*
X71599Y105970D01*
X72012Y105454D01*
X72412Y104928D01*
X72799Y104393D01*
X73172Y103849D01*
X73532Y103295D01*
X73879Y102733D01*
X74211Y102162D01*
X74530Y101584D01*
X74834Y100998D01*
X75124Y100404D01*
X75399Y99804D01*
X75659Y99197D01*
X75904Y98584D01*
X76134Y97965D01*
X76349Y97340D01*
X76548Y96711D01*
X76732Y96076D01*
X76901Y95438D01*
X77053Y94795D01*
X77190Y94149D01*
X77311Y93500D01*
X77416Y92848D01*
X77505Y92194D01*
X77577Y91537D01*
X77634Y90879D01*
X77675Y90220D01*
X77699Y89560D01*
X77707Y88900D01*
X77699Y88240D01*
X77675Y87580D01*
X77634Y86921D01*
X77577Y86263D01*
X77505Y85606D01*
X77416Y84952D01*
X77311Y84300D01*
X77190Y83651D01*
X77053Y83005D01*
X76901Y82362D01*
X76732Y81724D01*
X76548Y81089D01*
X76349Y80460D01*
X76134Y79835D01*
X75904Y79216D01*
X75659Y78603D01*
X75399Y77996D01*
X75124Y77396D01*
X74834Y76802D01*
X74530Y76216D01*
X74211Y75638D01*
X73879Y75067D01*
X73532Y74505D01*
X73172Y73951D01*
X72799Y73407D01*
X72412Y72872D01*
X72012Y72346D01*
X71599Y71830D01*
X71174Y71325D01*
X70737Y70830D01*
X70287Y70347D01*
X69826Y69874D01*
X69353Y69413D01*
X68870Y68963D01*
X68375Y68526D01*
X67870Y68101D01*
X67354Y67688D01*
X66828Y67288D01*
X66293Y66901D01*
X65749Y66528D01*
X65195Y66168D01*
X64633Y65821D01*
X64062Y65489D01*
X63484Y65170D01*
X62898Y64866D01*
X62304Y64576D01*
X61704Y64301D01*
X61097Y64041D01*
X60484Y63796D01*
X59865Y63566D01*
X59240Y63351D01*
X58611Y63152D01*
X57976Y62968D01*
X57338Y62799D01*
X56695Y62647D01*
X56049Y62510D01*
X55400Y62389D01*
X54748Y62284D01*
X54094Y62195D01*
X53437Y62123D01*
X52779Y62066D01*
X52120Y62025D01*
X51460Y62001D01*
X50800Y61993D01*
X50140Y62001D01*
X49480Y62025D01*
X48821Y62066D01*
X48163Y62123D01*
X47506Y62195D01*
X46852Y62284D01*
X46200Y62389D01*
X45551Y62510D01*
X44905Y62647D01*
X44262Y62799D01*
X43624Y62968D01*
X42989Y63152D01*
X42360Y63351D01*
X41735Y63566D01*
X41116Y63796D01*
X40503Y64041D01*
X39896Y64301D01*
X39296Y64576D01*
X38702Y64866D01*
X38116Y65170D01*
X37538Y65489D01*
X36967Y65821D01*
X36405Y66168D01*
X35851Y66528D01*
X35307Y66901D01*
X34772Y67288D01*
X34246Y67688D01*
X33730Y68101D01*
X33225Y68526D01*
X32730Y68963D01*
X32247Y69413D01*
X31774Y69874D01*
X31313Y70347D01*
X30863Y70830D01*
X30426Y71325D01*
X30001Y71830D01*
X29588Y72346D01*
X29188Y72872D01*
X28801Y73407D01*
X28428Y73951D01*
X28068Y74505D01*
X27721Y75067D01*
X27389Y75638D01*
X27070Y76216D01*
X26766Y76802D01*
X26476Y77396D01*
X26201Y77996D01*
X25941Y78603D01*
X25696Y79216D01*
X25466Y79835D01*
X25251Y80460D01*
X25052Y81089D01*
X24868Y81724D01*
X24699Y82362D01*
X24547Y83005D01*
X24410Y83651D01*
X24289Y84300D01*
X24184Y84952D01*
X24095Y85606D01*
X24023Y86263D01*
X23966Y86921D01*
X23925Y87580D01*
X23901Y88240D01*
X23893Y88900D01*
X52800Y42900D02*
X52800Y21900D01*
X48800Y21900D01*
X48800Y43900D01*
D18*
X98806Y46002D02*
X110490Y46002D01*
X98806Y44704D02*
X98806Y47300D01*
X110490Y47300D02*
X110490Y44704D01*
X110490Y52282D02*
X98806Y52282D01*
X98806Y58773D02*
X110490Y52282D01*
X110490Y58773D02*
X98806Y58773D01*
X97508Y63599D02*
X97508Y68792D01*
X107569Y79728D02*
X107676Y79726D01*
X107782Y79720D01*
X107888Y79710D01*
X107994Y79697D01*
X108100Y79679D01*
X108204Y79658D01*
X108308Y79633D01*
X108411Y79604D01*
X108512Y79572D01*
X108612Y79535D01*
X108711Y79495D01*
X108809Y79452D01*
X108905Y79405D01*
X108999Y79354D01*
X109091Y79300D01*
X109181Y79243D01*
X109269Y79183D01*
X109354Y79119D01*
X109437Y79052D01*
X109518Y78982D01*
X109596Y78910D01*
X109672Y78834D01*
X109744Y78756D01*
X109814Y78675D01*
X109881Y78592D01*
X109945Y78507D01*
X110005Y78419D01*
X110062Y78329D01*
X110116Y78237D01*
X110167Y78143D01*
X110214Y78047D01*
X110257Y77949D01*
X110297Y77850D01*
X110334Y77750D01*
X110366Y77649D01*
X110395Y77546D01*
X110420Y77442D01*
X110441Y77338D01*
X110459Y77232D01*
X110472Y77126D01*
X110482Y77020D01*
X110488Y76914D01*
X110490Y76807D01*
X110488Y76686D01*
X110482Y76565D01*
X110472Y76445D01*
X110459Y76324D01*
X110441Y76205D01*
X110420Y76085D01*
X110395Y75967D01*
X110366Y75850D01*
X110333Y75733D01*
X110297Y75618D01*
X110256Y75504D01*
X110213Y75391D01*
X110165Y75279D01*
X110114Y75170D01*
X110059Y75062D01*
X110001Y74955D01*
X109940Y74851D01*
X109875Y74749D01*
X109807Y74649D01*
X109736Y74551D01*
X109662Y74455D01*
X109585Y74362D01*
X109504Y74272D01*
X109421Y74184D01*
X109335Y74099D01*
X109246Y74016D01*
X109155Y73937D01*
X109061Y73860D01*
X108965Y73787D01*
X108867Y73717D01*
X108766Y73650D01*
X108663Y73586D01*
X108558Y73526D01*
X108451Y73469D01*
X108343Y73415D01*
X108233Y73365D01*
X108121Y73319D01*
X108008Y73276D01*
X107893Y73237D01*
X105297Y78754D02*
X105374Y78833D01*
X105455Y78909D01*
X105538Y78982D01*
X105623Y79052D01*
X105711Y79119D01*
X105801Y79183D01*
X105893Y79243D01*
X105988Y79300D01*
X106084Y79354D01*
X106182Y79405D01*
X106282Y79452D01*
X106384Y79496D01*
X106487Y79536D01*
X106591Y79572D01*
X106697Y79604D01*
X106803Y79633D01*
X106911Y79658D01*
X107019Y79680D01*
X107129Y79697D01*
X107238Y79711D01*
X107348Y79720D01*
X107459Y79726D01*
X107569Y79728D01*
X105297Y78754D02*
X98806Y73237D01*
X98806Y79728D01*
D10*
X95800Y987100D02*
X65800Y987100D01*
X35800Y987100D01*
X5800Y987100D01*
X95800Y987100D02*
X95800Y882100D01*
X48800Y882100D01*
X5800Y882100D01*
X5800Y987100D01*
X19177Y927100D02*
X19187Y927876D01*
X19215Y928652D01*
X19263Y929426D01*
X19329Y930200D01*
X19415Y930971D01*
X19519Y931740D01*
X19643Y932506D01*
X19785Y933269D01*
X19945Y934029D01*
X20125Y934784D01*
X20323Y935534D01*
X20539Y936280D01*
X20773Y937020D01*
X21026Y937753D01*
X21296Y938481D01*
X21584Y939202D01*
X21890Y939915D01*
X22213Y940621D01*
X22554Y941318D01*
X22911Y942007D01*
X23285Y942687D01*
X23676Y943357D01*
X24083Y944018D01*
X24506Y944669D01*
X24946Y945309D01*
X25400Y945938D01*
X25870Y946555D01*
X26355Y947161D01*
X26855Y947755D01*
X27369Y948337D01*
X27897Y948905D01*
X28439Y949461D01*
X28995Y950003D01*
X29563Y950531D01*
X30145Y951045D01*
X30739Y951545D01*
X31345Y952030D01*
X31962Y952500D01*
X32591Y952954D01*
X33231Y953394D01*
X33882Y953817D01*
X34543Y954224D01*
X35213Y954615D01*
X35893Y954989D01*
X36582Y955346D01*
X37279Y955687D01*
X37985Y956010D01*
X38698Y956316D01*
X39419Y956604D01*
X40147Y956874D01*
X40880Y957127D01*
X41620Y957361D01*
X42366Y957577D01*
X43116Y957775D01*
X43871Y957955D01*
X44631Y958115D01*
X45394Y958257D01*
X46160Y958381D01*
X46929Y958485D01*
X47700Y958571D01*
X48474Y958637D01*
X49248Y958685D01*
X50024Y958713D01*
X50800Y958723D01*
X51576Y958713D01*
X52352Y958685D01*
X53126Y958637D01*
X53900Y958571D01*
X54671Y958485D01*
X55440Y958381D01*
X56206Y958257D01*
X56969Y958115D01*
X57729Y957955D01*
X58484Y957775D01*
X59234Y957577D01*
X59980Y957361D01*
X60720Y957127D01*
X61453Y956874D01*
X62181Y956604D01*
X62902Y956316D01*
X63615Y956010D01*
X64321Y955687D01*
X65018Y955346D01*
X65707Y954989D01*
X66387Y954615D01*
X67057Y954224D01*
X67718Y953817D01*
X68369Y953394D01*
X69009Y952954D01*
X69638Y952500D01*
X70255Y952030D01*
X70861Y951545D01*
X71455Y951045D01*
X72037Y950531D01*
X72605Y950003D01*
X73161Y949461D01*
X73703Y948905D01*
X74231Y948337D01*
X74745Y947755D01*
X75245Y947161D01*
X75730Y946555D01*
X76200Y945938D01*
X76654Y945309D01*
X77094Y944669D01*
X77517Y944018D01*
X77924Y943357D01*
X78315Y942687D01*
X78689Y942007D01*
X79046Y941318D01*
X79387Y940621D01*
X79710Y939915D01*
X80016Y939202D01*
X80304Y938481D01*
X80574Y937753D01*
X80827Y937020D01*
X81061Y936280D01*
X81277Y935534D01*
X81475Y934784D01*
X81655Y934029D01*
X81815Y933269D01*
X81957Y932506D01*
X82081Y931740D01*
X82185Y930971D01*
X82271Y930200D01*
X82337Y929426D01*
X82385Y928652D01*
X82413Y927876D01*
X82423Y927100D01*
X82413Y926324D01*
X82385Y925548D01*
X82337Y924774D01*
X82271Y924000D01*
X82185Y923229D01*
X82081Y922460D01*
X81957Y921694D01*
X81815Y920931D01*
X81655Y920171D01*
X81475Y919416D01*
X81277Y918666D01*
X81061Y917920D01*
X80827Y917180D01*
X80574Y916447D01*
X80304Y915719D01*
X80016Y914998D01*
X79710Y914285D01*
X79387Y913579D01*
X79046Y912882D01*
X78689Y912193D01*
X78315Y911513D01*
X77924Y910843D01*
X77517Y910182D01*
X77094Y909531D01*
X76654Y908891D01*
X76200Y908262D01*
X75730Y907645D01*
X75245Y907039D01*
X74745Y906445D01*
X74231Y905863D01*
X73703Y905295D01*
X73161Y904739D01*
X72605Y904197D01*
X72037Y903669D01*
X71455Y903155D01*
X70861Y902655D01*
X70255Y902170D01*
X69638Y901700D01*
X69009Y901246D01*
X68369Y900806D01*
X67718Y900383D01*
X67057Y899976D01*
X66387Y899585D01*
X65707Y899211D01*
X65018Y898854D01*
X64321Y898513D01*
X63615Y898190D01*
X62902Y897884D01*
X62181Y897596D01*
X61453Y897326D01*
X60720Y897073D01*
X59980Y896839D01*
X59234Y896623D01*
X58484Y896425D01*
X57729Y896245D01*
X56969Y896085D01*
X56206Y895943D01*
X55440Y895819D01*
X54671Y895715D01*
X53900Y895629D01*
X53126Y895563D01*
X52352Y895515D01*
X51576Y895487D01*
X50800Y895477D01*
X50024Y895487D01*
X49248Y895515D01*
X48474Y895563D01*
X47700Y895629D01*
X46929Y895715D01*
X46160Y895819D01*
X45394Y895943D01*
X44631Y896085D01*
X43871Y896245D01*
X43116Y896425D01*
X42366Y896623D01*
X41620Y896839D01*
X40880Y897073D01*
X40147Y897326D01*
X39419Y897596D01*
X38698Y897884D01*
X37985Y898190D01*
X37279Y898513D01*
X36582Y898854D01*
X35893Y899211D01*
X35213Y899585D01*
X34543Y899976D01*
X33882Y900383D01*
X33231Y900806D01*
X32591Y901246D01*
X31962Y901700D01*
X31345Y902170D01*
X30739Y902655D01*
X30145Y903155D01*
X29563Y903669D01*
X28995Y904197D01*
X28439Y904739D01*
X27897Y905295D01*
X27369Y905863D01*
X26855Y906445D01*
X26355Y907039D01*
X25870Y907645D01*
X25400Y908262D01*
X24946Y908891D01*
X24506Y909531D01*
X24083Y910182D01*
X23676Y910843D01*
X23285Y911513D01*
X22911Y912193D01*
X22554Y912882D01*
X22213Y913579D01*
X21890Y914285D01*
X21584Y914998D01*
X21296Y915719D01*
X21026Y916447D01*
X20773Y917180D01*
X20539Y917920D01*
X20323Y918666D01*
X20125Y919416D01*
X19945Y920171D01*
X19785Y920931D01*
X19643Y921694D01*
X19519Y922460D01*
X19415Y923229D01*
X19329Y924000D01*
X19263Y924774D01*
X19215Y925548D01*
X19187Y926324D01*
X19177Y927100D01*
X65800Y967100D02*
X65800Y987100D01*
X65800Y967100D02*
X35800Y967100D01*
X35800Y987100D01*
X23893Y927100D02*
X23901Y927760D01*
X23925Y928420D01*
X23966Y929079D01*
X24023Y929737D01*
X24095Y930394D01*
X24184Y931048D01*
X24289Y931700D01*
X24410Y932349D01*
X24547Y932995D01*
X24699Y933638D01*
X24868Y934276D01*
X25052Y934911D01*
X25251Y935540D01*
X25466Y936165D01*
X25696Y936784D01*
X25941Y937397D01*
X26201Y938004D01*
X26476Y938604D01*
X26766Y939198D01*
X27070Y939784D01*
X27389Y940362D01*
X27721Y940933D01*
X28068Y941495D01*
X28428Y942049D01*
X28801Y942593D01*
X29188Y943128D01*
X29588Y943654D01*
X30001Y944170D01*
X30426Y944675D01*
X30863Y945170D01*
X31313Y945653D01*
X31774Y946126D01*
X32247Y946587D01*
X32730Y947037D01*
X33225Y947474D01*
X33730Y947899D01*
X34246Y948312D01*
X34772Y948712D01*
X35307Y949099D01*
X35851Y949472D01*
X36405Y949832D01*
X36967Y950179D01*
X37538Y950511D01*
X38116Y950830D01*
X38702Y951134D01*
X39296Y951424D01*
X39896Y951699D01*
X40503Y951959D01*
X41116Y952204D01*
X41735Y952434D01*
X42360Y952649D01*
X42989Y952848D01*
X43624Y953032D01*
X44262Y953201D01*
X44905Y953353D01*
X45551Y953490D01*
X46200Y953611D01*
X46852Y953716D01*
X47506Y953805D01*
X48163Y953877D01*
X48821Y953934D01*
X49480Y953975D01*
X50140Y953999D01*
X50800Y954007D01*
X51460Y953999D01*
X52120Y953975D01*
X52779Y953934D01*
X53437Y953877D01*
X54094Y953805D01*
X54748Y953716D01*
X55400Y953611D01*
X56049Y953490D01*
X56695Y953353D01*
X57338Y953201D01*
X57976Y953032D01*
X58611Y952848D01*
X59240Y952649D01*
X59865Y952434D01*
X60484Y952204D01*
X61097Y951959D01*
X61704Y951699D01*
X62304Y951424D01*
X62898Y951134D01*
X63484Y950830D01*
X64062Y950511D01*
X64633Y950179D01*
X65195Y949832D01*
X65749Y949472D01*
X66293Y949099D01*
X66828Y948712D01*
X67354Y948312D01*
X67870Y947899D01*
X68375Y947474D01*
X68870Y947037D01*
X69353Y946587D01*
X69826Y946126D01*
X70287Y945653D01*
X70737Y945170D01*
X71174Y944675D01*
X71599Y944170D01*
X72012Y943654D01*
X72412Y943128D01*
X72799Y942593D01*
X73172Y942049D01*
X73532Y941495D01*
X73879Y940933D01*
X74211Y940362D01*
X74530Y939784D01*
X74834Y939198D01*
X75124Y938604D01*
X75399Y938004D01*
X75659Y937397D01*
X75904Y936784D01*
X76134Y936165D01*
X76349Y935540D01*
X76548Y934911D01*
X76732Y934276D01*
X76901Y933638D01*
X77053Y932995D01*
X77190Y932349D01*
X77311Y931700D01*
X77416Y931048D01*
X77505Y930394D01*
X77577Y929737D01*
X77634Y929079D01*
X77675Y928420D01*
X77699Y927760D01*
X77707Y927100D01*
X77699Y926440D01*
X77675Y925780D01*
X77634Y925121D01*
X77577Y924463D01*
X77505Y923806D01*
X77416Y923152D01*
X77311Y922500D01*
X77190Y921851D01*
X77053Y921205D01*
X76901Y920562D01*
X76732Y919924D01*
X76548Y919289D01*
X76349Y918660D01*
X76134Y918035D01*
X75904Y917416D01*
X75659Y916803D01*
X75399Y916196D01*
X75124Y915596D01*
X74834Y915002D01*
X74530Y914416D01*
X74211Y913838D01*
X73879Y913267D01*
X73532Y912705D01*
X73172Y912151D01*
X72799Y911607D01*
X72412Y911072D01*
X72012Y910546D01*
X71599Y910030D01*
X71174Y909525D01*
X70737Y909030D01*
X70287Y908547D01*
X69826Y908074D01*
X69353Y907613D01*
X68870Y907163D01*
X68375Y906726D01*
X67870Y906301D01*
X67354Y905888D01*
X66828Y905488D01*
X66293Y905101D01*
X65749Y904728D01*
X65195Y904368D01*
X64633Y904021D01*
X64062Y903689D01*
X63484Y903370D01*
X62898Y903066D01*
X62304Y902776D01*
X61704Y902501D01*
X61097Y902241D01*
X60484Y901996D01*
X59865Y901766D01*
X59240Y901551D01*
X58611Y901352D01*
X57976Y901168D01*
X57338Y900999D01*
X56695Y900847D01*
X56049Y900710D01*
X55400Y900589D01*
X54748Y900484D01*
X54094Y900395D01*
X53437Y900323D01*
X52779Y900266D01*
X52120Y900225D01*
X51460Y900201D01*
X50800Y900193D01*
X50140Y900201D01*
X49480Y900225D01*
X48821Y900266D01*
X48163Y900323D01*
X47506Y900395D01*
X46852Y900484D01*
X46200Y900589D01*
X45551Y900710D01*
X44905Y900847D01*
X44262Y900999D01*
X43624Y901168D01*
X42989Y901352D01*
X42360Y901551D01*
X41735Y901766D01*
X41116Y901996D01*
X40503Y902241D01*
X39896Y902501D01*
X39296Y902776D01*
X38702Y903066D01*
X38116Y903370D01*
X37538Y903689D01*
X36967Y904021D01*
X36405Y904368D01*
X35851Y904728D01*
X35307Y905101D01*
X34772Y905488D01*
X34246Y905888D01*
X33730Y906301D01*
X33225Y906726D01*
X32730Y907163D01*
X32247Y907613D01*
X31774Y908074D01*
X31313Y908547D01*
X30863Y909030D01*
X30426Y909525D01*
X30001Y910030D01*
X29588Y910546D01*
X29188Y911072D01*
X28801Y911607D01*
X28428Y912151D01*
X28068Y912705D01*
X27721Y913267D01*
X27389Y913838D01*
X27070Y914416D01*
X26766Y915002D01*
X26476Y915596D01*
X26201Y916196D01*
X25941Y916803D01*
X25696Y917416D01*
X25466Y918035D01*
X25251Y918660D01*
X25052Y919289D01*
X24868Y919924D01*
X24699Y920562D01*
X24547Y921205D01*
X24410Y921851D01*
X24289Y922500D01*
X24184Y923152D01*
X24095Y923806D01*
X24023Y924463D01*
X23966Y925121D01*
X23925Y925780D01*
X23901Y926440D01*
X23893Y927100D01*
X52800Y881100D02*
X52800Y860100D01*
X48800Y860100D01*
X48800Y882100D01*
D18*
X98806Y884202D02*
X110490Y884202D01*
X98806Y882904D02*
X98806Y885500D01*
X110490Y885500D02*
X110490Y882904D01*
X110490Y890482D02*
X98806Y890482D01*
X98806Y896973D02*
X110490Y890482D01*
X110490Y896973D02*
X98806Y896973D01*
X97508Y901799D02*
X97508Y906992D01*
X107894Y911437D02*
X110490Y914682D01*
X98806Y914682D01*
X98806Y911437D02*
X98806Y917928D01*
M02*
