G04 EAGLE Gerber RS-274X export*
G75*
%MOMM*%
%FSLAX34Y34*%
%LPD*%
%INBottom Solder Mask*%
%IPPOS*%
%AMOC8*
5,1,8,0,0,1.08239X$1,22.5*%
G01*
%ADD10C,2.387600*%
%ADD11C,2.153200*%
%ADD12R,1.854200X1.854200*%
%ADD13C,1.854200*%
%ADD14C,1.524000*%
%ADD15P,1.649562X8X202.500000*%
%ADD16P,1.649562X8X22.500000*%
%ADD17P,1.759533X8X202.500000*%
%ADD18C,1.853200*%
%ADD19C,0.959600*%


D10*
X137414Y720352D02*
X115570Y720352D01*
X116078Y600194D02*
X137922Y600194D01*
D11*
X217250Y660400D02*
X236750Y660400D01*
X236750Y622900D02*
X217250Y622900D01*
X217250Y697900D02*
X236750Y697900D01*
D10*
X137414Y275852D02*
X115570Y275852D01*
X116078Y155694D02*
X137922Y155694D01*
D11*
X217250Y215900D02*
X236750Y215900D01*
X236750Y178400D02*
X217250Y178400D01*
X217250Y253400D02*
X236750Y253400D01*
D12*
X147120Y38100D03*
D13*
X122120Y38100D03*
D12*
X185220Y579120D03*
D13*
X160220Y579120D03*
D14*
X221996Y546100D02*
X235204Y546100D01*
X159004Y546100D02*
X145796Y546100D01*
X120904Y546100D02*
X107696Y546100D01*
X44704Y546100D02*
X31496Y546100D01*
D15*
X152400Y927100D03*
X127000Y927100D03*
D16*
X127000Y88900D03*
X152400Y88900D03*
D10*
X137414Y860052D02*
X115570Y860052D01*
X116078Y739894D02*
X137922Y739894D01*
D11*
X217250Y800100D02*
X236750Y800100D01*
X236750Y762600D02*
X217250Y762600D01*
X217250Y837600D02*
X236750Y837600D01*
D10*
X137414Y415552D02*
X115570Y415552D01*
X116078Y295394D02*
X137922Y295394D01*
D11*
X217250Y355600D02*
X236750Y355600D01*
X236750Y318100D02*
X217250Y318100D01*
X217250Y393100D02*
X236750Y393100D01*
D17*
X177800Y482600D03*
X177800Y508000D03*
X152400Y482600D03*
X152400Y508000D03*
X127000Y482600D03*
X127000Y508000D03*
X101600Y482600D03*
X101600Y508000D03*
X76200Y482600D03*
X76200Y508000D03*
D15*
X190500Y728980D03*
X165100Y728980D03*
D16*
X165100Y284480D03*
X190500Y284480D03*
D18*
X215900Y977100D03*
X215900Y892100D03*
X215900Y862100D03*
X215900Y138900D03*
X215900Y53900D03*
X215900Y23900D03*
X50800Y138900D03*
X50800Y53900D03*
X50800Y23900D03*
X50800Y977100D03*
X50800Y892100D03*
X50800Y862100D03*
D19*
X48260Y358140D03*
X25400Y439420D03*
X71120Y439420D03*
X78740Y299720D03*
X20320Y177800D03*
X142240Y127000D03*
X180340Y25400D03*
X193040Y546100D03*
X193040Y678180D03*
X121920Y769620D03*
X154940Y891540D03*
X22860Y967740D03*
X73660Y601980D03*
X92075Y708025D03*
X92075Y774700D03*
X95250Y654050D03*
X53975Y733425D03*
X22225Y323850D03*
X22225Y342900D03*
X38100Y203200D03*
X57150Y282575D03*
X57150Y679450D03*
X38100Y390525D03*
X22225Y628650D03*
X101600Y644525D03*
X31750Y269875D03*
X63500Y212725D03*
X234950Y234950D03*
X141605Y323215D03*
X50800Y663575D03*
X69850Y339725D03*
X246380Y129540D03*
M02*
