<?xml version="1.0" standalone="no"?>
<!DOCTYPE svg PUBLIC "-//W3C//DTD SVG 20010904//EN"
 "http://www.w3.org/TR/2001/REC-SVG-20010904/DTD/svg10.dtd">
<svg version="1.0" xmlns="http://www.w3.org/2000/svg"
 width="426.000000pt" height="618.000000pt" viewBox="0 0 426.000000 618.000000"
 preserveAspectRatio="xMidYMid meet">
<metadata>
Created by potrace 1.15, written by Peter Selinger 2001-2017
</metadata>
<g transform="translate(0.000000,618.000000) scale(0.100000,-0.100000)"
fill="#000000" stroke="none">
<path d="M0 3090 l0 -3090 2130 0 2130 0 0 3090 0 3090 -2130 0 -2130 0 0
-3090z m2919 3060 c28 -14 46 -33 62 -67 l24 -48 3 -2780 c2 -1993 0 -2791 -8
-2820 -6 -22 -30 -60 -53 -85 l-42 -45 -785 0 -785 0 -25 22 c-13 13 -27 23
-32 23 -4 0 -17 19 -27 43 -19 41 -20 97 -23 2854 l-3 2812 35 36 c76 79 13
74 863 75 734 0 759 -1 796 -20z"/>
<path d="M1330 6140 c-19 -10 -48 -32 -65 -50 l-30 -31 4 -2811 c3 -2460 5
-2816 18 -2847 14 -33 38 -60 56 -61 4 0 7 115 7 255 l0 255 315 0 315 0 0
-125 0 -125 65 0 c58 0 65 -2 65 -20 0 -18 -7 -20 -65 -20 l-65 0 0 -125 0
-125 170 0 170 0 0 125 0 125 -65 0 c-58 0 -65 2 -65 20 0 18 7 20 65 20 l65
0 0 125 0 125 315 0 315 0 0 -257 0 -257 29 28 c16 15 34 46 40 69 9 31 11
768 9 2822 l-3 2780 -22 46 c-42 84 9 79 -851 79 -719 -1 -759 -2 -792 -20z
m1120 -335 l0 -305 -125 0 c-77 0 -125 4 -125 10 0 6 45 10 115 10 l115 0 0
285 0 285 -115 0 c-70 0 -115 4 -115 10 0 6 48 10 125 10 l125 0 0 -305z
m-510 -1690 l0 -1335 -270 0 -270 0 0 1335 0 1335 270 0 270 0 0 -1335z m890
0 l0 -1335 -270 0 -270 0 0 1335 0 1335 270 0 270 0 0 -1335z m-880 -2385 l0
-130 65 0 c51 0 65 -3 65 -15 0 -12 -14 -15 -65 -15 l-65 0 0 -130 0 -130
-315 0 -315 0 0 275 0 275 315 0 315 0 0 -130z m970 -145 l0 -275 -315 0 -315
0 0 130 0 130 -65 0 c-51 0 -65 3 -65 15 0 12 14 15 65 15 l65 0 0 130 0 130
315 0 315 0 0 -275z"/>
<path d="M1410 4115 l0 -1325 260 0 260 0 0 1325 0 1325 -260 0 -260 0 0
-1325z m342 333 c2 -392 2 -863 0 -1045 l-4 -333 -74 0 -74 0 0 1045 0 1045
74 0 74 0 4 -712z"/>
<path d="M1610 4550 l0 -600 65 0 65 0 0 600 0 600 -65 0 -65 0 0 -600z"/>
<path d="M1610 3360 l0 -280 65 0 65 0 0 280 0 280 -65 0 -65 0 0 -280z"/>
<path d="M2300 4115 l0 -1325 260 0 260 0 0 1325 0 1325 -260 0 -260 0 0
-1325z m340 0 l0 -1045 -75 0 -75 0 0 1045 0 1045 75 0 75 0 0 -1045z"/>
<path d="M2500 4550 l0 -600 65 0 65 0 0 600 0 600 -65 0 -65 0 0 -600z"/>
<path d="M2500 3360 l0 -280 65 0 65 0 0 280 0 280 -65 0 -65 0 0 -280z"/>
<path d="M1330 1765 l0 -85 60 0 60 0 0 -95 0 -95 -60 0 -60 0 0 -85 0 -85
305 0 305 0 0 265 0 265 -305 0 -305 0 0 -85z m452 -21 c123 -87 112 -260 -22
-332 -128 -68 -289 40 -277 186 11 149 179 231 299 146z"/>
<path d="M1592 1749 c-123 -62 -135 -241 -21 -316 118 -78 273 -4 287 137 13
141 -139 244 -266 179z m158 -22 c50 -26 90 -90 90 -142 0 -52 -40 -116 -90
-142 -55 -29 -95 -29 -150 0 -50 26 -90 90 -90 142 0 18 10 51 23 75 26 50 90
90 142 90 18 0 51 -10 75 -23z"/>
<path d="M1603 1719 c-30 -15 -48 -33 -62 -63 -26 -53 -26 -89 0 -142 22 -47
82 -84 134 -84 52 0 112 37 134 84 12 23 21 55 21 71 0 52 -37 112 -84 134
-54 26 -90 26 -143 0z"/>
<path d="M1330 1585 l0 -85 55 0 55 0 0 85 0 85 -55 0 -55 0 0 -85z"/>
<path d="M2300 1585 l0 -265 305 0 305 0 0 85 0 85 -60 0 -60 0 0 95 0 95 60
0 60 0 0 85 0 85 -305 0 -305 0 0 -265z m372 159 c123 -87 112 -260 -22 -332
-128 -68 -289 40 -277 186 11 149 179 231 299 146z"/>
<path d="M2482 1749 c-123 -62 -135 -241 -21 -316 118 -78 273 -4 287 137 13
141 -139 244 -266 179z m158 -22 c50 -26 90 -90 90 -142 0 -52 -40 -116 -90
-142 -55 -29 -95 -29 -150 0 -50 26 -90 90 -90 142 0 18 10 51 23 75 26 50 90
90 142 90 18 0 51 -10 75 -23z"/>
<path d="M2493 1719 c-30 -15 -48 -33 -62 -63 -26 -53 -26 -89 0 -142 22 -47
82 -84 134 -84 52 0 112 37 134 84 12 23 21 55 21 71 0 52 -37 112 -84 134
-54 26 -90 26 -143 0z"/>
<path d="M2800 1585 l0 -85 55 0 55 0 0 85 0 85 -55 0 -55 0 0 -85z"/>
<path d="M1330 755 l0 -85 60 0 60 0 0 -90 0 -90 -60 0 -60 0 0 -85 0 -85 305
0 305 0 0 260 0 260 -305 0 -305 0 0 -85z m452 -11 c123 -87 112 -260 -22
-332 -128 -68 -289 40 -277 186 11 149 179 231 299 146z"/>
<path d="M1592 749 c-123 -62 -135 -241 -21 -316 118 -78 273 -4 287 137 13
141 -139 244 -266 179z m158 -22 c50 -26 90 -90 90 -142 0 -52 -40 -116 -90
-142 -55 -29 -95 -29 -150 0 -50 26 -90 90 -90 142 0 52 40 116 90 142 55 29
95 29 150 0z"/>
<path d="M1603 719 c-30 -15 -48 -33 -62 -63 -26 -53 -26 -89 0 -142 22 -47
82 -84 134 -84 52 0 112 37 134 84 12 23 21 55 21 71 0 52 -37 112 -84 134
-54 26 -90 26 -143 0z"/>
<path d="M2300 580 l0 -260 303 2 302 3 3 83 3 82 -61 0 -60 0 0 90 0 90 60 0
60 0 0 85 0 85 -305 0 -305 0 0 -260z m372 164 c123 -87 112 -260 -22 -332
-128 -68 -289 40 -277 186 11 149 179 231 299 146z"/>
<path d="M2482 749 c-123 -62 -135 -241 -21 -316 118 -78 273 -4 287 137 13
141 -139 244 -266 179z m158 -22 c50 -26 90 -90 90 -142 0 -52 -40 -116 -90
-142 -55 -29 -95 -29 -150 0 -50 26 -90 90 -90 142 0 52 40 116 90 142 55 29
95 29 150 0z"/>
<path d="M2493 719 c-30 -15 -48 -33 -62 -63 -26 -53 -26 -89 0 -142 22 -47
82 -84 134 -84 52 0 112 37 134 84 12 23 21 55 21 71 0 52 -37 112 -84 134
-54 26 -90 26 -143 0z"/>
<path d="M1330 580 l0 -80 55 0 55 0 0 80 0 80 -55 0 -55 0 0 -80z"/>
<path d="M2800 580 l0 -80 55 0 55 0 0 80 0 80 -55 0 -55 0 0 -80z"/>
</g>
</svg>
