<?xml version="1.0" standalone="no"?>
<!DOCTYPE svg PUBLIC "-//W3C//DTD SVG 20010904//EN"
 "http://www.w3.org/TR/2001/REC-SVG-20010904/DTD/svg10.dtd">
<svg version="1.0" xmlns="http://www.w3.org/2000/svg"
 width="850.000000pt" height="1234.000000pt" viewBox="0 0 850.000000 1234.000000"
 preserveAspectRatio="xMidYMid meet">
<metadata>
Created by potrace 1.15, written by Peter Selinger 2001-2017
</metadata>
<g transform="translate(0.000000,1234.000000) scale(0.100000,-0.100000)"
fill="#000000" stroke="none">
<path d="M0 6170 l0 -6170 4250 0 4250 0 0 6170 0 6170 -4250 0 -4250 0 0
-6170z m5803 6129 c100 -51 132 -83 168 -171 l34 -83 3 -5555 c2 -4336 0
-5571 -9 -5629 -12 -74 -13 -75 -91 -155 -43 -45 -78 -84 -78 -87 0 -16 -438
-20 -1765 -17 l-1420 3 -30 25 c-16 14 -50 46 -76 72 -41 42 -48 56 -57 110
-17 101 -39 11191 -22 11243 37 118 114 200 223 241 l62 23 1508 0 1508 1 42
-21z"/>
<path d="M2683 12286 c-107 -40 -176 -114 -213 -231 -11 -33 -11 -1081 -1
-5615 8 -3743 16 -5593 23 -5630 11 -61 54 -123 107 -153 l31 -18 0 525 0 526
630 0 630 0 0 -250 0 -250 130 0 130 0 0 -35 0 -35 -130 0 -130 0 0 -255 0
-255 345 0 345 0 0 255 0 255 -130 0 -130 0 0 35 0 35 130 0 130 0 0 250 0
250 625 0 625 0 0 -520 c0 -304 4 -520 9 -520 5 0 38 31 74 70 61 66 65 72 76
142 9 56 11 1348 9 5628 l-3 5555 -34 82 c-35 86 -61 112 -158 162 l-42 21
-1508 -1 -1508 0 -62 -23z m1355 -98 c-4 -10 -75 -14 -301 -16 l-296 -2 -3
-82 c-2 -54 -7 -83 -15 -86 -10 -3 -13 21 -13 97 l0 101 316 0 c248 0 315 -3
312 -12z m850 -592 c1 -439 -1 -602 -9 -613 -16 -19 -460 -15 -467 5 -3 9 46
12 222 12 l226 0 0 585 0 585 -222 2 c-168 2 -222 6 -226 16 -3 10 46 12 235
10 l238 -3 3 -599z m-1450 -514 l3 -82 300 0 c236 0 300 -3 297 -12 -4 -10
-75 -13 -314 -13 l-309 0 -3 98 c-2 77 0 98 10 95 9 -3 14 -31 16 -86z m432
-2862 l0 -2670 -540 0 -540 0 0 2670 0 2670 540 0 540 0 0 -2670z m1780 0 l0
-2670 -545 0 -545 0 0 2670 0 2670 545 0 545 0 0 -2670z m-1760 -4775 l0 -255
130 0 130 0 0 -30 0 -30 -130 0 -130 0 0 -255 0 -255 -630 0 -630 0 0 540 0
540 630 0 630 0 0 -255z m1940 -285 l0 -540 -625 0 -625 0 0 255 0 255 -130 0
-130 0 0 30 0 30 130 0 130 0 0 255 0 255 625 0 625 0 0 -540z"/>
<path d="M2810 8220 l0 -2650 520 0 520 0 0 2650 0 2650 -520 0 -520 0 0
-2650z m599 2512 c58 -43 64 -140 12 -193 -76 -75 -204 -30 -217 77 -14 110
115 183 205 116z m91 -2512 l0 -2090 -155 0 -155 0 0 2090 0 2090 155 0 155 0
0 -2090z m-91 -2338 c58 -43 64 -140 12 -193 -76 -75 -204 -30 -217 77 -14
110 115 183 205 116z"/>
<path d="M3285 10731 c-40 -18 -60 -51 -60 -102 0 -40 5 -54 28 -76 23 -23 36
-28 77 -28 41 0 54 5 77 28 23 23 28 36 28 77 0 40 -5 55 -26 76 -28 28 -89
40 -124 25z"/>
<path d="M3210 9085 l0 -1205 135 0 135 0 0 1205 0 1205 -135 0 -135 0 0
-1205z"/>
<path d="M3210 6710 l0 -560 135 0 135 0 0 560 0 560 -135 0 -135 0 0 -560z"/>
<path d="M3285 5881 c-40 -18 -60 -51 -60 -102 0 -40 5 -54 28 -76 23 -23 36
-28 77 -28 41 0 54 5 77 28 23 23 28 36 28 77 0 40 -5 55 -26 76 -28 28 -89
40 -124 25z"/>
<path d="M4580 8220 l0 -2650 525 0 525 0 0 2650 0 2650 -525 0 -525 0 0
-2650z m599 2512 c58 -43 64 -140 12 -193 -76 -75 -204 -30 -217 77 -14 110
115 183 205 116z m91 -2512 l0 -2090 -155 0 -155 0 0 2090 0 2090 155 0 155 0
0 -2090z m-91 -2338 c58 -43 64 -140 12 -193 -76 -75 -204 -30 -217 77 -14
110 115 183 205 116z"/>
<path d="M5055 10731 c-40 -18 -60 -51 -60 -102 0 -40 5 -54 28 -76 23 -23 36
-28 77 -28 41 0 54 5 77 28 23 23 28 36 28 77 0 40 -5 55 -26 76 -28 28 -89
40 -124 25z"/>
<path d="M4980 9085 l0 -1205 135 0 135 0 0 1205 0 1205 -135 0 -135 0 0
-1205z"/>
<path d="M4980 6710 l0 -560 135 0 135 0 0 560 0 560 -135 0 -135 0 0 -560z"/>
<path d="M5055 5881 c-40 -18 -60 -51 -60 -102 0 -40 5 -54 28 -76 23 -23 36
-28 77 -28 41 0 54 5 77 28 23 23 28 36 28 77 0 40 -5 55 -26 76 -28 28 -89
40 -124 25z"/>
<path d="M2650 3515 l0 -165 115 0 115 0 0 -190 0 -190 -115 0 -115 0 0 -165
0 -165 610 0 610 0 0 520 0 520 -610 0 -610 0 0 -165z m844 -5 c43 -16 76 -39
121 -85 83 -82 109 -147 109 -265 0 -118 -26 -183 -109 -265 -82 -83 -147
-109 -265 -109 -118 0 -183 26 -265 109 -104 104 -138 236 -96 373 51 167 206
279 376 269 39 -3 96 -14 129 -27z"/>
<path d="M3230 3498 c-54 -17 -75 -31 -131 -87 -58 -58 -70 -76 -88 -135 -26
-84 -27 -146 -2 -225 45 -146 188 -251 341 -251 153 0 296 105 341 251 25 79
24 141 -2 225 -18 59 -30 77 -88 135 -58 58 -76 70 -135 88 -84 26 -152 26
-236 -1z m256 -39 c62 -30 133 -100 164 -164 20 -41 24 -66 24 -135 0 -102
-24 -160 -94 -230 -70 -70 -128 -94 -230 -94 -102 0 -160 24 -230 94 -70 70
-94 128 -94 230 0 69 4 94 24 135 43 88 132 162 225 186 51 14 158 2 211 -22z"/>
<path d="M3275 3461 c-84 -22 -163 -88 -206 -171 -19 -37 -23 -61 -23 -130 0
-72 4 -92 26 -135 32 -60 87 -115 148 -146 37 -19 61 -23 130 -23 69 0 93 4
130 23 61 31 116 86 148 146 22 43 26 63 26 135 0 69 -4 93 -23 130 -54 105
-148 169 -259 175 -37 2 -80 1 -97 -4z"/>
<path d="M2650 3160 l0 -170 105 0 105 0 0 170 0 170 -105 0 -105 0 0 -170z"/>
<path d="M4600 3160 l0 -520 605 0 605 0 0 165 0 165 -115 0 -115 0 0 190 0
190 115 0 115 0 0 165 0 165 -605 0 -605 0 0 -520z m664 350 c43 -16 76 -39
121 -85 83 -82 109 -147 109 -265 0 -118 -26 -183 -109 -265 -82 -83 -147
-109 -265 -109 -118 0 -183 26 -265 109 -104 104 -138 236 -96 373 51 167 206
279 376 269 39 -3 96 -14 129 -27z"/>
<path d="M5000 3498 c-54 -17 -75 -31 -131 -87 -58 -58 -70 -76 -88 -135 -26
-84 -27 -146 -2 -225 45 -146 188 -251 341 -251 153 0 296 105 341 251 25 79
24 141 -2 225 -18 59 -30 77 -88 135 -58 58 -76 70 -135 88 -84 26 -152 26
-236 -1z m256 -39 c62 -30 133 -100 164 -164 20 -41 24 -66 24 -135 0 -102
-24 -160 -94 -230 -70 -70 -128 -94 -230 -94 -102 0 -160 24 -230 94 -70 70
-94 128 -94 230 0 69 4 94 24 135 43 88 132 162 225 186 51 14 158 2 211 -22z"/>
<path d="M5045 3461 c-84 -22 -163 -88 -206 -171 -19 -37 -23 -61 -23 -130 0
-72 4 -92 26 -135 32 -60 87 -115 148 -146 37 -19 61 -23 130 -23 69 0 93 4
130 23 61 31 116 86 148 146 22 43 26 63 26 135 0 69 -4 93 -23 130 -54 105
-148 169 -259 175 -37 2 -80 1 -97 -4z"/>
<path d="M5600 3160 l0 -170 105 0 105 0 0 170 0 170 -105 0 -105 0 0 -170z"/>
<path d="M2650 1505 l0 -165 115 0 115 0 0 -185 0 -185 -115 0 -115 0 0 -170
0 -170 610 0 610 0 0 520 0 520 -610 0 -610 0 0 -165z m844 -5 c43 -16 76 -39
121 -85 83 -82 109 -147 109 -265 0 -118 -26 -183 -109 -265 -82 -83 -147
-109 -265 -109 -118 0 -183 26 -265 109 -104 104 -138 236 -96 373 51 167 206
279 376 269 39 -3 96 -14 129 -27z"/>
<path d="M3230 1488 c-54 -17 -75 -31 -131 -87 -58 -58 -70 -76 -88 -135 -26
-84 -27 -146 -2 -225 45 -146 188 -251 341 -251 153 0 296 105 341 251 25 79
24 141 -2 225 -18 59 -30 77 -88 135 -58 58 -76 70 -135 88 -84 26 -152 26
-236 -1z m256 -39 c62 -30 133 -100 164 -164 20 -41 24 -66 24 -135 0 -102
-24 -160 -94 -230 -70 -70 -128 -94 -230 -94 -102 0 -160 24 -230 94 -70 70
-94 128 -94 230 0 69 4 94 24 135 43 88 132 162 225 186 51 14 158 2 211 -22z"/>
<path d="M3275 1451 c-84 -22 -163 -88 -206 -171 -19 -37 -23 -61 -23 -130 0
-72 4 -92 26 -135 32 -60 87 -115 148 -146 37 -19 61 -23 130 -23 69 0 93 4
130 23 61 31 116 86 148 146 22 43 26 63 26 135 0 69 -4 93 -23 130 -54 105
-148 169 -259 175 -37 2 -80 1 -97 -4z"/>
<path d="M4600 1150 l0 -520 589 0 c324 0 596 3 605 6 14 5 16 30 16 170 l0
164 -115 0 -115 0 0 185 0 185 115 0 115 0 0 165 0 165 -605 0 -605 0 0 -520z
m664 350 c43 -16 76 -39 121 -85 83 -82 109 -147 109 -265 0 -118 -26 -183
-109 -265 -82 -83 -147 -109 -265 -109 -118 0 -183 26 -265 109 -104 104 -138
236 -96 373 51 167 206 279 376 269 39 -3 96 -14 129 -27z"/>
<path d="M5000 1488 c-54 -17 -75 -31 -131 -87 -58 -58 -70 -76 -88 -135 -26
-84 -27 -146 -2 -225 45 -146 188 -251 341 -251 153 0 296 105 341 251 25 79
24 141 -2 225 -18 59 -30 77 -88 135 -58 58 -76 70 -135 88 -84 26 -152 26
-236 -1z m256 -39 c62 -30 133 -100 164 -164 20 -41 24 -66 24 -135 0 -102
-24 -160 -94 -230 -70 -70 -128 -94 -230 -94 -102 0 -160 24 -230 94 -70 70
-94 128 -94 230 0 69 4 94 24 135 43 88 132 162 225 186 51 14 158 2 211 -22z"/>
<path d="M5045 1451 c-84 -22 -163 -88 -206 -171 -19 -37 -23 -61 -23 -130 0
-72 4 -92 26 -135 32 -60 87 -115 148 -146 37 -19 61 -23 130 -23 69 0 93 4
130 23 61 31 116 86 148 146 22 43 26 63 26 135 0 69 -4 93 -23 130 -54 105
-148 169 -259 175 -37 2 -80 1 -97 -4z"/>
<path d="M2650 1155 l0 -165 105 0 105 0 0 165 0 165 -105 0 -105 0 0 -165z"/>
<path d="M5600 1155 l0 -165 105 0 105 0 0 165 0 165 -105 0 -105 0 0 -165z"/>
</g>
</svg>
